  0
SECTION
  2
HEADER
  9
$ACADVER
  1
AC1012
  9
$DWGCODEPAGE
  3
ansi_932
  9
$INSBASE
 10
0.0
 20
0.0
 30
0.0
  9
$EXTMIN
 10
174.4527296937417
 20
145.2664447403462
 30
0.0
  9
$EXTMAX
 10
206.0527296937417
 20
176.8664447403462
 30
0.0
  9
$LIMMIN
 10
0.0
 20
0.0
  9
$LIMMAX
 10
420.0
 20
297.0
  9
$ORTHOMODE
 70
     0
  9
$REGENMODE
 70
     1
  9
$FILLMODE
 70
     1
  9
$QTEXTMODE
 70
     0
  9
$MIRRTEXT
 70
     0
  9
$DRAGMODE
 70
     2
  9
$LTSCALE
 40
1.0
  9
$OSMODE
 70
   511
  9
$ATTMODE
 70
     1
  9
$TEXTSIZE
 40
2.5
  9
$TRACEWID
 40
1.0
  9
$TEXTSTYLE
  7
STANDARD
  9
$CLAYER
  8
0
  9
$CELTYPE
  6
CONTINUOUS
  9
$CECOLOR
 62
   256
  9
$CELTSCALE
 40
1.0
  9
$DELOBJ
 70
     1
  9
$DISPSILH
 70
     0
  9
$DIMSCALE
 40
1.0
  9
$DIMASZ
 40
2.5
  9
$DIMEXO
 40
0.625
  9
$DIMDLI
 40
3.75
  9
$DIMRND
 40
0.0
  9
$DIMDLE
 40
0.0
  9
$DIMEXE
 40
1.25
  9
$DIMTP
 40
0.0
  9
$DIMTM
 40
0.0
  9
$DIMTXT
 40
2.5
  9
$DIMCEN
 40
2.5
  9
$DIMTSZ
 40
0.0
  9
$DIMTOL
 70
     0
  9
$DIMLIM
 70
     0
  9
$DIMTIH
 70
     0
  9
$DIMTOH
 70
     0
  9
$DIMSE1
 70
     0
  9
$DIMSE2
 70
     0
  9
$DIMTAD
 70
     1
  9
$DIMZIN
 70
     8
  9
$DIMBLK
  1

  9
$DIMASO
 70
     1
  9
$DIMSHO
 70
     1
  9
$DIMPOST
  1

  9
$DIMAPOST
  1

  9
$DIMALT
 70
     0
  9
$DIMALTD
 70
     3
  9
$DIMALTF
 40
0.03937007874016
  9
$DIMLFAC
 40
1.0
  9
$DIMTOFL
 70
     1
  9
$DIMTVP
 40
0.0
  9
$DIMTIX
 70
     0
  9
$DIMSOXD
 70
     0
  9
$DIMSAH
 70
     0
  9
$DIMBLK1
  1

  9
$DIMBLK2
  1

  9
$DIMSTYLE
  2
ISO-25
  9
$DIMCLRD
 70
     0
  9
$DIMCLRE
 70
     0
  9
$DIMCLRT
 70
     0
  9
$DIMTFAC
 40
1.0
  9
$DIMGAP
 40
0.625
  9
$DIMJUST
 70
     0
  9
$DIMSD1
 70
     0
  9
$DIMSD2
 70
     0
  9
$DIMTOLJ
 70
     0
  9
$DIMTZIN
 70
     8
  9
$DIMALTZ
 70
     0
  9
$DIMALTTZ
 70
     0
  9
$DIMFIT
 70
     3
  9
$DIMUPT
 70
     0
  9
$DIMUNIT
 70
     2
  9
$DIMDEC
 70
     2
  9
$DIMTDEC
 70
     2
  9
$DIMALTU
 70
     2
  9
$DIMALTTD
 70
     3
  9
$DIMTXSTY
  7
STANDARD
  9
$DIMAUNIT
 70
     0
  9
$LUNITS
 70
     2
  9
$LUPREC
 70
     3
  9
$SKETCHINC
 40
1.0
  9
$FILLETRAD
 40
10.0
  9
$AUNITS
 70
     0
  9
$AUPREC
 70
     0
  9
$MENU
  1
.
  9
$ELEVATION
 40
0.0
  9
$PELEVATION
 40
0.0
  9
$THICKNESS
 40
0.0
  9
$LIMCHECK
 70
     0
  9
$CHAMFERA
 40
10.0
  9
$CHAMFERB
 40
10.0
  9
$CHAMFERC
 40
20.0
  9
$CHAMFERD
 40
0.0
  9
$SKPOLY
 70
     0
  9
$TDCREATE
 40
2455023.012359514
  9
$TDUPDATE
 40
2457195.650223923
  9
$TDINDWG
 40
0.1238224074
  9
$TDUSRTIMER
 40
2457195.236149583
  9
$USRTIMER
 70
     1
  9
$ANGBASE
 50
0.0
  9
$ANGDIR
 70
     0
  9
$PDMODE
 70
     0
  9
$PDSIZE
 40
0.0
  9
$PLINEWID
 40
0.0
  9
$COORDS
 70
     1
  9
$SPLFRAME
 70
     0
  9
$SPLINETYPE
 70
     6
  9
$SPLINESEGS
 70
     8
  9
$ATTDIA
 70
     0
  9
$ATTREQ
 70
     1
  9
$HANDLING
 70
     1
  9
$HANDSEED
  5
7DD
  9
$SURFTAB1
 70
     6
  9
$SURFTAB2
 70
     6
  9
$SURFTYPE
 70
     6
  9
$SURFU
 70
     6
  9
$SURFV
 70
     6
  9
$UCSNAME
  2

  9
$UCSORG
 10
0.0
 20
0.0
 30
0.0
  9
$UCSXDIR
 10
1.0
 20
0.0
 30
0.0
  9
$UCSYDIR
 10
0.0
 20
1.0
 30
0.0
  9
$PUCSNAME
  2

  9
$PUCSORG
 10
0.0
 20
0.0
 30
0.0
  9
$PUCSXDIR
 10
1.0
 20
0.0
 30
0.0
  9
$PUCSYDIR
 10
0.0
 20
1.0
 30
0.0
  9
$USERI1
 70
     0
  9
$USERI2
 70
     0
  9
$USERI3
 70
     0
  9
$USERI4
 70
     0
  9
$USERI5
 70
     0
  9
$USERR1
 40
0.0
  9
$USERR2
 40
0.0
  9
$USERR3
 40
0.0
  9
$USERR4
 40
0.0
  9
$USERR5
 40
0.0
  9
$WORLDVIEW
 70
     1
  9
$SHADEDGE
 70
     3
  9
$SHADEDIF
 70
    70
  9
$TILEMODE
 70
     1
  9
$MAXACTVP
 70
    64
  9
$PINSBASE
 10
0.0
 20
0.0
 30
0.0
  9
$PLIMCHECK
 70
     0
  9
$PEXTMIN
 10
1.000000000000000E+20
 20
1.000000000000000E+20
 30
1.000000000000000E+20
  9
$PEXTMAX
 10
-1.000000000000000E+20
 20
-1.000000000000000E+20
 30
-1.000000000000000E+20
  9
$PLIMMIN
 10
0.0
 20
0.0
  9
$PLIMMAX
 10
0.0
 20
0.0
  9
$UNITMODE
 70
     0
  9
$VISRETAIN
 70
     1
  9
$PLINEGEN
 70
     0
  9
$PSLTSCALE
 70
     1
  9
$TREEDEPTH
 70
  3020
  9
$PICKSTYLE
 70
     0
  9
$CMLSTYLE
  2
STANDARD
  9
$CMLJUST
 70
     0
  9
$CMLSCALE
 40
20.0
  9
$SAVEIMAGES
 70
     1
  0
ENDSEC
  0
SECTION
  2
CLASSES
  0
CLASS
  1
ACDBDICTIONARYWDFLT
  2
AcDbDictionaryWithDefault
  3
ObjectDBX Classes
 90
    32768
280
     0
281
     0
  0
CLASS
  1
VISUALSTYLE
  2
AcDbVisualStyle
  3
ObjectDBX Classes
 90
     4095
280
     0
281
     0
  0
CLASS
  1
TABLESTYLE
  2
AcDbTableStyle
  3
ObjectDBX Classes
 90
     4095
280
     0
281
     0
  0
CLASS
  1
DICTIONARYVAR
  2
AcDbDictionaryVar
  3
ObjectDBX Classes
 90
        0
280
     0
281
     0
  0
CLASS
  1
SCALE
  2
AcDbScale
  3
ObjectDBX Classes
 90
     1153
280
     0
281
     0
  0
CLASS
  1
CELLSTYLEMAP
  2
AcDbCellStyleMap
  3
ObjectDBX Classes
 90
     1152
280
     0
281
     0
  0
CLASS
  1
RASTERVARIABLES
  2
AcDbRasterVariables
  3
ISM
 90
    32768
280
     0
281
     0
  0
CLASS
  1
MATERIAL
  2
AcDbMaterial
  3
ObjectDBX Classes
 90
     1153
280
     0
281
     0
  0
CLASS
  1
SUN
  2
AcDbSun
  3
SCENEOE
 90
     1153
280
     0
281
     0
  0
CLASS
  1
MLEADERSTYLE
  2
AcDbMLeaderStyle
  3
ACDB_MLEADERSTYLE_CLASS
 90
     4095
280
     0
281
     0
  0
CLASS
  1
XRECORD
  2
AcDbXrecord
  3
ObjectDBX Classes
 90
    32768
280
     0
281
     0
  0
ENDSEC
  0
SECTION
  2
TABLES
  0
TABLE
  2
VPORT
  5
8
330
0
100
AcDbSymbolTable
 70
     1
  0
VPORT
  5
29
330
8
100
AcDbSymbolTableRecord
100
AcDbViewportTableRecord
  2
*ACTIVE
 70
     0
 10
0.0
 20
0.0
 11
1.0
 21
1.0
 12
327.6707490268137
 22
169.1955448345578
 13
0.0
 23
0.0
 14
10.0
 24
10.0
 15
10.0
 25
10.0
 16
0.0
 26
0.0
 36
1.0
 17
-134.1869158878498
 27
0.0
 37
0.0
 40
56.30906242813254
 41
1.133333333333333
 42
50.0
 43
0.0
 44
0.0
 50
0.0
 51
0.0
 71
    16
 72
  1000
 73
     1
 74
     3
 75
     0
 76
     0
 77
     0
 78
     0
  0
ENDTAB
  0
TABLE
  2
LTYPE
  5
5
330
0
100
AcDbSymbolTable
 70
     2
  0
LTYPE
  5
14
330
5
100
AcDbSymbolTableRecord
100
AcDbLinetypeTableRecord
  2
BYBLOCK
 70
     0
  3

 72
    65
 73
     0
 40
0.0
  0
LTYPE
  5
15
330
5
100
AcDbSymbolTableRecord
100
AcDbLinetypeTableRecord
  2
BYLAYER
 70
     0
  3

 72
    65
 73
     0
 40
0.0
  0
LTYPE
  5
16
330
5
100
AcDbSymbolTableRecord
100
AcDbLinetypeTableRecord
  2
CONTINUOUS
 70
     0
  3
Solid line
 72
    65
 73
     0
 40
0.0
  0
LTYPE
  5
B8
330
5
100
AcDbSymbolTableRecord
100
AcDbLinetypeTableRecord
  2
CENTER
 70
     0
  3
 Center _____  _  _____  _  _____  _  _____  _ 
 72
    65
 73
     4
 40
50.8
 49
31.75
 74
     0
 49
-6.35
 74
     0
 49
6.35
 74
     0
 49
-6.35
 74
     0
  0
ENDTAB
  0
TABLE
  2
LAYER
  5
2
330
0
100
AcDbSymbolTable
 70
     1
  0
LAYER
  5
10
330
2
100
AcDbSymbolTableRecord
100
AcDbLayerTableRecord
  2
0
 70
     0
 62
     7
  6
CONTINUOUS
  0
ENDTAB
  0
TABLE
  2
STYLE
  5
3
330
0
100
AcDbSymbolTable
 70
     1
  0
STYLE
  5
11
330
3
100
AcDbSymbolTableRecord
100
AcDbTextStyleTableRecord
  2
STANDARD
 70
     0
 40
0.0
 41
1.0
 50
0.0
 71
     0
 42
2.5
  3
arial.ttf
  4

1001
ACAD
1000
Arial
1071
        0
  0
ENDTAB
  0
TABLE
  2
VIEW
  5
6
330
0
100
AcDbSymbolTable
 70
     0
  0
ENDTAB
  0
TABLE
  2
UCS
  5
7
330
0
100
AcDbSymbolTable
 70
     0
  0
ENDTAB
  0
TABLE
  2
APPID
  5
9
330
0
100
AcDbSymbolTable
 70
     1
  0
APPID
  5
12
330
9
100
AcDbSymbolTableRecord
100
AcDbRegAppTableRecord
  2
ACAD
 70
     0
  0
ENDTAB
  0
TABLE
  2
DIMSTYLE
  5
A
330
0
100
AcDbSymbolTable
 70
     1
  0
DIMSTYLE
105
27
330
A
100
AcDbSymbolTableRecord
100
AcDbDimStyleTableRecord
  2
ISO-25
 70
     0
  3

  4

  5

  6

  7

 40
1.0
 41
2.5
 42
0.625
 43
3.75
 44
1.25
 45
0.0
 46
0.0
 47
0.0
 48
0.0
140
2.5
141
2.5
142
0.0
143
0.03937007874016
144
1.0
145
0.0
146
1.0
147
0.625
 71
     0
 72
     0
 73
     0
 74
     0
 75
     0
 76
     0
 77
     1
 78
     8
170
     0
171
     3
172
     1
173
     0
174
     0
175
     0
176
     0
177
     0
178
     0
270
     2
271
     2
272
     2
273
     2
274
     3
340
11
275
     0
280
     0
281
     0
282
     0
283
     0
284
     8
285
     0
286
     0
287
     3
288
     0
  0
ENDTAB
  0
TABLE
  2
BLOCK_RECORD
  5
1
330
0
100
AcDbSymbolTable
 70
     1
  0
BLOCK_RECORD
  5
1F
330
1
100
AcDbSymbolTableRecord
100
AcDbBlockTableRecord
  2
*MODEL_SPACE
  0
BLOCK_RECORD
  5
1B
330
1
100
AcDbSymbolTableRecord
100
AcDbBlockTableRecord
  2
*PAPER_SPACE
  0
BLOCK_RECORD
  5
23
330
1
100
AcDbSymbolTableRecord
100
AcDbBlockTableRecord
  2
*PAPER_SPACE0
  0
ENDTAB
  0
ENDSEC
  0
SECTION
  2
BLOCKS
  0
BLOCK
  5
20
330
1F
100
AcDbEntity
  8
0
100
AcDbBlockBegin
  2
*MODEL_SPACE
 70
     0
 10
0.0
 20
0.0
 30
0.0
  3
*MODEL_SPACE
  1

  0
ENDBLK
  5
21
330
1F
100
AcDbEntity
  8
0
100
AcDbBlockEnd
  0
BLOCK
  5
1C
330
1B
100
AcDbEntity
 67
     1
  8
0
100
AcDbBlockBegin
  2
*PAPER_SPACE
 70
     0
 10
0.0
 20
0.0
 30
0.0
  3
*PAPER_SPACE
  1

  0
ENDBLK
  5
1D
330
1B
100
AcDbEntity
 67
     1
  8
0
100
AcDbBlockEnd
  0
BLOCK
  5
24
330
23
100
AcDbEntity
  8
0
100
AcDbBlockBegin
  2
*PAPER_SPACE0
 70
     0
 10
0.0
 20
0.0
 30
0.0
  3
*PAPER_SPACE0
  1
*PAPER_SPACE0
  0
ENDBLK
  5
25
330
23
100
AcDbEntity
  8
0
100
AcDbBlockEnd
  0
ENDSEC
  0
SECTION
  2
ENTITIES
  0
CIRCLE
  5
FA
330
1F
100
AcDbEntity
  8
0
  6
CONTINUOUS
100
AcDbCircle
 10
190.2527296937417
 20
161.0664447403462
 30
0.0
 40
15.8
  0
CIRCLE
  5
FD
330
1F
100
AcDbEntity
  8
0
  6
CONTINUOUS
100
AcDbCircle
 10
190.2527296937417
 20
161.0664447403462
 30
0.0
 40
2.0
  0
ARC
  5
5DB
330
1F
100
AcDbEntity
  8
0
  6
CONTINUOUS
100
AcDbCircle
 10
190.2527296937417
 20
161.0664447403462
 30
0.0
 40
13.0
100
AcDbArc
 50
2.810483770613487
 51
4.216707536513551
  0
ARC
  5
5DC
330
1F
100
AcDbEntity
  8
0
  6
CONTINUOUS
100
AcDbCircle
 10
190.2527296937417
 20
161.0664447403462
 30
0.0
 40
15.0
100
AcDbArc
 50
2.810752601198464
 51
4.216979864978494
  0
LINE
  5
5DD
330
1F
100
AcDbEntity
  8
0
  6
CONTINUOUS
100
AcDbLine
 10
177.2527297013492
 20
161.066
 30
0.0
 11
175.2527297003348
 21
161.066
 31
0.0
  0
LINE
  5
5DE
330
1F
100
AcDbEntity
  8
0
  6
CONTINUOUS
100
AcDbLine
 10
205.2482230413846
 20
161.434112063882
 30
0.0
 11
203.2488254029484
 21
161.3850296068105
 31
0.0
  0
LINE
  5
5DF
330
1F
100
AcDbEntity
  8
0
  6
CONTINUOUS
100
AcDbLine
 10
205.2346839767395
 20
161.8020029380189
 30
0.0
 11
203.2370930632572
 21
161.7038675893114
 31
0.0
  0
LINE
  5
5E0
330
1F
100
AcDbEntity
  8
0
  6
CONTINUOUS
100
AcDbLine
 10
205.2121206280924
 20
162.169451029207
 30
0.0
 11
203.2175397136367
 21
162.0223219019266
 31
0.0
  0
LINE
  5
5E1
330
1F
100
AcDbEntity
  8
0
  6
CONTINUOUS
100
AcDbLine
 10
205.1805465657232
 20
162.5362350099375
 30
0.0
 11
203.1901771112558
 21
162.3402007291678
 31
0.0
  0
LINE
  5
5E2
330
1F
100
AcDbEntity
  8
0
  6
CONTINUOUS
100
AcDbLine
 10
205.1399807871888
 20
162.9021339516934
 30
0.0
 11
203.1550217168456
 21
162.6573126011536
 31
0.0
  0
LINE
  5
5E3
330
1F
100
AcDbEntity
  8
0
  6
CONTINUOUS
100
AcDbLine
 10
205.0904477059319
 20
163.266927458008
 30
0.0
 11
203.1120946848355
 21
162.9734665089242
 31
0.0
  0
LINE
  5
5E4
330
1F
100
AcDbEntity
  8
0
  6
CONTINUOUS
100
AcDbLine
 10
205.0319771366269
 20
163.6303957972058
 30
0.0
 11
203.0614218506634
 21
163.2884720194795
 31
0.0
  0
LINE
  5
5E5
330
1F
100
AcDbEntity
  8
0
  6
CONTINUOUS
100
AcDbLine
 10
204.9646042772754
 20
163.9923200347455
 30
0.0
 11
203.0030337152666
 21
163.6021393904741
 31
0.0
  0
LINE
  5
5E6
330
1F
100
AcDbEntity
  8
0
  6
CONTINUOUS
100
AcDbLine
 10
204.8883696880574
 20
164.3524821650856
 30
0.0
 11
202.9369654267634
 21
163.9142796844986
 31
0.0
  0
LINE
  5
5E7
330
1F
100
AcDbEntity
  8
0
  6
CONTINUOUS
100
AcDbLine
 10
204.8033192669546
 20
164.7106652429925
 30
0.0
 11
202.8632567593363
 21
164.224704882878
 31
0.0
  0
LINE
  5
5E8
330
1F
100
AcDbEntity
  8
0
  6
CONTINUOUS
100
AcDbLine
 10
204.7095042221583
 20
165.0666535142135
 30
0.0
 11
202.7819520893283
 21
164.5332279989208
 31
0.0
  0
LINE
  5
5E9
330
1F
100
AcDbEntity
  8
0
  6
CONTINUOUS
100
AcDbLine
 10
204.6069810412786
 20
165.4202325454345
 30
0.0
 11
202.6931003685673
 21
164.8396631905474
 31
0.0
  0
LINE
  5
5EA
330
1F
100
AcDbEntity
  8
0
  6
CONTINUOUS
100
AcDbLine
 10
204.4958114573741
 20
165.771189353445
 30
0.0
 11
202.596755094936
 21
165.1438258722336
 31
0.0
  0
LINE
  5
5EB
330
1F
100
AcDbEntity
  8
0
  6
CONTINUOUS
100
AcDbLine
 10
204.3760624118219
 20
166.119312533432
 30
0.0
 11
202.492974280201
 21
165.4455328261985
 31
0.0
  0
LINE
  5
5EC
330
1F
100
AcDbEntity
  8
0
  6
CONTINUOUS
100
AcDbLine
 10
204.2478060140502
 20
166.4643923863262
 30
0.0
 11
202.3818204151254
 21
165.744602312772
 31
0.0
  0
LINE
  5
5ED
330
1F
100
AcDbEntity
  8
0
  6
CONTINUOUS
100
AcDbLine
 10
204.1111194981568
 20
166.8062210451236
 30
0.0
 11
202.2633604318809
 21
166.0408541798743
 31
0.0
  0
LINE
  5
5EE
330
1F
100
AcDbEntity
  8
0
  6
CONTINUOUS
100
AcDbLine
 10
203.9660851764419
 20
167.1445926001055
 30
0.0
 11
202.137665663786
 21
166.3341099715419
 31
0.0
  0
LINE
  5
5EF
330
1F
100
AcDbEntity
  8
0
  6
CONTINUOUS
100
AcDbLine
 10
203.8127903898801
 20
167.4793032228829
 30
0.0
 11
202.0048118023911
 21
166.6241930354349
 31
0.0
  0
LINE
  5
5F0
330
1F
100
AcDbEntity
  8
0
  6
CONTINUOUS
100
AcDbLine
 10
203.651327455563
 20
167.8101512891899
 30
0.0
 11
201.8648788519391
 21
166.9109286292602
 31
0.0
  0
LINE
  5
5F1
330
1F
100
AcDbEntity
  8
0
  6
CONTINUOUS
100
AcDbLine
 10
203.481793611144
 20
168.1369375003512
 30
0.0
 11
201.7179510812261
 21
167.1941440260464
 31
0.0
  0
LINE
  5
5F2
330
1F
100
AcDbEntity
  8
0
  6
CONTINUOUS
100
AcDbLine
 10
203.3042909563181
 20
168.459465003352
 30
0.0
 11
201.5641169728933
 21
167.4736686182085
 31
0.0
  0
LINE
  5
5F3
330
1F
100
AcDbEntity
  8
0
  6
CONTINUOUS
100
AcDbLine
 10
203.1189263913712
 20
168.7775395094374
 30
0.0
 11
201.4034691701794
 21
167.7493340203369
 31
0.0
  0
LINE
  5
5F4
330
1F
100
AcDbEntity
  8
0
  6
CONTINUOUS
100
AcDbLine
 10
202.925811552838
 20
169.0909694111691
 30
0.0
 11
201.2361044211654
 21
168.020974170652
 31
0.0
  0
LINE
  5
5F5
330
1F
100
AcDbEntity
  8
0
  6
CONTINUOUS
100
AcDbLine
 10
202.725062746304
 20
169.3995658978695
 30
0.0
 11
201.0621235205461
 21
168.28842543106
 31
0.0
  0
LINE
  5
5F6
330
1F
100
AcDbEntity
  8
0
  6
CONTINUOUS
100
AcDbLine
 10
202.5168008763954
 20
169.703143069384
 30
0.0
 11
200.8816312489617
 21
168.5515266857521
 31
0.0
  0
LINE
  5
5F7
330
1F
100
AcDbEntity
  8
0
  6
CONTINUOUS
100
AcDbLine
 10
202.3011513739955
 20
170.0015180480919
 30
0.0
 11
200.6947363099279
 21
168.8101194382866
 31
0.0
  0
LINE
  5
5F8
330
1F
100
AcDbEntity
  8
0
  6
CONTINUOUS
100
AcDbLine
 10
202.0782441207345
 20
170.294511089099
 30
0.0
 11
200.5015512644011
 21
169.0640479070948
 31
0.0
  0
LINE
  5
5F9
330
1F
100
AcDbEntity
  8
0
  6
CONTINUOUS
100
AcDbLine
 10
201.8482133707957
 20
170.581945688545
 30
0.0
 11
200.3021924630178
 21
169.313159119354
 31
0.0
  0
LINE
  5
5FA
330
1F
100
AcDbEntity
  8
0
  6
CONTINUOUS
100
AcDbLine
 10
201.6111976700864
 20
170.8636486899613
 30
0.0
 11
200.0967799760502
 21
169.5573030031711
 31
0.0
  0
LINE
  5
5FB
330
1F
100
AcDbEntity
  8
0
  6
CONTINUOUS
100
AcDbLine
 10
201.3673397728212
 20
171.1394503886134
 30
0.0
 11
199.8854375211189
 21
169.7963324780199
 31
0.0
  0
LINE
  5
5FC
330
1F
100
AcDbEntity
  8
0
  6
CONTINUOUS
100
AcDbLine
 10
201.1167865555695
 20
171.4091846337677
 30
0.0
 11
199.6682923887063
 21
170.0301035433792
 31
0.0
  0
LINE
  5
5FD
330
1F
100
AcDbEntity
  8
0
  6
CONTINUOUS
100
AcDbLine
 10
200.8596889288165
 20
171.6726889288165
 30
0.0
 11
199.4454753655164
 21
170.2584753655164
 31
0.0
  0
LINE
  5
5FE
330
1F
100
AcDbEntity
  8
0
  6
CONTINUOUS
100
AcDbLine
 10
200.5962017460928
 20
171.9298045292067
 30
0.0
 11
199.217120655726
 21
170.4813103623662
 31
0.0
  0
LINE
  5
5FF
330
1F
100
AcDbEntity
  8
0
  6
CONTINUOUS
100
AcDbLine
 10
200.3264837107264
 20
172.1803765381073
 30
0.0
 11
198.983365800175
 21
170.6984742864514
 31
0.0
  0
LINE
  5
600
330
1F
100
AcDbEntity
  8
0
  6
CONTINUOUS
100
AcDbLine
 10
200.0506972802735
 20
172.424253999762
 30
0.0
 11
198.7443515935447
 21
170.9098363057969
 31
0.0
  0
LINE
  5
601
330
1F
100
AcDbEntity
  8
0
  6
CONTINUOUS
100
AcDbLine
 10
199.7690085686857
 20
172.661289990469
 30
0.0
 11
198.5002219995738
 21
171.1152690827874
 31
0.0
  0
LINE
  5
602
330
1F
100
AcDbEntity
  8
0
  6
CONTINUOUS
100
AcDbLine
 10
199.4815872462715
 20
172.8913417071326
 30
0.0
 11
198.2511240643628
 21
171.3146488509217
 31
0.0
  0
LINE
  5
603
330
1F
100
AcDbEntity
  8
0
  6
CONTINUOUS
100
AcDbLine
 10
199.1886064375139
 20
173.1142705533346
 30
0.0
 11
197.9972078278192
 21
171.5078554894162
 31
0.0
  0
LINE
  5
604
330
1F
100
AcDbEntity
  8
0
  6
CONTINUOUS
100
AcDbLine
 10
198.8902426168045
 20
173.3299422228722
 30
0.0
 11
197.7386262332967
 21
171.6947725956148
 31
0.0
  0
LINE
  5
605
330
1F
100
AcDbEntity
  8
0
  6
CONTINUOUS
100
AcDbLine
 10
198.5866755021569
 20
173.5382267807123
 30
0.0
 11
197.4755350354834
 21
171.8752875551579
 31
0.0
  0
LINE
  5
606
330
1F
100
AcDbEntity
  8
0
  6
CONTINUOUS
100
AcDbLine
 10
198.278087946964
 20
173.7389987413137
 30
0.0
 11
197.2080927065932
 21
172.0492916098722
 31
0.0
  0
LINE
  5
607
330
1F
100
AcDbEntity
  8
0
  6
CONTINUOUS
100
AcDbLine
 10
197.9646658298635
 20
173.9321371442698
 30
0.0
 11
196.936460340918
 21
172.2166799233366
 31
0.0
  0
LINE
  5
608
330
1F
100
AcDbEntity
  8
0
  6
CONTINUOUS
100
AcDbLine
 10
182.8596521826706
 20
148.0149159059416
 30
0.0
 11
183.8454485676521
 21
149.7550898890803
 31
0.0
  0
LINE
  5
609
330
1F
100
AcDbEntity
  8
0
  6
CONTINUOUS
100
AcDbLine
 10
183.1821737787322
 20
147.837414577378
 30
0.0
 11
184.1249672528695
 21
149.6012571069825
 31
0.0
  0
LINE
  5
60A
330
1F
100
AcDbEntity
  8
0
  6
CONTINUOUS
100
AcDbLine
 10
183.5089540249946
 20
147.6678817677877
 30
0.0
 11
184.4081766847531
 21
149.4543303710712
 31
0.0
  0
LINE
  5
60B
330
1F
100
AcDbEntity
  8
0
  6
CONTINUOUS
100
AcDbLine
 10
183.8397960828131
 20
147.5064195743732
 30
0.0
 11
184.6949062700876
 21
149.3143981614953
 31
0.0
  0
LINE
  5
60C
330
1F
100
AcDbEntity
  8
0
  6
CONTINUOUS
100
AcDbLine
 10
184.174500667987
 20
147.3531252330032
 30
0.0
 11
184.9849832963765
 21
149.1815447452665
 31
0.0
  0
LINE
  5
60D
330
1F
100
AcDbEntity
  8
0
  6
CONTINUOUS
100
AcDbLine
 10
184.5128661707953
 20
147.2080910596975
 30
0.0
 11
185.2782330358716
 21
149.0558501255555
 31
0.0
  0
LINE
  5
60E
330
1F
100
AcDbEntity
  8
0
  6
CONTINUOUS
100
AcDbLine
 10
184.854688777429
 20
147.0714043950734
 30
0.0
 11
185.5744788508127
 21
148.937389993556
 31
0.0
  0
LINE
  5
60F
330
1F
100
AcDbEntity
  8
0
  6
CONTINUOUS
100
AcDbLine
 10
185.1997625927495
 20
146.9431475517896
 30
0.0
 11
185.8735422998164
 21
148.826235682945
 31
0.0
  0
LINE
  5
610
330
1F
100
AcDbEntity
  8
0
  6
CONTINUOUS
100
AcDbLine
 10
185.5478797642972
 20
146.823397765018
 30
0.0
 11
186.1752432453475
 21
148.7224541269683
 31
0.0
  0
LINE
  5
611
330
1F
100
AcDbEntity
  8
0
  6
CONTINUOUS
100
AcDbLine
 10
185.8988306074776
 20
146.7122271459725
 30
0.0
 11
186.4793999622104
 21
148.6261078181747
 31
0.0
  0
LINE
  5
612
330
1F
100
AcDbEntity
  8
0
  6
CONTINUOUS
100
AcDbLine
 10
186.2524037318471
 20
146.6097026385242
 30
0.0
 11
186.7858292469935
 21
148.5372547708255
 31
0.0
  0
LINE
  5
613
330
1F
100
AcDbEntity
  8
0
  6
CONTINUOUS
100
AcDbLine
 10
186.6083861684248
 20
146.5158859789281
 30
0.0
 11
187.0943465284022
 21
148.4559484859992
 31
0.0
  0
LINE
  5
614
330
1F
100
AcDbEntity
  8
0
  6
CONTINUOUS
100
AcDbLine
 10
186.9665634979524
 20
146.4308336586848
 30
0.0
 11
187.4047659784127
 21
148.3822379194145
 31
0.0
  0
LINE
  5
615
330
1F
100
AcDbEntity
  8
0
  6
CONTINUOUS
100
AcDbLine
 10
187.326719980025
 20
146.3545968905607
 30
0.0
 11
187.7169006241811
 21
148.31616745199
 31
0.0
  0
LINE
  5
616
330
1F
100
AcDbEntity
  8
0
  6
CONTINUOUS
100
AcDbLine
 10
187.6886386830159
 20
146.2872215777874
 30
0.0
 11
188.0305624606393
 21
148.2577768631575
 31
0.0
  0
LINE
  5
617
330
1F
100
AcDbEntity
  8
0
  6
CONTINUOUS
100
AcDbLine
 10
188.0521016147163
 20
146.2287482864553
 30
0.0
 11
188.3455625637103
 21
148.2071013069462
 31
0.0
  0
LINE
  5
618
330
1F
100
AcDbEntity
  8
0
  6
CONTINUOUS
100
AcDbLine
 10
188.4168898536115
 20
146.1792122211239
 30
0.0
 11
188.6617112040753
 21
148.1641712908514
 31
0.0
  0
LINE
  5
619
330
1F
100
AcDbEntity
  8
0
  6
CONTINUOUS
100
AcDbLine
 10
188.782783680715
 20
146.1386432036567
 30
0.0
 11
188.9788179614233
 21
148.1290126574999
 31
0.0
  0
LINE
  5
61A
330
1F
100
AcDbEntity
  8
0
  6
CONTINUOUS
100
AcDbLine
 10
189.1495627118815
 20
146.1070656552995
 30
0.0
 11
189.2966918391153
 21
148.1016465691242
 31
0.0
  0
LINE
  5
61B
330
1F
100
AcDbEntity
  8
0
  6
CONTINUOUS
100
AcDbLine
 10
189.5170060305172
 20
146.0844985820073
 30
0.0
 11
189.6151413791935
 21
148.0820894948536
 31
0.0
  0
LINE
  5
61C
330
1F
100
AcDbEntity
  8
0
  6
CONTINUOUS
100
AcDbLine
 10
189.8848923206103
 20
146.0709555630328
 30
0.0
 11
189.9339747776661
 21
148.0703532008303
 31
0.0
  0
LINE
  5
61D
330
1F
100
AcDbEntity
  8
0
  6
CONTINUOUS
100
AcDbLine
 10
190.253
 20
146.0664447427817
 30
0.0
 11
190.253
 21
148.0664447431564
 31
0.0
  0
LINE
  5
61E
330
1F
100
AcDbEntity
  8
0
  6
CONTINUOUS
100
AcDbLine
 10
190.6211073538036
 20
146.0709688259386
 30
0.0
 11
190.5720248967493
 21
148.0703664636761
 31
0.0
  0
LINE
  5
61F
330
1F
100
AcDbEntity
  8
0
  6
CONTINUOUS
100
AcDbLine
 10
190.9889926679228
 20
146.0845250758689
 30
0.0
 11
190.8908573192525
 21
148.0821159885947
 31
0.0
  0
LINE
  5
620
330
1F
100
AcDbEntity
  8
0
  6
CONTINUOUS
100
AcDbLine
 10
191.3564343625479
 20
146.1071053162923
 30
0.0
 11
191.2093052353274
 21
148.1016862299365
 31
0.0
  0
LINE
  5
621
330
1F
100
AcDbEntity
  8
0
  6
CONTINUOUS
100
AcDbLine
 10
191.7232111255792
 20
146.1386959362358
 30
0.0
 11
191.5271768448946
 21
148.1290653898394
 31
0.0
  0
LINE
  5
622
330
1F
100
AcDbEntity
  8
0
  6
CONTINUOUS
100
AcDbLine
 10
192.0891020458871
 20
146.1792778982543
 30
0.0
 11
191.84428069546
 21
148.1642369676846
 31
0.0
  0
LINE
  5
623
330
1F
100
AcDbEntity
  8
0
  6
CONTINUOUS
100
AcDbLine
 10
192.4538867463283
 20
146.2288267499191
 30
0.0
 11
192.1604257973868
 21
148.2071797700558
 31
0.0
  0
LINE
  5
624
330
1F
100
AcDbEntity
  8
0
  6
CONTINUOUS
100
AcDbLine
 10
192.8173455164406
 20
146.2873126385628
 30
0.0
 11
192.4754217388883
 21
148.2578679235237
 31
0.0
  0
LINE
  5
625
330
1F
100
AcDbEntity
  8
0
  6
CONTINUOUS
100
AcDbLine
 10
193.1792594447346
 20
146.3547003292795
 30
0.0
 11
192.7890788006705
 21
148.3162708902459
 31
0.0
  0
LINE
  5
626
330
1F
100
AcDbEntity
  8
0
  6
CONTINUOUS
100
AcDbLine
 10
193.5394105505034
 20
146.430949226159
 30
0.0
 11
193.1012080701587
 21
148.3823534863743
 31
0.0
  0
LINE
  5
627
330
1F
100
AcDbEntity
  8
0
  6
CONTINUOUS
100
AcDbLine
 10
193.8975819150719
 20
146.5160133967515
 30
0.0
 11
193.4116215552358
 21
148.4560759032587
 31
0.0
  0
LINE
  5
628
330
1F
100
AcDbEntity
  8
0
  6
CONTINUOUS
100
AcDbLine
 10
194.2535578124047
 20
146.6098415997424
 30
0.0
 11
193.7201322974274
 21
148.5373937314328
 31
0.0
  0
LINE
  5
629
330
1F
100
AcDbEntity
  8
0
  6
CONTINUOUS
100
AcDbLine
 10
194.6071238389964
 20
146.7123773158225
 30
0.0
 11
194.0265544844624
 21
148.6262579873693
 31
0.0
  0
LINE
  5
62A
330
1F
100
AcDbEntity
  8
0
  6
CONTINUOUS
100
AcDbLine
 10
194.9580670429645
 20
146.8235587817348
 30
0.0
 11
194.3307035621446
 21
148.7226151429877
 31
0.0
  0
LINE
  5
62B
330
1F
100
AcDbEntity
  8
0
  6
CONTINUOUS
100
AcDbLine
 10
195.3061760522683
 20
146.9433190274774
 30
0.0
 11
194.6323963454649
 21
148.8264071578964
 31
0.0
  0
LINE
  5
62C
330
1F
100
AcDbEntity
  8
0
  6
CONTINUOUS
100
AcDbLine
 10
195.6512412019759
 20
147.0715859166402
 30
0.0
 11
194.9314511288903
 21
148.9375715143503
 31
0.0
  0
LINE
  5
62D
330
1F
100
AcDbEntity
  8
0
  6
CONTINUOUS
100
AcDbLine
 10
195.9930546605033
 20
147.20828218985
 30
0.0
 11
195.2276877957607
 21
149.0560412549026
 31
0.0
  0
LINE
  5
62E
330
1F
100
AcDbEntity
  8
0
  6
CONTINUOUS
100
AcDbLine
 10
196.3314105547494
 20
147.3533255113006
 30
0.0
 11
195.5209279267301
 21
149.1817450227287
 31
0.0
  0
LINE
  5
62F
330
1F
100
AcDbEntity
  8
0
  6
CONTINUOUS
100
AcDbLine
 10
196.6661050940523
 20
147.506628518336
 30
0.0
 11
195.8109949071853
 21
149.3146071045965
 31
0.0
  0
LINE
  5
630
330
1F
100
AcDbEntity
  8
0
  6
CONTINUOUS
100
AcDbLine
 10
196.9969366928914
 20
147.6680988740603
 30
0.0
 11
196.0977140335782
 21
149.4545474764592
 31
0.0
  0
LINE
  5
631
330
1F
100
AcDbEntity
  8
0
  6
CONTINUOUS
100
AcDbLine
 10
197.3237060922617
 20
147.8376393229408
 30
0.0
 11
196.3809126186077
 21
149.6014818516413
 31
0.0
  0
LINE
  5
632
330
1F
100
AcDbEntity
  8
0
  6
CONTINUOUS
100
AcDbLine
 10
197.6462164796485
 20
148.0151477493716
 30
0.0
 11
196.6604200951883
 21
149.7553217315902
 31
0.0
  0
LINE
  5
633
330
1F
100
AcDbEntity
  8
0
  6
CONTINUOUS
100
AcDbLine
 10
197.9642736075288
 20
148.2005172391618
 30
0.0
 11
196.9360681191424
 21
149.9159744591624
 31
0.0
  0
LINE
  5
634
330
1F
100
AcDbEntity
  8
0
  6
CONTINUOUS
100
AcDbLine
 10
198.2776859103288
 20
148.3936361439119
 30
0.0
 11
197.2076906705544
 21
150.0833432744117
 31
0.0
  0
LINE
  5
635
330
1F
100
AcDbEntity
  8
0
  6
CONTINUOUS
100
AcDbLine
 10
198.5862646197675
 20
148.5943881482395
 30
0.0
 11
197.4751241537268
 21
150.2573273728468
 31
0.0
  0
LINE
  5
636
330
1F
100
AcDbEntity
  8
0
  6
CONTINUOUS
100
AcDbLine
 10
198.889823878516
 20
148.8026523398146
 30
0.0
 11
197.7382074956767
 21
150.4378219661229
 31
0.0
  0
LINE
  5
637
330
1F
100
AcDbEntity
  8
0
  6
CONTINUOUS
100
AcDbLine
 10
199.1881808521063
 20
149.0183032821593
 30
0.0
 11
197.9967822431145
 21
150.62471834513
 31
0.0
  0
LINE
  5
638
330
1F
100
AcDbEntity
  8
0
  6
CONTINUOUS
100
AcDbLine
 10
199.4811558390191
 20
149.2412110901741
 30
0.0
 11
198.2506926578463
 21
150.8179039454422
 31
0.0
  0
LINE
  5
639
330
1F
100
AcDbEntity
  8
0
  6
CONTINUOUS
100
AcDbLine
 10
199.7685723788871
 20
149.4712415083384
 30
0.0
 11
198.4997858105424
 21
151.0172624150851
 31
0.0
  0
LINE
  5
63A
330
1F
100
AcDbEntity
  8
0
  6
CONTINUOUS
100
AcDbLine
 10
200.0502573587482
 20
149.7082559915433
 30
0.0
 11
198.743911672816
 21
151.2226736845849
 31
0.0
  0
LINE
  5
63B
330
1F
100
AcDbEntity
  8
0
  6
CONTINUOUS
100
AcDbLine
 10
200.3260411172827
 20
149.9521117885061
 30
0.0
 11
198.9829232075554
 21
151.4340140392528
 31
0.0
  0
LINE
  5
63C
330
1F
100
AcDbEntity
  8
0
  6
CONTINUOUS
100
AcDbLine
 10
200.5957575469754
 20
150.2026620277165
 30
0.0
 11
199.2166764574578
 21
151.6511561936651
 31
0.0
  0
LINE
  5
63D
330
1F
100
AcDbEntity
  8
0
  6
CONTINUOUS
100
AcDbLine
 10
200.8592441941374
 20
150.4597558058626
 30
0.0
 11
199.4450306317091
 21
151.8739693682909
 31
0.0
  0
LINE
  5
63E
330
1F
100
AcDbEntity
  8
0
  6
CONTINUOUS
100
AcDbLine
 10
201.11634235673
 20
150.7232382786845
 30
0.0
 11
199.6678481907587
 21
152.1023193682237
 31
0.0
  0
LINE
  5
63F
330
1F
100
AcDbEntity
  8
0
  6
CONTINUOUS
100
AcDbLine
 10
201.3668971799311
 20
150.9929507541996
 30
0.0
 11
199.8849949291379
 21
152.3360686639691
 31
0.0
  0
LINE
  5
640
330
1F
100
AcDbEntity
  8
0
  6
CONTINUOUS
100
AcDbLine
 10
201.6107577493858
 20
151.2687307882448
 30
0.0
 11
200.0963400562732
 21
152.5750764742384
 31
0.0
  0
LINE
  5
641
330
1F
100
AcDbEntity
  8
0
  6
CONTINUOUS
100
AcDbLine
 10
201.8477771820868
 20
151.5504122822773
 30
0.0
 11
200.3017562752437
 21
152.8191988507011
 31
0.0
  0
LINE
  5
642
330
1F
100
AcDbEntity
  8
0
  6
CONTINUOUS
100
AcDbLine
 10
202.077812714828
 20
151.8378255833749
 30
0.0
 11
200.5011198594374
 21
153.0682887646433
 31
0.0
  0
LINE
  5
643
330
1F
100
AcDbEntity
  8
0
  6
CONTINUOUS
100
AcDbLine
 10
202.3007257901793
 20
152.1307975863778
 30
0.0
 11
200.6943107270595
 21
153.3221961954802
 31
0.0
  0
LINE
  5
644
330
1F
100
AcDbEntity
  8
0
  6
CONTINUOUS
100
AcDbLine
 10
202.5163821399313
 20
152.4291518381072
 30
0.0
 11
200.8812125134468
 21
153.5807682210706
 31
0.0
  0
LINE
  5
645
330
1F
100
AcDbEntity
  8
0
  6
CONTINUOUS
100
AcDbLine
 10
202.7246518659574
 20
152.7327086436009
 30
0.0
 11
201.0617126411466
 21
153.8438491097775
 31
0.0
  0
LINE
  5
646
330
1F
100
AcDbEntity
  8
0
  6
CONTINUOUS
100
AcDbLine
 10
202.9254095184477
 20
153.0412851743008
 30
0.0
 11
201.2357023877169
 21
154.1112804142216
 31
0.0
  0
LINE
  5
647
330
1F
100
AcDbEntity
  8
0
  6
CONTINUOUS
100
AcDbLine
 10
203.1185341714653
 20
153.3546955781271
 30
0.0
 11
201.4030769512061
 21
154.3829010666686
 31
0.0
  0
LINE
  5
648
330
1F
100
AcDbEntity
  8
0
  6
CONTINUOUS
100
AcDbLine
 10
203.3039094957803
 20
153.6727510913734
 30
0.0
 11
201.5637355132756
 21
154.6585474759957
 31
0.0
  0
LINE
  5
649
330
1F
100
AcDbEntity
  8
0
  6
CONTINUOUS
100
AcDbLine
 10
203.4814238289377
 20
153.995260152356
 30
0.0
 11
201.7175812999239
 21
154.9380536261775
 31
0.0
  0
LINE
  5
64A
330
1F
100
AcDbEntity
  8
0
  6
CONTINUOUS
100
AcDbLine
 10
203.6509702425173
 20
154.3220285167471
 30
0.0
 11
201.864521639778
 21
155.2212511762316
 31
0.0
  0
LINE
  5
64B
330
1F
100
AcDbEntity
  8
0
  6
CONTINUOUS
100
AcDbLine
 10
203.8124466065439
 20
154.6528593745257
 30
0.0
 11
202.0044680199165
 21
155.5079695615661
 31
0.0
  0
LINE
  5
64C
330
1F
100
AcDbEntity
  8
0
  6
CONTINUOUS
100
AcDbLine
 10
203.9657556510108
 20
154.9875534684722
 30
0.0
 11
202.13733613919
 21
155.7980360966656
 31
0.0
  0
LINE
  5
64D
330
1F
100
AcDbEntity
  8
0
  6
CONTINUOUS
100
AcDbLine
 10
204.1108050244778
 20
155.3259092141392
 30
0.0
 11
202.2630459590074
 21
156.0912760790549
 31
0.0
  0
LINE
  5
64E
330
1F
100
AcDbEntity
  8
0
  6
CONTINUOUS
100
AcDbLine
 10
204.2475073497096
 20
155.667722821223
 30
0.0
 11
202.3815217515573
 21
156.3875128944792
 31
0.0
  0
LINE
  5
64F
330
1F
100
AcDbEntity
  8
0
  6
CONTINUOUS
100
AcDbLine
 10
204.3757802763202
 20
156.0127884162647
 30
0.0
 11
202.4926921454357
 21
156.6865681232347
 31
0.0
  0
LINE
  5
650
330
1F
100
AcDbEntity
  8
0
  6
CONTINUOUS
100
AcDbLine
 10
204.4955465303924
 20
156.360898166608
 30
0.0
 11
202.5964901686517
 21
156.988261647589
 31
0.0
  0
LINE
  5
651
330
1F
100
AcDbEntity
  8
0
  6
CONTINUOUS
100
AcDbLine
 10
204.6067339610417
 20
156.7118424055359
 30
0.0
 11
202.6928532889859
 21
157.2924117602242
 31
0.0
  0
LINE
  5
652
330
1F
100
AcDbEntity
  8
0
  6
CONTINUOUS
100
AcDbLine
 10
204.7092755838969
 20
157.0654097585148
 30
0.0
 11
202.7817234516777
 21
157.5988352736385
 31
0.0
  0
LINE
  5
653
330
1F
100
AcDbEntity
  8
0
  6
CONTINUOUS
100
AcDbLine
 10
204.8031096214714
 20
157.4213872704674
 30
0.0
 11
202.863047114417
 21
157.9073476304406
 31
0.0
  0
LINE
  5
654
330
1F
100
AcDbEntity
  8
0
  6
CONTINUOUS
100
AcDbLine
 10
204.8881795404005
 20
157.7795605339986
 30
0.0
 11
202.9367752796209
 21
158.2177630144702
 31
0.0
  0
LINE
  5
655
330
1F
100
AcDbEntity
  8
0
  6
CONTINUOUS
100
AcDbLine
 10
204.9644340855212
 20
158.1397138184992
 30
0.0
 11
203.0028635239752
 21
158.5298944626785
 31
0.0
  0
LINE
  5
656
330
1F
100
AcDbEntity
  8
0
  6
CONTINUOUS
100
AcDbLine
 10
205.0318273107771
 20
158.5016302000453
 30
0.0
 11
203.0612720252229
 21
158.8435539777006
 31
0.0
  0
LINE
  5
657
330
1F
100
AcDbEntity
  8
0
  6
CONTINUOUS
100
AcDbLine
 10
205.0903186069253
 20
158.8650916920207
 30
0.0
 11
203.111965586183
 21
159.1585526410519
 31
0.0
  0
LINE
  5
658
330
1F
100
AcDbEntity
  8
0
  6
CONTINUOUS
100
AcDbLine
 10
205.1398727260323
 20
159.229879376379
 30
0.0
 11
203.1549136559863
 21
159.4747007268821
 31
0.0
  0
LINE
  5
659
330
1F
100
AcDbEntity
  8
0
  6
CONTINUOUS
100
AcDbLine
 10
205.1804598027418
 20
159.5957735354703
 30
0.0
 11
203.1900903485138
 21
159.7918078162164
 31
0.0
  0
LINE
  5
65A
330
1F
100
AcDbEntity
  8
0
  6
CONTINUOUS
100
AcDbLine
 10
205.2120553723032
 20
159.9625537843492
 30
0.0
 11
203.2174744580279
 21
160.1096829116163
 31
0.0
  0
LINE
  5
65B
330
1F
100
AcDbEntity
  8
0
  6
CONTINUOUS
100
AcDbLine
 10
205.2346403853472
 20
160.3299992034889
 30
0.0
 11
203.2370494719856
 21
160.4281345521904
 31
0.0
  0
LINE
  5
65C
330
1F
100
AcDbEntity
  8
0
  6
CONTINUOUS
100
AcDbLine
 10
205.2482012194033
 20
160.6978884718176
 30
0.0
 11
203.2488035810275
 21
160.7469709288875
 31
0.0
  0
LINE
  5
65D
330
1F
100
AcDbEntity
  8
0
  6
CONTINUOUS
100
AcDbLine
 10
180.4089100485995
 20
169.557570389747
 30
0.0
 11
178.8944923554871
 21
170.8639160757404
 31
0.0
  0
LINE
  5
65E
330
1F
100
AcDbEntity
  8
0
  6
CONTINUOUS
100
AcDbLine
 10
180.2034844895779
 20
169.313424237507
 30
0.0
 11
178.6574635827349
 21
170.5822108059308
 31
0.0
  0
LINE
  5
65F
330
1F
100
AcDbEntity
  8
0
  6
CONTINUOUS
100
AcDbLine
 10
180.6202656711575
 20
169.7966014888599
 30
0.0
 11
179.1383634203644
 21
171.1397193986294
 31
0.0
  0
LINE
  5
660
330
1F
100
AcDbEntity
  8
0
  6
CONTINUOUS
100
AcDbLine
 10
180.8374240350466
 20
170.0303735304105
 30
0.0
 11
179.3889298690752
 21
171.4094546199499
 31
0.0
  0
LINE
  5
661
330
1F
100
AcDbEntity
  8
0
  6
CONTINUOUS
100
AcDbLine
 10
180.0041127432057
 20
169.064310118132
 30
0.0
 11
178.4274198878152
 21
170.2947732994004
 31
0.0
  0
LINE
  5
662
330
1F
100
AcDbEntity
  8
0
  6
CONTINUOUS
100
AcDbLine
 10
179.8109149109411
 20
168.8103781105196
 30
0.0
 11
178.2044998478212
 21
170.0017767196221
 31
0.0
  0
LINE
  5
663
330
1F
100
AcDbEntity
  8
0
  6
CONTINUOUS
100
AcDbLine
 10
179.6240073742257
 20
168.5517811960189
 30
0.0
 11
177.9888377477411
 21
169.7033975789823
 31
0.0
  0
LINE
  5
664
330
1F
100
AcDbEntity
  8
0
  6
CONTINUOUS
100
AcDbLine
 10
179.4435027243652
 20
168.288675166226
 30
0.0
 11
177.7805634995545
 21
169.3998156324026
 31
0.0
  0
LINE
  5
665
330
1F
100
AcDbEntity
  8
0
  6
CONTINUOUS
100
AcDbLine
 10
179.2695096946962
 20
168.0212185290877
 30
0.0
 11
177.5798025639652
 21
169.0912137690085
 31
0.0
  0
LINE
  5
666
330
1F
100
AcDbEntity
  8
0
  6
CONTINUOUS
100
AcDbLine
 10
179.1021330950791
 20
167.7495724133667
 30
0.0
 11
177.38667587482
 21
168.7777779019082
 31
0.0
  0
LINE
  5
667
330
1F
100
AcDbEntity
  8
0
  6
CONTINUOUS
100
AcDbLine
 10
178.941473748758
 20
167.4739004715292
 30
0.0
 11
177.2012997662532
 21
168.4596968561515
 31
0.0
  0
LINE
  5
668
330
1F
100
AcDbEntity
  8
0
  6
CONTINUOUS
100
AcDbLine
 10
178.7876284316237
 20
167.1943687811107
 30
0.0
 11
177.0237859026097
 21
168.1371622549323
 31
0.0
  0
LINE
  5
669
330
1F
100
AcDbEntity
  8
0
  6
CONTINUOUS
100
AcDbLine
 10
178.640689813918
 20
166.9111457446222
 30
0.0
 11
176.8542412111787
 21
167.8103684041067
 31
0.0
  0
LINE
  5
66A
330
1F
100
AcDbEntity
  8
0
  6
CONTINUOUS
100
AcDbLine
 10
178.5007464044136
 20
166.6244019880545
 30
0.0
 11
176.6927678177862
 21
167.479512175095
 31
0.0
  0
LINE
  5
66B
330
1F
100
AcDbEntity
  8
0
  6
CONTINUOUS
100
AcDbLine
 10
178.3678824971034
 20
166.3343102580448
 30
0.0
 11
176.5394629852827
 21
167.1447928862381
 31
0.0
  0
LINE
  5
66C
330
1F
100
AcDbEntity
  8
0
  6
CONTINUOUS
100
AcDbLine
 10
178.2421781204314
 20
166.0410453177648
 30
0.0
 11
176.3944190549611
 21
166.8064121826804
 31
0.0
  0
LINE
  5
66D
330
1F
100
AcDbEntity
  8
0
  6
CONTINUOUS
100
AcDbLine
 10
178.123708989096
 20
165.7447838415953
 30
0.0
 11
176.2577233909439
 21
166.4645739148515
 31
0.0
  0
LINE
  5
66E
330
1F
100
AcDbEntity
  8
0
  6
CONTINUOUS
100
AcDbLine
 10
178.0125464584539
 20
165.4457043086498
 30
0.0
 11
176.1294583275694
 21
166.1194840156198
 31
0.0
  0
LINE
  5
66F
330
1F
100
AcDbEntity
  8
0
  6
CONTINUOUS
100
AcDbLine
 10
177.9087574815527
 20
165.1439868952116
 30
0.0
 11
176.009701119812
 21
165.7713503761927
 31
0.0
  0
LINE
  5
670
330
1F
100
AcDbEntity
  8
0
  6
CONTINUOUS
100
AcDbLine
 10
177.8124045688182
 20
164.8398133661497
 30
0.0
 11
175.8985238967626
 21
165.4203827208379
 31
0.0
  0
LINE
  5
671
330
1F
100
AcDbEntity
  8
0
  6
CONTINUOUS
100
AcDbLine
 10
177.7235457504204
 20
164.5333669653779
 30
0.0
 11
175.7959936182012
 21
165.0667924805015
 31
0.0
  0
LINE
  5
672
330
1F
100
AcDbEntity
  8
0
  6
CONTINUOUS
100
AcDbLine
 10
177.6422345413397
 20
164.2248323054253
 30
0.0
 11
175.7021720342853
 21
164.7107926653985
 31
0.0
  0
LINE
  5
673
330
1F
100
AcDbEntity
  8
0
  6
CONTINUOUS
100
AcDbLine
 10
177.5685199091572
 20
163.9143952561824
 30
0.0
 11
175.6171156483776
 21
164.3525977366538
 31
0.0
  0
LINE
  5
674
330
1F
100
AcDbEntity
  8
0
  6
CONTINUOUS
100
AcDbLine
 10
177.5024462445848
 20
163.6022428328912
 30
0.0
 11
175.5408756830388
 21
163.9924234770706
 31
0.0
  0
LINE
  5
675
330
1F
100
AcDbEntity
  8
0
  6
CONTINUOUS
100
AcDbLine
 10
177.4440533347556
 20
163.2885630834478
 30
0.0
 11
175.4734980492013
 21
163.6304868611031
 31
0.0
  0
LINE
  5
676
330
1F
100
AcDbEntity
  8
0
  6
CONTINUOUS
100
AcDbLine
 10
177.3933763392893
 20
162.9735449750831
 30
0.0
 11
175.415023318547
 21
163.2670059241143
 31
0.0
  0
LINE
  5
677
330
1F
100
AcDbEntity
  8
0
  6
CONTINUOUS
100
AcDbLine
 10
177.3504457691476
 20
162.6573782804919
 30
0.0
 11
175.3654866991016
 21
162.902199630995
 31
0.0
  0
LINE
  5
678
330
1F
100
AcDbEntity
  8
0
  6
CONTINUOUS
100
AcDbLine
 10
177.3152874682912
 20
162.3402534634796
 30
0.0
 11
175.3249180140632
 21
162.5362877442257
 31
0.0
  0
LINE
  5
679
330
1F
100
AcDbEntity
  8
0
  6
CONTINUOUS
100
AcDbLine
 10
177.2879225981507
 20
162.022361564192
 30
0.0
 11
175.2933416838753
 21
162.169490691459
 31
0.0
  0
LINE
  5
67A
330
1F
100
AcDbEntity
  8
0
  6
CONTINUOUS
100
AcDbLine
 10
177.2683676249194
 20
161.7038940840023
 30
0.0
 11
175.2707767115578
 21
161.8020294327039
 31
0.0
  0
LINE
  5
67B
330
1F
100
AcDbEntity
  8
0
  6
CONTINUOUS
100
AcDbLine
 10
181.0602543216864
 20
170.2587456783136
 30
0.0
 11
179.6460407592581
 21
171.6729592407418
 31
0.0
  0
LINE
  5
67C
330
1F
100
AcDbEntity
  8
0
  6
CONTINUOUS
100
AcDbLine
 10
181.2886222949464
 20
170.4815803497181
 30
0.0
 11
179.9095412054287
 21
171.9300745156668
 31
0.0
  0
LINE
  5
67D
330
1F
100
AcDbEntity
  8
0
  6
CONTINUOUS
100
AcDbLine
 10
181.5223903820329
 20
170.69874329793
 30
0.0
 11
180.1792724723056
 21
172.1806455486767
 31
0.0
  0
LINE
  5
67E
330
1F
100
AcDbEntity
  8
0
  6
CONTINUOUS
100
AcDbLine
 10
181.7614177563878
 20
170.9101036933245
 30
0.0
 11
180.4550720704557
 21
172.4245213863659
 31
0.0
  0
LINE
  5
67F
330
1F
100
AcDbEntity
  8
0
  6
CONTINUOUS
100
AcDbLine
 10
182.0055604225491
 20
171.1155342021978
 30
0.0
 11
180.7367738542045
 21
172.6615551089443
 31
0.0
  0
LINE
  5
680
330
1F
100
AcDbEntity
  8
0
  6
CONTINUOUS
100
AcDbLine
 10
182.2546713029234
 20
171.3149110635118
 30
0.0
 11
181.0242081217506
 21
172.8916039187797
 31
0.0
  0
LINE
  5
681
330
1F
100
AcDbEntity
  8
0
  6
CONTINUOUS
100
AcDbLine
 10
182.508600326416
 20
171.5081141634855
 30
0.0
 11
181.3172017174241
 21
173.1145292264563
 31
0.0
  0
LINE
  5
682
330
1F
100
AcDbEntity
  8
0
  6
CONTINUOUS
100
AcDbLine
 10
182.7671945188672
 20
171.6950271079866
 30
0.0
 11
181.6155781360279
 21
173.330196734295
 31
0.0
  0
LINE
  5
683
330
1F
100
AcDbEntity
  8
0
  6
CONTINUOUS
100
AcDbLine
 10
183.0302980952385
 20
171.8755372926811
 30
0.0
 11
181.9191576291979
 21
173.5384765172883
 31
0.0
  0
LINE
  5
684
330
1F
100
AcDbEntity
  8
0
  6
CONTINUOUS
100
AcDbLine
 10
183.2977525534936
 20
172.0495359708981
 30
0.0
 11
182.2277573137192
 21
173.739243101398
 31
0.0
  0
LINE
  5
685
330
1F
100
AcDbEntity
  8
0
  6
CONTINUOUS
100
AcDbLine
 10
183.569396770119
 20
172.2169183191688
 30
0.0
 11
182.5411912817326
 21
173.9323755391693
 31
0.0
  0
LINE
  5
686
330
1F
100
AcDbEntity
  8
0
  6
CONTINUOUS
100
AcDbLine
 10
183.8450670972236
 20
172.3775835003996
 30
0.0
 11
182.8592707127633
 21
174.1177574826183
 31
0.0
  0
LINE
  5
687
330
1F
100
AcDbEntity
  8
0
  6
CONTINUOUS
100
AcDbLine
 10
184.1245974611617
 20
172.5314347246425
 30
0.0
 11
183.1818039875077
 21
174.295277253343
 31
0.0
  0
LINE
  5
688
330
1F
100
AcDbEntity
  8
0
  6
CONTINUOUS
100
AcDbLine
 10
184.4078194626179
 20
172.6783793074243
 30
0.0
 11
183.5085968033047
 21
174.4648279098233
 31
0.0
  0
LINE
  5
689
330
1F
100
AcDbEntity
  8
0
  6
CONTINUOUS
100
AcDbLine
 10
184.6945624780946
 20
172.8183287256017
 30
0.0
 11
183.8394522912276
 21
174.6263073118623
 31
0.0
  0
LINE
  5
68A
330
1F
100
AcDbEntity
  8
0
  6
CONTINUOUS
100
AcDbLine
 10
184.9846537627399
 20
172.9511986707058
 30
0.0
 11
184.1741711347206
 21
174.7796181821338
 31
0.0
  0
LINE
  5
68B
330
1F
100
AcDbEntity
  8
0
  6
CONTINUOUS
100
AcDbLine
 10
185.2779185544546
 20
173.0769090997465
 30
0.0
 11
184.512551689712
 21
174.9246681647989
 31
0.0
  0
LINE
  5
68C
330
1F
100
AcDbEntity
  8
0
  6
CONTINUOUS
100
AcDbLine
 10
185.5741801792156
 20
173.1953842834442
 30
0.0
 11
184.85439010613
 21
175.0613698811542
 31
0.0
  0
LINE
  5
68D
330
1F
100
AcDbEntity
  8
0
  6
CONTINUOUS
100
AcDbLine
 10
194.9317497960174
 20
173.1952027510619
 30
0.0
 11
195.6515398694009
 21
175.0611883495444
 31
0.0
  0
LINE
  5
68E
330
1F
100
AcDbEntity
  8
0
  6
CONTINUOUS
100
AcDbLine
 10
194.6326784837774
 20
173.3063813658629
 30
0.0
 11
195.3064581908443
 21
175.1894694970183
 31
0.0
  0
LINE
  5
68F
330
1F
100
AcDbEntity
  8
0
  6
CONTINUOUS
100
AcDbLine
 10
194.3309684919315
 20
173.4101868109234
 30
0.0
 11
194.9583319729818
 21
175.3092431728738
 31
0.0
  0
LINE
  5
690
330
1F
100
AcDbEntity
  8
0
  6
CONTINUOUS
100
AcDbLine
 10
193.7203609383918
 20
173.5954324708505
 30
0.0
 11
194.2537864535382
 21
175.5229846031518
 31
0.0
  0
LINE
  5
691
330
1F
100
AcDbEntity
  8
0
  6
CONTINUOUS
100
AcDbLine
 10
193.1013982202926
 20
173.7504932906253
 30
0.0
 11
193.5396007007529
 21
175.7018975513551
 31
0.0
  0
LINE
  5
692
330
1F
100
AcDbEntity
  8
0
  6
CONTINUOUS
100
AcDbLine
 10
190.5720467191126
 20
174.0625224808534
 30
0.0
 11
190.6211291761684
 21
176.0619201186511
 31
0.0
  0
LINE
  5
693
330
1F
100
AcDbEntity
  8
0
  6
CONTINUOUS
100
AcDbLine
 10
190.8909009113849
 20
174.050771349646
 30
0.0
 11
190.9890362600612
 21
176.0483622624925
 31
0.0
  0
LINE
  5
694
330
1F
100
AcDbEntity
  8
0
  6
CONTINUOUS
100
AcDbLine
 10
191.2093704921896
 20
174.03119843576
 30
0.0
 11
191.3564996194234
 21
176.0257793495847
 31
0.0
  0
LINE
  5
695
330
1F
100
AcDbEntity
  8
0
  6
CONTINUOUS
100
AcDbLine
 10
189.9339529552805
 20
174.0625357446065
 30
0.0
 11
189.8848704982262
 21
176.0619333823437
 31
0.0
  0
LINE
  5
696
330
1F
100
AcDbEntity
  8
0
  6
CONTINUOUS
100
AcDbLine
 10
189.6150977869721
 20
174.0507978451978
 30
0.0
 11
189.5169624383017
 21
176.0483887579235
 31
0.0
  0
LINE
  5
697
330
1F
100
AcDbEntity
  8
0
  6
CONTINUOUS
100
AcDbLine
 10
189.2966265820535
 20
174.0312380992787
 30
0.0
 11
189.149497454833
 21
176.025819012923
 31
0.0
  0
LINE
  5
698
330
1F
100
AcDbEntity
  8
0
  6
CONTINUOUS
100
AcDbLine
 10
188.9787311967091
 20
174.0038682794269
 30
0.0
 11
188.7826969160244
 21
175.9942377330305
 31
0.0
  0
LINE
  5
699
330
1F
100
AcDbEntity
  8
0
  6
CONTINUOUS
100
AcDbLine
 10
185.8732601575512
 20
173.3065528518613
 30
0.0
 11
185.1994804507478
 21
175.1896409822803
 31
0.0
  0
LINE
  5
69A
330
1F
100
AcDbEntity
  8
0
  6
CONTINUOUS
100
AcDbLine
 10
186.1749783121046
 20
173.4103478374041
 30
0.0
 11
185.5476148312848
 21
175.309404198657
 31
0.0
  0
LINE
  5
69B
330
1F
100
AcDbEntity
  8
0
  6
CONTINUOUS
100
AcDbLine
 10
186.4791528762213
 20
173.506706715171
 30
0.0
 11
185.8985835216873
 21
175.4205873867179
 31
0.0
  0
LINE
  5
69C
330
1F
100
AcDbEntity
  8
0
  6
CONTINUOUS
100
AcDbLine
 10
186.7856006034931
 20
173.5955714406215
 30
0.0
 11
186.2521750885157
 21
175.5231235723119
 31
0.0
  0
LINE
  5
69D
330
1F
100
AcDbEntity
  8
0
  6
CONTINUOUS
100
AcDbLine
 10
187.094136878195
 20
173.676888484544
 30
0.0
 11
186.6081765183589
 21
175.6169509910512
 31
0.0
  0
LINE
  5
69E
330
1F
100
AcDbEntity
  8
0
  6
CONTINUOUS
100
AcDbLine
 10
187.4045758265461
 20
173.7506088653005
 30
0.0
 11
186.9663733462013
 21
175.7020131255159
 31
0.0
  0
LINE
  5
69F
330
1F
100
AcDbEntity
  8
0
  6
CONTINUOUS
100
AcDbLine
 10
187.7167304287285
 20
173.8166881783301
 30
0.0
 11
187.3265497846645
 21
175.7782587392965
 31
0.0
  0
LINE
  5
6A0
330
1F
100
AcDbEntity
  8
0
  6
CONTINUOUS
100
AcDbLine
 10
188.0304126315966
 20
173.8750866228917
 30
0.0
 11
187.6884888540443
 21
175.8456419078526
 31
0.0
  0
LINE
  5
6A1
330
1F
100
AcDbEntity
  8
0
  6
CONTINUOUS
100
AcDbLine
 10
188.3454334620085
 20
173.9257690260315
 30
0.0
 11
188.0519725130671
 21
175.9041220461683
 31
0.0
  0
LINE
  5
6A2
330
1F
100
AcDbEntity
  8
0
  6
CONTINUOUS
100
AcDbLine
 10
188.6616031407109
 20
173.9687048637602
 30
0.0
 11
188.4167817902837
 21
175.9536639331904
 31
0.0
  0
LINE
  5
6A3
330
1F
100
AcDbEntity
  8
0
  6
CONTINUOUS
100
AcDbLine
 10
191.5272636092551
 20
174.0038155434965
 30
0.0
 11
191.7232978899633
 21
175.9941849973395
 31
0.0
  0
LINE
  5
6A4
330
1F
100
AcDbEntity
  8
0
  6
CONTINUOUS
100
AcDbLine
 10
191.8443887582742
 20
173.9686391824669
 30
0.0
 11
192.089210108738
 21
175.9535982521944
 31
0.0
  0
LINE
  5
6A5
330
1F
100
AcDbEntity
  8
0
  6
CONTINUOUS
100
AcDbLine
 10
192.1605548983008
 20
173.9256905576112
 30
0.0
 11
192.4540158472948
 21
175.9040435781021
 31
0.0
  0
LINE
  5
6A6
330
1F
100
AcDbEntity
  8
0
  6
CONTINUOUS
100
AcDbLine
 10
192.4755715668657
 20
173.8749955563865
 30
0.0
 11
192.8174953444891
 21
175.8455508417566
 31
0.0
  0
LINE
  5
6A7
330
1F
100
AcDbEntity
  8
0
  6
CONTINUOUS
100
AcDbLine
 10
192.7892489947423
 20
173.8165847331326
 30
0.0
 11
193.1794296388984
 21
175.7781552945617
 31
0.0
  0
LINE
  5
6A8
330
1F
100
AcDbEntity
  8
0
  6
CONTINUOUS
100
AcDbLine
 10
193.4118312033245
 20
173.6767610588273
 30
0.0
 11
193.8977915633019
 21
175.6168235658984
 31
0.0
  0
LINE
  5
6A9
330
1F
100
AcDbEntity
  8
0
  6
CONTINUOUS
100
AcDbLine
 10
194.0268015674689
 20
173.5065565361438
 30
0.0
 11
194.6073709222016
 21
175.420437208346
 31
0.0
  0
LINE
  5
6AA
330
1F
100
AcDbEntity
  8
0
  6
CONTINUOUS
100
AcDbLine
 10
195.228002272173
 20
173.0767179583171
 30
0.0
 11
195.9933691372492
 21
174.924477024175
 31
0.0
  0
LINE
  5
6AB
330
1F
100
AcDbEntity
  8
0
  6
CONTINUOUS
100
AcDbLine
 10
195.5212574548135
 20
172.9509983807155
 30
0.0
 11
196.3317400832029
 21
174.7794178929787
 31
0.0
  0
LINE
  5
6AC
330
1F
100
AcDbEntity
  8
0
  6
CONTINUOUS
100
AcDbLine
 10
195.8113386930657
 20
172.8181197695765
 30
0.0
 11
196.6664488803402
 21
174.6260983566986
 31
0.0
  0
LINE
  5
6AD
330
1F
100
AcDbEntity
  8
0
  6
CONTINUOUS
100
AcDbLine
 10
196.0980712490343
 20
172.6781621887674
 30
0.0
 11
196.9972939087928
 21
174.464610792051
 31
0.0
  0
LINE
  5
6AE
330
1F
100
AcDbEntity
  8
0
  6
CONTINUOUS
100
AcDbLine
 10
196.3812824030664
 20
172.5312099664217
 30
0.0
 11
197.3240758772037
 21
174.2950524960263
 31
0.0
  0
LINE
  5
6AF
330
1F
100
AcDbEntity
  8
0
  6
CONTINUOUS
100
AcDbLine
 10
196.6608015577977
 20
172.3773516440871
 30
0.0
 11
197.6465979427792
 21
174.1175256272259
 31
0.0
  0
LINE
  5
6B0
330
1F
100
AcDbEntity
  8
0
  6
CONTINUOUS
100
AcDbLine
 10
183.5697890002802
 20
149.9157360773205
 30
0.0
 11
182.5415835113347
 21
148.2002788563873
 31
0.0
  0
LINE
  5
6B1
330
1F
100
AcDbEntity
  8
0
  6
CONTINUOUS
100
AcDbLine
 10
183.2981545984771
 20
150.0830989275109
 30
0.0
 11
182.2281593581064
 21
148.3933917960694
 31
0.0
  0
LINE
  5
6B2
330
1F
100
AcDbEntity
  8
0
  6
CONTINUOUS
100
AcDbLine
 10
183.0307089864881
 20
150.2570776495309
 30
0.0
 11
181.9195685198146
 21
148.5941384239765
 31
0.0
  0
LINE
  5
6B3
330
1F
100
AcDbEntity
  8
0
  6
CONTINUOUS
100
AcDbLine
 10
182.7676132665142
 20
150.4375674679882
 30
0.0
 11
181.6159968830063
 21
148.8023978407306
 31
0.0
  0
LINE
  5
6B4
330
1F
100
AcDbEntity
  8
0
  6
CONTINUOUS
100
AcDbLine
 10
182.5090259216636
 20
150.6244596852763
 30
0.0
 11
181.3176273119689
 21
149.0180446213578
 31
0.0
  0
LINE
  5
6B5
330
1F
100
AcDbEntity
  8
0
  6
CONTINUOUS
100
AcDbLine
 10
182.2551027204775
 20
150.8176417469954
 30
0.0
 11
181.0246395385689
 21
149.2409488907846
 31
0.0
  0
LINE
  5
6B6
330
1F
100
AcDbEntity
  8
0
  6
CONTINUOUS
100
AcDbLine
 10
182.005996623088
 20
151.0169973096968
 30
0.0
 11
180.7372100539762
 21
149.4709764020154
 31
0.0
  0
LINE
  5
6B7
330
1F
100
AcDbEntity
  8
0
  6
CONTINUOUS
100
AcDbLine
 10
181.761857689066
 20
151.2224063109101
 30
0.0
 11
180.4555120023373
 21
149.7079886169452
 31
0.0
  0
LINE
  5
6B8
330
1F
100
AcDbEntity
  8
0
  6
CONTINUOUS
100
AcDbLine
 10
181.522832987013
 20
151.4337450414119
 30
0.0
 11
180.1797150764617
 21
149.9518427897561
 31
0.0
  0
LINE
  5
6B9
330
1F
100
AcDbEntity
  8
0
  6
CONTINUOUS
100
AcDbLine
 10
181.2890665059521
 20
151.6508862196919
 30
0.0
 11
179.9099854155852
 21
150.2023920528513
 31
0.0
  0
LINE
  5
6BA
330
1F
100
AcDbEntity
  8
0
  6
CONTINUOUS
100
AcDbLine
 10
181.0606990685715
 20
151.8736990685715
 30
0.0
 11
179.6464855052714
 21
150.4594855052714
 31
0.0
  0
LINE
  5
6BB
330
1F
100
AcDbEntity
  8
0
  6
CONTINUOUS
100
AcDbLine
 10
180.8378682463729
 20
152.10204939393
 30
0.0
 11
179.3893740795095
 21
150.7229683035414
 31
0.0
  0
LINE
  5
6BC
330
1F
100
AcDbEntity
  8
0
  6
CONTINUOUS
100
AcDbLine
 10
180.6207082767762
 20
152.3357996654896
 30
0.0
 11
179.1388060250739
 21
150.9926817548961
 31
0.0
  0
LINE
  5
6BD
330
1F
100
AcDbEntity
  8
0
  6
CONTINUOUS
100
AcDbLine
 10
180.4093499822294
 20
152.5748090996119
 30
0.0
 11
178.8949322881935
 21
151.268463412822
 31
0.0
  0
LINE
  5
6BE
330
1F
100
AcDbEntity
  8
0
  6
CONTINUOUS
100
AcDbLine
 10
180.2039206913741
 20
152.8189337440556
 30
0.0
 11
178.6578997835963
 21
151.5501471748647
 31
0.0
  0
LINE
  5
6BF
330
1F
100
AcDbEntity
  8
0
  6
CONTINUOUS
100
AcDbLine
 10
180.0045441623127
 20
153.0680265646436
 30
0.0
 11
178.4278513059793
 21
151.8375633826395
 31
0.0
  0
LINE
  5
6C0
330
1F
100
AcDbEntity
  8
0
  6
CONTINUOUS
100
AcDbLine
 10
179.811340508025
 20
153.3219375337902
 30
0.0
 11
178.2049254439574
 21
152.1305389239848
 31
0.0
  0
LINE
  5
6C1
330
1F
100
AcDbEntity
  8
0
  6
CONTINUOUS
100
AcDbLine
 10
179.6244261239778
 20
153.5805137208308
 30
0.0
 11
177.989256496544
 21
152.4288973371989
 31
0.0
  0
LINE
  5
6C2
330
1F
100
AcDbEntity
  8
0
  6
CONTINUOUS
100
AcDbLine
 10
179.443913617972
 20
153.8435993841045
 30
0.0
 11
177.7809743922141
 21
152.732458917295
 31
0.0
  0
LINE
  5
6C3
330
1F
100
AcDbEntity
  8
0
  6
CONTINUOUS
100
AcDbLine
 10
179.2699117422699
 20
154.1110360647306
 30
0.0
 11
177.5802046105973
 21
153.0410408242135
 31
0.0
  0
LINE
  5
6C4
330
1F
100
AcDbEntity
  8
0
  6
CONTINUOUS
100
AcDbLine
 10
179.1025253280427
 20
154.3826626820243
 30
0.0
 11
177.3870681068508
 21
153.3544571929238
 31
0.0
  0
LINE
  5
6C5
330
1F
100
AcDbEntity
  8
0
  6
CONTINUOUS
100
AcDbLine
 10
178.9418552221782
 20
154.6583156304941
 30
0.0
 11
177.2016812387533
 21
153.6725192453505
 31
0.0
  0
LINE
  5
6C6
330
1F
100
AcDbEntity
  8
0
  6
CONTINUOUS
100
AcDbLine
 10
178.787998226488
 20
154.9378288783622
 30
0.0
 11
177.0241556965699
 21
153.9950354040574
 31
0.0
  0
LINE
  5
6C7
330
1F
100
AcDbEntity
  8
0
  6
CONTINUOUS
100
AcDbLine
 10
178.6410470393481
 20
155.2210340675487
 30
0.0
 11
176.8545984357242
 21
154.3218114076189
 31
0.0
  0
LINE
  5
6C8
330
1F
100
AcDbEntity
  8
0
  6
CONTINUOUS
100
AcDbLine
 10
178.5010901998123
 20
155.5077606150592
 30
0.0
 11
176.6931116123233
 21
154.6526504276112
 31
0.0
  0
LINE
  5
6C9
330
1F
100
AcDbEntity
  8
0
  6
CONTINUOUS
100
AcDbLine
 10
178.3682120342274
 20
155.797835815716
 30
0.0
 11
176.5397925215716
 21
154.9873531871525
 31
0.0
  0
LINE
  5
6CA
330
1F
100
AcDbEntity
  8
0
  6
CONTINUOUS
100
AcDbLine
 10
178.2424926053872
 20
156.091084946169
 30
0.0
 11
176.3947335391115
 21
155.3257180809198
 31
0.0
  0
LINE
  5
6CB
330
1F
100
AcDbEntity
  8
0
  6
CONTINUOUS
100
AcDbLine
 10
178.1240076642521
 20
156.3873313701259
 30
0.0
 11
176.2580220653274
 21
155.6675412965717
 31
0.0
  0
LINE
  5
6CC
330
1F
100
AcDbEntity
  8
0
  6
CONTINUOUS
100
AcDbLine
 10
178.0128286042663
 20
156.6863966447361
 30
0.0
 11
176.1297404726453
 21
156.0126169375026
 31
0.0
  0
LINE
  5
6CD
330
1F
100
AcDbEntity
  8
0
  6
CONTINUOUS
100
AcDbLine
 10
177.9090224182982
 20
156.9881006280669
 30
0.0
 11
176.00996605586
 21
156.3607371468555
 31
0.0
  0
LINE
  5
6CE
330
1F
100
AcDbEntity
  8
0
  6
CONTINUOUS
100
AcDbLine
 10
177.8126516582324
 20
157.2922615876047
 30
0.0
 11
175.8987709855212
 21
156.7116922327176
 31
0.0
  0
LINE
  5
6CF
330
1F
100
AcDbEntity
  8
0
  6
CONTINUOUS
100
AcDbLine
 10
177.7237743972347
 20
157.5986963097174
 30
0.0
 11
175.7962222644046
 21
157.0652707944246
 31
0.0
  0
LINE
  5
6D0
330
1F
100
AcDbEntity
  8
0
  6
CONTINUOUS
100
AcDbLine
 10
177.6424441947162
 20
157.9072202100117
 30
0.0
 11
175.702381687098
 21
157.4212598498972
 31
0.0
  0
LINE
  5
6D1
330
1F
100
AcDbEntity
  8
0
  6
CONTINUOUS
100
AcDbLine
 10
177.5687100640152
 20
158.2176474445189
 30
0.0
 11
175.6173058027213
 21
157.7794449639319
 31
0.0
  0
LINE
  5
6D2
330
1F
100
AcDbEntity
  8
0
  6
CONTINUOUS
100
AcDbLine
 10
177.5026164428178
 20
158.5297910216422
 30
0.0
 11
175.5410458808091
 21
158.1396103773708
 31
0.0
  0
LINE
  5
6D3
330
1F
100
AcDbEntity
  8
0
  6
CONTINUOUS
100
AcDbLine
 10
177.4442031663351
 20
158.8434629147975
 30
0.0
 11
175.4736478803716
 21
158.5015391370712
 31
0.0
  0
LINE
  5
6D4
330
1F
100
AcDbEntity
  8
0
  6
CONTINUOUS
100
AcDbLine
 10
177.3935054432525
 20
159.1584741756809
 30
0.0
 11
175.4151524221561
 21
158.8650132265971
 31
0.0
  0
LINE
  5
6D5
330
1F
100
AcDbEntity
  8
0
  6
CONTINUOUS
100
AcDbLine
 10
177.350553834467
 20
159.4746350480939
 30
0.0
 11
175.3655947641237
 21
159.2298136975542
 31
0.0
  0
LINE
  5
6D6
330
1F
100
AcDbEntity
  8
0
  6
CONTINUOUS
100
AcDbLine
 10
177.315374234624
 20
159.7917550822583
 30
0.0
 11
175.3250047801566
 21
159.5957208014886
 31
0.0
  0
LINE
  5
6D7
330
1F
100
AcDbEntity
  8
0
  6
CONTINUOUS
100
AcDbLine
 10
177.2879878564658
 20
160.1096432495505
 30
0.0
 11
175.2934069420101
 21
159.9625141222702
 31
0.0
  0
LINE
  5
6D8
330
1F
100
AcDbEntity
  8
0
  6
CONTINUOUS
100
AcDbLine
 10
177.2684112180016
 20
160.4281080575884
 30
0.0
 11
175.2708203045194
 21
160.3299727088809
 31
0.0
  0
LINE
  5
6D9
330
1F
100
AcDbEntity
  8
0
  6
CONTINUOUS
100
AcDbLine
 10
177.2566561325052
 20
160.7469576655992
 30
0.0
 11
175.257258494069
 21
160.6978752085278
 31
0.0
  0
LINE
  5
6DA
330
1F
100
AcDbEntity
  8
0
  6
CONTINUOUS
100
AcDbLine
 10
177.2566343096772
 20
161.3850428701212
 30
0.0
 11
175.2572366713013
 21
161.4341253271911
 31
0.0
  0
ARC
  5
6DB
330
1F
100
AcDbEntity
  8
0
  6
CONTINUOUS
100
AcDbCircle
 10
190.2527296937417
 20
161.0664447403462
 30
0.0
 40
13.0
100
AcDbArc
 50
5.62293253271724
 51
7.029158774285894
  0
ARC
  5
6DC
330
1F
100
AcDbEntity
  8
0
  6
CONTINUOUS
100
AcDbCircle
 10
190.2527296937417
 20
161.0664447403462
 30
0.0
 40
15.0
100
AcDbArc
 50
5.623208195021736
 51
7.029437604381176
  0
ARC
  5
6DD
330
1F
100
AcDbEntity
  8
0
  6
CONTINUOUS
100
AcDbCircle
 10
190.2527296937417
 20
161.0664447403462
 30
0.0
 40
13.0
100
AcDbArc
 50
8.435386275530615
 51
9.841615050004062
  0
ARC
  5
6DE
330
1F
100
AcDbEntity
  8
0
  6
CONTINUOUS
100
AcDbCircle
 10
190.2527296937417
 20
161.0664447403462
 30
0.0
 40
15.0
100
AcDbArc
 50
8.435668105459962
 51
9.841899710003617
  0
ARC
  5
6DF
330
1F
100
AcDbEntity
  8
0
  6
CONTINUOUS
100
AcDbCircle
 10
190.2527296937417
 20
161.0664447403462
 30
0.0
 40
13.0
100
AcDbArc
 50
11.24784511049145
 51
12.65407646900382
  0
ARC
  5
6E0
330
1F
100
AcDbEntity
  8
0
  6
CONTINUOUS
100
AcDbCircle
 10
190.2527296937417
 20
161.0664447403462
 30
0.0
 40
15.0
100
AcDbArc
 50
11.24813242909273
 51
12.65436627313672
  0
ARC
  5
6E1
330
1F
100
AcDbEntity
  8
0
  6
CONTINUOUS
100
AcDbCircle
 10
190.2527296937417
 20
161.0664447403462
 30
0.0
 40
13.0
100
AcDbArc
 50
14.06030913676991
 51
15.46654312423011
  0
ARC
  5
6E2
330
1F
100
AcDbEntity
  8
0
  6
CONTINUOUS
100
AcDbCircle
 10
190.2527296937417
 20
161.0664447403462
 30
0.0
 40
15.0
100
AcDbArc
 50
14.06060125186738
 51
15.46683737433285
  0
ARC
  5
6E3
330
1F
100
AcDbEntity
  8
0
  6
CONTINUOUS
100
AcDbCircle
 10
190.2527296937417
 20
161.0664447403462
 30
0.0
 40
13.0
100
AcDbArc
 50
16.87277844102972
 51
18.27901509601337
  0
ARC
  5
6E4
330
1F
100
AcDbEntity
  8
0
  6
CONTINUOUS
100
AcDbCircle
 10
190.2527296937417
 20
161.0664447403462
 30
0.0
 40
15.0
100
AcDbArc
 50
16.87307464889262
 51
18.2793130832118
  0
ARC
  5
6E5
330
1F
100
AcDbEntity
  8
0
  6
CONTINUOUS
100
AcDbCircle
 10
190.2527296937417
 20
161.0664447403462
 30
0.0
 40
13.0
100
AcDbArc
 50
19.68525309721964
 51
21.09149245187622
  0
ARC
  5
6E6
330
1F
100
AcDbEntity
  8
0
  6
CONTINUOUS
100
AcDbCircle
 10
190.2527296937417
 20
161.0664447403462
 30
0.0
 40
15.0
100
AcDbArc
 50
19.6855526842572
 51
21.09179345829282
  0
ARC
  5
6E7
330
1F
100
AcDbEntity
  8
0
  6
CONTINUOUS
100
AcDbCircle
 10
190.2527296937417
 20
161.0664447403462
 30
0.0
 40
13.0
100
AcDbArc
 50
22.4977331663953
 51
23.90397524637017
  0
ARC
  5
6E8
330
1F
100
AcDbEntity
  8
0
  6
CONTINUOUS
100
AcDbCircle
 10
190.2527296937417
 20
161.0664447403462
 30
0.0
 40
15.0
100
AcDbArc
 50
22.49803541087604
 51
23.90427854685432
  0
ARC
  5
6E9
330
1F
100
AcDbEntity
  8
0
  6
CONTINUOUS
100
AcDbCircle
 10
190.2527296937417
 20
161.0664447403462
 30
0.0
 40
13.0
100
AcDbArc
 50
25.31021869657157
 51
26.71646352094488
  0
ARC
  5
6EA
330
1F
100
AcDbEntity
  8
0
  6
CONTINUOUS
100
AcDbCircle
 10
190.2527296937417
 20
161.0664447403462
 30
0.0
 40
15.0
100
AcDbArc
 50
25.31052287036217
 51
26.71676838481912
  0
ARC
  5
6EB
330
1F
100
AcDbEntity
  8
0
  6
CONTINUOUS
100
AcDbCircle
 10
190.2527296937417
 20
161.0664447403462
 30
0.0
 40
13.0
100
AcDbArc
 50
28.12270972260769
 51
29.52895730384793
  0
ARC
  5
6EC
330
1F
100
AcDbEntity
  8
0
  6
CONTINUOUS
100
AcDbCircle
 10
190.2527296937417
 20
161.0664447403462
 30
0.0
 40
15.0
100
AcDbArc
 50
28.12301509292675
 51
29.52926299666835
  0
ARC
  5
6ED
330
1F
100
AcDbEntity
  8
0
  6
CONTINUOUS
100
AcDbCircle
 10
190.2527296937417
 20
161.0664447403462
 30
0.0
 40
13.0
100
AcDbArc
 50
30.93520626612254
 51
32.3414566100568
  0
ARC
  5
6EE
330
1F
100
AcDbEntity
  8
0
  6
CONTINUOUS
100
AcDbCircle
 10
190.2527296937417
 20
161.0664447403462
 30
0.0
 40
15.0
100
AcDbArc
 50
30.93551209730636
 51
32.34176239538269
  0
ARC
  5
6EF
330
1F
100
AcDbEntity
  8
0
  6
CONTINUOUS
100
AcDbCircle
 10
190.2527296937417
 20
161.0664447403462
 30
0.0
 40
13.0
100
AcDbArc
 50
33.74770833544332
 51
35.15396144124292
  0
ARC
  5
6F0
330
1F
100
AcDbEntity
  8
0
  6
CONTINUOUS
100
AcDbCircle
 10
190.2527296937417
 20
161.0664447403462
 30
0.0
 40
15.0
100
AcDbArc
 50
33.74801389071764
 51
35.15426658241065
  0
ARC
  5
6F1
330
1F
100
AcDbEntity
  8
0
  6
CONTINUOUS
100
AcDbCircle
 10
190.2527296937417
 20
161.0664447403462
 30
0.0
 40
13.0
100
AcDbArc
 50
36.5602159255847
 51
37.96647178576755
  0
ARC
  5
6F2
330
1F
100
AcDbEntity
  8
0
  6
CONTINUOUS
100
AcDbCircle
 10
190.2527296937417
 20
161.0664447403462
 30
0.0
 40
15.0
100
AcDbArc
 50
36.56052046884012
 51
37.96677554766531
  0
ARC
  5
6F3
330
1F
100
AcDbEntity
  8
0
  6
CONTINUOUS
100
AcDbCircle
 10
190.2527296937417
 20
161.0664447403462
 30
0.0
 40
13.0
100
AcDbArc
 50
39.37272901826148
 51
40.77898761870978
  0
ARC
  5
6F4
330
1F
100
AcDbEntity
  8
0
  6
CONTINUOUS
100
AcDbCircle
 10
190.2527296937417
 20
161.0664447403462
 30
0.0
 40
15.0
100
AcDbArc
 50
39.37303181582669
 51
40.77928926954862
  0
ARC
  5
6F5
330
1F
100
AcDbEntity
  8
0
  6
CONTINUOUS
100
AcDbCircle
 10
190.2527296937417
 20
161.0664447403462
 30
0.0
 40
13.0
100
AcDbArc
 50
42.18524758193207
 51
43.59150890192682
  0
ARC
  5
6F6
330
1F
100
AcDbEntity
  8
0
  6
CONTINUOUS
100
AcDbCircle
 10
190.2527296937417
 20
161.0664447403462
 30
0.0
 40
15.0
100
AcDbArc
 50
42.18554790434128
 51
43.59180771500333
  0
ARC
  5
6F7
330
1F
100
AcDbEntity
  8
0
  6
CONTINUOUS
100
AcDbCircle
 10
190.2527296937417
 20
161.0664447403462
 30
0.0
 40
13.0
100
AcDbArc
 50
44.99777157187512
 51
46.40403558414518
  0
ARC
  5
6F8
330
1F
100
AcDbEntity
  8
0
  6
CONTINUOUS
100
AcDbCircle
 10
190.2527296937417
 20
161.0664447403462
 30
0.0
 40
15.0
100
AcDbArc
 50
44.99806869562523
 51
46.40433083959266
  0
ARC
  5
6F9
330
1F
100
AcDbEntity
  8
0
  6
CONTINUOUS
100
AcDbCircle
 10
190.2527296937417
 20
161.0664447403462
 30
0.0
 40
13.0
100
AcDbArc
 50
47.81030093029668
 51
49.21656760108552
  0
ARC
  5
6FA
330
1F
100
AcDbEntity
  8
0
  6
CONTINUOUS
100
AcDbCircle
 10
190.2527296937417
 20
161.0664447403462
 30
0.0
 40
15.0
100
AcDbArc
 50
47.81059413959063
 51
49.21685858760758
  0
ARC
  5
6FB
330
1F
100
AcDbEntity
  8
0
  6
CONTINUOUS
100
AcDbCircle
 10
190.2527296937417
 20
161.0664447403462
 30
0.0
 40
13.0
100
AcDbArc
 50
50.62283558646987
 51
52.02910487561591
  0
ARC
  5
6FC
330
1F
100
AcDbEntity
  8
0
  6
CONTINUOUS
100
AcDbCircle
 10
190.2527296937417
 20
161.0664447403462
 30
0.0
 40
15.0
100
AcDbArc
 50
50.62312417494068
 51
52.02939089220058
  0
ARC
  5
6FD
330
1F
100
AcDbEntity
  8
0
  6
CONTINUOUS
100
AcDbCircle
 10
190.2527296937417
 20
161.0664447403462
 30
0.0
 40
13.0
100
AcDbArc
 50
53.4353754569047
 51
54.84164731793891
  0
ARC
  5
6FE
330
1F
100
AcDbEntity
  8
0
  6
CONTINUOUS
100
AcDbCircle
 10
190.2527296937417
 20
161.0664447403462
 30
0.0
 40
15.0
100
AcDbArc
 50
53.43565872931751
 51
54.84192767554718
  0
ARC
  5
6FF
330
1F
100
AcDbEntity
  8
0
  6
CONTINUOUS
100
AcDbCircle
 10
190.2527296937417
 20
161.0664447403462
 30
0.0
 40
13.0
100
AcDbArc
 50
56.24792044555005
 51
57.6541948258072
  0
ARC
  5
700
330
1F
100
AcDbEntity
  8
0
  6
CONTINUOUS
100
AcDbCircle
 10
190.2527296937417
 20
161.0664447403462
 30
0.0
 40
15.0
100
AcDbArc
 50
56.24819771947677
 51
57.65446884903297
  0
ARC
  5
701
330
1F
100
AcDbEntity
  8
0
  6
CONTINUOUS
100
AcDbCircle
 10
190.2527296937417
 20
161.0664447403462
 30
0.0
 40
13.0
100
AcDbArc
 50
59.06047044402411
 51
60.46674728476994
  0
ARC
  5
702
330
1F
100
AcDbEntity
  8
0
  6
CONTINUOUS
100
AcDbCircle
 10
190.2527296937417
 20
161.0664447403462
 30
0.0
 40
15.0
100
AcDbArc
 50
59.06074105148781
 51
60.46701431346743
  0
ARC
  5
703
330
1F
100
AcDbEntity
  8
0
  6
CONTINUOUS
100
AcDbCircle
 10
190.2527296937417
 20
161.0664447403462
 30
0.0
 40
13.0
100
AcDbArc
 50
61.87302533187648
 51
63.27930456844928
  0
ARC
  5
704
330
1F
100
AcDbEntity
  8
0
  6
CONTINUOUS
100
AcDbCircle
 10
190.2527296937417
 20
161.0664447403462
 30
0.0
 40
15.0
100
AcDbArc
 50
61.87328862095968
 51
63.27956395932278
  0
ARC
  5
705
330
1F
100
AcDbEntity
  8
0
  6
CONTINUOUS
100
AcDbCircle
 10
190.2527296937417
 20
161.0664447403462
 30
0.0
 40
13.0
100
AcDbArc
 50
64.6855849768772
 51
66.09186653884342
  0
ARC
  5
706
330
1F
100
AcDbEntity
  8
0
  6
CONTINUOUS
100
AcDbCircle
 10
190.2527296937417
 20
161.0664447403462
 30
0.0
 40
15.0
100
AcDbArc
 50
64.68584031329367
 51
66.09211766699764
  0
ARC
  5
707
330
1F
100
AcDbEntity
  8
0
  6
CONTINUOUS
100
AcDbCircle
 10
190.2527296937417
 20
161.0664447403462
 30
0.0
 40
13.0
100
AcDbArc
 50
67.49814923533643
 51
68.90443304666056
  0
ARC
  5
708
330
1F
100
AcDbEntity
  8
0
  6
CONTINUOUS
100
AcDbCircle
 10
190.2527296937417
 20
161.0664447403462
 30
0.0
 40
15.0
100
AcDbArc
 50
67.4983960039582
 51
68.90467530710596
  0
ARC
  5
709
330
1F
100
AcDbEntity
  8
0
  6
CONTINUOUS
100
AcDbCircle
 10
190.2527296937417
 20
161.0664447403462
 30
0.0
 40
13.0
100
AcDbArc
 50
70.31071795244961
 51
71.71700393167755
  0
ARC
  5
70A
330
1F
100
AcDbEntity
  8
0
  6
CONTINUOUS
100
AcDbCircle
 10
190.2527296937417
 20
161.0664447403462
 30
0.0
 40
15.0
100
AcDbArc
 50
70.31095555878974
 51
71.71723674078729
  0
ARC
  5
70B
330
1F
100
AcDbEntity
  8
0
  6
CONTINUOUS
100
AcDbCircle
 10
190.2527296937417
 20
161.0664447403462
 30
0.0
 40
13.0
100
AcDbArc
 50
73.1232909626716
 51
74.529579023126
  0
ARC
  5
70C
330
1F
100
AcDbEntity
  8
0
  6
CONTINUOUS
100
AcDbCircle
 10
190.2527296937417
 20
161.0664447403462
 30
0.0
 40
15.0
100
AcDbArc
 50
73.1235188343155
 51
74.52980182004256
  0
ARC
  5
70D
330
1F
100
AcDbEntity
  8
0
  6
CONTINUOUS
100
AcDbCircle
 10
190.2527296937417
 20
161.0664447403462
 30
0.0
 40
13.0
100
AcDbArc
 50
75.9358680901143
 51
77.3421581401041
  0
ARC
  5
70E
330
1F
100
AcDbEntity
  8
0
  6
CONTINUOUS
100
AcDbCircle
 10
190.2527296937417
 20
161.0664447403462
 30
0.0
 40
15.0
100
AcDbArc
 50
75.93608567809915
 51
77.34237038809025
  0
ARC
  5
70F
330
1F
100
AcDbEntity
  8
0
  6
CONTINUOUS
100
AcDbCircle
 10
190.2527296937417
 20
161.0664447403462
 30
0.0
 40
13.0
100
AcDbArc
 50
78.7484491489707
 51
80.15474109201193
  0
ARC
  5
710
330
1F
100
AcDbEntity
  8
0
  6
CONTINUOUS
100
AcDbCircle
 10
190.2527296937417
 20
161.0664447403462
 30
0.0
 40
15.0
100
AcDbArc
 50
78.74865592910794
 51
80.15494227974375
  0
ARC
  5
711
330
1F
100
AcDbEntity
  8
0
  6
CONTINUOUS
100
AcDbCircle
 10
190.2527296937417
 20
161.0664447403462
 30
0.0
 40
13.0
100
AcDbArc
 50
81.56103394396298
 51
82.96732767901153
  0
ARC
  5
712
330
1F
100
AcDbEntity
  8
0
  6
CONTINUOUS
100
AcDbCircle
 10
190.2527296937417
 20
161.0664447403462
 30
0.0
 40
15.0
100
AcDbArc
 50
81.56122941810129
 51
82.96751732181002
  0
ARC
  5
713
330
1F
100
AcDbEntity
  8
0
  6
CONTINUOUS
100
AcDbCircle
 10
190.2527296937417
 20
161.0664447403462
 30
0.0
 40
13.0
100
AcDbArc
 50
84.37362227081283
 51
85.77991769250677
  0
ARC
  5
714
330
1F
100
AcDbEntity
  8
0
  6
CONTINUOUS
100
AcDbCircle
 10
190.2527296937417
 20
161.0664447403462
 30
0.0
 40
15.0
100
AcDbArc
 50
84.37380596803784
 51
85.78009533350594
  0
ARC
  5
715
330
1F
100
AcDbEntity
  8
0
  6
CONTINUOUS
100
AcDbCircle
 10
190.2527296937417
 20
161.0664447403462
 30
0.0
 40
15.0
100
AcDbArc
 50
87.18638539450191
 51
88.59267612689462
  0
ARC
  5
716
330
1F
100
AcDbEntity
  8
0
  6
CONTINUOUS
100
AcDbCircle
 10
190.2527296937417
 20
161.0664447403462
 30
0.0
 40
13.0
100
AcDbArc
 50
87.18621391673297
 51
88.59251091564755
  0
ARC
  5
717
330
1F
100
AcDbEntity
  8
0
  6
CONTINUOUS
100
AcDbCircle
 10
190.2527296937417
 20
161.0664447403462
 30
0.0
 40
13.0
100
AcDbArc
 50
89.9988086609403
 51
91.40510712385114
  0
ARC
  5
718
330
1F
100
AcDbEntity
  8
0
  6
CONTINUOUS
100
AcDbCircle
 10
190.2527296937417
 20
161.0664447403462
 30
0.0
 40
15.0
100
AcDbArc
 50
89.99896750614829
 51
91.40525950733768
  0
ARC
  5
719
330
1F
100
AcDbEntity
  8
0
  6
CONTINUOUS
100
AcDbCircle
 10
190.2527296937417
 20
161.0664447403462
 30
0.0
 40
13.0
100
AcDbArc
 50
92.81140627518774
 51
94.21770608534344
  0
ARC
  5
71A
330
1F
100
AcDbEntity
  8
0
  6
CONTINUOUS
100
AcDbCircle
 10
190.2527296937417
 20
161.0664447403462
 30
0.0
 40
15.0
100
AcDbArc
 50
92.8115521051627
 51
94.21784527396431
  0
ARC
  5
71B
330
1F
100
AcDbEntity
  8
0
  6
CONTINUOUS
100
AcDbCircle
 10
190.2527296937417
 20
161.0664447403462
 30
0.0
 40
13.0
100
AcDbArc
 50
95.62400652431407
 51
97.0303075617174
  0
ARC
  5
71C
330
1F
100
AcDbEntity
  8
0
  6
CONTINUOUS
100
AcDbCircle
 10
190.2527296937417
 20
161.0664447403462
 30
0.0
 40
15.0
100
AcDbArc
 50
95.62413898773889
 51
97.03043322015512
  0
ARC
  5
71D
330
1F
100
AcDbEntity
  8
0
  6
CONTINUOUS
100
AcDbCircle
 10
190.2527296937417
 20
161.0664447403462
 30
0.0
 40
13.0
100
AcDbArc
 50
98.43660916681043
 51
99.84291130850796
  0
ARC
  5
71E
330
1F
100
AcDbEntity
  8
0
  6
CONTINUOUS
100
AcDbCircle
 10
190.2527296937417
 20
161.0664447403462
 30
0.0
 40
15.0
100
AcDbArc
 50
98.43672794456901
 51
99.84302313404024
  0
ARC
  5
71F
330
1F
100
AcDbEntity
  8
0
  6
CONTINUOUS
100
AcDbCircle
 10
190.2527296937417
 20
161.0664447403462
 30
0.0
 40
15.0
100
AcDbArc
 50
101.2493187613483
 51
102.655614799009
  0
ARC
  5
720
330
1F
100
AcDbEntity
  8
0
  6
CONTINUOUS
100
AcDbCircle
 10
190.2527296937417
 20
161.0664447403462
 30
0.0
 40
13.0
100
AcDbArc
 50
101.2492139554019
 51
102.6555170757796
  0
ARC
  5
721
330
1F
100
AcDbEntity
  8
0
  6
CONTINUOUS
100
AcDbCircle
 10
190.2527296937417
 20
161.0664447403462
 30
0.0
 40
15.0
100
AcDbArc
 50
104.0619112192911
 51
105.4682079942327
  0
ARC
  5
722
330
1F
100
AcDbEntity
  8
0
  6
CONTINUOUS
100
AcDbCircle
 10
190.2527296937417
 20
161.0664447403462
 30
0.0
 40
13.0
100
AcDbArc
 50
104.0618206376436
 51
105.46812460873
  0
ARC
  5
723
330
1F
100
AcDbEntity
  8
0
  6
CONTINUOUS
100
AcDbCircle
 10
190.2527296937417
 20
161.0664447403462
 30
0.0
 40
15.0
100
AcDbArc
 50
106.8745050956582
 51
108.2808024951957
  0
ARC
  5
724
330
1F
100
AcDbEntity
  8
0
  6
CONTINUOUS
100
AcDbCircle
 10
190.2527296937417
 20
161.0664447403462
 30
0.0
 40
13.0
100
AcDbArc
 50
106.8744289565286
 51
108.2807336483027
  0
ARC
  5
725
330
1F
100
AcDbEntity
  8
0
  6
CONTINUOUS
100
AcDbCircle
 10
190.2527296937417
 20
161.0664447403462
 30
0.0
 40
15.0
100
AcDbArc
 50
109.6871001642933
 51
111.0933980742369
  0
ARC
  5
726
330
1F
100
AcDbEntity
  8
0
  6
CONTINUOUS
100
AcDbCircle
 10
190.2527296937417
 20
161.0664447403462
 30
0.0
 40
13.0
100
AcDbArc
 50
109.6870386511076
 51
111.0933439318119
  0
ARC
  5
727
330
1F
100
AcDbEntity
  8
0
  6
CONTINUOUS
100
AcDbCircle
 10
190.2527296937417
 20
161.0664447403462
 30
0.0
 40
15.0
100
AcDbArc
 50
112.4996961961676
 51
113.9059945010982
  0
ARC
  5
728
330
1F
100
AcDbEntity
  8
0
  6
CONTINUOUS
100
AcDbCircle
 10
190.2527296937417
 20
161.0664447403462
 30
0.0
 40
13.0
100
AcDbArc
 50
112.4996494571165
 51
113.9059551935748
  0
ARC
  5
729
330
1F
100
AcDbEntity
  8
0
  6
CONTINUOUS
100
AcDbCircle
 10
190.2527296937417
 20
161.0664447403462
 30
0.0
 40
13.0
100
AcDbArc
 50
115.3122611076138
 51
116.7185671655525
  0
ARC
  5
72A
330
1F
100
AcDbEntity
  8
0
  6
CONTINUOUS
100
AcDbCircle
 10
190.2527296937417
 20
161.0664447403462
 30
0.0
 40
15.0
100
AcDbArc
 50
115.3122929599319
 51
116.7185915434788
  0
ARC
  5
72B
330
1F
100
AcDbEntity
  8
0
  6
CONTINUOUS
100
AcDbCircle
 10
190.2527296937417
 20
161.0664447403462
 30
0.0
 40
13.0
100
AcDbArc
 50
118.1248733336237
 51
119.5311795779942
  0
ARC
  5
72C
330
1F
100
AcDbEntity
  8
0
  6
CONTINUOUS
100
AcDbCircle
 10
190.2527296937417
 20
161.0664447403462
 30
0.0
 40
15.0
100
AcDbArc
 50
118.1248902224738
 51
119.5311889675949
  0
ARC
  5
72D
330
1F
100
AcDbEntity
  8
0
  6
CONTINUOUS
100
AcDbCircle
 10
190.2527296937417
 20
161.0664447403462
 30
0.0
 40
13.0
100
AcDbArc
 50
120.9374858647842
 51
122.3437921600886
  0
ARC
  5
72E
330
1F
100
AcDbEntity
  8
0
  6
CONTINUOUS
100
AcDbCircle
 10
190.2527296937417
 20
161.0664447403462
 30
0.0
 40
15.0
100
AcDbArc
 50
120.9374877494796
 51
122.3437865387434
  0
ARC
  5
72F
330
1F
100
AcDbEntity
  8
0
  6
CONTINUOUS
100
AcDbCircle
 10
190.2527296937417
 20
161.0664447403462
 30
0.0
 40
13.0
100
AcDbArc
 50
123.7500984299975
 51
125.1564046406157
  0
ARC
  5
730
330
1F
100
AcDbEntity
  8
0
  6
CONTINUOUS
100
AcDbCircle
 10
190.2527296937417
 20
161.0664447403462
 30
0.0
 40
15.0
100
AcDbArc
 50
123.7500853059977
 51
125.1563840218669
  0
ARC
  5
731
330
1F
100
AcDbEntity
  8
0
  6
CONTINUOUS
100
AcDbCircle
 10
190.2527296937417
 20
161.0664447403462
 30
0.0
 40
13.0
100
AcDbArc
 50
126.5627107580844
 51
127.9690167486
  0
ARC
  5
732
330
1F
100
AcDbEntity
  8
0
  6
CONTINUOUS
100
AcDbCircle
 10
190.2527296937417
 20
161.0664447403462
 30
0.0
 40
15.0
100
AcDbArc
 50
126.5626826570065
 51
127.9689811821201
  0
ARC
  5
733
330
1F
100
AcDbEntity
  8
0
  6
CONTINUOUS
100
AcDbCircle
 10
190.2527296937417
 20
161.0664447403462
 30
0.0
 40
13.0
100
AcDbArc
 50
129.3753225784365
 51
130.7816282139635
  0
ARC
  5
734
330
1F
100
AcDbEntity
  8
0
  6
CONTINUOUS
100
AcDbCircle
 10
190.2527296937417
 20
161.0664447403462
 30
0.0
 40
15.0
100
AcDbArc
 50
129.3752795679782
 51
130.7815777854352
  0
ARC
  5
735
330
1F
100
AcDbEntity
  8
0
  6
CONTINUOUS
100
AcDbCircle
 10
190.2527296937417
 20
161.0664447403462
 30
0.0
 40
13.0
100
AcDbArc
 50
132.1879336216689
 51
133.5942387681768
  0
ARC
  5
736
330
1F
100
AcDbEntity
  8
0
  6
CONTINUOUS
100
AcDbCircle
 10
190.2527296937417
 20
161.0664447403462
 30
0.0
 40
15.0
100
AcDbArc
 50
132.1878758054465
 51
133.5941735990866
  0
ARC
  5
737
330
1F
100
AcDbEntity
  8
0
  6
CONTINUOUS
100
AcDbCircle
 10
190.2527296937417
 20
161.0664447403462
 30
0.0
 40
13.0
100
AcDbArc
 50
135.0005436202688
 51
136.4068481449044
  0
ARC
  5
738
330
1F
100
AcDbEntity
  8
0
  6
CONTINUOUS
100
AcDbCircle
 10
190.2527296937417
 20
161.0664447403462
 30
0.0
 40
15.0
100
AcDbArc
 50
135.0004711375663
 51
136.4067683922505
  0
ARC
  5
739
330
1F
100
AcDbEntity
  8
0
  6
CONTINUOUS
100
AcDbCircle
 10
190.2527296937417
 20
161.0664447403462
 30
0.0
 40
13.0
100
AcDbArc
 50
137.8131523092399
 51
139.2194560806487
  0
ARC
  5
73A
330
1F
100
AcDbEntity
  8
0
  6
CONTINUOUS
100
AcDbCircle
 10
190.2527296937417
 20
161.0664447403462
 30
0.0
 40
15.0
100
AcDbArc
 50
137.8130653346746
 51
139.2193619365621
  0
ARC
  5
73B
330
1F
100
AcDbEntity
  8
0
  6
CONTINUOUS
100
AcDbCircle
 10
190.2527296937417
 20
161.0664447403462
 30
0.0
 40
13.0
100
AcDbArc
 50
140.6257594267409
 51
142.0320623153827
  0
ARC
  5
73C
330
1F
100
AcDbEntity
  8
0
  6
CONTINUOUS
100
AcDbCircle
 10
190.2527296937417
 20
161.0664447403462
 30
0.0
 40
15.0
100
AcDbArc
 50
140.6256581698421
 51
142.0319540066649
  0
ARC
  5
73D
330
1F
100
AcDbEntity
  8
0
  6
CONTINUOUS
100
AcDbCircle
 10
190.2527296937417
 20
161.0664447403462
 30
0.0
 40
13.0
100
AcDbArc
 50
143.4383647147163
 51
144.8446665931779
  0
ARC
  5
73E
330
1F
100
AcDbEntity
  8
0
  6
CONTINUOUS
100
AcDbCircle
 10
190.2527296937417
 20
161.0664447403462
 30
0.0
 40
15.0
100
AcDbArc
 50
143.4382494194208
 51
144.8445443807542
  0
ARC
  5
73F
330
1F
100
AcDbEntity
  8
0
  6
CONTINUOUS
100
AcDbCircle
 10
190.2527296937417
 20
161.0664447403462
 30
0.0
 40
13.0
100
AcDbArc
 50
146.2509679195182
 51
147.6572686628199
  0
ARC
  5
740
330
1F
100
AcDbEntity
  8
0
  6
CONTINUOUS
100
AcDbCircle
 10
190.2527296937417
 20
161.0664447403462
 30
0.0
 40
15.0
100
AcDbArc
 50
146.2508388635824
 51
147.6571328411106
  0
ARC
  5
741
330
1F
100
AcDbEntity
  8
0
  6
CONTINUOUS
100
AcDbCircle
 10
190.2527296937417
 20
161.0664447403462
 30
0.0
 40
13.0
100
AcDbArc
 50
149.0635687925173
 51
150.469868278414
  0
ARC
  5
742
330
1F
100
AcDbEntity
  8
0
  6
CONTINUOUS
100
AcDbCircle
 10
190.2527296937417
 20
161.0664447403462
 30
0.0
 40
15.0
100
AcDbArc
 50
149.0634262868483
 51
150.4697191746254
  0
ARC
  5
743
330
1F
100
AcDbEntity
  8
0
  6
CONTINUOUS
100
AcDbCircle
 10
190.2527296937417
 20
161.0664447403462
 30
0.0
 40
13.0
100
AcDbArc
 50
151.8761670907016
 51
153.2824651999771
  0
ARC
  5
744
330
1F
100
AcDbEntity
  8
0
  6
CONTINUOUS
100
AcDbCircle
 10
190.2527296937417
 20
161.0664447403462
 30
0.0
 40
15.0
100
AcDbArc
 50
151.8760114786079
 51
153.2823031733136
  0
ARC
  5
745
330
1F
100
AcDbEntity
  8
0
  6
CONTINUOUS
100
AcDbCircle
 10
190.2527296937417
 20
161.0664447403462
 30
0.0
 40
15.0
100
AcDbArc
 50
154.6885942336271
 51
156.094884634815
  0
ARC
  5
746
330
1F
100
AcDbEntity
  8
0
  6
CONTINUOUS
100
AcDbCircle
 10
190.2527296937417
 20
161.0664447403462
 30
0.0
 40
13.0
100
AcDbArc
 50
154.6887625772621
 51
156.0950591940175
  0
ARC
  5
747
330
1F
100
AcDbEntity
  8
0
  6
CONTINUOUS
100
AcDbCircle
 10
190.2527296937417
 20
161.0664447403462
 30
0.0
 40
13.0
100
AcDbArc
 50
157.5013550221634
 51
158.9076500340946
  0
ARC
  5
748
330
1F
100
AcDbEntity
  8
0
  6
CONTINUOUS
100
AcDbCircle
 10
190.2527296937417
 20
161.0664447403462
 30
0.0
 40
15.0
100
AcDbArc
 50
157.5011743525416
 51
158.9074633628819
  0
ARC
  5
749
330
1F
100
AcDbEntity
  8
0
  6
CONTINUOUS
100
AcDbCircle
 10
190.2527296937417
 20
161.0664447403462
 30
0.0
 40
13.0
100
AcDbArc
 50
160.3139442026976
 51
161.7202375013669
  0
ARC
  5
74A
330
1F
100
AcDbEntity
  8
0
  6
CONTINUOUS
100
AcDbCircle
 10
190.2527296937417
 20
161.0664447403462
 30
0.0
 40
15.0
100
AcDbArc
 50
160.3137516423378
 51
161.7200391678513
  0
ARC
  5
74B
330
1F
100
AcDbEntity
  8
0
  6
CONTINUOUS
100
AcDbCircle
 10
190.2527296937417
 20
161.0664447403462
 30
0.0
 40
13.0
100
AcDbArc
 50
163.126529904021
 51
164.5328213851183
  0
ARC
  5
74C
330
1F
100
AcDbEntity
  8
0
  6
CONTINUOUS
100
AcDbCircle
 10
190.2527296937417
 20
161.0664447403462
 30
0.0
 40
15.0
100
AcDbArc
 50
163.1263259168181
 51
164.5326118671024
  0
ARC
  5
74D
330
1F
100
AcDbEntity
  8
0
  6
CONTINUOUS
100
AcDbCircle
 10
190.2527296937417
 20
161.0664447403462
 30
0.0
 40
13.0
100
AcDbArc
 50
165.9391119196718
 51
167.3454014832651
  0
ARC
  5
74E
330
1F
100
AcDbEntity
  8
0
  6
CONTINUOUS
100
AcDbCircle
 10
190.2527296937417
 20
161.0664447403462
 30
0.0
 40
15.0
100
AcDbArc
 50
165.9388969970488
 51
167.3451812854964
  0
ARC
  5
74F
330
1F
100
AcDbEntity
  8
0
  6
CONTINUOUS
100
AcDbCircle
 10
190.2527296937417
 20
161.0664447403462
 30
0.0
 40
13.0
100
AcDbArc
 50
168.7516900520667
 51
170.1579776028442
  0
ARC
  5
750
330
1F
100
AcDbEntity
  8
0
  6
CONTINUOUS
100
AcDbCircle
 10
190.2527296937417
 20
161.0664447403462
 30
0.0
 40
15.0
100
AcDbArc
 50
168.7514647117911
 51
170.1577472557982
  0
ARC
  5
751
330
1F
100
AcDbEntity
  8
0
  6
CONTINUOUS
100
AcDbCircle
 10
190.2527296937417
 20
161.0664447403462
 30
0.0
 40
13.0
100
AcDbArc
 50
171.5642641129781
 51
172.9705495604767
  0
ARC
  5
752
330
1F
100
AcDbEntity
  8
0
  6
CONTINUOUS
100
AcDbCircle
 10
190.2527296937417
 20
161.0664447403462
 30
0.0
 40
15.0
100
AcDbArc
 50
171.5640288979143
 51
172.9703096190797
  0
ARC
  5
753
330
1F
100
AcDbEntity
  8
0
  6
CONTINUOUS
100
AcDbCircle
 10
190.2527296937417
 20
161.0664447403462
 30
0.0
 40
13.0
100
AcDbArc
 50
174.3768339239871
 51
175.7831171828103
  0
ARC
  5
754
330
1F
100
AcDbEntity
  8
0
  6
CONTINUOUS
100
AcDbCircle
 10
190.2527296937417
 20
161.0664447403462
 30
0.0
 40
15.0
100
AcDbArc
 50
174.3765894007888
 51
175.7828682251022
  0
ARC
  5
755
330
1F
100
AcDbEntity
  8
0
  6
CONTINUOUS
100
AcDbCircle
 10
190.2527296937417
 20
161.0664447403462
 30
0.0
 40
13.0
100
AcDbArc
 50
177.1893993169125
 51
178.5956803069369
  0
ARC
  5
756
330
1F
100
AcDbEntity
  8
0
  6
CONTINUOUS
100
AcDbCircle
 10
190.2527296937417
 20
161.0664447403462
 30
0.0
 40
15.0
100
AcDbArc
 50
177.1891460746574
 51
178.5954229326786
  0
ARC
  5
757
330
1F
100
AcDbEntity
  8
0
  6
CONTINUOUS
100
AcDbCircle
 10
190.2527296937417
 20
161.0664447403462
 30
0.0
 40
15.0
100
AcDbArc
 50
180.0
 51
181.4079736100139
  0
ARC
  5
758
330
1F
100
AcDbEntity
  8
0
  6
CONTINUOUS
100
AcDbCircle
 10
190.2527296937417
 20
161.0664447403462
 30
0.0
 40
13.0
100
AcDbArc
 50
180.0
 51
181.4082387807853
  0
ARC
  5
759
330
1F
100
AcDbEntity
  8
0
  6
CONTINUOUS
100
AcDbCircle
 10
190.2527296937417
 20
161.0664447403462
 30
0.0
 40
15.0
100
AcDbArc
 50
182.8142473988016
 51
184.2205201350215
  0
ARC
  5
75A
330
1F
100
AcDbEntity
  8
0
  6
CONTINUOUS
100
AcDbCircle
 10
190.2527296937417
 20
161.0664447403462
 30
0.0
 40
13.0
100
AcDbArc
 50
182.8145162293865
 51
184.2207924634864
  0
ARC
  5
75B
330
1F
100
AcDbEntity
  8
0
  6
CONTINUOUS
100
AcDbCircle
 10
190.2527296937417
 20
161.0664447403462
 30
0.0
 40
15.0
100
AcDbArc
 50
185.6267918049783
 51
187.0330623956188
  0
ARC
  5
75C
330
1F
100
AcDbEntity
  8
0
  6
CONTINUOUS
100
AcDbCircle
 10
190.2527296937417
 20
161.0664447403462
 30
0.0
 40
13.0
100
AcDbArc
 50
185.6270674672827
 51
187.0333412257142
  0
ARC
  5
75D
330
1F
100
AcDbEntity
  8
0
  6
CONTINUOUS
100
AcDbCircle
 10
190.2527296937417
 20
161.0664447403462
 30
0.0
 40
13.0
100
AcDbArc
 50
188.4396137244694
 51
189.8458849499959
  0
ARC
  5
75E
330
1F
100
AcDbEntity
  8
0
  6
CONTINUOUS
100
AcDbCircle
 10
190.2527296937417
 20
161.0664447403462
 30
0.0
 40
15.0
100
AcDbArc
 50
188.43933189454
 51
189.8456002899963
  0
ARC
  5
75F
330
1F
100
AcDbEntity
  8
0
  6
CONTINUOUS
100
AcDbCircle
 10
190.2527296937417
 20
161.0664447403462
 30
0.0
 40
13.0
100
AcDbArc
 50
191.2521548895085
 51
192.6584235309963
  0
ARC
  5
760
330
1F
100
AcDbEntity
  8
0
  6
CONTINUOUS
100
AcDbCircle
 10
190.2527296937417
 20
161.0664447403462
 30
0.0
 40
15.0
100
AcDbArc
 50
191.2518675709073
 51
192.6581337268632
  0
ARC
  5
761
330
1F
100
AcDbEntity
  8
0
  6
CONTINUOUS
100
AcDbCircle
 10
190.2527296937417
 20
161.0664447403462
 30
0.0
 40
13.0
100
AcDbArc
 50
194.06469086323
 51
195.4709568757699
  0
ARC
  5
762
330
1F
100
AcDbEntity
  8
0
  6
CONTINUOUS
100
AcDbCircle
 10
190.2527296937417
 20
161.0664447403462
 30
0.0
 40
15.0
100
AcDbArc
 50
194.0643987481326
 51
195.4706626256672
  0
ARC
  5
763
330
1F
100
AcDbEntity
  8
0
  6
CONTINUOUS
100
AcDbCircle
 10
190.2527296937417
 20
161.0664447403462
 30
0.0
 40
13.0
100
AcDbArc
 50
196.8772215589701
 51
198.2834849039867
  0
ARC
  5
764
330
1F
100
AcDbEntity
  8
0
  6
CONTINUOUS
100
AcDbCircle
 10
190.2527296937417
 20
161.0664447403462
 30
0.0
 40
15.0
100
AcDbArc
 50
196.8769253511074
 51
198.2831869167883
  0
ARC
  5
765
330
1F
100
AcDbEntity
  8
0
  6
CONTINUOUS
100
AcDbCircle
 10
190.2527296937417
 20
161.0664447403462
 30
0.0
 40
13.0
100
AcDbArc
 50
199.6897469027803
 51
201.0960075481237
  0
ARC
  5
766
330
1F
100
AcDbEntity
  8
0
  6
CONTINUOUS
100
AcDbCircle
 10
190.2527296937417
 20
161.0664447403462
 30
0.0
 40
15.0
100
AcDbArc
 50
199.6894473157428
 51
201.0957065417071
  0
ARC
  5
767
330
1F
100
AcDbEntity
  8
0
  6
CONTINUOUS
100
AcDbCircle
 10
190.2527296937417
 20
161.0664447403462
 30
0.0
 40
13.0
100
AcDbArc
 50
202.5022668336047
 51
203.9085247536297
  0
ARC
  5
768
330
1F
100
AcDbEntity
  8
0
  6
CONTINUOUS
100
AcDbCircle
 10
190.2527296937417
 20
161.0664447403462
 30
0.0
 40
15.0
100
AcDbArc
 50
202.501964589124
 51
203.9082214531457
  0
ARC
  5
769
330
1F
100
AcDbEntity
  8
0
  6
CONTINUOUS
100
AcDbCircle
 10
190.2527296937417
 20
161.0664447403462
 30
0.0
 40
13.0
100
AcDbArc
 50
205.3147813034285
 51
206.721036479055
  0
ARC
  5
76A
330
1F
100
AcDbEntity
  8
0
  6
CONTINUOUS
100
AcDbCircle
 10
190.2527296937417
 20
161.0664447403462
 30
0.0
 40
15.0
100
AcDbArc
 50
205.3144771296378
 51
206.7207316151809
  0
ARC
  5
76B
330
1F
100
AcDbEntity
  8
0
  6
CONTINUOUS
100
AcDbCircle
 10
190.2527296937417
 20
161.0664447403462
 30
0.0
 40
13.0
100
AcDbArc
 50
208.1272902773924
 51
209.533542696152
  0
ARC
  5
76C
330
1F
100
AcDbEntity
  8
0
  6
CONTINUOUS
100
AcDbCircle
 10
190.2527296937417
 20
161.0664447403462
 30
0.0
 40
15.0
100
AcDbArc
 50
208.1269849070732
 51
209.5332370033316
  0
ARC
  5
76D
330
1F
100
AcDbEntity
  8
0
  6
CONTINUOUS
100
AcDbCircle
 10
190.2527296937417
 20
161.0664447403462
 30
0.0
 40
13.0
100
AcDbArc
 50
210.9397937338774
 51
212.3460433899433
  0
ARC
  5
76E
330
1F
100
AcDbEntity
  8
0
  6
CONTINUOUS
100
AcDbCircle
 10
190.2527296937417
 20
161.0664447403462
 30
0.0
 40
15.0
100
AcDbArc
 50
210.9394879026936
 51
212.3457376046174
  0
ARC
  5
76F
330
1F
100
AcDbEntity
  8
0
  6
CONTINUOUS
100
AcDbCircle
 10
190.2527296937417
 20
161.0664447403462
 30
0.0
 40
13.0
100
AcDbArc
 50
213.7522916645568
 51
215.1585385587572
  0
ARC
  5
770
330
1F
100
AcDbEntity
  8
0
  6
CONTINUOUS
100
AcDbCircle
 10
190.2527296937417
 20
161.0664447403462
 30
0.0
 40
15.0
100
AcDbArc
 50
213.7519861092824
 51
215.1582334175893
  0
ARC
  5
771
330
1F
100
AcDbEntity
  8
0
  6
CONTINUOUS
100
AcDbCircle
 10
190.2527296937417
 20
161.0664447403462
 30
0.0
 40
13.0
100
AcDbArc
 50
216.5647840744154
 51
217.9710282142325
  0
ARC
  5
772
330
1F
100
AcDbEntity
  8
0
  6
CONTINUOUS
100
AcDbCircle
 10
190.2527296937417
 20
161.0664447403462
 30
0.0
 40
15.0
100
AcDbArc
 50
216.5644795311598
 51
217.9707244523346
  0
ARC
  5
773
330
1F
100
AcDbEntity
  8
0
  6
CONTINUOUS
100
AcDbCircle
 10
190.2527296937417
 20
161.0664447403462
 30
0.0
 40
13.0
100
AcDbArc
 50
219.3772709817385
 51
220.7835123812901
  0
ARC
  5
774
330
1F
100
AcDbEntity
  8
0
  6
CONTINUOUS
100
AcDbCircle
 10
190.2527296937417
 20
161.0664447403462
 30
0.0
 40
15.0
100
AcDbArc
 50
219.3769681841733
 51
220.7832107304513
  0
ARC
  5
775
330
1F
100
AcDbEntity
  8
0
  6
CONTINUOUS
100
AcDbCircle
 10
190.2527296937417
 20
161.0664447403462
 30
0.0
 40
13.0
100
AcDbArc
 50
222.1897524180679
 51
223.5959910980732
  0
ARC
  5
776
330
1F
100
AcDbEntity
  8
0
  6
CONTINUOUS
100
AcDbCircle
 10
190.2527296937417
 20
161.0664447403462
 30
0.0
 40
15.0
100
AcDbArc
 50
222.1894520956588
 51
223.5956922849966
  0
ARC
  5
777
330
1F
100
AcDbEntity
  8
0
  6
CONTINUOUS
100
AcDbCircle
 10
190.2527296937417
 20
161.0664447403462
 30
0.0
 40
13.0
100
AcDbArc
 50
225.0022284281249
 51
226.4084644158547
  0
ARC
  5
778
330
1F
100
AcDbEntity
  8
0
  6
CONTINUOUS
100
AcDbCircle
 10
190.2527296937417
 20
161.0664447403462
 30
0.0
 40
15.0
100
AcDbArc
 50
225.0019313043748
 51
226.4081691604073
  0
ARC
  5
779
330
1F
100
AcDbEntity
  8
0
  6
CONTINUOUS
100
AcDbCircle
 10
190.2527296937417
 20
161.0664447403462
 30
0.0
 40
13.0
100
AcDbArc
 50
227.8146990697032
 51
229.2209323989144
  0
ARC
  5
77A
330
1F
100
AcDbEntity
  8
0
  6
CONTINUOUS
100
AcDbCircle
 10
190.2527296937417
 20
161.0664447403462
 30
0.0
 40
15.0
100
AcDbArc
 50
227.8144058604094
 51
229.2206414123924
  0
ARC
  5
77B
330
1F
100
AcDbEntity
  8
0
  6
CONTINUOUS
100
AcDbCircle
 10
190.2527296937417
 20
161.0664447403462
 30
0.0
 40
15.0
100
AcDbArc
 50
230.6268758250593
 51
232.0331091077995
  0
ARC
  5
77C
330
1F
100
AcDbEntity
  8
0
  6
CONTINUOUS
100
AcDbCircle
 10
190.2527296937417
 20
161.0664447403462
 30
0.0
 40
13.0
100
AcDbArc
 50
230.6271644135301
 51
232.0333951243841
  0
ARC
  5
77D
330
1F
100
AcDbEntity
  8
0
  6
CONTINUOUS
100
AcDbCircle
 10
190.2527296937417
 20
161.0664447403462
 30
0.0
 40
15.0
100
AcDbArc
 50
233.4393412706824
 51
234.8455723244529
  0
ARC
  5
77E
330
1F
100
AcDbEntity
  8
0
  6
CONTINUOUS
100
AcDbCircle
 10
190.2527296937417
 20
161.0664447403462
 30
0.0
 40
13.0
100
AcDbArc
 50
233.4396245430952
 51
234.8458526820611
  0
ARC
  5
77F
330
1F
100
AcDbEntity
  8
0
  6
CONTINUOUS
100
AcDbCircle
 10
190.2527296937417
 20
161.0664447403462
 30
0.0
 40
15.0
100
AcDbArc
 50
236.2518022805232
 51
237.6580311509671
  0
ARC
  5
780
330
1F
100
AcDbEntity
  8
0
  6
CONTINUOUS
100
AcDbCircle
 10
190.2527296937417
 20
161.0664447403462
 30
0.0
 40
13.0
100
AcDbArc
 50
236.2520795544499
 51
237.6583051741929
  0
ARC
  5
781
330
1F
100
AcDbEntity
  8
0
  6
CONTINUOUS
100
AcDbCircle
 10
190.2527296937417
 20
161.0664447403462
 30
0.0
 40
15.0
100
AcDbArc
 50
239.0642589485122
 51
240.4704856865326
  0
ARC
  5
782
330
1F
100
AcDbEntity
  8
0
  6
CONTINUOUS
100
AcDbCircle
 10
190.2527296937417
 20
161.0664447403462
 30
0.0
 40
13.0
100
AcDbArc
 50
239.0645295559758
 51
240.47075271523
  0
ARC
  5
783
330
1F
100
AcDbEntity
  8
0
  6
CONTINUOUS
100
AcDbCircle
 10
190.2527296937417
 20
161.0664447403462
 30
0.0
 40
15.0
100
AcDbArc
 50
241.8767113790404
 51
243.2829360406774
  0
ARC
  5
784
330
1F
100
AcDbEntity
  8
0
  6
CONTINUOUS
100
AcDbCircle
 10
190.2527296937417
 20
161.0664447403462
 30
0.0
 40
13.0
100
AcDbArc
 50
241.8769746681235
 51
243.2831954315508
  0
ARC
  5
785
330
1F
100
AcDbEntity
  8
0
  6
CONTINUOUS
100
AcDbCircle
 10
190.2527296937417
 20
161.0664447403462
 30
0.0
 40
15.0
100
AcDbArc
 50
244.6891596867063
 51
246.0953823330022
  0
ARC
  5
786
330
1F
100
AcDbEntity
  8
0
  6
CONTINUOUS
100
AcDbCircle
 10
190.2527296937417
 20
161.0664447403462
 30
0.0
 40
13.0
100
AcDbArc
 50
244.6894150231227
 51
246.0956334611566
  0
ARC
  5
787
330
1F
100
AcDbEntity
  8
0
  6
CONTINUOUS
100
AcDbCircle
 10
190.2527296937417
 20
161.0664447403462
 30
0.0
 40
15.0
100
AcDbArc
 50
247.5016039960418
 51
248.9078246928941
  0
ARC
  5
788
330
1F
100
AcDbEntity
  8
0
  6
CONTINUOUS
100
AcDbCircle
 10
190.2527296937417
 20
161.0664447403462
 30
0.0
 40
13.0
100
AcDbArc
 50
247.5018507646637
 51
248.9080669533394
  0
ARC
  5
789
330
1F
100
AcDbEntity
  8
0
  6
CONTINUOUS
100
AcDbCircle
 10
190.2527296937417
 20
161.0664447403462
 30
0.0
 40
15.0
100
AcDbArc
 50
250.3140444412102
 51
251.7202632592128
  0
ARC
  5
78A
330
1F
100
AcDbEntity
  8
0
  6
CONTINUOUS
100
AcDbCircle
 10
190.2527296937417
 20
161.0664447403462
 30
0.0
 40
13.0
100
AcDbArc
 50
250.3142820475504
 51
251.7204960683225
  0
ARC
  5
78B
330
1F
100
AcDbEntity
  8
0
  6
CONTINUOUS
100
AcDbCircle
 10
190.2527296937417
 20
161.0664447403462
 30
0.0
 40
15.0
100
AcDbArc
 50
253.1264811656845
 51
254.5326981799574
  0
ARC
  5
78C
330
1F
100
AcDbEntity
  8
0
  6
CONTINUOUS
100
AcDbCircle
 10
190.2527296937417
 20
161.0664447403462
 30
0.0
 40
13.0
100
AcDbArc
 50
253.1267090373283
 51
254.532920976874
  0
ARC
  5
78D
330
1F
100
AcDbEntity
  8
0
  6
CONTINUOUS
100
AcDbCircle
 10
190.2527296937417
 20
161.0664447403462
 30
0.0
 40
15.0
100
AcDbArc
 50
255.938914321901
 51
257.3451296119097
  0
ARC
  5
78E
330
1F
100
AcDbEntity
  8
0
  6
CONTINUOUS
100
AcDbCircle
 10
190.2527296937417
 20
161.0664447403462
 30
0.0
 40
13.0
100
AcDbArc
 50
255.9391319098858
 51
257.3453418598959
  0
ARC
  5
78F
330
1F
100
AcDbEntity
  8
0
  6
CONTINUOUS
100
AcDbCircle
 10
190.2527296937417
 20
161.0664447403462
 30
0.0
 40
15.0
100
AcDbArc
 50
258.751344070892
 51
260.1575577202562
  0
ARC
  5
790
330
1F
100
AcDbEntity
  8
0
  6
CONTINUOUS
100
AcDbCircle
 10
190.2527296937417
 20
161.0664447403462
 30
0.0
 40
13.0
100
AcDbArc
 50
258.7515508510294
 51
260.157758907988
  0
ARC
  5
791
330
1F
100
AcDbEntity
  8
0
  6
CONTINUOUS
100
AcDbCircle
 10
190.2527296937417
 20
161.0664447403462
 30
0.0
 40
15.0
100
AcDbArc
 50
261.5637705818986
 51
262.96998267819
  0
ARC
  5
792
330
1F
100
AcDbEntity
  8
0
  6
CONTINUOUS
100
AcDbCircle
 10
190.2527296937417
 20
161.0664447403462
 30
0.0
 40
13.0
100
AcDbArc
 50
261.5639660560369
 51
262.9701723209885
  0
ARC
  5
793
330
1F
100
AcDbEntity
  8
0
  6
CONTINUOUS
100
AcDbCircle
 10
190.2527296937417
 20
161.0664447403462
 30
0.0
 40
15.0
100
AcDbArc
 50
264.3761940319621
 51
265.7824046664941
  0
ARC
  5
794
330
1F
100
AcDbEntity
  8
0
  6
CONTINUOUS
100
AcDbCircle
 10
190.2527296937417
 20
161.0664447403462
 30
0.0
 40
13.0
100
AcDbArc
 50
264.3763777291871
 51
265.7825823074932
  0
ARC
  5
795
330
1F
100
AcDbEntity
  8
0
  6
CONTINUOUS
100
AcDbCircle
 10
190.2527296937417
 20
161.0664447403462
 30
0.0
 40
15.0
100
AcDbArc
 50
267.1886146054981
 51
268.5948238731054
  0
ARC
  5
796
330
1F
100
AcDbEntity
  8
0
  6
CONTINUOUS
100
AcDbCircle
 10
190.2527296937417
 20
161.0664447403462
 30
0.0
 40
13.0
100
AcDbArc
 50
267.1887860832671
 51
268.5949890843523
  0
ARC
  5
797
330
1F
100
AcDbEntity
  8
0
  6
CONTINUOUS
100
AcDbCircle
 10
190.2527296937417
 20
161.0664447403462
 30
0.0
 40
15.0
100
AcDbArc
 50
270.0010324938517
 51
271.4072404926624
  0
ARC
  5
798
330
1F
100
AcDbEntity
  8
0
  6
CONTINUOUS
100
AcDbCircle
 10
190.2527296937417
 20
161.0664447403462
 30
0.0
 40
13.0
100
AcDbArc
 50
270.0011913390597
 51
271.4073928761489
  0
ARC
  5
799
330
1F
100
AcDbEntity
  8
0
  6
CONTINUOUS
100
AcDbCircle
 10
190.2527296937417
 20
161.0664447403462
 30
0.0
 40
15.0
100
AcDbArc
 50
272.8134478948373
 51
274.2196547260357
  0
ARC
  5
79A
330
1F
100
AcDbEntity
  8
0
  6
CONTINUOUS
100
AcDbCircle
 10
190.2527296937417
 20
161.0664447403462
 30
0.0
 40
13.0
100
AcDbArc
 50
272.8135937248123
 51
274.2197939146566
  0
ARC
  5
79B
330
1F
100
AcDbEntity
  8
0
  6
CONTINUOUS
100
AcDbCircle
 10
190.2527296937417
 20
161.0664447403462
 30
0.0
 40
15.0
100
AcDbArc
 50
275.625861012261
 51
277.0320667798449
  0
ARC
  5
79C
330
1F
100
AcDbEntity
  8
0
  6
CONTINUOUS
100
AcDbCircle
 10
190.2527296937417
 20
161.0664447403462
 30
0.0
 40
13.0
100
AcDbArc
 50
275.6259934756859
 51
277.0321924382826
  0
ARC
  5
79D
330
1F
100
AcDbEntity
  8
0
  6
CONTINUOUS
100
AcDbCircle
 10
190.2527296937417
 20
161.0664447403462
 30
0.0
 40
15.0
100
AcDbArc
 50
278.438272055431
 51
279.8444768659597
  0
ARC
  5
79E
330
1F
100
AcDbEntity
  8
0
  6
CONTINUOUS
100
AcDbCircle
 10
190.2527296937417
 20
161.0664447403462
 30
0.0
 40
13.0
100
AcDbArc
 50
278.4383908331896
 51
279.8445886914921
  0
ARC
  5
79F
330
1F
100
AcDbEntity
  8
0
  6
CONTINUOUS
100
AcDbCircle
 10
190.2527296937417
 20
161.0664447403462
 30
0.0
 40
15.0
100
AcDbArc
 50
281.2506812386516
 51
282.656885200991
  0
ARC
  5
7A0
330
1F
100
AcDbEntity
  8
0
  6
CONTINUOUS
100
AcDbCircle
 10
190.2527296937417
 20
161.0664447403462
 30
0.0
 40
13.0
100
AcDbArc
 50
281.2507860445982
 51
282.6569829242204
  0
ARC
  5
7A1
330
1F
100
AcDbEntity
  8
0
  6
CONTINUOUS
100
AcDbCircle
 10
190.2527296937417
 20
161.0664447403462
 30
0.0
 40
15.0
100
AcDbArc
 50
284.0630887807089
 51
285.4692920057673
  0
ARC
  5
7A2
330
1F
100
AcDbEntity
  8
0
  6
CONTINUOUS
100
AcDbCircle
 10
190.2527296937417
 20
161.0664447403462
 30
0.0
 40
13.0
100
AcDbArc
 50
284.0631793623564
 51
285.46937539127
  0
ARC
  5
7A3
330
1F
100
AcDbEntity
  8
0
  6
CONTINUOUS
100
AcDbCircle
 10
190.2527296937417
 20
161.0664447403462
 30
0.0
 40
15.0
100
AcDbArc
 50
286.8754949043418
 51
288.2816975048042
  0
ARC
  5
7A4
330
1F
100
AcDbEntity
  8
0
  6
CONTINUOUS
100
AcDbCircle
 10
190.2527296937417
 20
161.0664447403462
 30
0.0
 40
13.0
100
AcDbArc
 50
286.8755710434712
 51
288.2817663516973
  0
ARC
  5
7A5
330
1F
100
AcDbEntity
  8
0
  6
CONTINUOUS
100
AcDbCircle
 10
190.2527296937417
 20
161.0664447403462
 30
0.0
 40
15.0
100
AcDbArc
 50
289.6878998357066
 51
291.094101925763
  0
ARC
  5
7A6
330
1F
100
AcDbEntity
  8
0
  6
CONTINUOUS
100
AcDbCircle
 10
190.2527296937417
 20
161.0664447403462
 30
0.0
 40
13.0
100
AcDbArc
 50
289.6879613488923
 51
291.0941560681882
  0
ARC
  5
7A7
330
1F
100
AcDbEntity
  8
0
  6
CONTINUOUS
100
AcDbCircle
 10
190.2527296937417
 20
161.0664447403462
 30
0.0
 40
15.0
100
AcDbArc
 50
292.5003038038324
 51
293.9065054989018
  0
ARC
  5
7A8
330
1F
100
AcDbEntity
  8
0
  6
CONTINUOUS
100
AcDbCircle
 10
190.2527296937417
 20
161.0664447403462
 30
0.0
 40
13.0
100
AcDbArc
 50
292.5003505428836
 51
293.9065448064251
  0
ARC
  5
7A9
330
1F
100
AcDbEntity
  8
0
  6
CONTINUOUS
100
AcDbCircle
 10
190.2527296937417
 20
161.0664447403462
 30
0.0
 40
15.0
100
AcDbArc
 50
295.3127070400681
 51
296.7189084565213
  0
ARC
  5
7AA
330
1F
100
AcDbEntity
  8
0
  6
CONTINUOUS
100
AcDbCircle
 10
190.2527296937417
 20
161.0664447403462
 30
0.0
 40
13.0
100
AcDbArc
 50
295.3127388923863
 51
296.7189328344476
  0
ARC
  5
7AB
330
1F
100
AcDbEntity
  8
0
  6
CONTINUOUS
100
AcDbCircle
 10
190.2527296937417
 20
161.0664447403462
 30
0.0
 40
15.0
100
AcDbArc
 50
298.1251097775262
 51
299.5313110324051
  0
ARC
  5
7AC
330
1F
100
AcDbEntity
  8
0
  6
CONTINUOUS
100
AcDbCircle
 10
190.2527296937417
 20
161.0664447403462
 30
0.0
 40
13.0
100
AcDbArc
 50
298.1251266663763
 51
299.531320422006
  0
ARC
  5
7AD
330
1F
100
AcDbEntity
  8
0
  6
CONTINUOUS
100
AcDbCircle
 10
190.2527296937417
 20
161.0664447403462
 30
0.0
 40
15.0
100
AcDbArc
 50
300.9375122505205
 51
302.3437134612565
  0
ARC
  5
7AE
330
1F
100
AcDbEntity
  8
0
  6
CONTINUOUS
100
AcDbCircle
 10
190.2527296937417
 20
161.0664447403462
 30
0.0
 40
13.0
100
AcDbArc
 50
300.9375141352159
 51
302.3437078399114
  0
ARC
  5
7AF
330
1F
100
AcDbEntity
  8
0
  6
CONTINUOUS
100
AcDbCircle
 10
190.2527296937417
 20
161.0664447403462
 30
0.0
 40
15.0
100
AcDbArc
 50
303.7499146940022
 51
305.156115978133
  0
ARC
  5
7B0
330
1F
100
AcDbEntity
  8
0
  6
CONTINUOUS
100
AcDbCircle
 10
190.2527296937417
 20
161.0664447403462
 30
0.0
 40
13.0
100
AcDbArc
 50
303.7499015700025
 51
305.1560953593844
  0
ARC
  5
7B1
330
1F
100
AcDbEntity
  8
0
  6
CONTINUOUS
100
AcDbCircle
 10
190.2527296937417
 20
161.0664447403462
 30
0.0
 40
15.0
100
AcDbArc
 50
306.5623173429936
 51
307.96851881788
  0
ARC
  5
7B2
330
1F
100
AcDbEntity
  8
0
  6
CONTINUOUS
100
AcDbCircle
 10
190.2527296937417
 20
161.0664447403462
 30
0.0
 40
13.0
100
AcDbArc
 50
306.5622892419157
 51
307.9684832514
  0
ARC
  5
7B3
330
1F
100
AcDbEntity
  8
0
  6
CONTINUOUS
100
AcDbCircle
 10
190.2527296937417
 20
161.0664447403462
 30
0.0
 40
15.0
100
AcDbArc
 50
309.3747204320218
 51
310.7809222145648
  0
ARC
  5
7B4
330
1F
100
AcDbEntity
  8
0
  6
CONTINUOUS
100
AcDbCircle
 10
190.2527296937417
 20
161.0664447403462
 30
0.0
 40
13.0
100
AcDbArc
 50
309.3746774215636
 51
310.7808717860364
  0
ARC
  5
7B5
330
1F
100
AcDbEntity
  8
0
  6
CONTINUOUS
100
AcDbCircle
 10
190.2527296937417
 20
161.0664447403462
 30
0.0
 40
15.0
100
AcDbArc
 50
312.1871241945536
 51
313.5933264009135
  0
ARC
  5
7B6
330
1F
100
AcDbEntity
  8
0
  6
CONTINUOUS
100
AcDbCircle
 10
190.2527296937417
 20
161.0664447403462
 30
0.0
 40
13.0
100
AcDbArc
 50
312.1870663783311
 51
313.5932612318232
  0
ARC
  5
7B7
330
1F
100
AcDbEntity
  8
0
  6
CONTINUOUS
100
AcDbCircle
 10
190.2527296937417
 20
161.0664447403462
 30
0.0
 40
15.0
100
AcDbArc
 50
314.9995288624337
 51
316.4057316077495
  0
ARC
  5
7B8
330
1F
100
AcDbEntity
  8
0
  6
CONTINUOUS
100
AcDbCircle
 10
190.2527296937417
 20
161.0664447403462
 30
0.0
 40
13.0
100
AcDbArc
 50
314.9994563797312
 51
316.4056518550956
  0
ARC
  5
7B9
330
1F
100
AcDbEntity
  8
0
  6
CONTINUOUS
100
AcDbCircle
 10
190.2527296937417
 20
161.0664447403462
 30
0.0
 40
15.0
100
AcDbArc
 50
317.8119346653254
 51
319.2181380634378
  0
ARC
  5
7BA
330
1F
100
AcDbEntity
  8
0
  6
CONTINUOUS
100
AcDbCircle
 10
190.2527296937417
 20
161.0664447403462
 30
0.0
 40
13.0
100
AcDbArc
 50
317.81184769076
 51
319.2180439193513
  0
ARC
  5
7BB
330
1F
100
AcDbEntity
  8
0
  6
CONTINUOUS
100
AcDbCircle
 10
190.2527296937417
 20
161.0664447403462
 30
0.0
 40
13.0
100
AcDbArc
 50
320.6242405732592
 51
322.0304376846173
  0
ARC
  5
7BC
330
1F
100
AcDbEntity
  8
0
  6
CONTINUOUS
100
AcDbCircle
 10
190.2527296937417
 20
161.0664447403462
 30
0.0
 40
15.0
100
AcDbArc
 50
320.624341830158
 51
322.030545993335
  0
ARC
  5
7BD
330
1F
100
AcDbEntity
  8
0
  6
CONTINUOUS
100
AcDbCircle
 10
190.2527296937417
 20
161.0664447403462
 30
0.0
 40
13.0
100
AcDbArc
 50
323.4366352852837
 51
324.842833406822
  0
ARC
  5
7BE
330
1F
100
AcDbEntity
  8
0
  6
CONTINUOUS
100
AcDbCircle
 10
190.2527296937417
 20
161.0664447403462
 30
0.0
 40
15.0
100
AcDbArc
 50
323.4367505805791
 51
324.8429556192458
  0
ARC
  5
7BF
330
1F
100
AcDbEntity
  8
0
  6
CONTINUOUS
100
AcDbCircle
 10
190.2527296937417
 20
161.0664447403462
 30
0.0
 40
13.0
100
AcDbArc
 50
326.2490320804818
 51
327.65523133718
  0
ARC
  5
7C0
330
1F
100
AcDbEntity
  8
0
  6
CONTINUOUS
100
AcDbCircle
 10
190.2527296937417
 20
161.0664447403462
 30
0.0
 40
15.0
100
AcDbArc
 50
326.2491611364176
 51
327.6553671588894
  0
ARC
  5
7C1
330
1F
100
AcDbEntity
  8
0
  6
CONTINUOUS
100
AcDbCircle
 10
190.2527296937417
 20
161.0664447403462
 30
0.0
 40
13.0
100
AcDbArc
 50
329.0614312074828
 51
330.467631721586
  0
ARC
  5
7C2
330
1F
100
AcDbEntity
  8
0
  6
CONTINUOUS
100
AcDbCircle
 10
190.2527296937417
 20
161.0664447403462
 30
0.0
 40
15.0
100
AcDbArc
 50
329.0615737131517
 51
330.4677808253746
  0
ARC
  5
7C3
330
1F
100
AcDbEntity
  8
0
  6
CONTINUOUS
100
AcDbCircle
 10
190.2527296937417
 20
161.0664447403462
 30
0.0
 40
13.0
100
AcDbArc
 50
331.8738329092984
 51
333.2800348000228
  0
ARC
  5
7C4
330
1F
100
AcDbEntity
  8
0
  6
CONTINUOUS
100
AcDbCircle
 10
190.2527296937417
 20
161.0664447403462
 30
0.0
 40
15.0
100
AcDbArc
 50
331.8739885213921
 51
333.2801968266864
  0
ARC
  5
7C5
330
1F
100
AcDbEntity
  8
0
  6
CONTINUOUS
100
AcDbCircle
 10
190.2527296937417
 20
161.0664447403462
 30
0.0
 40
13.0
100
AcDbArc
 50
334.6862374227379
 51
336.0924408059825
  0
ARC
  5
7C6
330
1F
100
AcDbEntity
  8
0
  6
CONTINUOUS
100
AcDbCircle
 10
190.2527296937417
 20
161.0664447403462
 30
0.0
 40
15.0
100
AcDbArc
 50
334.686405766373
 51
336.0926153651849
  0
ARC
  5
7C7
330
1F
100
AcDbEntity
  8
0
  6
CONTINUOUS
100
AcDbCircle
 10
190.2527296937417
 20
161.0664447403462
 30
0.0
 40
13.0
100
AcDbArc
 50
337.4986449778366
 51
338.9048499659054
  0
ARC
  5
7C8
330
1F
100
AcDbEntity
  8
0
  6
CONTINUOUS
100
AcDbCircle
 10
190.2527296937417
 20
161.0664447403462
 30
0.0
 40
15.0
100
AcDbArc
 50
337.4988256474584
 51
338.9050366371181
  0
ARC
  5
7C9
330
1F
100
AcDbEntity
  8
0
  6
CONTINUOUS
100
AcDbCircle
 10
190.2527296937417
 20
161.0664447403462
 30
0.0
 40
13.0
100
AcDbArc
 50
340.3110557973025
 51
341.7172624986331
  0
ARC
  5
7CA
330
1F
100
AcDbEntity
  8
0
  6
CONTINUOUS
100
AcDbCircle
 10
190.2527296937417
 20
161.0664447403462
 30
0.0
 40
15.0
100
AcDbArc
 50
340.3112483576621
 51
341.7174608321488
  0
ARC
  5
7CB
330
1F
100
AcDbEntity
  8
0
  6
CONTINUOUS
100
AcDbCircle
 10
190.2527296937417
 20
161.0664447403462
 30
0.0
 40
13.0
100
AcDbArc
 50
343.123470095979
 51
344.5296786148818
  0
ARC
  5
7CC
330
1F
100
AcDbEntity
  8
0
  6
CONTINUOUS
100
AcDbCircle
 10
190.2527296937417
 20
161.0664447403462
 30
0.0
 40
15.0
100
AcDbArc
 50
343.1236740831818
 51
344.5298881328976
  0
ARC
  5
7CD
330
1F
100
AcDbEntity
  8
0
  6
CONTINUOUS
100
AcDbCircle
 10
190.2527296937417
 20
161.0664447403462
 30
0.0
 40
13.0
100
AcDbArc
 50
345.9358880803284
 51
347.3420985167349
  0
ARC
  5
7CE
330
1F
100
AcDbEntity
  8
0
  6
CONTINUOUS
100
AcDbCircle
 10
190.2527296937417
 20
161.0664447403462
 30
0.0
 40
15.0
100
AcDbArc
 50
345.9361030029513
 51
347.3423187145036
  0
ARC
  5
7CF
330
1F
100
AcDbEntity
  8
0
  6
CONTINUOUS
100
AcDbCircle
 10
190.2527296937417
 20
161.0664447403462
 30
0.0
 40
13.0
100
AcDbArc
 50
348.7483099479333
 51
350.1545223971558
  0
ARC
  5
7D0
330
1F
100
AcDbEntity
  8
0
  6
CONTINUOUS
100
AcDbCircle
 10
190.2527296937417
 20
161.0664447403462
 30
0.0
 40
15.0
100
AcDbArc
 50
348.7485352882089
 51
350.1547527442018
  0
ARC
  5
7D1
330
1F
100
AcDbEntity
  8
0
  6
CONTINUOUS
100
AcDbCircle
 10
190.2527296937417
 20
161.0664447403462
 30
0.0
 40
13.0
100
AcDbArc
 50
351.5607358870218
 51
352.9669504395233
  0
ARC
  5
7D2
330
1F
100
AcDbEntity
  8
0
  6
CONTINUOUS
100
AcDbCircle
 10
190.2527296937417
 20
161.0664447403462
 30
0.0
 40
15.0
100
AcDbArc
 50
351.5609711020857
 51
352.9671903809202
  0
ARC
  5
7D3
330
1F
100
AcDbEntity
  8
0
  6
CONTINUOUS
100
AcDbCircle
 10
190.2527296937417
 20
161.0664447403462
 30
0.0
 40
13.0
100
AcDbArc
 50
354.3731660760129
 51
355.7793828171897
  0
ARC
  5
7D4
330
1F
100
AcDbEntity
  8
0
  6
CONTINUOUS
100
AcDbCircle
 10
190.2527296937417
 20
161.0664447403462
 30
0.0
 40
15.0
100
AcDbArc
 50
354.3734105992112
 51
355.7796317748978
  0
ARC
  5
7D5
330
1F
100
AcDbEntity
  8
0
  6
CONTINUOUS
100
AcDbCircle
 10
190.2527296937417
 20
161.0664447403462
 30
0.0
 40
13.0
100
AcDbArc
 50
357.1856006830875
 51
358.591819693063
  0
ARC
  5
7D6
330
1F
100
AcDbEntity
  8
0
  6
CONTINUOUS
100
AcDbCircle
 10
190.2527296937417
 20
161.0664447403462
 30
0.0
 40
15.0
100
AcDbArc
 50
357.1858539253426
 51
358.5920770673213
  0
ARC
  5
7D7
330
1F
100
AcDbEntity
  8
0
  6
CONTINUOUS
100
AcDbCircle
 10
190.2527296937417
 20
161.0664447403462
 30
0.0
 40
13.0
100
AcDbArc
 50
0.0
 51
1.404261219214661
  0
ARC
  5
7D8
330
1F
100
AcDbEntity
  8
0
  6
CONTINUOUS
100
AcDbCircle
 10
190.2527296937417
 20
161.0664447403462
 30
0.0
 40
15.0
100
AcDbArc
 50
0.0
 51
1.404526389986127
  0
LINE
  5
7DA
330
1F
100
AcDbEntity
  8
0
  6
CONTINUOUS
100
AcDbLine
 10
190.253
 20
174.066444737536
 30
0.0
 11
190.253
 21
176.0664447379107
 31
0.0
  0
LINE
  5
7DB
330
1F
100
AcDbEntity
  8
0
  6
CONTINUOUS
100
AcDbLine
 10
203.2527296937417
 20
161.0664447403462
 30
0.0
 11
205.2527296937417
 21
161.0664447403462
 31
0.0
  0
ENDSEC
  0
SECTION
  2
OBJECTS
  0
DICTIONARY
  5
C
330
0
100
AcDbDictionary
  3
ACAD_DETAILVIEWSTYLE
350
B5
  3
ACAD_GROUP
350
D
  3
ACAD_IMAGE_VARS
350
6A
  3
ACAD_MLINESTYLE
350
17
  3
ACAD_SCALELIST
350
40
  3
ACAD_SECTIONVIEWSTYLE
350
B6
  3
ACDBVARIABLEDICTIONARY
350
3D
  3
APPDATA
350
71
  3
DWGPROPS
350
7DC
1001
ACAD
1000
TREAT_AS_HARD
1070
     0
  0
DICTIONARY
  5
B5
102
{ACAD_REACTORS
330
C
102
}
330
C
100
AcDbDictionary
1001
ACAD
1000
TREAT_AS_HARD
1070
     0
  0
DICTIONARY
  5
D
102
{ACAD_REACTORS
330
C
102
}
330
C
100
AcDbDictionary
1001
ACAD
1000
TREAT_AS_HARD
1070
     0
  0
RASTERVARIABLES
  5
6A
102
{ACAD_REACTORS
330
C
102
}
330
C
100
AcDbRasterVariables
 90
        0
 70
     1
 71
     1
 72
     1
  0
DICTIONARY
  5
17
102
{ACAD_REACTORS
330
C
102
}
330
C
100
AcDbDictionary
  3
STANDARD
350
18
1001
ACAD
1000
TREAT_AS_HARD
1070
     0
  0
DICTIONARY
  5
40
102
{ACAD_REACTORS
330
C
102
}
330
C
100
AcDbDictionary
1001
ACAD
1000
TREAT_AS_HARD
1070
     0
  0
DICTIONARY
  5
B6
102
{ACAD_REACTORS
330
C
102
}
330
C
100
AcDbDictionary
1001
ACAD
1000
TREAT_AS_HARD
1070
     0
  0
DICTIONARY
  5
3D
102
{ACAD_REACTORS
330
C
102
}
330
C
100
AcDbDictionary
1001
ACAD
1000
TREAT_AS_HARD
1070
     0
  0
DICTIONARY
  5
71
102
{ACAD_REACTORS
330
C
102
}
330
C
100
AcDbDictionary
1001
ACAD
1000
TREAT_AS_HARD
1070
     0
  0
XRECORD
  5
7DC
102
{ACAD_REACTORS
330
C
102
}
330
C
100
AcDbXrecord
  1
DWGPROPS COOKIE
  2

  3

  4

  6

  7

  8
Mizuki
  9

300
=
301
=
302
=
303
=
304
=
305
=
306
=
307
=
308
=
309
=
 40
0.0
 41
2455022.637359514
 42
2457195.275223923
  1

 90
        0
  0
MLINESTYLE
  5
18
102
{ACAD_REACTORS
330
17
102
}
330
17
100
AcDbMlineStyle
  2
Standard
 70
     0
  3

 62
   256
 51
90.0
 52
90.0
 71
     2
 49
0.5
 62
   256
  6
BYLAYER
 49
-0.5
 62
   256
  6
BYLAYER
  0
ENDSEC
  0
EOF
