  0
SECTION
  2
HEADER
  9
$ACADVER
  1
AC1012
  9
$DWGCODEPAGE
  3
ansi_932
  9
$INSBASE
 10
0.0
 20
0.0
 30
0.0
  9
$EXTMIN
 10
28.2964705882352
 20
144.4458823529412
 30
0.0
  9
$EXTMAX
 10
200.2964705882352
 20
260.9458823529412
 30
0.0
  9
$LIMMIN
 10
0.0
 20
0.0
  9
$LIMMAX
 10
420.0
 20
297.0
  9
$ORTHOMODE
 70
     0
  9
$REGENMODE
 70
     1
  9
$FILLMODE
 70
     1
  9
$QTEXTMODE
 70
     0
  9
$MIRRTEXT
 70
     0
  9
$DRAGMODE
 70
     2
  9
$LTSCALE
 40
1.0
  9
$OSMODE
 70
   511
  9
$ATTMODE
 70
     1
  9
$TEXTSIZE
 40
2.5
  9
$TRACEWID
 40
1.0
  9
$TEXTSTYLE
  7
STANDARD
  9
$CLAYER
  8
実線
  9
$CELTYPE
  6
CONTINUOUS
  9
$CECOLOR
 62
   256
  9
$CELTSCALE
 40
1.0
  9
$DELOBJ
 70
     1
  9
$DISPSILH
 70
     0
  9
$DIMSCALE
 40
1.0
  9
$DIMASZ
 40
2.5
  9
$DIMEXO
 40
0.625
  9
$DIMDLI
 40
3.75
  9
$DIMRND
 40
0.0
  9
$DIMDLE
 40
0.0
  9
$DIMEXE
 40
1.25
  9
$DIMTP
 40
0.0
  9
$DIMTM
 40
0.0
  9
$DIMTXT
 40
2.5
  9
$DIMCEN
 40
2.5
  9
$DIMTSZ
 40
0.0
  9
$DIMTOL
 70
     0
  9
$DIMLIM
 70
     0
  9
$DIMTIH
 70
     0
  9
$DIMTOH
 70
     0
  9
$DIMSE1
 70
     0
  9
$DIMSE2
 70
     0
  9
$DIMTAD
 70
     1
  9
$DIMZIN
 70
     8
  9
$DIMBLK
  1

  9
$DIMASO
 70
     1
  9
$DIMSHO
 70
     1
  9
$DIMPOST
  1

  9
$DIMAPOST
  1

  9
$DIMALT
 70
     0
  9
$DIMALTD
 70
     3
  9
$DIMALTF
 40
0.03937007874016
  9
$DIMLFAC
 40
1.0
  9
$DIMTOFL
 70
     1
  9
$DIMTVP
 40
0.0
  9
$DIMTIX
 70
     0
  9
$DIMSOXD
 70
     0
  9
$DIMSAH
 70
     0
  9
$DIMBLK1
  1

  9
$DIMBLK2
  1

  9
$DIMSTYLE
  2
ISO-25
  9
$DIMCLRD
 70
     0
  9
$DIMCLRE
 70
     0
  9
$DIMCLRT
 70
     0
  9
$DIMTFAC
 40
1.0
  9
$DIMGAP
 40
0.625
  9
$DIMJUST
 70
     0
  9
$DIMSD1
 70
     0
  9
$DIMSD2
 70
     0
  9
$DIMTOLJ
 70
     0
  9
$DIMTZIN
 70
     8
  9
$DIMALTZ
 70
     0
  9
$DIMALTTZ
 70
     0
  9
$DIMFIT
 70
     5
  9
$DIMUPT
 70
     0
  9
$DIMUNIT
 70
     2
  9
$DIMDEC
 70
     2
  9
$DIMTDEC
 70
     2
  9
$DIMALTU
 70
     2
  9
$DIMALTTD
 70
     3
  9
$DIMTXSTY
  7
STANDARD
  9
$DIMAUNIT
 70
     0
  9
$LUNITS
 70
     2
  9
$LUPREC
 70
     3
  9
$SKETCHINC
 40
1.0
  9
$FILLETRAD
 40
10.0
  9
$AUNITS
 70
     0
  9
$AUPREC
 70
     0
  9
$MENU
  1
.
  9
$ELEVATION
 40
0.0
  9
$PELEVATION
 40
0.0
  9
$THICKNESS
 40
0.0
  9
$LIMCHECK
 70
     0
  9
$CHAMFERA
 40
5.0
  9
$CHAMFERB
 40
5.0
  9
$CHAMFERC
 40
20.0
  9
$CHAMFERD
 40
0.0
  9
$SKPOLY
 70
     0
  9
$TDCREATE
 40
2455023.012359514
  9
$TDUPDATE
 40
2457191.599520463
  9
$TDINDWG
 40
3.6919404745
  9
$TDUSRTIMER
 40
2457191.223125891
  9
$USRTIMER
 70
     1
  9
$ANGBASE
 50
0.0
  9
$ANGDIR
 70
     0
  9
$PDMODE
 70
     0
  9
$PDSIZE
 40
0.0
  9
$PLINEWID
 40
0.0
  9
$COORDS
 70
     1
  9
$SPLFRAME
 70
     0
  9
$SPLINETYPE
 70
     6
  9
$SPLINESEGS
 70
     8
  9
$ATTDIA
 70
     0
  9
$ATTREQ
 70
     1
  9
$HANDLING
 70
     1
  9
$HANDSEED
  5
1AFE
  9
$SURFTAB1
 70
     6
  9
$SURFTAB2
 70
     6
  9
$SURFTYPE
 70
     6
  9
$SURFU
 70
     6
  9
$SURFV
 70
     6
  9
$UCSNAME
  2

  9
$UCSORG
 10
0.0
 20
0.0
 30
0.0
  9
$UCSXDIR
 10
1.0
 20
0.0
 30
0.0
  9
$UCSYDIR
 10
0.0
 20
1.0
 30
0.0
  9
$PUCSNAME
  2

  9
$PUCSORG
 10
0.0
 20
0.0
 30
0.0
  9
$PUCSXDIR
 10
1.0
 20
0.0
 30
0.0
  9
$PUCSYDIR
 10
0.0
 20
1.0
 30
0.0
  9
$USERI1
 70
     0
  9
$USERI2
 70
     0
  9
$USERI3
 70
     0
  9
$USERI4
 70
     0
  9
$USERI5
 70
     0
  9
$USERR1
 40
0.0
  9
$USERR2
 40
0.0
  9
$USERR3
 40
0.0
  9
$USERR4
 40
0.0
  9
$USERR5
 40
0.0
  9
$WORLDVIEW
 70
     1
  9
$SHADEDGE
 70
     3
  9
$SHADEDIF
 70
    70
  9
$TILEMODE
 70
     1
  9
$MAXACTVP
 70
    64
  9
$PINSBASE
 10
0.0
 20
0.0
 30
0.0
  9
$PLIMCHECK
 70
     0
  9
$PEXTMIN
 10
1.000000000000000E+20
 20
1.000000000000000E+20
 30
1.000000000000000E+20
  9
$PEXTMAX
 10
-1.000000000000000E+20
 20
-1.000000000000000E+20
 30
-1.000000000000000E+20
  9
$PLIMMIN
 10
0.0
 20
0.0
  9
$PLIMMAX
 10
0.0
 20
0.0
  9
$UNITMODE
 70
     0
  9
$VISRETAIN
 70
     1
  9
$PLINEGEN
 70
     0
  9
$PSLTSCALE
 70
     1
  9
$TREEDEPTH
 70
  3020
  9
$PICKSTYLE
 70
     0
  9
$CMLSTYLE
  2
STANDARD
  9
$CMLJUST
 70
     0
  9
$CMLSCALE
 40
20.0
  9
$SAVEIMAGES
 70
     1
  0
ENDSEC
  0
SECTION
  2
CLASSES
  0
CLASS
  1
ACDBDICTIONARYWDFLT
  2
AcDbDictionaryWithDefault
  3
ObjectDBX Classes
 90
    32768
280
     0
281
     0
  0
CLASS
  1
VISUALSTYLE
  2
AcDbVisualStyle
  3
ObjectDBX Classes
 90
     4095
280
     0
281
     0
  0
CLASS
  1
TABLESTYLE
  2
AcDbTableStyle
  3
ObjectDBX Classes
 90
     4095
280
     0
281
     0
  0
CLASS
  1
DICTIONARYVAR
  2
AcDbDictionaryVar
  3
ObjectDBX Classes
 90
        0
280
     0
281
     0
  0
CLASS
  1
SCALE
  2
AcDbScale
  3
ObjectDBX Classes
 90
     1153
280
     0
281
     0
  0
CLASS
  1
CELLSTYLEMAP
  2
AcDbCellStyleMap
  3
ObjectDBX Classes
 90
     1152
280
     0
281
     0
  0
CLASS
  1
RASTERVARIABLES
  2
AcDbRasterVariables
  3
ISM
 90
    32768
280
     0
281
     0
  0
CLASS
  1
MATERIAL
  2
AcDbMaterial
  3
ObjectDBX Classes
 90
     1153
280
     0
281
     0
  0
CLASS
  1
SUN
  2
AcDbSun
  3
SCENEOE
 90
     1153
280
     0
281
     0
  0
CLASS
  1
DIMASSOC
  2
AcDbDimAssoc
  3
"AcDbDimAssoc|Product Desc:     AcDim ARX App For Dimension|Company:          Autodesk, Inc.|WEB Address:      www.autodesk.com"
 90
        0
280
     0
281
     0
  0
CLASS
  1
MLEADERSTYLE
  2
AcDbMLeaderStyle
  3
ACDB_MLEADERSTYLE_CLASS
 90
     4095
280
     0
281
     0
  0
CLASS
  1
XRECORD
  2
AcDbXrecord
  3
ObjectDBX Classes
 90
    32768
280
     0
281
     0
  0
ENDSEC
  0
SECTION
  2
TABLES
  0
TABLE
  2
VPORT
  5
8
330
0
100
AcDbSymbolTable
 70
     1
  0
VPORT
  5
29
330
8
100
AcDbSymbolTableRecord
100
AcDbViewportTableRecord
  2
*ACTIVE
 70
     0
 10
0.0
 20
0.0
 11
1.0
 21
1.0
 12
519.0467634652373
 22
233.3296171567298
 13
0.0
 23
0.0
 14
10.0
 24
10.0
 15
10.0
 25
10.0
 16
0.0
 26
0.0
 36
1.0
 17
-134.1869158878565
 27
0.0
 37
0.0
 40
725.6744745109826
 41
1.234354194407457
 42
50.0
 43
0.0
 44
0.0
 50
0.0
 51
0.0
 71
    16
 72
  1000
 73
     1
 74
     3
 75
     0
 76
     0
 77
     0
 78
     0
  0
ENDTAB
  0
TABLE
  2
LTYPE
  5
5
330
0
100
AcDbSymbolTable
 70
     2
  0
LTYPE
  5
14
330
5
100
AcDbSymbolTableRecord
100
AcDbLinetypeTableRecord
  2
BYBLOCK
 70
     0
  3

 72
    65
 73
     0
 40
0.0
  0
LTYPE
  5
15
330
5
100
AcDbSymbolTableRecord
100
AcDbLinetypeTableRecord
  2
BYLAYER
 70
     0
  3

 72
    65
 73
     0
 40
0.0
  0
LTYPE
  5
16
330
5
100
AcDbSymbolTableRecord
100
AcDbLinetypeTableRecord
  2
CONTINUOUS
 70
     0
  3
Solid line
 72
    65
 73
     0
 40
0.0
  0
LTYPE
  5
BC
330
5
100
AcDbSymbolTableRecord
100
AcDbLinetypeTableRecord
  2
DASHDOT
 70
     0
  3
DashDot __  . __  . __  . __  . __  . __  . __ 
 72
    65
 73
     4
 40
25.4
 49
12.7
 74
     0
 49
-6.35
 74
     0
 49
0.0
 74
     0
 49
-6.35
 74
     0
  0
ENDTAB
  0
TABLE
  2
LAYER
  5
2
102
{ACAD_XDICTIONARY
360
B7
102
}
330
0
100
AcDbSymbolTable
 70
     7
  0
LAYER
  5
10
330
2
100
AcDbSymbolTableRecord
100
AcDbLayerTableRecord
  2
0
 70
     0
 62
     7
  6
CONTINUOUS
  0
LAYER
  5
BA
330
2
100
AcDbSymbolTableRecord
100
AcDbLayerTableRecord
  2
中心線
 70
     0
 62
     1
  6
CONTINUOUS
1001
ACAECLAYERSTANDARD
1000

1000

  0
LAYER
  5
BD
330
2
100
AcDbSymbolTableRecord
100
AcDbLayerTableRecord
  2
外形線
 70
     0
 62
     7
  6
CONTINUOUS
1001
ACAECLAYERSTANDARD
1000

1000

  0
LAYER
  5
BE
330
2
100
AcDbSymbolTableRecord
100
AcDbLayerTableRecord
  2
実線
 70
     0
 62
     7
  6
CONTINUOUS
1001
ACAECLAYERSTANDARD
1000

1000

  0
LAYER
  5
BF
330
2
100
AcDbSymbolTableRecord
100
AcDbLayerTableRecord
  2
補助線
 70
     0
 62
     4
  6
CONTINUOUS
1001
ACAECLAYERSTANDARD
1000

1000

  0
LAYER
  5
C0
330
2
100
AcDbSymbolTableRecord
100
AcDbLayerTableRecord
  2
寸法線
 70
     0
 62
     3
  6
CONTINUOUS
1001
ACAECLAYERSTANDARD
1000

1000

  0
LAYER
  5
107
330
2
100
AcDbSymbolTableRecord
100
AcDbLayerTableRecord
  2
DEFPOINTS
 70
     0
 62
     7
  6
CONTINUOUS
  0
ENDTAB
  0
TABLE
  2
STYLE
  5
3
330
0
100
AcDbSymbolTable
 70
     1
  0
STYLE
  5
11
330
3
100
AcDbSymbolTableRecord
100
AcDbTextStyleTableRecord
  2
STANDARD
 70
     0
 40
0.0
 41
1.0
 50
0.0
 71
     0
 42
2.5
  3
arial.ttf
  4

1001
ACAD
1000
Arial
1071
        0
  0
ENDTAB
  0
TABLE
  2
VIEW
  5
6
330
0
100
AcDbSymbolTable
 70
     0
  0
ENDTAB
  0
TABLE
  2
UCS
  5
7
330
0
100
AcDbSymbolTable
 70
     0
  0
ENDTAB
  0
TABLE
  2
APPID
  5
9
330
0
100
AcDbSymbolTable
 70
     4
  0
APPID
  5
12
330
9
100
AcDbSymbolTableRecord
100
AcDbRegAppTableRecord
  2
ACAD
 70
     0
  0
APPID
  5
BB
330
9
100
AcDbSymbolTableRecord
100
AcDbRegAppTableRecord
  2
ACAECLAYERSTANDARD
 70
     0
  0
APPID
  5
221
330
9
100
AcDbSymbolTableRecord
100
AcDbRegAppTableRecord
  2
ACAD_DSTYLE_DIMRADIAL_EXTE
 70
     0
  0
APPID
  5
1AED
330
9
100
AcDbSymbolTableRecord
100
AcDbRegAppTableRecord
  2
ACAD_DSTYLE_DIMRADIAL_EXT0
 70
     0
  0
ENDTAB
  0
TABLE
  2
DIMSTYLE
  5
A
330
0
100
AcDbSymbolTable
 70
     1
  0
DIMSTYLE
105
27
330
A
100
AcDbSymbolTableRecord
100
AcDbDimStyleTableRecord
  2
ISO-25
 70
     0
  3

  4

  5

  6

  7

 40
1.0
 41
2.5
 42
0.625
 43
3.75
 44
1.25
 45
0.0
 46
0.0
 47
0.0
 48
0.0
140
2.5
141
2.5
142
0.0
143
0.03937007874016
144
1.0
145
0.0
146
1.0
147
0.625
 71
     0
 72
     0
 73
     0
 74
     0
 75
     0
 76
     0
 77
     1
 78
     8
170
     0
171
     3
172
     1
173
     0
174
     0
175
     0
176
     0
177
     0
178
     0
270
     2
271
     2
272
     2
273
     2
274
     3
340
11
275
     0
280
     0
281
     0
282
     0
283
     0
284
     8
285
     0
286
     0
287
     3
288
     0
  0
ENDTAB
  0
TABLE
  2
BLOCK_RECORD
  5
1
330
0
100
AcDbSymbolTable
 70
     2
  0
BLOCK_RECORD
  5
1F
330
1
100
AcDbSymbolTableRecord
100
AcDbBlockTableRecord
  2
*MODEL_SPACE
  0
BLOCK_RECORD
  5
1B
330
1
100
AcDbSymbolTableRecord
100
AcDbBlockTableRecord
  2
*PAPER_SPACE
  0
BLOCK_RECORD
  5
23
330
1
100
AcDbSymbolTableRecord
100
AcDbBlockTableRecord
  2
*PAPER_SPACE0
  0
BLOCK_RECORD
  5
1AF1
330
1
100
AcDbSymbolTableRecord
100
AcDbBlockTableRecord
  2
*D1
  0
ENDTAB
  0
ENDSEC
  0
SECTION
  2
BLOCKS
  0
BLOCK
  5
20
330
1F
100
AcDbEntity
  8
0
100
AcDbBlockBegin
  2
*MODEL_SPACE
 70
     0
 10
0.0
 20
0.0
 30
0.0
  3
*MODEL_SPACE
  1

  0
ENDBLK
  5
21
330
1F
100
AcDbEntity
  8
0
100
AcDbBlockEnd
  0
BLOCK
  5
1C
330
1B
100
AcDbEntity
 67
     1
  8
0
100
AcDbBlockBegin
  2
*PAPER_SPACE
 70
     0
 10
0.0
 20
0.0
 30
0.0
  3
*PAPER_SPACE
  1

  0
ENDBLK
  5
1D
330
1B
100
AcDbEntity
 67
     1
  8
0
100
AcDbBlockEnd
  0
BLOCK
  5
24
330
23
100
AcDbEntity
  8
0
100
AcDbBlockBegin
  2
*PAPER_SPACE0
 70
     0
 10
0.0
 20
0.0
 30
0.0
  3
*PAPER_SPACE0
  1
*PAPER_SPACE0
  0
ENDBLK
  5
25
330
23
100
AcDbEntity
  8
0
100
AcDbBlockEnd
  0
BLOCK
  5
1AF2
330
1AF1
100
AcDbEntity
  8
0
100
AcDbBlockBegin
  2
*D1
 70
     1
 10
0.0
 20
0.0
 30
0.0
  3
*D1
  1
*D1
  0
LINE
  5
1AF4
330
1AF1
100
AcDbEntity
  8
実線
  6
CONTINUOUS
 62
     0
100
AcDbLine
 10
272.0884684158753
 20
168.8274324798715
 30
0.0
 11
269.9352914804123
 21
176.0117089976978
 31
0.0
  0
MTEXT
  5
1AF5
330
1AF1
100
AcDbEntity
  8
実線
  6
CONTINUOUS
 62
     0
100
AcDbMText
 10
280.6778017921895
 20
177.0074150140268
 30
0.0
 40
2.5
 41
0.0
 71
     5
 72
     1
  1
%%c10
 11
0.2870902580617329
 21
-0.9579035357101714
 31
0.0
  0
SOLID
  5
1AF6
330
1AF1
100
AcDbEntity
  8
実線
 62
     0
100
AcDbTrace
 10
271.0521435987793
 20
173.7365710992814
 30
0.0
 11
270.2538906523541
 21
173.4973292175633
 31
0.0
 12
269.9352914804123
 22
176.0117089976978
 32
0.0
 13
269.9352914804123
 23
176.0117089976978
 33
0.0
  0
SOLID
  5
1AF7
330
1AF1
100
AcDbEntity
  8
実線
 62
     0
100
AcDbTrace
 10
271.6893419426627
 20
168.7078115390124
 30
0.0
 11
272.4875948890879
 21
168.9470534207305
 31
0.0
 12
272.8061940610297
 22
166.4326736405961
 32
0.0
 13
272.8061940610297
 23
166.4326736405961
 33
0.0
  0
POINT
  5
1AF8
330
1AF1
100
AcDbEntity
  8
DEFPOINTS
 62
     0
100
AcDbPoint
 10
272.8061940610297
 20
166.4326736405961
 30
0.0
  0
POINT
  5
1AF9
330
1AF1
100
AcDbEntity
  8
DEFPOINTS
 62
     0
100
AcDbPoint
 10
269.9352914804123
 20
176.0117089976978
 30
0.0
  0
ENDBLK
  5
1AF3
330
1AF1
100
AcDbEntity
  8
0
100
AcDbBlockEnd
  0
ENDSEC
  0
SECTION
  2
ENTITIES
  0
LINE
  5
DBE
330
1F
100
AcDbEntity
  8
外形線
  6
CONTINUOUS
100
AcDbLine
 10
153.379971445165
 20
8.113812622322826
 30
0.0
 11
153.379971445165
 21
74.61381262232283
 31
0.0
  0
LINE
  5
DCD
330
1F
100
AcDbEntity
  8
外形線
  6
CONTINUOUS
100
AcDbLine
 10
153.379971445165
 20
128.1138126223228
 30
0.0
 11
153.379971445165
 21
148.1138126223228
 31
0.0
  0
ARC
  5
DD0
330
1F
100
AcDbEntity
  8
外形線
  6
CONTINUOUS
100
AcDbCircle
 10
49.37997144516504
 20
113.1138126223228
 30
0.0
 40
15.0
100
AcDbArc
 50
90.0
 51
270.0
  0
LINE
  5
DD1
330
1F
100
AcDbEntity
  8
外形線
  6
CONTINUOUS
100
AcDbLine
 10
49.37997144516504
 20
128.1138126223228
 30
0.0
 11
153.379971445165
 21
128.1138126223228
 31
0.0
  0
LINE
  5
DD2
330
1F
100
AcDbEntity
  8
外形線
  6
CONTINUOUS
100
AcDbLine
 10
49.37997144516504
 20
98.11381262232283
 30
0.0
 11
153.379971445165
 21
98.11381262232283
 31
0.0
  0
LINE
  5
DE0
330
1F
100
AcDbEntity
  8
外形線
  6
CONTINUOUS
100
AcDbLine
 10
153.379971445165
 20
74.61381262232283
 30
0.0
 11
153.379971445165
 21
98.11381262232283
 31
0.0
  0
LINE
  5
DF3
330
1F
100
AcDbEntity
  8
外形線
  6
CONTINUOUS
100
AcDbLine
 10
153.379971445165
 20
8.113812622322826
 30
0.0
 11
18.37997144516504
 21
8.113812622322826
 31
0.0
  0
LINE
  5
DF4
330
1F
100
AcDbEntity
  8
外形線
  6
CONTINUOUS
100
AcDbLine
 10
153.379971445165
 20
148.1138126223228
 30
0.0
 11
18.37997144516504
 21
148.1138126223228
 31
0.0
  0
LINE
  5
DF7
330
1F
100
AcDbEntity
  8
外形線
  6
CONTINUOUS
100
AcDbLine
 10
8.37997144516504
 20
138.1138126223228
 30
0.0
 11
8.37997144516504
 21
18.11381262232283
 31
0.0
  0
ARC
  5
DF9
330
1F
100
AcDbEntity
  8
外形線
  6
CONTINUOUS
100
AcDbCircle
 10
18.37997144516504
 20
138.1138126223228
 30
0.0
 40
10.0
100
AcDbArc
 50
90.0
 51
180.0
  0
ARC
  5
DFA
330
1F
100
AcDbEntity
  8
外形線
  6
CONTINUOUS
100
AcDbCircle
 10
18.37997144516504
 20
18.11381262232283
 30
0.0
 40
10.0
100
AcDbArc
 50
180.0
 51
270.0
  0
LINE
  5
E70
330
1F
100
AcDbEntity
  8
外形線
  6
CONTINUOUS
100
AcDbLine
 10
305.3699432276029
 20
8.55623535747418
 30
0.0
 11
305.3699432276029
 21
75.05623535747418
 31
0.0
  0
LINE
  5
E77
330
1F
100
AcDbEntity
  8
外形線
  6
CONTINUOUS
100
AcDbLine
 10
191.3699432276029
 20
120.0562353574742
 30
0.0
 11
200.4199432276029
 21
120.0562353574742
 31
0.0
  0
LINE
  5
E78
330
1F
100
AcDbEntity
  8
外形線
  6
CONTINUOUS
100
AcDbLine
 10
191.3699432276029
 20
107.0562353574742
 30
0.0
 11
200.4199432276029
 21
107.0562353574742
 31
0.0
  0
LINE
  5
E79
330
1F
100
AcDbEntity
  8
外形線
  6
CONTINUOUS
100
AcDbLine
 10
191.3699432276029
 20
120.0562353574742
 30
0.0
 11
191.3699432276029
 21
107.0562353574742
 31
0.0
  0
LINE
  5
E7A
330
1F
100
AcDbEntity
  8
外形線
  6
CONTINUOUS
100
AcDbLine
 10
276.3699432276029
 20
124.2562353574742
 30
0.0
 11
276.3699432276029
 21
120.0562353574742
 31
0.0
  0
LINE
  5
E7B
330
1F
100
AcDbEntity
  8
外形線
  6
CONTINUOUS
100
AcDbLine
 10
276.3699432276029
 20
124.2562353574742
 30
0.0
 11
305.3699432276029
 21
124.2562353574742
 31
0.0
  0
LINE
  5
E7C
330
1F
100
AcDbEntity
  8
外形線
  6
CONTINUOUS
100
AcDbLine
 10
276.3699432276029
 20
102.8562353574742
 30
0.0
 11
305.3699432276029
 21
102.8562353574742
 31
0.0
  0
LINE
  5
E7D
330
1F
100
AcDbEntity
  8
外形線
  6
CONTINUOUS
100
AcDbLine
 10
276.3699432276029
 20
107.0562353574742
 30
0.0
 11
276.3699432276029
 21
102.8562353574742
 31
0.0
  0
LINE
  5
E7E
330
1F
100
AcDbEntity
  8
外形線
  6
CONTINUOUS
100
AcDbLine
 10
305.3699432276029
 20
124.2562353574742
 30
0.0
 11
305.3699432276029
 21
148.5562353574742
 31
0.0
  0
LINE
  5
E83
330
1F
100
AcDbEntity
  8
外形線
  6
CONTINUOUS
100
AcDbLine
 10
305.3699432276029
 20
75.05623535747418
 30
0.0
 11
305.3699432276029
 21
102.8562353574742
 31
0.0
  0
LINE
  5
E84
330
1F
100
AcDbEntity
  8
外形線
  6
CONTINUOUS
100
AcDbLine
 10
166.370742770721
 20
206.2221913191469
 30
0.0
 11
166.370742770721
 21
157.2221913191469
 31
0.0
  0
ARC
  5
E85
330
1F
100
AcDbEntity
  8
外形線
  6
CONTINUOUS
100
AcDbCircle
 10
170.3699432276029
 20
138.5562353574742
 30
0.0
 40
10.0
100
AcDbArc
 50
90.0
 51
180.0
  0
ARC
  5
E86
330
1F
100
AcDbEntity
  8
外形線
  6
CONTINUOUS
100
AcDbCircle
 10
170.3699432276029
 20
18.55623535747418
 30
0.0
 40
10.0
100
AcDbArc
 50
180.0
 51
270.0
  0
LINE
  5
E88
330
1F
100
AcDbEntity
  8
外形線
  6
CONTINUOUS
100
AcDbLine
 10
305.3699432276029
 20
148.5562353574742
 30
0.0
 11
170.3699432276029
 21
148.5562353574742
 31
0.0
  0
LINE
  5
E89
330
1F
100
AcDbEntity
  8
外形線
  6
CONTINUOUS
100
AcDbLine
 10
305.3699432276029
 20
8.55623535747418
 30
0.0
 11
170.3699432276029
 21
8.55623535747418
 31
0.0
  0
LINE
  5
EDC
330
1F
100
AcDbEntity
  8
外形線
  6
CONTINUOUS
100
AcDbLine
 10
306.9042518246741
 20
219.1367906672957
 30
0.0
 11
296.9042518246741
 21
219.1367906672957
 31
0.0
  0
LINE
  5
EDD
330
1F
100
AcDbEntity
  8
外形線
  6
CONTINUOUS
100
AcDbLine
 10
296.9042518246741
 20
215.1367906672957
 30
0.0
 11
286.9042518246741
 21
215.1367906672957
 31
0.0
  0
LINE
  5
EE2
330
1F
100
AcDbEntity
  8
外形線
  6
CONTINUOUS
100
AcDbLine
 10
265.9042518246741
 20
268.1367906672957
 30
0.0
 11
260.9042518246741
 21
268.1367906672957
 31
0.0
  0
LINE
  5
EEF
330
1F
100
AcDbEntity
  8
外形線
  6
CONTINUOUS
100
AcDbLine
 10
291.9042518246741
 20
272.1367906672957
 30
0.0
 11
271.9042518246741
 21
272.1367906672957
 31
0.0
  0
LINE
  5
EF1
330
1F
100
AcDbEntity
  8
外形線
  6
CONTINUOUS
100
AcDbLine
 10
306.9042518246741
 20
268.1367906672957
 30
0.0
 11
291.9042518246741
 21
268.1367906672957
 31
0.0
  0
LINE
  5
EF2
330
1F
100
AcDbEntity
  8
外形線
  6
CONTINUOUS
100
AcDbLine
 10
306.9042518246741
 20
219.1367906672957
 30
0.0
 11
306.9042518246741
 21
268.1367906672957
 31
0.0
  0
LINE
  5
EFB
330
1F
100
AcDbEntity
  8
外形線
  6
CONTINUOUS
100
AcDbLine
 10
162.9042518246739
 20
219.1367906672954
 30
0.0
 11
211.9042518246741
 21
268.1367906672955
 31
0.0
  0
LINE
  5
FAC
330
1F
100
AcDbEntity
  8
外形線
  6
CONTINUOUS
100
AcDbLine
 10
434.6927505265072
 20
222.7938863319586
 30
0.0
 11
403.8173623240053
 21
222.7938863319586
 31
0.0
  0
LINE
  5
FD0
330
1F
100
AcDbEntity
  8
外形線
  6
CONTINUOUS
100
AcDbLine
 10
434.6927505265072
 20
151.7938863319586
 30
0.0
 11
321.6927505265072
 21
151.7938863319586
 31
0.0
  0
LINE
  5
FD1
330
1F
100
AcDbEntity
  8
外形線
  6
CONTINUOUS
100
AcDbLine
 10
424.6927505265072
 20
291.7938863319586
 30
0.0
 11
321.6927505265072
 21
291.7938863319586
 31
0.0
  0
LINE
  5
FD2
330
1F
100
AcDbEntity
  8
外形線
  6
CONTINUOUS
100
AcDbLine
 10
434.6927505265072
 20
186.7938863319586
 30
0.0
 11
403.8173623240053
 21
186.7938863319586
 31
0.0
  0
LINE
  5
FD5
330
1F
100
AcDbEntity
  8
外形線
  6
CONTINUOUS
100
AcDbLine
 10
311.6927505265072
 20
281.7938863319586
 30
0.0
 11
311.6927505265072
 21
161.7938863319586
 31
0.0
  0
ARC
  5
FD8
330
1F
100
AcDbEntity
  8
外形線
  6
CONTINUOUS
100
AcDbCircle
 10
321.6927505265072
 20
161.7938863319586
 30
0.0
 40
10.0
100
AcDbArc
 50
180.0
 51
270.0
  0
ARC
  5
FD9
330
1F
100
AcDbEntity
  8
外形線
  6
CONTINUOUS
100
AcDbCircle
 10
321.6927505265072
 20
281.7938863319586
 30
0.0
 40
10.0
100
AcDbArc
 50
90.0
 51
180.0
  0
LINE
  5
106B
330
1F
100
AcDbEntity
  8
外形線
  6
CONTINUOUS
100
AcDbLine
 10
313.5627129901175
 20
138.5976275192089
 30
0.0
 11
313.5627129901175
 21
18.59762751920886
 31
0.0
  0
ARC
  5
106C
330
1F
100
AcDbEntity
  8
外形線
  6
CONTINUOUS
100
AcDbCircle
 10
323.5627129901175
 20
18.59762751920886
 30
0.0
 40
10.0
100
AcDbArc
 50
180.0
 51
270.0
  0
ARC
  5
106D
330
1F
100
AcDbEntity
  8
外形線
  6
CONTINUOUS
100
AcDbCircle
 10
323.5627129901175
 20
138.5976275192089
 30
0.0
 40
10.0
100
AcDbArc
 50
90.0
 51
180.0
  0
LINE
  5
1073
330
1F
100
AcDbEntity
  8
外形線
  6
CONTINUOUS
100
AcDbLine
 10
436.5627129901175
 20
8.597627519208856
 30
0.0
 11
323.5627129901175
 21
8.597627519208856
 31
0.0
  0
LINE
  5
1079
330
1F
100
AcDbEntity
  8
外形線
  6
CONTINUOUS
100
AcDbLine
 10
426.5627129901175
 20
148.5976275192089
 30
0.0
 11
323.5627129901175
 21
148.5976275192089
 31
0.0
  0
LINE
  5
107B
330
1F
100
AcDbEntity
  8
外形線
  6
CONTINUOUS
100
AcDbLine
 10
430.5627129901175
 20
43.59762751920886
 30
0.0
 11
421.5627129901175
 21
43.59762751920886
 31
0.0
  0
LINE
  5
107C
330
1F
100
AcDbEntity
  8
外形線
  6
CONTINUOUS
100
AcDbLine
 10
259.3199432276029
 20
28.55623535747418
 30
0.0
 11
255.4199432276029
 21
28.55623535747418
 31
0.0
  0
LINE
  5
107D
330
1F
100
AcDbEntity
  8
外形線
  6
CONTINUOUS
100
AcDbLine
 10
259.3199432276029
 20
68.55623535747418
 30
0.0
 11
255.4199432276029
 21
68.55623535747418
 31
0.0
  0
LINE
  5
107E
330
1F
100
AcDbEntity
  8
外形線
  6
CONTINUOUS
100
AcDbLine
 10
259.3199432276029
 20
138.5562353574742
 30
0.0
 11
255.4199432276029
 21
138.5562353574742
 31
0.0
  0
LINE
  5
107F
330
1F
100
AcDbEntity
  8
外形線
  6
CONTINUOUS
100
AcDbLine
 10
259.3199432276029
 20
130.0562353574742
 30
0.0
 11
255.4199432276029
 21
130.0562353574742
 31
0.0
  0
LINE
  5
1082
330
1F
100
AcDbEntity
  8
外形線
  6
CONTINUOUS
100
AcDbLine
 10
295.3699432276029
 20
83.50623535747417
 30
0.0
 11
295.3699432276029
 21
79.60623535747419
 31
0.0
  0
LINE
  5
1083
330
1F
100
AcDbEntity
  8
外形線
  6
CONTINUOUS
100
AcDbLine
 10
285.3699432276029
 20
83.50623535747417
 30
0.0
 11
285.3699432276029
 21
79.60623535747419
 31
0.0
  0
LINE
  5
1084
330
1F
100
AcDbEntity
  8
外形線
  6
CONTINUOUS
100
AcDbLine
 10
180.3699432276029
 20
83.50623535747417
 30
0.0
 11
180.3699432276029
 21
79.60623535747419
 31
0.0
  0
LINE
  5
1086
330
1F
100
AcDbEntity
  8
外形線
  6
CONTINUOUS
100
AcDbLine
 10
220.3699432276029
 20
83.50623535747417
 30
0.0
 11
220.3699432276029
 21
79.60623535747419
 31
0.0
  0
LINE
  5
1089
330
1F
100
AcDbEntity
  8
外形線
  6
CONTINUOUS
100
AcDbLine
 10
181.9042518246742
 20
215.1367906672957
 30
0.0
 11
181.9042518246742
 21
219.1367906672957
 31
0.0
  0
LINE
  5
108B
330
1F
100
AcDbEntity
  8
外形線
  6
CONTINUOUS
100
AcDbLine
 10
221.9042518246742
 20
215.1367906672957
 30
0.0
 11
221.9042518246742
 21
219.1367906672957
 31
0.0
  0
LINE
  5
108D
330
1F
100
AcDbEntity
  8
外形線
  6
CONTINUOUS
100
AcDbLine
 10
181.9042518246742
 20
219.1367906672957
 30
0.0
 11
162.9042518246741
 21
219.1367906672957
 31
0.0
  0
LINE
  5
108E
330
1F
100
AcDbEntity
  8
外形線
  6
CONTINUOUS
100
AcDbLine
 10
296.9042518246741
 20
215.1367906672957
 30
0.0
 11
296.9042518246741
 21
219.1367906672957
 31
0.0
  0
LINE
  5
108F
330
1F
100
AcDbEntity
  8
外形線
  6
CONTINUOUS
100
AcDbLine
 10
286.9042518246741
 20
215.1367906672957
 30
0.0
 11
286.9042518246741
 21
219.1367906672957
 31
0.0
  0
LINE
  5
1090
330
1F
100
AcDbEntity
  8
外形線
  6
CONTINUOUS
100
AcDbLine
 10
221.9042518246742
 20
215.1367906672957
 30
0.0
 11
181.9042518246742
 21
215.1367906672957
 31
0.0
  0
LINE
  5
1091
330
1F
100
AcDbEntity
  8
外形線
  6
CONTINUOUS
100
AcDbLine
 10
286.9042518246741
 20
219.1367906672957
 30
0.0
 11
221.9042518246742
 21
219.1367906672957
 31
0.0
  0
LINE
  5
1093
330
1F
100
AcDbEntity
  8
外形線
  6
CONTINUOUS
100
AcDbLine
 10
256.9542518246742
 20
244.1367906672957
 30
0.0
 11
260.8542518246742
 21
244.1367906672957
 31
0.0
  0
LINE
  5
10A3
330
1F
100
AcDbEntity
  8
外形線
  6
CONTINUOUS
100
AcDbLine
 10
186.370742770721
 20
153.2221913191469
 30
0.0
 11
226.370742770721
 21
153.2221913191469
 31
0.0
  0
LINE
  5
10B4
330
1F
100
AcDbEntity
  8
外形線
  6
CONTINUOUS
100
AcDbLine
 10
166.370742770721
 20
157.2221913191469
 30
0.0
 11
186.370742770721
 21
157.2221913191469
 31
0.0
  0
LINE
  5
10B5
330
1F
100
AcDbEntity
  8
外形線
  6
CONTINUOUS
100
AcDbLine
 10
166.370742770721
 20
206.2221913191469
 30
0.0
 11
181.370742770721
 21
206.2221913191469
 31
0.0
  0
LINE
  5
10B6
330
1F
100
AcDbEntity
  8
外形線
  6
CONTINUOUS
100
AcDbLine
 10
160.3699432276029
 20
138.5562353574742
 30
0.0
 11
160.3699432276029
 21
18.55623535747418
 31
0.0
  0
LINE
  5
10B8
330
1F
100
AcDbEntity
  8
外形線
  6
CONTINUOUS
100
AcDbLine
 10
306.370742770721
 20
157.2221913191469
 30
0.0
 11
306.370742770721
 21
206.2221913191469
 31
0.0
  0
LINE
  5
10C8
330
1F
100
AcDbEntity
  8
外形線
  6
CONTINUOUS
100
AcDbLine
 10
296.370742770721
 20
153.2221913191469
 30
0.0
 11
296.370742770721
 21
157.2221913191469
 31
0.0
  0
LINE
  5
10C9
330
1F
100
AcDbEntity
  8
外形線
  6
CONTINUOUS
100
AcDbLine
 10
287.870742770721
 20
153.2221913191469
 30
0.0
 11
287.870742770721
 21
157.2221913191469
 31
0.0
  0
LINE
  5
10D9
330
1F
100
AcDbEntity
  8
外形線
  6
CONTINUOUS
100
AcDbLine
 10
186.370742770721
 20
153.2221913191469
 30
0.0
 11
186.370742770721
 21
157.2221913191469
 31
0.0
  0
LINE
  5
10DB
330
1F
100
AcDbEntity
  8
外形線
  6
CONTINUOUS
100
AcDbLine
 10
226.370742770721
 20
153.2221913191469
 30
0.0
 11
226.370742770721
 21
157.2221913191469
 31
0.0
  0
LINE
  5
10DC
330
1F
100
AcDbEntity
  8
外形線
  6
CONTINUOUS
100
AcDbLine
 10
287.870742770721
 20
153.2221913191469
 30
0.0
 11
296.370742770721
 21
153.2221913191469
 31
0.0
  0
LINE
  5
10DD
330
1F
100
AcDbEntity
  8
外形線
  6
CONTINUOUS
100
AcDbLine
 10
226.370742770721
 20
157.2221913191469
 30
0.0
 11
237.420742770721
 21
157.2221913191469
 31
0.0
  0
LINE
  5
10DE
330
1F
100
AcDbEntity
  8
外形線
  6
CONTINUOUS
100
AcDbLine
 10
296.370742770721
 20
157.2221913191469
 30
0.0
 11
306.370742770721
 21
157.2221913191469
 31
0.0
  0
LINE
  5
10DF
330
1F
100
AcDbEntity
  8
外形線
  6
CONTINUOUS
100
AcDbLine
 10
237.420742770721
 20
182.2221913191469
 30
0.0
 11
241.320742770721
 21
182.2221913191469
 31
0.0
  0
LINE
  5
10F1
330
1F
100
AcDbEntity
  8
外形線
  6
CONTINUOUS
100
AcDbLine
 10
241.320742770721
 20
157.2221913191469
 30
0.0
 11
260.870742770721
 21
157.2221913191469
 31
0.0
  0
CIRCLE
  5
1141
330
1F
100
AcDbEntity
  8
外形線
  6
CONTINUOUS
100
AcDbCircle
 10
366.0627129901175
 20
76.09762751920886
 30
0.0
 40
1.5
  0
CIRCLE
  5
1142
330
1F
100
AcDbEntity
  8
外形線
  6
CONTINUOUS
100
AcDbCircle
 10
366.0627129901175
 20
47.09762751920886
 30
0.0
 40
1.5
  0
CIRCLE
  5
1143
330
1F
100
AcDbEntity
  8
外形線
  6
CONTINUOUS
100
AcDbCircle
 10
405.0627129901175
 20
47.09762751920886
 30
0.0
 40
1.5
  0
CIRCLE
  5
1144
330
1F
100
AcDbEntity
  8
外形線
  6
CONTINUOUS
100
AcDbCircle
 10
405.0627129901175
 20
76.09762751920886
 30
0.0
 40
1.5
  0
ARC
  5
1176
330
1F
100
AcDbEntity
  8
外形線
  6
CONTINUOUS
100
AcDbCircle
 10
383.6927505265072
 20
204.7938863319586
 30
0.0
 40
27.0
100
AcDbArc
 50
41.81031489577859
 51
138.1896851042214
  0
CIRCLE
  5
11B0
330
1F
100
AcDbEntity
  8
外形線
  6
CONTINUOUS
100
AcDbCircle
 10
430.5627129901175
 20
106.5976275192089
 30
0.0
 40
2.0
  0
CIRCLE
  5
11B1
330
1F
100
AcDbEntity
  8
外形線
  6
CONTINUOUS
100
AcDbCircle
 10
430.5627129901175
 20
16.59762751920886
 30
0.0
 40
2.0
  0
CIRCLE
  5
11B2
330
1F
100
AcDbEntity
  8
外形線
  6
CONTINUOUS
100
AcDbCircle
 10
340.5627129901175
 20
16.59762751920886
 30
0.0
 40
2.0
  0
CIRCLE
  5
11B3
330
1F
100
AcDbEntity
  8
外形線
  6
CONTINUOUS
100
AcDbCircle
 10
340.5627129901175
 20
106.5976275192089
 30
0.0
 40
2.0
  0
LINE
  5
11B4
330
1F
100
AcDbEntity
  8
外形線
  6
CONTINUOUS
100
AcDbLine
 10
436.5627129901175
 20
138.5976275192089
 30
0.0
 11
436.5627129901175
 21
79.59762751920886
 31
0.0
  0
LINE
  5
11B5
330
1F
100
AcDbEntity
  8
外形線
  6
CONTINUOUS
100
AcDbLine
 10
436.5627129901175
 20
41.59762751920886
 30
0.0
 11
436.5627129901175
 21
8.597627519208856
 31
0.0
  0
LINE
  5
11B6
330
1F
100
AcDbEntity
  8
外形線
  6
CONTINUOUS
100
AcDbLine
 10
434.6927505265072
 20
151.7938863319586
 30
0.0
 11
434.6927505265072
 21
186.7938863319586
 31
0.0
  0
LINE
  5
11B7
330
1F
100
AcDbEntity
  8
外形線
  6
CONTINUOUS
100
AcDbLine
 10
434.6927505265072
 20
222.7938863319586
 30
0.0
 11
434.6927505265072
 21
281.7938863319586
 31
0.0
  0
CIRCLE
  5
11BB
330
1F
100
AcDbEntity
  8
外形線
  6
CONTINUOUS
100
AcDbCircle
 10
338.6927505265072
 20
249.7938863319586
 30
0.0
 40
2.0
  0
CIRCLE
  5
11BC
330
1F
100
AcDbEntity
  8
外形線
  6
CONTINUOUS
100
AcDbCircle
 10
428.6927505265072
 20
249.7938863319586
 30
0.0
 40
2.0
  0
CIRCLE
  5
11D2
330
1F
100
AcDbEntity
  8
外形線
  6
CONTINUOUS
100
AcDbCircle
 10
338.6927505265072
 20
159.7938863319586
 30
0.0
 40
2.0
  0
CIRCLE
  5
11D3
330
1F
100
AcDbEntity
  8
外形線
  6
CONTINUOUS
100
AcDbCircle
 10
428.6927505265072
 20
159.7938863319586
 30
0.0
 40
2.0
  0
LINE
  5
11D5
330
1F
100
AcDbEntity
  8
外形線
  6
CONTINUOUS
100
AcDbLine
 10
281.870742770721
 20
161.2221913191469
 30
0.0
 11
281.870742770721
 21
157.2221913191469
 31
0.0
  0
LINE
  5
11D6
330
1F
100
AcDbEntity
  8
外形線
  6
CONTINUOUS
100
AcDbLine
 10
260.870742770721
 20
161.2221913191469
 30
0.0
 11
260.870742770721
 21
157.2221913191469
 31
0.0
  0
LINE
  5
11D7
330
1F
100
AcDbEntity
  8
外形線
  6
CONTINUOUS
100
AcDbLine
 10
281.870742770721
 20
161.2221913191469
 30
0.0
 11
260.870742770721
 21
161.2221913191469
 31
0.0
  0
LINE
  5
11D8
330
1F
100
AcDbEntity
  8
外形線
  6
CONTINUOUS
100
AcDbLine
 10
281.870742770721
 20
157.2221913191469
 30
0.0
 11
287.870742770721
 21
157.2221913191469
 31
0.0
  0
LINE
  5
121A
330
1F
100
AcDbEntity
  8
外形線
  6
CONTINUOUS
100
AcDbLine
 10
358.6127129901174
 20
133.5976275192089
 30
0.0
 11
358.6127129901174
 21
93.59762751920886
 31
0.0
  0
LINE
  5
121B
330
1F
100
AcDbEntity
  8
外形線
  6
CONTINUOUS
100
AcDbLine
 10
362.5127129901175
 20
133.5976275192089
 30
0.0
 11
362.5127129901175
 21
93.59762751920886
 31
0.0
  0
LINE
  5
121C
330
1F
100
AcDbEntity
  8
外形線
  6
CONTINUOUS
100
AcDbLine
 10
393.5627129901175
 20
83.54762751920885
 30
0.0
 11
373.5627129901175
 21
83.54762751920885
 31
0.0
  0
LINE
  5
121D
330
1F
100
AcDbEntity
  8
外形線
  6
CONTINUOUS
100
AcDbLine
 10
436.5627129901175
 20
79.64762751920887
 30
0.0
 11
410.0627129901175
 21
79.64762751920887
 31
0.0
  0
LINE
  5
121E
330
1F
100
AcDbEntity
  8
外形線
  6
CONTINUOUS
100
AcDbLine
 10
255.4199432276029
 20
28.55623535747418
 30
0.0
 11
255.4199432276029
 21
68.55623535747418
 31
0.0
  0
LINE
  5
121F
330
1F
100
AcDbEntity
  8
外形線
  6
CONTINUOUS
100
AcDbLine
 10
259.3199432276029
 20
28.55623535747418
 30
0.0
 11
259.3199432276029
 21
68.55623535747418
 31
0.0
  0
LINE
  5
1220
330
1F
100
AcDbEntity
  8
外形線
  6
CONTINUOUS
100
AcDbLine
 10
295.3699432276029
 20
79.60623535747419
 30
0.0
 11
285.3699432276029
 21
79.60623535747419
 31
0.0
  0
LINE
  5
1221
330
1F
100
AcDbEntity
  8
外形線
  6
CONTINUOUS
100
AcDbLine
 10
295.3699432276029
 20
83.50623535747417
 30
0.0
 11
285.3699432276029
 21
83.50623535747417
 31
0.0
  0
LINE
  5
1222
330
1F
100
AcDbEntity
  8
外形線
  6
CONTINUOUS
100
AcDbLine
 10
255.4199432276029
 20
130.0562353574742
 30
0.0
 11
255.4199432276029
 21
138.5562353574742
 31
0.0
  0
LINE
  5
1223
330
1F
100
AcDbEntity
  8
外形線
  6
CONTINUOUS
100
AcDbLine
 10
259.3199432276029
 20
130.0562353574742
 30
0.0
 11
259.3199432276029
 21
138.5562353574742
 31
0.0
  0
LINE
  5
1224
330
1F
100
AcDbEntity
  8
外形線
  6
CONTINUOUS
100
AcDbLine
 10
220.3699432276029
 20
83.50623535747417
 30
0.0
 11
180.3699432276029
 21
83.50623535747417
 31
0.0
  0
LINE
  5
1225
330
1F
100
AcDbEntity
  8
外形線
  6
CONTINUOUS
100
AcDbLine
 10
220.3699432276029
 20
79.60623535747419
 30
0.0
 11
180.3699432276029
 21
79.60623535747419
 31
0.0
  0
LINE
  5
1226
330
1F
100
AcDbEntity
  8
外形線
  6
CONTINUOUS
100
AcDbLine
 10
237.420742770721
 20
182.2221913191469
 30
0.0
 11
237.420742770721
 21
157.2221913191469
 31
0.0
  0
LINE
  5
1227
330
1F
100
AcDbEntity
  8
外形線
  6
CONTINUOUS
100
AcDbLine
 10
241.320742770721
 20
182.2221913191469
 30
0.0
 11
241.320742770721
 21
157.2221913191469
 31
0.0
  0
LINE
  5
1228
330
1F
100
AcDbEntity
  8
外形線
  6
CONTINUOUS
100
AcDbLine
 10
256.9542518246742
 20
244.1367906672957
 30
0.0
 11
256.9542518246742
 21
268.1367906672957
 31
0.0
  0
LINE
  5
1229
330
1F
100
AcDbEntity
  8
外形線
  6
CONTINUOUS
100
AcDbLine
 10
260.8542518246742
 20
244.1367906672957
 30
0.0
 11
260.8542518246742
 21
268.1367906672957
 31
0.0
  0
ARC
  5
122A
330
1F
100
AcDbEntity
  8
外形線
  6
CONTINUOUS
100
AcDbCircle
 10
426.5627129901175
 20
138.5976275192089
 30
0.0
 40
10.0
100
AcDbArc
 50
0.0
 51
90.0
  0
ARC
  5
122B
330
1F
100
AcDbEntity
  8
外形線
  6
CONTINUOUS
100
AcDbCircle
 10
424.6927505265072
 20
281.7938863319586
 30
0.0
 40
10.0
100
AcDbArc
 50
0.0
 51
90.0
  0
CIRCLE
  5
1230
330
1F
100
AcDbEntity
  8
外形線
  6
CONTINUOUS
100
AcDbCircle
 10
18.37997144516504
 20
18.11381262232283
 30
0.0
 40
2.95
  0
CIRCLE
  5
1231
330
1F
100
AcDbEntity
  8
外形線
  6
CONTINUOUS
100
AcDbCircle
 10
143.379971445165
 20
18.11381262232283
 30
0.0
 40
2.95
  0
CIRCLE
  5
1232
330
1F
100
AcDbEntity
  8
外形線
  6
CONTINUOUS
100
AcDbCircle
 10
18.37997144516504
 20
138.1138126223228
 30
0.0
 40
2.95
  0
CIRCLE
  5
1233
330
1F
100
AcDbEntity
  8
外形線
  6
CONTINUOUS
100
AcDbCircle
 10
143.379971445165
 20
138.1138126223228
 30
0.0
 40
2.95
  0
CIRCLE
  5
1238
330
1F
100
AcDbEntity
  8
外形線
  6
CONTINUOUS
100
AcDbCircle
 10
170.3699432276029
 20
18.55623535747418
 30
0.0
 40
2.95
  0
CIRCLE
  5
1239
330
1F
100
AcDbEntity
  8
外形線
  6
CONTINUOUS
100
AcDbCircle
 10
295.3699432276029
 20
18.55623535747418
 30
0.0
 40
2.95
  0
CIRCLE
  5
123A
330
1F
100
AcDbEntity
  8
外形線
  6
CONTINUOUS
100
AcDbCircle
 10
170.3699432276029
 20
138.5562353574742
 30
0.0
 40
2.95
  0
CIRCLE
  5
123B
330
1F
100
AcDbEntity
  8
外形線
  6
CONTINUOUS
100
AcDbCircle
 10
295.3699432276029
 20
138.5562353574742
 30
0.0
 40
2.95
  0
LINE
  5
123D
330
1F
100
AcDbEntity
  8
外形線
  6
CONTINUOUS
100
AcDbLine
 10
362.5127129901175
 20
133.5976275192089
 30
0.0
 11
358.6127129901174
 21
133.5976275192089
 31
0.0
  0
LINE
  5
123E
330
1F
100
AcDbEntity
  8
外形線
  6
CONTINUOUS
100
AcDbLine
 10
362.5127129901175
 20
93.59762751920886
 30
0.0
 11
358.6127129901174
 21
93.59762751920886
 31
0.0
  0
LINE
  5
123F
330
1F
100
AcDbEntity
  8
外形線
  6
CONTINUOUS
100
AcDbLine
 10
291.370742770721
 20
210.2221913191469
 30
0.0
 11
291.370742770721
 21
206.2221913191469
 31
0.0
  0
LINE
  5
1240
330
1F
100
AcDbEntity
  8
外形線
  6
CONTINUOUS
100
AcDbLine
 10
251.370742770721
 20
210.2221913191469
 30
0.0
 11
251.370742770721
 21
206.2221913191469
 31
0.0
  0
LINE
  5
1241
330
1F
100
AcDbEntity
  8
外形線
  6
CONTINUOUS
100
AcDbLine
 10
362.5127129901175
 20
23.59762751920886
 30
0.0
 11
358.6127129901174
 21
23.59762751920886
 31
0.0
  0
LINE
  5
1243
330
1F
100
AcDbEntity
  8
外形線
  6
CONTINUOUS
100
AcDbLine
 10
362.5127129901175
 20
38.59762751920886
 30
0.0
 11
358.6127129901174
 21
38.59762751920886
 31
0.0
  0
LINE
  5
1244
330
1F
100
AcDbEntity
  8
外形線
  6
CONTINUOUS
100
AcDbLine
 10
181.370742770721
 20
210.2221913191469
 30
0.0
 11
181.370742770721
 21
206.2221913191469
 31
0.0
  0
LINE
  5
1245
330
1F
100
AcDbEntity
  8
外形線
  6
CONTINUOUS
100
AcDbLine
 10
196.370742770721
 20
210.2221913191469
 30
0.0
 11
196.370742770721
 21
206.2221913191469
 31
0.0
  0
LINE
  5
1264
330
1F
100
AcDbEntity
  8
外形線
  6
CONTINUOUS
100
AcDbLine
 10
291.370742770721
 20
210.2221913191469
 30
0.0
 11
251.370742770721
 21
210.2221913191469
 31
0.0
  0
LINE
  5
1265
330
1F
100
AcDbEntity
  8
外形線
  6
CONTINUOUS
100
AcDbLine
 10
196.370742770721
 20
210.2221913191469
 30
0.0
 11
181.370742770721
 21
210.2221913191469
 31
0.0
  0
LINE
  5
1266
330
1F
100
AcDbEntity
  8
外形線
  6
CONTINUOUS
100
AcDbLine
 10
291.370742770721
 20
206.2221913191469
 30
0.0
 11
306.370742770721
 21
206.2221913191469
 31
0.0
  0
LINE
  5
1267
330
1F
100
AcDbEntity
  8
外形線
  6
CONTINUOUS
100
AcDbLine
 10
196.370742770721
 20
206.2221913191469
 30
0.0
 11
251.370742770721
 21
206.2221913191469
 31
0.0
  0
LINE
  5
1268
330
1F
100
AcDbEntity
  8
外形線
  6
CONTINUOUS
100
AcDbLine
 10
358.6127129901174
 20
38.59762751920886
 30
0.0
 11
358.6127129901174
 21
23.59762751920886
 31
0.0
  0
LINE
  5
1269
330
1F
100
AcDbEntity
  8
外形線
  6
CONTINUOUS
100
AcDbLine
 10
362.5127129901175
 20
38.59762751920886
 30
0.0
 11
362.5127129901175
 21
23.59762751920886
 31
0.0
  0
LINE
  5
126E
330
1F
100
AcDbEntity
  8
外形線
  6
CONTINUOUS
100
AcDbLine
 10
373.5627129901175
 20
83.54762751920885
 30
0.0
 11
373.5627129901175
 21
79.64762751920887
 31
0.0
  0
LINE
  5
126F
330
1F
100
AcDbEntity
  8
外形線
  6
CONTINUOUS
100
AcDbLine
 10
393.5627129901175
 20
83.54762751920885
 30
0.0
 11
393.5627129901175
 21
79.64762751920887
 31
0.0
  0
LINE
  5
1270
330
1F
100
AcDbEntity
  8
外形線
  6
CONTINUOUS
100
AcDbLine
 10
348.5627129901175
 20
83.54762751920885
 30
0.0
 11
348.5627129901175
 21
79.64762751920887
 31
0.0
  0
LINE
  5
1271
330
1F
100
AcDbEntity
  8
外形線
  6
CONTINUOUS
100
AcDbLine
 10
328.5627129901175
 20
83.54762751920885
 30
0.0
 11
328.5627129901175
 21
79.64762751920887
 31
0.0
  0
LINE
  5
1272
330
1F
100
AcDbEntity
  8
外形線
  6
CONTINUOUS
100
AcDbLine
 10
226.9042518246742
 20
272.1367906672957
 30
0.0
 11
226.9042518246742
 21
268.1367906672957
 31
0.0
  0
LINE
  5
1273
330
1F
100
AcDbEntity
  8
外形線
  6
CONTINUOUS
100
AcDbLine
 10
246.9042518246741
 20
272.1367906672957
 30
0.0
 11
246.9042518246741
 21
268.1367906672957
 31
0.0
  0
LINE
  5
1274
330
1F
100
AcDbEntity
  8
外形線
  6
CONTINUOUS
100
AcDbLine
 10
271.9042518246741
 20
272.1367906672957
 30
0.0
 11
271.9042518246741
 21
268.1367906672957
 31
0.0
  0
LINE
  5
1275
330
1F
100
AcDbEntity
  8
外形線
  6
CONTINUOUS
100
AcDbLine
 10
291.9042518246741
 20
272.1367906672957
 30
0.0
 11
291.9042518246741
 21
268.1367906672957
 31
0.0
  0
LINE
  5
1276
330
1F
100
AcDbEntity
  8
外形線
  6
CONTINUOUS
100
AcDbLine
 10
226.9042518246742
 20
268.1367906672957
 30
0.0
 11
211.9042518246742
 21
268.1367906672957
 31
0.0
  0
LINE
  5
1277
330
1F
100
AcDbEntity
  8
外形線
  6
CONTINUOUS
100
AcDbLine
 10
271.9042518246741
 20
268.1367906672957
 30
0.0
 11
260.8542518246742
 21
268.1367906672957
 31
0.0
  0
LINE
  5
1278
330
1F
100
AcDbEntity
  8
外形線
  6
CONTINUOUS
100
AcDbLine
 10
246.9042518246741
 20
272.1367906672957
 30
0.0
 11
226.9042518246742
 21
272.1367906672957
 31
0.0
  0
LINE
  5
1279
330
1F
100
AcDbEntity
  8
外形線
  6
CONTINUOUS
100
AcDbLine
 10
256.9542518246742
 20
268.1367906672957
 30
0.0
 11
246.9042518246741
 21
268.1367906672957
 31
0.0
  0
LINE
  5
127A
330
1F
100
AcDbEntity
  8
外形線
  6
CONTINUOUS
100
AcDbLine
 10
348.5627129901175
 20
79.64762751920887
 30
0.0
 11
328.5627129901175
 21
79.64762751920887
 31
0.0
  0
LINE
  5
127B
330
1F
100
AcDbEntity
  8
外形線
  6
CONTINUOUS
100
AcDbLine
 10
348.5627129901175
 20
83.54762751920885
 30
0.0
 11
328.5627129901175
 21
83.54762751920885
 31
0.0
  0
LINE
  5
127C
330
1F
100
AcDbEntity
  8
外形線
  6
CONTINUOUS
100
AcDbLine
 10
393.5627129901175
 20
79.64762751920887
 30
0.0
 11
373.5627129901175
 21
79.64762751920887
 31
0.0
  0
LINE
  5
1320
330
1F
100
AcDbEntity
  8
外形線
  6
CONTINUOUS
100
AcDbLine
 10
372.5032227296372
 20
216.4843110488404
 30
0.0
 11
371.2277332857745
 21
211.7241196398274
 31
0.0
  0
LINE
  5
1321
330
1F
100
AcDbEntity
  8
外形線
  6
CONTINUOUS
100
AcDbLine
 10
388.1122803477693
 20
219.9996090836899
 30
0.0
 11
383.3520889387567
 21
218.7241196398274
 31
0.0
  0
LINE
  5
1322
330
1F
100
AcDbEntity
  8
外形線
  6
CONTINUOUS
100
AcDbLine
 10
378.5918975297441
 20
219.9996090836899
 30
0.0
 11
383.3520889387564
 21
218.7241196398275
 31
0.0
  0
LINE
  5
1323
330
1F
100
AcDbEntity
  8
外形線
  6
CONTINUOUS
100
AcDbLine
 10
367.7430313206241
 20
208.239417674677
 30
0.0
 11
371.2277332857745
 21
211.7241196398274
 31
0.0
  0
LINE
  5
1324
330
1F
100
AcDbEntity
  8
外形線
  6
CONTINUOUS
100
AcDbLine
 10
367.743031320624
 20
201.2088216049779
 30
0.0
 11
371.2277332857744
 21
197.7241196398275
 31
0.0
  0
ARC
  5
1325
330
1F
100
AcDbEntity
  8
外形線
  6
CONTINUOUS
100
AcDbCircle
 10
383.3520889387567
 20
204.7241196398274
 30
0.0
 40
16.0
100
AcDbArc
 50
107.30822697786
 51
132.6917730221402
  0
LINE
  5
1326
330
1F
100
AcDbEntity
  8
外形線
  6
CONTINUOUS
100
AcDbLine
 10
372.5032227296372
 20
192.9639282308144
 30
0.0
 11
371.2277332857745
 21
197.7241196398275
 31
0.0
  0
LINE
  5
1327
330
1F
100
AcDbEntity
  8
外形線
  6
CONTINUOUS
100
AcDbLine
 10
388.1122803477692
 20
189.4486301959649
 30
0.0
 11
383.3520889387567
 21
190.7241196398274
 31
0.0
  0
LINE
  5
1328
330
1F
100
AcDbEntity
  8
外形線
  6
CONTINUOUS
100
AcDbLine
 10
378.5918975297441
 20
189.4486301959649
 30
0.0
 11
383.3520889387564
 21
190.7241196398274
 31
0.0
  0
ARC
  5
1329
330
1F
100
AcDbEntity
  8
外形線
  6
CONTINUOUS
100
AcDbCircle
 10
383.3520889387567
 20
204.7241196398274
 30
0.0
 40
16.0
100
AcDbArc
 50
167.30822697786
 51
192.6917730221394
  0
LINE
  5
132A
330
1F
100
AcDbEntity
  8
外形線
  6
CONTINUOUS
100
AcDbLine
 10
398.9611465568892
 20
201.2088216049778
 30
0.0
 11
395.4764445917388
 21
197.7241196398274
 31
0.0
  0
LINE
  5
132B
330
1F
100
AcDbEntity
  8
外形線
  6
CONTINUOUS
100
AcDbLine
 10
394.2009551478762
 20
192.9639282308145
 30
0.0
 11
395.4764445917388
 21
197.7241196398274
 31
0.0
  0
ARC
  5
132C
330
1F
100
AcDbEntity
  8
外形線
  6
CONTINUOUS
100
AcDbCircle
 10
383.3520889387567
 20
204.7241196398274
 30
0.0
 40
16.0
100
AcDbArc
 50
227.3082269778597
 51
252.69177302214
  0
LINE
  5
132D
330
1F
100
AcDbEntity
  8
外形線
  6
CONTINUOUS
100
AcDbLine
 10
398.9611465568893
 20
208.2394176746769
 30
0.0
 11
395.4764445917389
 21
211.7241196398273
 31
0.0
  0
LINE
  5
132E
330
1F
100
AcDbEntity
  8
外形線
  6
CONTINUOUS
100
AcDbLine
 10
394.2009551478762
 20
216.4843110488403
 30
0.0
 11
395.4764445917388
 21
211.7241196398273
 31
0.0
  0
ARC
  5
132F
330
1F
100
AcDbEntity
  8
外形線
  6
CONTINUOUS
100
AcDbCircle
 10
383.3520889387567
 20
204.7241196398274
 30
0.0
 40
16.0
100
AcDbArc
 50
47.30822697785986
 51
72.69177302214001
  0
ARC
  5
1330
330
1F
100
AcDbEntity
  8
外形線
  6
CONTINUOUS
100
AcDbCircle
 10
383.3520889387567
 20
204.7241196398274
 30
0.0
 40
16.0
100
AcDbArc
 50
287.3082269778599
 51
312.6917730221403
  0
ARC
  5
1331
330
1F
100
AcDbEntity
  8
外形線
  6
CONTINUOUS
100
AcDbCircle
 10
383.3520889387567
 20
204.7241196398274
 30
0.0
 40
16.0
100
AcDbArc
 50
347.3082269778602
 51
12.6917730221396
  0
CIRCLE
  5
1332
330
1F
100
AcDbEntity
  8
外形線
  6
CONTINUOUS
100
AcDbCircle
 10
375.3520889387567
 20
212.7241196398274
 30
0.0
 40
1.5
  0
CIRCLE
  5
1337
330
1F
100
AcDbEntity
  8
外形線
  6
CONTINUOUS
100
AcDbCircle
 10
375.3520889387567
 20
196.7241196398274
 30
0.0
 40
1.5
  0
CIRCLE
  5
1338
330
1F
100
AcDbEntity
  8
外形線
  6
CONTINUOUS
100
AcDbCircle
 10
391.3520889387567
 20
196.7241196398274
 30
0.0
 40
1.5
  0
CIRCLE
  5
1339
330
1F
100
AcDbEntity
  8
外形線
  6
CONTINUOUS
100
AcDbCircle
 10
391.3520889387567
 20
212.7241196398274
 30
0.0
 40
1.5
  0
CIRCLE
  5
133A
330
1F
100
AcDbEntity
  8
外形線
  6
CONTINUOUS
100
AcDbCircle
 10
383.3520889387567
 20
204.7241196398274
 30
0.0
 40
4.2
  0
CIRCLE
  5
14E7
330
1F
100
AcDbEntity
  8
外形線
  6
CONTINUOUS
100
AcDbCircle
 10
88.6993059537227
 20
219.9047468697898
 30
0.0
 40
70.0
  0
LINE
  5
1504
330
1F
100
AcDbEntity
  8
外形線
  6
CONTINUOUS
100
AcDbLine
 10
77.85043974460305
 20
231.6649382788029
 30
0.0
 11
76.57495030074043
 21
226.9047468697898
 31
0.0
  0
LINE
  5
1505
330
1F
100
AcDbEntity
  8
外形線
  6
CONTINUOUS
100
AcDbLine
 10
93.45949736273522
 20
235.1802363136523
 30
0.0
 11
88.69930595372259
 21
233.9047468697898
 31
0.0
  0
LINE
  5
1506
330
1F
100
AcDbEntity
  8
外形線
  6
CONTINUOUS
100
AcDbLine
 10
83.93911454470995
 20
235.1802363136523
 30
0.0
 11
88.69930595372242
 21
233.9047468697899
 31
0.0
  0
LINE
  5
1507
330
1F
100
AcDbEntity
  8
外形線
  6
CONTINUOUS
100
AcDbLine
 10
73.09024833559002
 20
223.4200449046394
 30
0.0
 11
76.57495030074043
 21
226.9047468697898
 31
0.0
  0
LINE
  5
1508
330
1F
100
AcDbEntity
  8
外形線
  6
CONTINUOUS
100
AcDbLine
 10
73.09024833559002
 20
216.3894488349404
 30
0.0
 11
76.57495030074043
 21
212.9047468697899
 31
0.0
  0
ARC
  5
1509
330
1F
100
AcDbEntity
  8
外形線
  6
CONTINUOUS
100
AcDbCircle
 10
88.69930595372259
 20
219.9047468697898
 30
0.0
 40
16.0
100
AcDbArc
 50
107.30822697786
 51
132.69177302214
  0
LINE
  5
150A
330
1F
100
AcDbEntity
  8
外形線
  6
CONTINUOUS
100
AcDbLine
 10
77.85043974460305
 20
208.1445554607768
 30
0.0
 11
76.57495030074043
 21
212.9047468697899
 31
0.0
  0
LINE
  5
150B
330
1F
100
AcDbEntity
  8
外形線
  6
CONTINUOUS
100
AcDbLine
 10
93.45949736273522
 20
204.6292574259273
 30
0.0
 11
88.69930595372259
 21
205.9047468697898
 31
0.0
  0
LINE
  5
150C
330
1F
100
AcDbEntity
  8
外形線
  6
CONTINUOUS
100
AcDbLine
 10
83.93911454470995
 20
204.6292574259273
 30
0.0
 11
88.69930595372242
 21
205.9047468697898
 31
0.0
  0
ARC
  5
150D
330
1F
100
AcDbEntity
  8
外形線
  6
CONTINUOUS
100
AcDbCircle
 10
88.69930595372259
 20
219.9047468697898
 30
0.0
 40
16.0
100
AcDbArc
 50
167.30822697786
 51
192.6917730221396
  0
LINE
  5
150E
330
1F
100
AcDbEntity
  8
外形線
  6
CONTINUOUS
100
AcDbLine
 10
104.3083635718552
 20
216.3894488349402
 30
0.0
 11
100.8236616067047
 21
212.9047468697898
 31
0.0
  0
LINE
  5
150F
330
1F
100
AcDbEntity
  8
外形線
  6
CONTINUOUS
100
AcDbLine
 10
99.54817216284212
 20
208.1445554607769
 30
0.0
 11
100.8236616067047
 21
212.9047468697898
 31
0.0
  0
ARC
  5
1510
330
1F
100
AcDbEntity
  8
外形線
  6
CONTINUOUS
100
AcDbCircle
 10
88.69930595372259
 20
219.9047468697898
 30
0.0
 40
16.0
100
AcDbArc
 50
227.30822697786
 51
252.6917730221399
  0
LINE
  5
1511
330
1F
100
AcDbEntity
  8
外形線
  6
CONTINUOUS
100
AcDbLine
 10
104.3083635718552
 20
223.4200449046393
 30
0.0
 11
100.8236616067047
 21
226.9047468697897
 31
0.0
  0
LINE
  5
1512
330
1F
100
AcDbEntity
  8
外形線
  6
CONTINUOUS
100
AcDbLine
 10
99.54817216284218
 20
231.6649382788027
 30
0.0
 11
100.8236616067047
 21
226.9047468697897
 31
0.0
  0
ARC
  5
1513
330
1F
100
AcDbEntity
  8
外形線
  6
CONTINUOUS
100
AcDbCircle
 10
88.69930595372259
 20
219.9047468697898
 30
0.0
 40
16.0
100
AcDbArc
 50
47.30822697786
 51
72.69177302213978
  0
ARC
  5
1514
330
1F
100
AcDbEntity
  8
外形線
  6
CONTINUOUS
100
AcDbCircle
 10
88.69930595372259
 20
219.9047468697898
 30
0.0
 40
16.0
100
AcDbArc
 50
287.3082269778599
 51
312.6917730221401
  0
ARC
  5
1515
330
1F
100
AcDbEntity
  8
外形線
  6
CONTINUOUS
100
AcDbCircle
 10
88.69930595372259
 20
219.9047468697898
 30
0.0
 40
16.0
100
AcDbArc
 50
347.3082269778599
 51
12.69177302213962
  0
CIRCLE
  5
1561
330
1F
100
AcDbEntity
  8
実線
  6
CONTINUOUS
100
AcDbCircle
 10
48.6993059537227
 20
259.9047468697898
 30
0.0
 40
2.0
  0
CIRCLE
  5
1562
330
1F
100
AcDbEntity
  8
実線
  6
CONTINUOUS
100
AcDbCircle
 10
48.6993059537227
 20
179.9047468697898
 30
0.0
 40
2.0
  0
CIRCLE
  5
1563
330
1F
100
AcDbEntity
  8
実線
  6
CONTINUOUS
100
AcDbCircle
 10
128.6993059537227
 20
179.9047468697898
 30
0.0
 40
2.0
  0
CIRCLE
  5
1564
330
1F
100
AcDbEntity
  8
実線
  6
CONTINUOUS
100
AcDbCircle
 10
128.6993059537227
 20
259.9047468697898
 30
0.0
 40
2.0
  0
LINE
  5
1585
330
1F
100
AcDbEntity
  8
実線
  6
CONTINUOUS
100
AcDbLine
 10
153.6993059537228
 20
236.8547468697898
 30
0.0
 11
153.6993059537228
 21
232.9547468697898
 31
0.0
  0
LINE
  5
1586
330
1F
100
AcDbEntity
  8
実線
  6
CONTINUOUS
100
AcDbLine
 10
23.6993059537227
 20
236.8547468697898
 30
0.0
 11
23.6993059537227
 21
232.9547468697898
 31
0.0
  0
LINE
  5
1596
330
1F
100
AcDbEntity
  8
実線
  6
CONTINUOUS
100
AcDbLine
 10
36.6993059537227
 20
236.8547468697898
 30
0.0
 11
36.6993059537227
 21
232.9547468697898
 31
0.0
  0
LINE
  5
1597
330
1F
100
AcDbEntity
  8
実線
  6
CONTINUOUS
100
AcDbLine
 10
140.6993059537228
 20
236.8547468697898
 30
0.0
 11
140.6993059537228
 21
232.9547468697898
 31
0.0
  0
LINE
  5
1598
330
1F
100
AcDbEntity
  8
実線
  6
CONTINUOUS
100
AcDbLine
 10
23.6993059537227
 20
236.8547468697898
 30
0.0
 11
36.6993059537227
 21
236.8547468697898
 31
0.0
  0
LINE
  5
1599
330
1F
100
AcDbEntity
  8
実線
  6
CONTINUOUS
100
AcDbLine
 10
23.6993059537227
 20
232.9547468697898
 30
0.0
 11
36.6993059537227
 21
232.9547468697898
 31
0.0
  0
LINE
  5
159A
330
1F
100
AcDbEntity
  8
実線
  6
CONTINUOUS
100
AcDbLine
 10
23.6993059537227
 20
202.9547468697898
 30
0.0
 11
36.6993059537227
 21
202.9547468697898
 31
0.0
  0
LINE
  5
159B
330
1F
100
AcDbEntity
  8
実線
  6
CONTINUOUS
100
AcDbLine
 10
23.6993059537227
 20
206.8547468697898
 30
0.0
 11
36.6993059537227
 21
206.8547468697898
 31
0.0
  0
LINE
  5
159C
330
1F
100
AcDbEntity
  8
実線
  6
CONTINUOUS
100
AcDbLine
 10
140.6993059537228
 20
202.9547468697898
 30
0.0
 11
153.6993059537228
 21
202.9547468697898
 31
0.0
  0
LINE
  5
159D
330
1F
100
AcDbEntity
  8
実線
  6
CONTINUOUS
100
AcDbLine
 10
140.6993059537228
 20
206.8547468697898
 30
0.0
 11
153.6993059537228
 21
206.8547468697898
 31
0.0
  0
LINE
  5
159E
330
1F
100
AcDbEntity
  8
実線
  6
CONTINUOUS
100
AcDbLine
 10
140.6993059537228
 20
232.9547468697898
 30
0.0
 11
153.6993059537228
 21
232.9547468697898
 31
0.0
  0
LINE
  5
159F
330
1F
100
AcDbEntity
  8
実線
  6
CONTINUOUS
100
AcDbLine
 10
140.6993059537228
 20
236.8547468697898
 30
0.0
 11
153.6993059537228
 21
236.8547468697898
 31
0.0
  0
LINE
  5
15A0
330
1F
100
AcDbEntity
  8
実線
  6
CONTINUOUS
100
AcDbLine
 10
23.6993059537227
 20
206.8547468697898
 30
0.0
 11
23.6993059537227
 21
202.9547468697898
 31
0.0
  0
LINE
  5
15A1
330
1F
100
AcDbEntity
  8
実線
  6
CONTINUOUS
100
AcDbLine
 10
36.6993059537227
 20
206.8547468697898
 30
0.0
 11
36.6993059537227
 21
202.9547468697898
 31
0.0
  0
LINE
  5
15A2
330
1F
100
AcDbEntity
  8
実線
  6
CONTINUOUS
100
AcDbLine
 10
140.6993059537228
 20
206.8547468697898
 30
0.0
 11
140.6993059537228
 21
202.9547468697898
 31
0.0
  0
LINE
  5
15A3
330
1F
100
AcDbEntity
  8
実線
  6
CONTINUOUS
100
AcDbLine
 10
153.6993059537228
 20
206.8547468697898
 30
0.0
 11
153.6993059537228
 21
202.9547468697898
 31
0.0
  0
LINE
  5
15E5
330
1F
100
AcDbEntity
  8
実線
  6
CONTINUOUS
100
AcDbLine
 10
90.64930595372269
 20
270.9047468697898
 30
0.0
 11
86.74930595372271
 21
270.9047468697898
 31
0.0
  0
LINE
  5
15E6
330
1F
100
AcDbEntity
  8
実線
  6
CONTINUOUS
100
AcDbLine
 10
90.64930595372269
 20
168.9047468697898
 30
0.0
 11
86.74930595372271
 21
168.9047468697898
 31
0.0
  0
LINE
  5
15E7
330
1F
100
AcDbEntity
  8
実線
  6
CONTINUOUS
100
AcDbLine
 10
90.64930595372269
 20
154.9047468697899
 30
0.0
 11
86.74930595372271
 21
154.9047468697899
 31
0.0
  0
LINE
  5
15E8
330
1F
100
AcDbEntity
  8
実線
  6
CONTINUOUS
100
AcDbLine
 10
90.64930595372269
 20
284.9047468697898
 30
0.0
 11
86.74930595372271
 21
284.9047468697898
 31
0.0
  0
LINE
  5
15E9
330
1F
100
AcDbEntity
  8
実線
  6
CONTINUOUS
100
AcDbLine
 10
86.74930595372271
 20
270.9047468697898
 30
0.0
 11
86.74930595372271
 21
284.9047468697898
 31
0.0
  0
LINE
  5
15EA
330
1F
100
AcDbEntity
  8
実線
  6
CONTINUOUS
100
AcDbLine
 10
90.64930595372269
 20
270.9047468697898
 30
0.0
 11
90.64930595372269
 21
284.9047468697898
 31
0.0
  0
LINE
  5
15FC
330
1F
100
AcDbEntity
  8
実線
  6
CONTINUOUS
100
AcDbLine
 10
86.74930595372271
 20
168.9047468697898
 30
0.0
 11
86.74930595372271
 21
154.9047468697899
 31
0.0
  0
LINE
  5
15FD
330
1F
100
AcDbEntity
  8
実線
  6
CONTINUOUS
100
AcDbLine
 10
90.64930595372269
 20
168.9047468697898
 30
0.0
 11
90.64930595372269
 21
154.9047468697899
 31
0.0
  0
LINE
  5
1602
330
1F
100
AcDbEntity
  8
実線
  6
CONTINUOUS
100
AcDbLine
 10
250.4199432276029
 20
128.8562353574742
 30
0.0
 11
250.4199432276029
 21
120.0562353574742
 31
0.0
  0
LINE
  5
1603
330
1F
100
AcDbEntity
  8
実線
  6
CONTINUOUS
100
AcDbLine
 10
200.4199432276029
 20
128.5562353574742
 30
0.0
 11
200.4199432276029
 21
120.0562353574742
 31
0.0
  0
LINE
  5
1624
330
1F
100
AcDbEntity
  8
外形線
  6
CONTINUOUS
100
AcDbLine
 10
250.4199432276029
 20
120.0562353574742
 30
0.0
 11
276.3699432276029
 21
120.0562353574742
 31
0.0
  0
LINE
  5
1625
330
1F
100
AcDbEntity
  8
外形線
  6
CONTINUOUS
100
AcDbLine
 10
250.4199432276029
 20
107.0562353574742
 30
0.0
 11
276.3699432276029
 21
107.0562353574742
 31
0.0
  0
LINE
  5
1626
330
1F
100
AcDbEntity
  8
実線
  6
CONTINUOUS
100
AcDbLine
 10
200.4199432276029
 20
107.0562353574742
 30
0.0
 11
200.4199432276029
 21
98.55623535747418
 31
0.0
  0
LINE
  5
1627
330
1F
100
AcDbEntity
  8
実線
  6
CONTINUOUS
100
AcDbLine
 10
250.4199432276029
 20
107.0562353574742
 30
0.0
 11
250.4199432276029
 21
98.25623535747418
 31
0.0
  0
LINE
  5
16C2
330
1F
100
AcDbEntity
  8
外形線
  6
CONTINUOUS
100
AcDbLine
 10
160.483075644403
 20
276.8758121786036
 30
0.0
 11
159.2075862005403
 21
272.1156207695905
 31
0.0
  0
LINE
  5
16C3
330
1F
100
AcDbEntity
  8
外形線
  6
CONTINUOUS
100
AcDbLine
 10
176.0921332625351
 20
280.391110213453
 30
0.0
 11
171.3319418535224
 21
279.1156207695905
 31
0.0
  0
LINE
  5
16C4
330
1F
100
AcDbEntity
  8
外形線
  6
CONTINUOUS
100
AcDbLine
 10
166.5717504445099
 20
280.391110213453
 30
0.0
 11
171.3319418535222
 21
279.1156207695906
 31
0.0
  0
LINE
  5
16C5
330
1F
100
AcDbEntity
  8
外形線
  6
CONTINUOUS
100
AcDbLine
 10
155.7228842353899
 20
268.6309188044401
 30
0.0
 11
159.2075862005403
 21
272.1156207695905
 31
0.0
  0
LINE
  5
16C6
330
1F
100
AcDbEntity
  8
外形線
  6
CONTINUOUS
100
AcDbLine
 10
155.7228842353898
 20
261.600322734741
 30
0.0
 11
159.2075862005402
 21
258.1156207695906
 31
0.0
  0
ARC
  5
16C7
330
1F
100
AcDbEntity
  8
外形線
  6
CONTINUOUS
100
AcDbCircle
 10
171.3319418535224
 20
265.1156207695905
 30
0.0
 40
16.0
100
AcDbArc
 50
107.30822697786
 51
132.6917730221403
  0
LINE
  5
16C8
330
1F
100
AcDbEntity
  8
外形線
  6
CONTINUOUS
100
AcDbLine
 10
160.483075644403
 20
253.3554293605775
 30
0.0
 11
159.2075862005403
 21
258.1156207695906
 31
0.0
  0
LINE
  5
16C9
330
1F
100
AcDbEntity
  8
外形線
  6
CONTINUOUS
100
AcDbLine
 10
176.092133262535
 20
249.840131325728
 30
0.0
 11
171.3319418535224
 21
251.1156207695905
 31
0.0
  0
LINE
  5
16CA
330
1F
100
AcDbEntity
  8
外形線
  6
CONTINUOUS
100
AcDbLine
 10
166.5717504445099
 20
249.840131325728
 30
0.0
 11
171.3319418535222
 21
251.1156207695905
 31
0.0
  0
ARC
  5
16CB
330
1F
100
AcDbEntity
  8
外形線
  6
CONTINUOUS
100
AcDbCircle
 10
175.68560218955
 20
260.3661731302877
 30
0.0
 40
16.0
100
AcDbArc
 50
167.3082269778602
 51
192.6917730221394
  0
LINE
  5
16CC
330
1F
100
AcDbEntity
  8
外形線
  6
CONTINUOUS
100
AcDbLine
 10
186.9409994716549
 20
261.6003227347409
 30
0.0
 11
183.4562975065045
 21
258.1156207695905
 31
0.0
  0
LINE
  5
16CD
330
1F
100
AcDbEntity
  8
外形線
  6
CONTINUOUS
100
AcDbLine
 10
182.180808062642
 20
253.3554293605776
 30
0.0
 11
183.4562975065045
 21
258.1156207695905
 31
0.0
  0
ARC
  5
16CE
330
1F
100
AcDbEntity
  8
外形線
  6
CONTINUOUS
100
AcDbCircle
 10
171.3319418535224
 20
265.1156207695905
 30
0.0
 40
16.0
100
AcDbArc
 50
227.3082269778597
 51
252.69177302214
  0
LINE
  5
16CF
330
1F
100
AcDbEntity
  8
外形線
  6
CONTINUOUS
100
AcDbLine
 10
186.9409994716551
 20
268.63091880444
 30
0.0
 11
183.4562975065047
 21
272.1156207695904
 31
0.0
  0
LINE
  5
16D0
330
1F
100
AcDbEntity
  8
外形線
  6
CONTINUOUS
100
AcDbLine
 10
182.180808062642
 20
276.8758121786034
 30
0.0
 11
183.4562975065045
 21
272.1156207695904
 31
0.0
  0
ARC
  5
16D1
330
1F
100
AcDbEntity
  8
外形線
  6
CONTINUOUS
100
AcDbCircle
 10
171.3319418535224
 20
265.1156207695905
 30
0.0
 40
16.0
100
AcDbArc
 50
47.30822697785971
 51
72.69177302214001
  0
ARC
  5
16D2
330
1F
100
AcDbEntity
  8
外形線
  6
CONTINUOUS
100
AcDbCircle
 10
171.3319418535224
 20
265.1156207695905
 30
0.0
 40
16.0
100
AcDbArc
 50
287.3082269778599
 51
312.6917730221402
  0
ARC
  5
16D3
330
1F
100
AcDbEntity
  8
外形線
  6
CONTINUOUS
100
AcDbCircle
 10
171.3319418535224
 20
265.1156207695905
 30
0.0
 40
16.0
100
AcDbArc
 50
347.3082269778602
 51
12.6917730221396
  0
CIRCLE
  5
16D4
330
1F
100
AcDbEntity
  8
外形線
  6
CONTINUOUS
100
AcDbCircle
 10
163.3319418535224
 20
273.1156207695905
 30
0.0
 40
1.5
  0
CIRCLE
  5
16D5
330
1F
100
AcDbEntity
  8
外形線
  6
CONTINUOUS
100
AcDbCircle
 10
163.3319418535224
 20
257.1156207695905
 30
0.0
 40
1.5
  0
CIRCLE
  5
16D6
330
1F
100
AcDbEntity
  8
外形線
  6
CONTINUOUS
100
AcDbCircle
 10
179.3319418535224
 20
257.1156207695905
 30
0.0
 40
1.5
  0
CIRCLE
  5
16D7
330
1F
100
AcDbEntity
  8
外形線
  6
CONTINUOUS
100
AcDbCircle
 10
179.3319418535224
 20
273.1156207695905
 30
0.0
 40
1.5
  0
CIRCLE
  5
16D8
330
1F
100
AcDbEntity
  8
外形線
  6
CONTINUOUS
100
AcDbCircle
 10
171.3319418535224
 20
265.1156207695905
 30
0.0
 40
4.2
  0
LINE
  5
1A90
330
1F
100
AcDbEntity
  8
実線
  6
CONTINUOUS
100
AcDbLine
 10
250.4199432276029
 20
128.8562353574742
 30
0.0
 11
200.4199432276029
 21
128.5562353574742
 31
0.0
  0
LINE
  5
1A91
330
1F
100
AcDbEntity
  8
実線
  6
CONTINUOUS
100
AcDbLine
 10
250.4199432276029
 20
98.25623535747418
 30
0.0
 11
200.4199432276029
 21
98.55623535747418
 31
0.0
  0
CIRCLE
  5
1A92
330
1F
100
AcDbEntity
  8
実線
  6
CONTINUOUS
100
AcDbCircle
 10
385.5627129901175
 20
61.59762751920886
 30
0.0
 40
14.0
  0
LINE
  5
1A94
330
1F
100
AcDbEntity
  8
実線
  6
CONTINUOUS
100
AcDbLine
 10
410.0627129901175
 20
79.64762751920887
 30
0.0
 11
410.0627129901175
 21
75.09762751920886
 31
0.0
  0
LINE
  5
1A96
330
1F
100
AcDbEntity
  8
実線
  6
CONTINUOUS
100
AcDbLine
 10
408.0627129901175
 20
75.09762751920886
 30
0.0
 11
410.0627129901175
 21
75.09762751920886
 31
0.0
  0
LINE
  5
1A97
330
1F
100
AcDbEntity
  8
実線
  6
CONTINUOUS
100
AcDbLine
 10
408.0627129901175
 20
75.09762751920886
 30
0.0
 11
408.0627129901175
 21
69.09762751920886
 31
0.0
  0
LINE
  5
1A98
330
1F
100
AcDbEntity
  8
実線
  6
CONTINUOUS
100
AcDbLine
 10
408.0627129901175
 20
69.09762751920886
 30
0.0
 11
410.0627129901175
 21
69.09762751920886
 31
0.0
  0
LINE
  5
1A9A
330
1F
100
AcDbEntity
  8
実線
  6
CONTINUOUS
100
AcDbLine
 10
406.0627129901175
 20
65.59762751920886
 30
0.0
 11
410.0627129901175
 21
65.59762751920886
 31
0.0
  0
LINE
  5
1A9B
330
1F
100
AcDbEntity
  8
実線
  6
CONTINUOUS
100
AcDbLine
 10
406.0627129901175
 20
57.59762751920886
 30
0.0
 11
408.0627129901175
 21
57.59762751920886
 31
0.0
  0
LINE
  5
1A9C
330
1F
100
AcDbEntity
  8
実線
  6
CONTINUOUS
100
AcDbLine
 10
408.0627129901175
 20
57.59762751920886
 30
0.0
 11
408.0627129901175
 21
55.59762751920886
 31
0.0
  0
LINE
  5
1A9D
330
1F
100
AcDbEntity
  8
実線
  6
CONTINUOUS
100
AcDbLine
 10
410.0627129901175
 20
69.09762751920886
 30
0.0
 11
410.0627129901175
 21
65.59762751920886
 31
0.0
  0
LINE
  5
1A9E
330
1F
100
AcDbEntity
  8
実線
  6
CONTINUOUS
100
AcDbLine
 10
408.0627129901175
 20
55.59762751920886
 30
0.0
 11
410.0627129901175
 21
55.59762751920886
 31
0.0
  0
LINE
  5
1A9F
330
1F
100
AcDbEntity
  8
実線
  6
CONTINUOUS
100
AcDbLine
 10
406.0627129901175
 20
57.59762751920886
 30
0.0
 11
406.0627129901175
 21
65.59762751920886
 31
0.0
  0
LINE
  5
1AA0
330
1F
100
AcDbEntity
  8
実線
  6
CONTINUOUS
100
AcDbLine
 10
410.0627129901175
 20
55.59762751920886
 30
0.0
 11
410.0627129901175
 21
41.59762751920886
 31
0.0
  0
LINE
  5
1AA3
330
1F
100
AcDbEntity
  8
実線
  6
CONTINUOUS
100
AcDbLine
 10
359.3520889387567
 20
186.7938863319586
 30
0.0
 11
359.3520889387567
 21
193.1091872142831
 31
0.0
  0
LINE
  5
1AA4
330
1F
100
AcDbEntity
  8
外形線
  6
CONTINUOUS
100
AcDbLine
 10
363.5681387290091
 20
222.7938863319586
 30
0.0
 11
359.3520889387567
 21
222.7938863319586
 31
0.0
  0
LINE
  5
1AA5
330
1F
100
AcDbEntity
  8
外形線
  6
CONTINUOUS
100
AcDbLine
 10
363.5681387290091
 20
186.7938863319586
 30
0.0
 11
359.3520889387567
 21
186.7938863319586
 31
0.0
  0
LINE
  5
1AA6
330
1F
100
AcDbEntity
  8
実線
  6
CONTINUOUS
100
AcDbLine
 10
359.3520889387567
 20
216.4785854496341
 30
0.0
 11
359.3520889387567
 21
222.7938863319586
 31
0.0
  0
ARC
  5
1AA7
330
1F
100
AcDbEntity
  8
外形線
  6
CONTINUOUS
100
AcDbCircle
 10
383.6927505265072
 20
204.7938863319586
 30
0.0
 40
27.0
100
AcDbArc
 50
154.3567337519872
 51
205.6432662480128
  0
ARC
  5
1AA8
330
1F
100
AcDbEntity
  8
外形線
  6
CONTINUOUS
100
AcDbCircle
 10
383.6927505265072
 20
204.7938863319586
 30
0.0
 40
27.0
100
AcDbArc
 50
221.8103148957786
 51
318.1896851042214
  0
CIRCLE
  5
1AC1
330
1F
100
AcDbEntity
  8
実線
  6
CONTINUOUS
100
AcDbCircle
 10
282.3699432276029
 20
61.55623535747418
 30
0.0
 40
14.5
  0
CIRCLE
  5
1AE4
330
1F
100
AcDbEntity
  8
実線
  6
CONTINUOUS
100
AcDbCircle
 10
130.379971445165
 20
61.11381262232283
 30
0.0
 40
14.5
  0
LINE
  5
1AE5
330
1F
100
AcDbEntity
  8
実線
  6
CONTINUOUS
100
AcDbLine
 10
410.0627129901175
 20
41.59762751920886
 30
0.0
 11
421.5627129901175
 21
41.59762751920886
 31
0.0
  0
LINE
  5
1AE6
330
1F
100
AcDbEntity
  8
実線
  6
CONTINUOUS
100
AcDbLine
 10
430.5627129901175
 20
41.59762751920886
 30
0.0
 11
430.5627129901175
 21
43.59762751920886
 31
0.0
  0
LINE
  5
1AE7
330
1F
100
AcDbEntity
  8
実線
  6
CONTINUOUS
100
AcDbLine
 10
421.5627129901175
 20
41.59762751920886
 30
0.0
 11
421.5627129901175
 21
43.59762751920886
 31
0.0
  0
LINE
  5
1AE9
330
1F
100
AcDbEntity
  8
実線
  6
CONTINUOUS
100
AcDbLine
 10
430.5627129901175
 20
41.59762751920886
 30
0.0
 11
436.5627129901175
 21
41.59762751920886
 31
0.0
  0
CIRCLE
  5
1AFC
330
1F
100
AcDbEntity
  8
実線
  6
CONTINUOUS
100
AcDbCircle
 10
271.370742770721
 20
172.2221913191469
 30
0.0
 40
5.5
  0
ENDSEC
  0
SECTION
  2
OBJECTS
  0
DICTIONARY
  5
C
330
0
100
AcDbDictionary
  3
ACAD_DETAILVIEWSTYLE
350
B5
  3
ACAD_GROUP
350
D
  3
ACAD_IMAGE_VARS
350
6A
  3
ACAD_MLINESTYLE
350
17
  3
ACAD_SCALELIST
350
1A47
  3
ACAD_SECTIONVIEWSTYLE
350
B6
  3
ACDBVARIABLEDICTIONARY
350
3D
  3
APPDATA
350
71
  3
DWGPROPS
350
1AFD
1001
ACAD
1000
TREAT_AS_HARD
1070
     0
  0
DICTIONARY
  5
B7
330
2
100
AcDbDictionary
  3
ACAD_LAYERSTATES
360
B8
  3
ACLYDICTIONARY
360
C1
1001
ACAD
1000
TREAT_AS_HARD
1070
     1
  0
DICTIONARY
  5
B5
102
{ACAD_REACTORS
330
C
102
}
330
C
100
AcDbDictionary
1001
ACAD
1000
TREAT_AS_HARD
1070
     0
  0
DICTIONARY
  5
D
102
{ACAD_REACTORS
330
C
102
}
330
C
100
AcDbDictionary
1001
ACAD
1000
TREAT_AS_HARD
1070
     0
  0
RASTERVARIABLES
  5
6A
102
{ACAD_REACTORS
330
C
102
}
330
C
100
AcDbRasterVariables
 90
        0
 70
     1
 71
     1
 72
     1
  0
DICTIONARY
  5
17
102
{ACAD_REACTORS
330
C
102
}
330
C
100
AcDbDictionary
  3
STANDARD
350
18
1001
ACAD
1000
TREAT_AS_HARD
1070
     0
  0
DICTIONARY
  5
1A47
102
{ACAD_REACTORS
330
C
102
}
330
C
100
AcDbDictionary
1001
ACAD
1000
TREAT_AS_HARD
1070
     0
  0
DICTIONARY
  5
B6
102
{ACAD_REACTORS
330
C
102
}
330
C
100
AcDbDictionary
1001
ACAD
1000
TREAT_AS_HARD
1070
     0
  0
DICTIONARY
  5
3D
102
{ACAD_REACTORS
330
C
102
}
330
C
100
AcDbDictionary
1001
ACAD
1000
TREAT_AS_HARD
1070
     0
  0
DICTIONARY
  5
71
102
{ACAD_REACTORS
330
C
102
}
330
C
100
AcDbDictionary
1001
ACAD
1000
TREAT_AS_HARD
1070
     0
  0
XRECORD
  5
1AFD
102
{ACAD_REACTORS
330
C
102
}
330
C
100
AcDbXrecord
  1
DWGPROPS COOKIE
  2

  3

  4

  6

  7

  8
Mizuki
  9

300
=
301
=
302
=
303
=
304
=
305
=
306
=
307
=
308
=
309
=
 40
0.0
 41
2455022.637359514
 42
2457191.224520463
  1

 90
        0
  0
DICTIONARY
  5
B8
102
{ACAD_REACTORS
330
B7
102
}
330
B7
100
AcDbDictionary
1001
ACAD
1000
TREAT_AS_HARD
1070
     0
  0
DICTIONARY
  5
C1
102
{ACAD_REACTORS
330
B7
102
}
330
B7
100
AcDbDictionary
1001
ACAD
1000
<All
1000
TREAT_AS_HARD
1070
     0
  0
MLINESTYLE
  5
18
102
{ACAD_REACTORS
330
17
102
}
330
17
100
AcDbMlineStyle
  2
Standard
 70
     0
  3

 62
   256
 51
90.0
 52
90.0
 71
     2
 49
0.5
 62
   256
  6
BYLAYER
 49
-0.5
 62
   256
  6
BYLAYER
  0
ENDSEC
  0
EOF
