  0
SECTION
  2
HEADER
  9
$ACADVER
  1
AC1012
  9
$DWGCODEPAGE
  3
ansi_932
  9
$INSBASE
 10
0.0
 20
0.0
 30
0.0
  9
$EXTMIN
 10
-11.46110247872724
 20
151.5841435442105
 30
0.0
  9
$EXTMAX
 10
180.6941228411102
 20
274.3278308052785
 30
0.0
  9
$LIMMIN
 10
0.0
 20
0.0
  9
$LIMMAX
 10
420.0
 20
297.0
  9
$ORTHOMODE
 70
     0
  9
$REGENMODE
 70
     1
  9
$FILLMODE
 70
     1
  9
$QTEXTMODE
 70
     0
  9
$MIRRTEXT
 70
     0
  9
$DRAGMODE
 70
     2
  9
$LTSCALE
 40
1.0
  9
$OSMODE
 70
   511
  9
$ATTMODE
 70
     1
  9
$TEXTSIZE
 40
2.5
  9
$TRACEWID
 40
1.0
  9
$TEXTSTYLE
  7
STANDARD
  9
$CLAYER
  8
外形線
  9
$CELTYPE
  6
CONTINUOUS
  9
$CECOLOR
 62
   256
  9
$CELTSCALE
 40
1.0
  9
$DELOBJ
 70
     1
  9
$DISPSILH
 70
     0
  9
$DIMSCALE
 40
1.0
  9
$DIMASZ
 40
2.5
  9
$DIMEXO
 40
0.625
  9
$DIMDLI
 40
3.75
  9
$DIMRND
 40
0.0
  9
$DIMDLE
 40
0.0
  9
$DIMEXE
 40
1.25
  9
$DIMTP
 40
0.0
  9
$DIMTM
 40
0.0
  9
$DIMTXT
 40
2.5
  9
$DIMCEN
 40
2.5
  9
$DIMTSZ
 40
0.0
  9
$DIMTOL
 70
     0
  9
$DIMLIM
 70
     0
  9
$DIMTIH
 70
     0
  9
$DIMTOH
 70
     0
  9
$DIMSE1
 70
     0
  9
$DIMSE2
 70
     0
  9
$DIMTAD
 70
     1
  9
$DIMZIN
 70
     8
  9
$DIMBLK
  1

  9
$DIMASO
 70
     1
  9
$DIMSHO
 70
     1
  9
$DIMPOST
  1

  9
$DIMAPOST
  1

  9
$DIMALT
 70
     0
  9
$DIMALTD
 70
     3
  9
$DIMALTF
 40
0.03937007874016
  9
$DIMLFAC
 40
1.0
  9
$DIMTOFL
 70
     1
  9
$DIMTVP
 40
0.0
  9
$DIMTIX
 70
     0
  9
$DIMSOXD
 70
     0
  9
$DIMSAH
 70
     0
  9
$DIMBLK1
  1

  9
$DIMBLK2
  1

  9
$DIMSTYLE
  2
ISO-25
  9
$DIMCLRD
 70
     0
  9
$DIMCLRE
 70
     0
  9
$DIMCLRT
 70
     0
  9
$DIMTFAC
 40
1.0
  9
$DIMGAP
 40
0.625
  9
$DIMJUST
 70
     0
  9
$DIMSD1
 70
     0
  9
$DIMSD2
 70
     0
  9
$DIMTOLJ
 70
     0
  9
$DIMTZIN
 70
     8
  9
$DIMALTZ
 70
     0
  9
$DIMALTTZ
 70
     0
  9
$DIMFIT
 70
     3
  9
$DIMUPT
 70
     0
  9
$DIMUNIT
 70
     2
  9
$DIMDEC
 70
     2
  9
$DIMTDEC
 70
     2
  9
$DIMALTU
 70
     2
  9
$DIMALTTD
 70
     3
  9
$DIMTXSTY
  7
STANDARD
  9
$DIMAUNIT
 70
     0
  9
$LUNITS
 70
     2
  9
$LUPREC
 70
     3
  9
$SKETCHINC
 40
1.0
  9
$FILLETRAD
 40
10.0
  9
$AUNITS
 70
     0
  9
$AUPREC
 70
     0
  9
$MENU
  1
.
  9
$ELEVATION
 40
0.0
  9
$PELEVATION
 40
0.0
  9
$THICKNESS
 40
0.0
  9
$LIMCHECK
 70
     0
  9
$CHAMFERA
 40
4.0
  9
$CHAMFERB
 40
4.0
  9
$CHAMFERC
 40
20.0
  9
$CHAMFERD
 40
0.0
  9
$SKPOLY
 70
     0
  9
$TDCREATE
 40
2455023.012359514
  9
$TDUPDATE
 40
2456813.986224132
  9
$TDINDWG
 40
0.3354470718
  9
$TDUSRTIMER
 40
2456813.564603079
  9
$USRTIMER
 70
     1
  9
$ANGBASE
 50
0.0
  9
$ANGDIR
 70
     0
  9
$PDMODE
 70
     0
  9
$PDSIZE
 40
0.0
  9
$PLINEWID
 40
0.0
  9
$COORDS
 70
     1
  9
$SPLFRAME
 70
     0
  9
$SPLINETYPE
 70
     6
  9
$SPLINESEGS
 70
     8
  9
$ATTDIA
 70
     0
  9
$ATTREQ
 70
     1
  9
$HANDLING
 70
     1
  9
$HANDSEED
  5
656
  9
$SURFTAB1
 70
     6
  9
$SURFTAB2
 70
     6
  9
$SURFTYPE
 70
     6
  9
$SURFU
 70
     6
  9
$SURFV
 70
     6
  9
$UCSNAME
  2

  9
$UCSORG
 10
0.0
 20
0.0
 30
0.0
  9
$UCSXDIR
 10
1.0
 20
0.0
 30
0.0
  9
$UCSYDIR
 10
0.0
 20
1.0
 30
0.0
  9
$PUCSNAME
  2

  9
$PUCSORG
 10
0.0
 20
0.0
 30
0.0
  9
$PUCSXDIR
 10
1.0
 20
0.0
 30
0.0
  9
$PUCSYDIR
 10
0.0
 20
1.0
 30
0.0
  9
$USERI1
 70
     0
  9
$USERI2
 70
     0
  9
$USERI3
 70
     0
  9
$USERI4
 70
     0
  9
$USERI5
 70
     0
  9
$USERR1
 40
0.0
  9
$USERR2
 40
0.0
  9
$USERR3
 40
0.0
  9
$USERR4
 40
0.0
  9
$USERR5
 40
0.0
  9
$WORLDVIEW
 70
     1
  9
$SHADEDGE
 70
     3
  9
$SHADEDIF
 70
    70
  9
$TILEMODE
 70
     1
  9
$MAXACTVP
 70
    64
  9
$PINSBASE
 10
0.0
 20
0.0
 30
0.0
  9
$PLIMCHECK
 70
     0
  9
$PEXTMIN
 10
0.0
 20
0.0
 30
0.0
  9
$PEXTMAX
 10
0.0
 20
0.0
 30
0.0
  9
$PLIMMIN
 10
-7.5
 20
-20.0
  9
$PLIMMAX
 10
412.5
 20
277.0
  9
$UNITMODE
 70
     0
  9
$VISRETAIN
 70
     1
  9
$PLINEGEN
 70
     0
  9
$PSLTSCALE
 70
     1
  9
$TREEDEPTH
 70
  3020
  9
$PICKSTYLE
 70
     0
  9
$CMLSTYLE
  2
STANDARD
  9
$CMLJUST
 70
     0
  9
$CMLSCALE
 40
20.0
  9
$SAVEIMAGES
 70
     1
  0
ENDSEC
  0
SECTION
  2
CLASSES
  0
CLASS
  1
ACDBDICTIONARYWDFLT
  2
AcDbDictionaryWithDefault
  3
ObjectDBX Classes
 90
    32768
280
     0
281
     0
  0
CLASS
  1
VISUALSTYLE
  2
AcDbVisualStyle
  3
ObjectDBX Classes
 90
     4095
280
     0
281
     0
  0
CLASS
  1
TABLESTYLE
  2
AcDbTableStyle
  3
ObjectDBX Classes
 90
     4095
280
     0
281
     0
  0
CLASS
  1
DICTIONARYVAR
  2
AcDbDictionaryVar
  3
ObjectDBX Classes
 90
        0
280
     0
281
     0
  0
CLASS
  1
SCALE
  2
AcDbScale
  3
ObjectDBX Classes
 90
     1153
280
     0
281
     0
  0
CLASS
  1
CELLSTYLEMAP
  2
AcDbCellStyleMap
  3
ObjectDBX Classes
 90
     1152
280
     0
281
     0
  0
CLASS
  1
RASTERVARIABLES
  2
AcDbRasterVariables
  3
ISM
 90
    32768
280
     0
281
     0
  0
CLASS
  1
MATERIAL
  2
AcDbMaterial
  3
ObjectDBX Classes
 90
     1153
280
     0
281
     0
  0
CLASS
  1
SUN
  2
AcDbSun
  3
SCENEOE
 90
     1153
280
     0
281
     0
  0
CLASS
  1
DIMASSOC
  2
AcDbDimAssoc
  3
"AcDbDimAssoc|Product Desc:     AcDim ARX App For Dimension|Company:          Autodesk, Inc.|WEB Address:      www.autodesk.com"
 90
        0
280
     0
281
     0
  0
CLASS
  1
XRECORD
  2
AcDbXrecord
  3
ObjectDBX Classes
 90
    32768
280
     0
281
     0
  0
ENDSEC
  0
SECTION
  2
TABLES
  0
TABLE
  2
VPORT
  5
8
330
0
100
AcDbSymbolTable
 70
     1
  0
VPORT
  5
29
330
8
100
AcDbSymbolTableRecord
100
AcDbViewportTableRecord
  2
*ACTIVE
 70
     0
 10
0.0
 20
0.0
 11
1.0
 21
1.0
 12
292.8544198216837
 22
201.7298856623161
 13
0.0
 23
0.0
 14
10.0
 24
10.0
 15
10.0
 25
10.0
 16
0.0
 26
0.0
 36
1.0
 17
-134.1869158878501
 27
0.0
 37
0.0
 40
388.7310395856438
 41
1.272
 42
50.0
 43
0.0
 44
0.0
 50
0.0
 51
0.0
 71
    16
 72
  1000
 73
     1
 74
     3
 75
     0
 76
     0
 77
     0
 78
     0
  0
ENDTAB
  0
TABLE
  2
LTYPE
  5
5
330
0
100
AcDbSymbolTable
 70
     2
  0
LTYPE
  5
14
330
5
100
AcDbSymbolTableRecord
100
AcDbLinetypeTableRecord
  2
BYBLOCK
 70
     0
  3

 72
    65
 73
     0
 40
0.0
  0
LTYPE
  5
15
330
5
100
AcDbSymbolTableRecord
100
AcDbLinetypeTableRecord
  2
BYLAYER
 70
     0
  3

 72
    65
 73
     0
 40
0.0
  0
LTYPE
  5
16
330
5
100
AcDbSymbolTableRecord
100
AcDbLinetypeTableRecord
  2
CONTINUOUS
 70
     0
  3
Solid line
 72
    65
 73
     0
 40
0.0
  0
LTYPE
  5
BC
330
5
100
AcDbSymbolTableRecord
100
AcDbLinetypeTableRecord
  2
DASHDOT
 70
     0
  3
DashDot __  . __  . __  . __  . __  . __  . __ 
 72
    65
 73
     4
 40
25.4
 49
12.7
 74
     0
 49
-6.35
 74
     0
 49
0.0
 74
     0
 49
-6.35
 74
     0
  0
ENDTAB
  0
TABLE
  2
LAYER
  5
2
102
{ACAD_XDICTIONARY
360
B7
102
}
330
0
100
AcDbSymbolTable
 70
     7
  0
LAYER
  5
10
330
2
100
AcDbSymbolTableRecord
100
AcDbLayerTableRecord
  2
0
 70
     0
 62
     7
  6
CONTINUOUS
  0
LAYER
  5
BA
330
2
100
AcDbSymbolTableRecord
100
AcDbLayerTableRecord
  2
中心線
 70
     0
 62
     1
  6
CONTINUOUS
1001
ACAECLAYERSTANDARD
1000

1000

  0
LAYER
  5
BD
330
2
100
AcDbSymbolTableRecord
100
AcDbLayerTableRecord
  2
外形線
 70
     0
 62
     7
  6
CONTINUOUS
1001
ACAECLAYERSTANDARD
1000

1000

  0
LAYER
  5
BE
330
2
100
AcDbSymbolTableRecord
100
AcDbLayerTableRecord
  2
実線
 70
     0
 62
     7
  6
CONTINUOUS
1001
ACAECLAYERSTANDARD
1000

1000

  0
LAYER
  5
BF
330
2
100
AcDbSymbolTableRecord
100
AcDbLayerTableRecord
  2
補助線
 70
     0
 62
     4
  6
CONTINUOUS
1001
ACAECLAYERSTANDARD
1000

1000

  0
LAYER
  5
C0
330
2
100
AcDbSymbolTableRecord
100
AcDbLayerTableRecord
  2
寸法線
 70
     0
 62
     3
  6
CONTINUOUS
1001
ACAECLAYERSTANDARD
1000

1000

  0
LAYER
  5
107
330
2
100
AcDbSymbolTableRecord
100
AcDbLayerTableRecord
  2
DEFPOINTS
 70
     0
 62
     7
  6
CONTINUOUS
  0
ENDTAB
  0
TABLE
  2
STYLE
  5
3
330
0
100
AcDbSymbolTable
 70
     1
  0
STYLE
  5
11
330
3
100
AcDbSymbolTableRecord
100
AcDbTextStyleTableRecord
  2
STANDARD
 70
     0
 40
0.0
 41
1.0
 50
0.0
 71
     0
 42
2.5
  3
arial.ttf
  4

1001
ACAD
1000
Arial
1071
        0
  0
ENDTAB
  0
TABLE
  2
VIEW
  5
6
330
0
100
AcDbSymbolTable
 70
     0
  0
ENDTAB
  0
TABLE
  2
UCS
  5
7
330
0
100
AcDbSymbolTable
 70
     0
  0
ENDTAB
  0
TABLE
  2
APPID
  5
9
330
0
100
AcDbSymbolTable
 70
     3
  0
APPID
  5
12
330
9
100
AcDbSymbolTableRecord
100
AcDbRegAppTableRecord
  2
ACAD
 70
     0
  0
APPID
  5
BB
330
9
100
AcDbSymbolTableRecord
100
AcDbRegAppTableRecord
  2
ACAECLAYERSTANDARD
 70
     0
  0
APPID
  5
221
330
9
100
AcDbSymbolTableRecord
100
AcDbRegAppTableRecord
  2
ACAD_DSTYLE_DIMRADIAL_EXTE
 70
     0
  0
ENDTAB
  0
TABLE
  2
DIMSTYLE
  5
A
330
0
100
AcDbSymbolTable
 70
     1
  0
DIMSTYLE
105
27
330
A
100
AcDbSymbolTableRecord
100
AcDbDimStyleTableRecord
  2
ISO-25
 70
     0
  3

  4

  5

  6

  7

 40
1.0
 41
2.5
 42
0.625
 43
3.75
 44
1.25
 45
0.0
 46
0.0
 47
0.0
 48
0.0
140
2.5
141
2.5
142
0.0
143
0.03937007874016
144
1.0
145
0.0
146
1.0
147
0.625
 71
     0
 72
     0
 73
     0
 74
     0
 75
     0
 76
     0
 77
     1
 78
     8
170
     0
171
     3
172
     1
173
     0
174
     0
175
     0
176
     0
177
     0
178
     0
270
     2
271
     2
272
     2
273
     2
274
     3
340
11
275
     0
280
     0
281
     0
282
     0
283
     0
284
     8
285
     0
286
     0
287
     3
288
     0
  0
ENDTAB
  0
TABLE
  2
BLOCK_RECORD
  5
1
330
0
100
AcDbSymbolTable
 70
    59
  0
BLOCK_RECORD
  5
1F
330
1
100
AcDbSymbolTableRecord
100
AcDbBlockTableRecord
  2
*MODEL_SPACE
  0
BLOCK_RECORD
  5
23
330
1
100
AcDbSymbolTableRecord
100
AcDbBlockTableRecord
  2
*PAPER_SPACE
  0
BLOCK_RECORD
  5
1B
330
1
100
AcDbSymbolTableRecord
100
AcDbBlockTableRecord
  2
*PAPER_SPACE0
  0
BLOCK_RECORD
  5
159
330
1
100
AcDbSymbolTableRecord
100
AcDbBlockTableRecord
  2
*D3
  0
BLOCK_RECORD
  5
177
330
1
100
AcDbSymbolTableRecord
100
AcDbBlockTableRecord
  2
*D5
  0
BLOCK_RECORD
  5
195
330
1
100
AcDbSymbolTableRecord
100
AcDbBlockTableRecord
  2
*D7
  0
BLOCK_RECORD
  5
1A4
330
1
100
AcDbSymbolTableRecord
100
AcDbBlockTableRecord
  2
*D8
  0
BLOCK_RECORD
  5
1B3
330
1
100
AcDbSymbolTableRecord
100
AcDbBlockTableRecord
  2
*D9
  0
BLOCK_RECORD
  5
1C8
330
1
100
AcDbSymbolTableRecord
100
AcDbBlockTableRecord
  2
*D10
  0
BLOCK_RECORD
  5
225
330
1
100
AcDbSymbolTableRecord
100
AcDbBlockTableRecord
  2
*D15
  0
BLOCK_RECORD
  5
23E
330
1
100
AcDbSymbolTableRecord
100
AcDbBlockTableRecord
  2
*D16
  0
BLOCK_RECORD
  5
275
330
1
100
AcDbSymbolTableRecord
100
AcDbBlockTableRecord
  2
*D19
  0
BLOCK_RECORD
  5
284
330
1
100
AcDbSymbolTableRecord
100
AcDbBlockTableRecord
  2
*D20
  0
BLOCK_RECORD
  5
293
330
1
100
AcDbSymbolTableRecord
100
AcDbBlockTableRecord
  2
*D21
  0
BLOCK_RECORD
  5
2A4
330
1
100
AcDbSymbolTableRecord
100
AcDbBlockTableRecord
  2
*D22
  0
BLOCK_RECORD
  5
2B3
330
1
100
AcDbSymbolTableRecord
100
AcDbBlockTableRecord
  2
*D23
  0
BLOCK_RECORD
  5
379
330
1
100
AcDbSymbolTableRecord
100
AcDbBlockTableRecord
  2
*D28
  0
BLOCK_RECORD
  5
388
330
1
100
AcDbSymbolTableRecord
100
AcDbBlockTableRecord
  2
*D29
  0
BLOCK_RECORD
  5
397
330
1
100
AcDbSymbolTableRecord
100
AcDbBlockTableRecord
  2
*D30
  0
BLOCK_RECORD
  5
3A6
330
1
100
AcDbSymbolTableRecord
100
AcDbBlockTableRecord
  2
*D31
  0
BLOCK_RECORD
  5
3B5
330
1
100
AcDbSymbolTableRecord
100
AcDbBlockTableRecord
  2
*D32
  0
BLOCK_RECORD
  5
3C4
330
1
100
AcDbSymbolTableRecord
100
AcDbBlockTableRecord
  2
*D33
  0
BLOCK_RECORD
  5
3D3
330
1
100
AcDbSymbolTableRecord
100
AcDbBlockTableRecord
  2
*D34
  0
BLOCK_RECORD
  5
3E2
330
1
100
AcDbSymbolTableRecord
100
AcDbBlockTableRecord
  2
*D35
  0
BLOCK_RECORD
  5
3F1
330
1
100
AcDbSymbolTableRecord
100
AcDbBlockTableRecord
  2
*D36
  0
BLOCK_RECORD
  5
400
330
1
100
AcDbSymbolTableRecord
100
AcDbBlockTableRecord
  2
*D37
  0
BLOCK_RECORD
  5
40F
330
1
100
AcDbSymbolTableRecord
100
AcDbBlockTableRecord
  2
*D38
  0
BLOCK_RECORD
  5
41E
330
1
100
AcDbSymbolTableRecord
100
AcDbBlockTableRecord
  2
*D39
  0
BLOCK_RECORD
  5
42D
330
1
100
AcDbSymbolTableRecord
100
AcDbBlockTableRecord
  2
*D40
  0
BLOCK_RECORD
  5
43C
330
1
100
AcDbSymbolTableRecord
100
AcDbBlockTableRecord
  2
*D41
  0
BLOCK_RECORD
  5
44B
330
1
100
AcDbSymbolTableRecord
100
AcDbBlockTableRecord
  2
*D42
  0
BLOCK_RECORD
  5
45A
330
1
100
AcDbSymbolTableRecord
100
AcDbBlockTableRecord
  2
*D43
  0
BLOCK_RECORD
  5
469
330
1
100
AcDbSymbolTableRecord
100
AcDbBlockTableRecord
  2
*D44
  0
BLOCK_RECORD
  5
478
330
1
100
AcDbSymbolTableRecord
100
AcDbBlockTableRecord
  2
*D45
  0
BLOCK_RECORD
  5
487
330
1
100
AcDbSymbolTableRecord
100
AcDbBlockTableRecord
  2
*D46
  0
BLOCK_RECORD
  5
496
330
1
100
AcDbSymbolTableRecord
100
AcDbBlockTableRecord
  2
*D47
  0
BLOCK_RECORD
  5
4A5
330
1
100
AcDbSymbolTableRecord
100
AcDbBlockTableRecord
  2
*D48
  0
BLOCK_RECORD
  5
4B4
330
1
100
AcDbSymbolTableRecord
100
AcDbBlockTableRecord
  2
*D49
  0
BLOCK_RECORD
  5
4C3
330
1
100
AcDbSymbolTableRecord
100
AcDbBlockTableRecord
  2
*D50
  0
BLOCK_RECORD
  5
4F2
330
1
100
AcDbSymbolTableRecord
100
AcDbBlockTableRecord
  2
*D51
  0
BLOCK_RECORD
  5
501
330
1
100
AcDbSymbolTableRecord
100
AcDbBlockTableRecord
  2
*D52
  0
BLOCK_RECORD
  5
510
330
1
100
AcDbSymbolTableRecord
100
AcDbBlockTableRecord
  2
*D53
  0
BLOCK_RECORD
  5
555
330
1
100
AcDbSymbolTableRecord
100
AcDbBlockTableRecord
  2
*D54
  0
BLOCK_RECORD
  5
565
330
1
100
AcDbSymbolTableRecord
100
AcDbBlockTableRecord
  2
*D55
  0
BLOCK_RECORD
  5
575
330
1
100
AcDbSymbolTableRecord
100
AcDbBlockTableRecord
  2
*D56
  0
BLOCK_RECORD
  5
584
330
1
100
AcDbSymbolTableRecord
100
AcDbBlockTableRecord
  2
*D57
  0
ENDTAB
  0
ENDSEC
  0
SECTION
  2
BLOCKS
  0
BLOCK
  5
20
330
1F
100
AcDbEntity
  8
0
100
AcDbBlockBegin
  2
*MODEL_SPACE
 70
     0
 10
0.0
 20
0.0
 30
0.0
  3
*MODEL_SPACE
  1

  0
ENDBLK
  5
21
330
1F
100
AcDbEntity
  8
0
100
AcDbBlockEnd
  0
BLOCK
  5
24
330
23
100
AcDbEntity
 67
     1
  8
0
100
AcDbBlockBegin
  2
*PAPER_SPACE
 70
     0
 10
0.0
 20
0.0
 30
0.0
  3
*PAPER_SPACE
  1

  0
ENDBLK
  5
25
330
23
100
AcDbEntity
 67
     1
  8
0
100
AcDbBlockEnd
  0
BLOCK
  5
1C
330
1B
100
AcDbEntity
  8
0
100
AcDbBlockBegin
  2
*PAPER_SPACE0
 70
     0
 10
0.0
 20
0.0
 30
0.0
  3
*PAPER_SPACE0
  1
*PAPER_SPACE0
  0
VIEWPORT
  5
538
330
1B
100
AcDbEntity
  8
0
100
AcDbViewport
 68
     1
 10
0.0
 20
0.0
 30
0.0
 40
607.5
 41
477.5943396226415
 68
     1
 69
     1
1001
ACAD
1000
MVIEW
1002
{
1070
    16
1010
0.0
1020
0.0
1030
0.0
1010
0.0
1020
0.0
1030
1.0
1040
0.0
1040
477.5943396226415
1040
245.6745283018868
1040
176.1320754716982
1040
50.0
1040
0.0
1040
0.0
1070
    16
1070
   100
1070
     0
1070
     3
1070
     0
1070
     0
1070
     0
1070
     0
1040
0.0
1040
0.0
1040
0.0
1040
0.5
1040
0.5
1040
0.0
1040
0.0
1070
     0
1002
{
1002
}
1002
}
  0
VIEWPORT
  5
539
330
1B
100
AcDbEntity
  8
0
100
AcDbViewport
 68
     2
 10
202.5
 20
128.5
 30
0.0
 40
324.0
 41
205.6
 68
     2
 69
     2
1001
ACAD
1000
MVIEW
1002
{
1070
    16
1010
0.0
1020
0.0
1030
0.0
1010
0.0
1020
0.0
1030
1.0
1040
0.0
1040
255.1507849115407
1040
109.8071251498875
1040
269.5197965252651
1040
50.0
1040
0.0
1040
0.0
1070
     0
1070
   100
1070
     0
1070
     3
1070
     0
1070
     0
1070
     0
1070
     0
1040
0.0
1040
0.0
1040
0.0
1040
0.5
1040
0.5
1040
0.0
1040
0.0
1070
     0
1002
{
1002
}
1002
}
  0
ENDBLK
  5
1D
330
1B
100
AcDbEntity
  8
0
100
AcDbBlockEnd
  0
BLOCK
  5
15A
330
159
100
AcDbEntity
  8
0
100
AcDbBlockBegin
  2
*D3
 70
     1
 10
0.0
 20
0.0
 30
0.0
  3
*D3
  1
*D3
  0
LINE
  5
15C
330
159
100
AcDbEntity
  8
寸法線
  6
CONTINUOUS
 62
     0
100
AcDbLine
 10
40.6714705882352
 20
235.9458823529412
 30
0.0
 11
24.64013941802291
 21
235.9458823529412
 31
0.0
  0
LINE
  5
15D
330
159
100
AcDbEntity
  8
寸法線
  6
CONTINUOUS
 62
     0
100
AcDbLine
 10
40.67147058823521
 20
260.9458823529412
 30
0.0
 11
24.64013941802291
 21
260.9458823529412
 31
0.0
  0
LINE
  5
15E
330
159
100
AcDbEntity
  8
寸法線
  6
CONTINUOUS
 62
     0
100
AcDbLine
 10
25.89013941802291
 20
238.4458823529412
 30
0.0
 11
25.89013941802291
 21
258.4458823529412
 31
0.0
  0
SOLID
  5
15F
330
159
100
AcDbEntity
  8
寸法線
 62
     0
100
AcDbTrace
 10
25.47347275135624
 20
238.4458823529412
 30
0.0
 11
26.30680608468958
 21
238.4458823529412
 31
0.0
 12
25.89013941802291
 22
235.9458823529412
 32
0.0
 13
25.89013941802291
 23
235.9458823529412
 33
0.0
  0
SOLID
  5
160
330
159
100
AcDbEntity
  8
寸法線
 62
     0
100
AcDbTrace
 10
26.30680608468958
 20
258.4458823529412
 30
0.0
 11
25.47347275135624
 21
258.4458823529412
 31
0.0
 12
25.89013941802291
 22
260.9458823529412
 32
0.0
 13
25.89013941802291
 23
260.9458823529412
 33
0.0
  0
MTEXT
  5
161
330
159
100
AcDbEntity
  8
寸法線
  6
CONTINUOUS
 62
     0
100
AcDbMText
 10
23.98888941802291
 20
248.4458823529412
 30
0.0
 40
2.5
 41
0.0
 71
     5
 72
     1
  1
25
 11
0.0
 21
1.0
 31
0.0
  0
POINT
  5
162
330
159
100
AcDbEntity
  8
DEFPOINTS
 62
     0
100
AcDbPoint
 10
41.2964705882352
 20
235.9458823529412
 30
0.0
  0
POINT
  5
163
330
159
100
AcDbEntity
  8
DEFPOINTS
 62
     0
100
AcDbPoint
 10
41.29647058823521
 20
260.9458823529412
 30
0.0
  0
POINT
  5
164
330
159
100
AcDbEntity
  8
DEFPOINTS
 62
     0
100
AcDbPoint
 10
25.89013941802291
 20
260.9458823529412
 30
0.0
  0
ENDBLK
  5
15B
330
159
100
AcDbEntity
  8
0
100
AcDbBlockEnd
  0
BLOCK
  5
178
330
177
100
AcDbEntity
  8
0
100
AcDbBlockBegin
  2
*D5
 70
     1
 10
0.0
 20
0.0
 30
0.0
  3
*D5
  1
*D5
  0
LINE
  5
17A
330
177
100
AcDbEntity
  8
寸法線
  6
CONTINUOUS
 62
     0
100
AcDbLine
 10
27.6714705882352
 20
248.4458823529412
 30
0.0
 11
18.08152784155233
 21
248.4458823529412
 31
0.0
  0
LINE
  5
17B
330
177
100
AcDbEntity
  8
寸法線
  6
CONTINUOUS
 62
     0
100
AcDbLine
 10
74.6714705882352
 20
264.4458823529412
 30
0.0
 11
18.08152784155233
 21
264.4458823529412
 31
0.0
  0
LINE
  5
17C
330
177
100
AcDbEntity
  8
寸法線
  6
CONTINUOUS
 62
     0
100
AcDbLine
 10
19.33152784155233
 20
250.9458823529412
 30
0.0
 11
19.33152784155233
 21
261.9458823529412
 31
0.0
  0
SOLID
  5
17D
330
177
100
AcDbEntity
  8
寸法線
 62
     0
100
AcDbTrace
 10
18.91486117488566
 20
250.9458823529412
 30
0.0
 11
19.748194508219
 21
250.9458823529412
 31
0.0
 12
19.33152784155233
 22
248.4458823529412
 32
0.0
 13
19.33152784155233
 23
248.4458823529412
 33
0.0
  0
SOLID
  5
17E
330
177
100
AcDbEntity
  8
寸法線
 62
     0
100
AcDbTrace
 10
19.748194508219
 20
261.9458823529412
 30
0.0
 11
18.91486117488566
 21
261.9458823529412
 31
0.0
 12
19.33152784155233
 22
264.4458823529412
 32
0.0
 13
19.33152784155233
 23
264.4458823529412
 33
0.0
  0
MTEXT
  5
17F
330
177
100
AcDbEntity
  8
寸法線
  6
CONTINUOUS
 62
     0
100
AcDbMText
 10
17.43027784155232
 20
256.4458823529412
 30
0.0
 40
2.5
 41
0.0
 71
     5
 72
     1
  1
16
 11
0.0
 21
1.0
 31
0.0
  0
POINT
  5
180
330
177
100
AcDbEntity
  8
DEFPOINTS
 62
     0
100
AcDbPoint
 10
28.2964705882352
 20
248.4458823529412
 30
0.0
  0
POINT
  5
181
330
177
100
AcDbEntity
  8
DEFPOINTS
 62
     0
100
AcDbPoint
 10
75.2964705882352
 20
264.4458823529412
 30
0.0
  0
POINT
  5
182
330
177
100
AcDbEntity
  8
DEFPOINTS
 62
     0
100
AcDbPoint
 10
19.33152784155233
 20
264.4458823529412
 30
0.0
  0
ENDBLK
  5
179
330
177
100
AcDbEntity
  8
0
100
AcDbBlockEnd
  0
BLOCK
  5
196
330
195
100
AcDbEntity
  8
0
100
AcDbBlockBegin
  2
*D7
 70
     1
 10
0.0
 20
0.0
 30
0.0
  3
*D7
  1
*D7
  0
LINE
  5
198
330
195
100
AcDbEntity
  8
寸法線
  6
CONTINUOUS
 62
     0
100
AcDbLine
 10
38.29647058823517
 20
238.3208823529412
 30
0.0
 11
38.29647058823517
 21
225.1221910448004
 31
0.0
  0
LINE
  5
199
330
195
100
AcDbEntity
  8
寸法線
  6
CONTINUOUS
 62
     0
100
AcDbLine
 10
78.2964705882352
 20
235.3208823529412
 30
0.0
 11
78.2964705882352
 21
225.1221910448004
 31
0.0
  0
LINE
  5
19A
330
195
100
AcDbEntity
  8
寸法線
  6
CONTINUOUS
 62
     0
100
AcDbLine
 10
40.79647058823517
 20
226.3721910448004
 30
0.0
 11
75.7964705882352
 21
226.3721910448004
 31
0.0
  0
SOLID
  5
19B
330
195
100
AcDbEntity
  8
寸法線
 62
     0
100
AcDbTrace
 10
40.79647058823517
 20
226.7888577114671
 30
0.0
 11
40.79647058823517
 21
225.9555243781338
 31
0.0
 12
38.29647058823517
 22
226.3721910448004
 32
0.0
 13
38.29647058823517
 23
226.3721910448004
 33
0.0
  0
SOLID
  5
19C
330
195
100
AcDbEntity
  8
寸法線
 62
     0
100
AcDbTrace
 10
75.7964705882352
 20
225.9555243781338
 30
0.0
 11
75.7964705882352
 21
226.7888577114671
 31
0.0
 12
78.2964705882352
 22
226.3721910448004
 32
0.0
 13
78.2964705882352
 23
226.3721910448004
 33
0.0
  0
MTEXT
  5
19D
330
195
100
AcDbEntity
  8
寸法線
  6
CONTINUOUS
 62
     0
100
AcDbMText
 10
58.29647058823518
 20
228.2734410448004
 30
0.0
 40
2.5
 41
0.0
 71
     5
 72
     1
  1
40
  0
POINT
  5
19E
330
195
100
AcDbEntity
  8
DEFPOINTS
 62
     0
100
AcDbPoint
 10
38.29647058823517
 20
238.9458823529412
 30
0.0
  0
POINT
  5
19F
330
195
100
AcDbEntity
  8
DEFPOINTS
 62
     0
100
AcDbPoint
 10
78.2964705882352
 20
235.9458823529412
 30
0.0
  0
POINT
  5
1A0
330
195
100
AcDbEntity
  8
DEFPOINTS
 62
     0
100
AcDbPoint
 10
78.2964705882352
 20
226.3721910448004
 30
0.0
  0
ENDBLK
  5
197
330
195
100
AcDbEntity
  8
0
100
AcDbBlockEnd
  0
BLOCK
  5
1A5
330
1A4
100
AcDbEntity
  8
0
100
AcDbBlockBegin
  2
*D8
 70
     1
 10
0.0
 20
0.0
 30
0.0
  3
*D8
  1
*D8
  0
LINE
  5
1A7
330
1A4
100
AcDbEntity
  8
寸法線
  6
CONTINUOUS
 62
     0
100
AcDbLine
 10
38.29647058823517
 20
237.6958823529412
 30
0.0
 11
38.29647058823517
 21
220.5847868095063
 31
0.0
  0
LINE
  5
1A8
330
1A4
100
AcDbEntity
  8
寸法線
  6
CONTINUOUS
 62
     0
100
AcDbLine
 10
83.2964705882352
 20
232.8208823529412
 30
0.0
 11
83.2964705882352
 21
220.5847868095063
 31
0.0
  0
LINE
  5
1A9
330
1A4
100
AcDbEntity
  8
寸法線
  6
CONTINUOUS
 62
     0
100
AcDbLine
 10
40.79647058823517
 20
221.8347868095063
 30
0.0
 11
80.7964705882352
 21
221.8347868095063
 31
0.0
  0
SOLID
  5
1AA
330
1A4
100
AcDbEntity
  8
寸法線
 62
     0
100
AcDbTrace
 10
40.79647058823517
 20
222.251453476173
 30
0.0
 11
40.79647058823517
 21
221.4181201428397
 31
0.0
 12
38.29647058823517
 22
221.8347868095063
 32
0.0
 13
38.29647058823517
 23
221.8347868095063
 33
0.0
  0
SOLID
  5
1AB
330
1A4
100
AcDbEntity
  8
寸法線
 62
     0
100
AcDbTrace
 10
80.7964705882352
 20
221.4181201428397
 30
0.0
 11
80.7964705882352
 21
222.251453476173
 31
0.0
 12
83.2964705882352
 22
221.8347868095063
 32
0.0
 13
83.2964705882352
 23
221.8347868095063
 33
0.0
  0
MTEXT
  5
1AC
330
1A4
100
AcDbEntity
  8
寸法線
  6
CONTINUOUS
 62
     0
100
AcDbMText
 10
60.79647058823518
 20
223.7310368095063
 30
0.0
 40
2.5
 41
0.0
 71
     5
 72
     1
  1
45
  0
POINT
  5
1AD
330
1A4
100
AcDbEntity
  8
DEFPOINTS
 62
     0
100
AcDbPoint
 10
38.29647058823517
 20
238.3208823529412
 30
0.0
  0
POINT
  5
1AE
330
1A4
100
AcDbEntity
  8
DEFPOINTS
 62
     0
100
AcDbPoint
 10
83.2964705882352
 20
233.4458823529412
 30
0.0
  0
POINT
  5
1AF
330
1A4
100
AcDbEntity
  8
DEFPOINTS
 62
     0
100
AcDbPoint
 10
83.2964705882352
 20
221.8347868095063
 30
0.0
  0
ENDBLK
  5
1A6
330
1A4
100
AcDbEntity
  8
0
100
AcDbBlockEnd
  0
BLOCK
  5
1B4
330
1B3
100
AcDbEntity
  8
0
100
AcDbBlockBegin
  2
*D9
 70
     1
 10
0.0
 20
0.0
 30
0.0
  3
*D9
  1
*D9
  0
LINE
  5
1B6
330
1B3
100
AcDbEntity
  8
寸法線
  6
CONTINUOUS
 62
     0
100
AcDbLine
 10
38.29647058823517
 20
238.3208823529412
 30
0.0
 11
38.29647058823517
 21
215.8411369271534
 31
0.0
  0
LINE
  5
1B7
330
1B3
100
AcDbEntity
  8
寸法線
  6
CONTINUOUS
 62
     0
100
AcDbLine
 10
88.2964705882352
 20
257.8208823529412
 30
0.0
 11
88.2964705882352
 21
215.8411369271534
 31
0.0
  0
LINE
  5
1B8
330
1B3
100
AcDbEntity
  8
寸法線
  6
CONTINUOUS
 62
     0
100
AcDbLine
 10
40.79647058823517
 20
217.0911369271534
 30
0.0
 11
85.7964705882352
 21
217.0911369271534
 31
0.0
  0
SOLID
  5
1B9
330
1B3
100
AcDbEntity
  8
寸法線
 62
     0
100
AcDbTrace
 10
40.79647058823517
 20
217.5078035938201
 30
0.0
 11
40.79647058823517
 21
216.6744702604867
 31
0.0
 12
38.29647058823517
 22
217.0911369271534
 32
0.0
 13
38.29647058823517
 23
217.0911369271534
 33
0.0
  0
SOLID
  5
1BA
330
1B3
100
AcDbEntity
  8
寸法線
 62
     0
100
AcDbTrace
 10
85.7964705882352
 20
216.6744702604867
 30
0.0
 11
85.7964705882352
 21
217.5078035938201
 31
0.0
 12
88.2964705882352
 22
217.0911369271534
 32
0.0
 13
88.2964705882352
 23
217.0911369271534
 33
0.0
  0
MTEXT
  5
1BB
330
1B3
100
AcDbEntity
  8
寸法線
  6
CONTINUOUS
 62
     0
100
AcDbMText
 10
63.29647058823518
 20
218.9923869271534
 30
0.0
 40
2.5
 41
0.0
 71
     5
 72
     1
  1
50
  0
POINT
  5
1BC
330
1B3
100
AcDbEntity
  8
DEFPOINTS
 62
     0
100
AcDbPoint
 10
38.29647058823517
 20
238.9458823529412
 30
0.0
  0
POINT
  5
1BD
330
1B3
100
AcDbEntity
  8
DEFPOINTS
 62
     0
100
AcDbPoint
 10
88.2964705882352
 20
258.4458823529412
 30
0.0
  0
POINT
  5
1BE
330
1B3
100
AcDbEntity
  8
DEFPOINTS
 62
     0
100
AcDbPoint
 10
88.2964705882352
 20
217.0911369271534
 30
0.0
  0
ENDBLK
  5
1B5
330
1B3
100
AcDbEntity
  8
0
100
AcDbBlockEnd
  0
BLOCK
  5
1C9
330
1C8
100
AcDbEntity
  8
0
100
AcDbBlockBegin
  2
*D10
 70
     1
 10
0.0
 20
0.0
 30
0.0
  3
*D10
  1
*D10
  0
LINE
  5
1CB
330
1C8
100
AcDbEntity
  8
寸法線
  6
CONTINUOUS
 62
     0
100
AcDbLine
 10
73.6714705882352
 20
154.4458823529412
 30
0.0
 11
23.36318676822878
 21
154.4458823529412
 31
0.0
  0
LINE
  5
1CC
330
1C8
100
AcDbEntity
  8
寸法線
  6
CONTINUOUS
 62
     0
100
AcDbLine
 10
73.6714705882352
 20
198.4458823529412
 30
0.0
 11
23.36318676822879
 21
198.4458823529412
 31
0.0
  0
LINE
  5
1CD
330
1C8
100
AcDbEntity
  8
寸法線
  6
CONTINUOUS
 62
     0
100
AcDbLine
 10
24.61318676822878
 20
156.9458823529412
 30
0.0
 11
24.61318676822879
 21
195.9458823529412
 31
0.0
  0
SOLID
  5
1CE
330
1C8
100
AcDbEntity
  8
寸法線
 62
     0
100
AcDbTrace
 10
24.19652010156211
 20
156.9458823529412
 30
0.0
 11
25.02985343489545
 21
156.9458823529412
 31
0.0
 12
24.61318676822878
 22
154.4458823529412
 32
0.0
 13
24.61318676822878
 23
154.4458823529412
 33
0.0
  0
SOLID
  5
1CF
330
1C8
100
AcDbEntity
  8
寸法線
 62
     0
100
AcDbTrace
 10
25.02985343489545
 20
195.9458823529412
 30
0.0
 11
24.19652010156212
 21
195.9458823529412
 31
0.0
 12
24.61318676822879
 22
198.4458823529412
 32
0.0
 13
24.61318676822879
 23
198.4458823529412
 33
0.0
  0
MTEXT
  5
1D0
330
1C8
100
AcDbEntity
  8
寸法線
  6
CONTINUOUS
 62
     0
100
AcDbMText
 10
22.73818676822879
 20
176.4458823529412
 30
0.0
 40
2.5
 41
0.0
 71
     5
 72
     1
  1
44
 11
8.074349270001139E-17
 21
1.0
 31
0.0
  0
POINT
  5
1D1
330
1C8
100
AcDbEntity
  8
DEFPOINTS
 62
     0
100
AcDbPoint
 10
74.2964705882352
 20
154.4458823529412
 30
0.0
  0
POINT
  5
1D2
330
1C8
100
AcDbEntity
  8
DEFPOINTS
 62
     0
100
AcDbPoint
 10
74.2964705882352
 20
198.4458823529412
 30
0.0
  0
POINT
  5
1D3
330
1C8
100
AcDbEntity
  8
DEFPOINTS
 62
     0
100
AcDbPoint
 10
24.61318676822879
 20
198.4458823529412
 30
0.0
  0
ENDBLK
  5
1CA
330
1C8
100
AcDbEntity
  8
0
100
AcDbBlockEnd
  0
BLOCK
  5
226
330
225
100
AcDbEntity
  8
0
100
AcDbBlockBegin
  2
*D15
 70
     1
 10
0.0
 20
0.0
 30
0.0
  3
*D15
  1
*D15
  0
LINE
  5
228
330
225
100
AcDbEntity
  8
寸法線
  6
CONTINUOUS
 62
     0
100
AcDbLine
 10
128.1670839822046
 20
152.4057852281057
 30
0.0
 11
135.010716315586
 21
144.8832899501947
 31
0.0
  0
MTEXT
  5
229
330
225
100
AcDbEntity
  8
寸法線
  6
CONTINUOUS
 62
     0
100
AcDbMText
 10
133.991947442973
 20
148.8283977572381
 30
0.0
 40
2.5
 41
0.0
 71
     5
 72
     1
  1
R30
 11
0.672941950583675
 21
-0.739695296148785
 31
0.0
  0
LINE
  5
22A
330
225
100
AcDbEntity
  8
寸法線
  6
CONTINUOUS
 62
     0
100
AcDbLine
 10
106.2964705882352
 20
176.4458823529412
 30
0.0
 11
126.4847291057454
 21
154.2550234684776
 31
0.0
  0
SOLID
  5
22B
330
225
100
AcDbEntity
  8
寸法線
 62
     0
100
AcDbTrace
 10
128.4752903556
 20
152.6861777075156
 30
0.0
 11
127.8588776088093
 21
152.1253927486958
 31
0.0
 12
126.4847291057454
 22
154.2550234684776
 32
0.0
 13
126.4847291057454
 23
154.2550234684776
 33
0.0
  0
POINT
  5
22C
330
225
100
AcDbEntity
  8
DEFPOINTS
 62
     0
100
AcDbPoint
 10
126.4847291057454
 20
154.2550234684776
 30
0.0
  0
POINT
  5
22D
330
225
100
AcDbEntity
  8
DEFPOINTS
 62
     0
100
AcDbPoint
 10
106.2964705882352
 20
176.4458823529412
 30
0.0
  0
ENDBLK
  5
227
330
225
100
AcDbEntity
  8
0
100
AcDbBlockEnd
  0
BLOCK
  5
23F
330
23E
100
AcDbEntity
  8
0
100
AcDbBlockBegin
  2
*D16
 70
     1
 10
0.0
 20
0.0
 30
0.0
  3
*D16
  1
*D16
  0
LINE
  5
241
330
23E
100
AcDbEntity
  8
寸法線
  6
CONTINUOUS
 62
     0
100
AcDbLine
 10
77.6714705882352
 20
233.4458823529412
 30
0.0
 11
17.82992119646416
 21
233.4458823529412
 31
0.0
  0
LINE
  5
242
330
23E
100
AcDbEntity
  8
寸法線
  6
CONTINUOUS
 62
     0
100
AcDbLine
 10
37.6714705882352
 20
248.4458823529412
 30
0.0
 11
17.82992119646416
 21
248.4458823529412
 31
0.0
  0
LINE
  5
243
330
23E
100
AcDbEntity
  8
寸法線
  6
CONTINUOUS
 62
     0
100
AcDbLine
 10
19.07992119646416
 20
235.9458823529412
 30
0.0
 11
19.07992119646416
 21
245.9458823529412
 31
0.0
  0
SOLID
  5
244
330
23E
100
AcDbEntity
  8
寸法線
 62
     0
100
AcDbTrace
 10
18.66325452979749
 20
235.9458823529412
 30
0.0
 11
19.49658786313082
 21
235.9458823529412
 31
0.0
 12
19.07992119646416
 22
233.4458823529412
 32
0.0
 13
19.07992119646416
 23
233.4458823529412
 33
0.0
  0
SOLID
  5
245
330
23E
100
AcDbEntity
  8
寸法線
 62
     0
100
AcDbTrace
 10
19.49658786313082
 20
245.9458823529412
 30
0.0
 11
18.66325452979749
 21
245.9458823529412
 31
0.0
 12
19.07992119646416
 22
248.4458823529412
 32
0.0
 13
19.07992119646416
 23
248.4458823529412
 33
0.0
  0
MTEXT
  5
246
330
23E
100
AcDbEntity
  8
寸法線
  6
CONTINUOUS
 62
     0
100
AcDbMText
 10
17.17867119646415
 20
240.9458823529412
 30
0.0
 40
2.5
 41
0.0
 71
     5
 72
     1
  1
15
 11
0.0
 21
1.0
 31
0.0
  0
POINT
  5
247
330
23E
100
AcDbEntity
  8
DEFPOINTS
 62
     0
100
AcDbPoint
 10
78.2964705882352
 20
233.4458823529412
 30
0.0
  0
POINT
  5
248
330
23E
100
AcDbEntity
  8
DEFPOINTS
 62
     0
100
AcDbPoint
 10
38.2964705882352
 20
248.4458823529412
 30
0.0
  0
POINT
  5
249
330
23E
100
AcDbEntity
  8
DEFPOINTS
 62
     0
100
AcDbPoint
 10
19.07992119646416
 20
248.4458823529412
 30
0.0
  0
ENDBLK
  5
240
330
23E
100
AcDbEntity
  8
0
100
AcDbBlockEnd
  0
BLOCK
  5
276
330
275
100
AcDbEntity
  8
0
100
AcDbBlockBegin
  2
*D19
 70
     1
 10
0.0
 20
0.0
 30
0.0
  3
*D19
  1
*D19
  0
LINE
  5
278
330
275
100
AcDbEntity
  8
寸法線
  6
CONTINUOUS
 62
     0
100
AcDbLine
 10
106.2964705882352
 20
255.8208823529412
 30
0.0
 11
106.2964705882352
 21
241.9095634063964
 31
0.0
  0
LINE
  5
279
330
275
100
AcDbEntity
  8
寸法線
  6
CONTINUOUS
 62
     0
100
AcDbLine
 10
96.2964705882352
 20
255.8208823529412
 30
0.0
 11
96.2964705882352
 21
241.9095634063964
 31
0.0
  0
LINE
  5
27A
330
275
100
AcDbEntity
  8
寸法線
  6
CONTINUOUS
 62
     0
100
AcDbLine
 10
103.7964705882352
 20
243.1595634063964
 30
0.0
 11
98.7964705882352
 21
243.1595634063964
 31
0.0
  0
SOLID
  5
27B
330
275
100
AcDbEntity
  8
寸法線
 62
     0
100
AcDbTrace
 10
103.7964705882352
 20
242.7428967397297
 30
0.0
 11
103.7964705882352
 21
243.576230073063
 31
0.0
 12
106.2964705882352
 22
243.1595634063964
 32
0.0
 13
106.2964705882352
 23
243.1595634063964
 33
0.0
  0
SOLID
  5
27C
330
275
100
AcDbEntity
  8
寸法線
 62
     0
100
AcDbTrace
 10
98.7964705882352
 20
243.576230073063
 30
0.0
 11
98.7964705882352
 21
242.7428967397297
 31
0.0
 12
96.2964705882352
 22
243.1595634063964
 32
0.0
 13
96.2964705882352
 23
243.1595634063964
 33
0.0
  0
MTEXT
  5
27D
330
275
100
AcDbEntity
  8
寸法線
  6
CONTINUOUS
 62
     0
100
AcDbMText
 10
101.2964705882352
 20
245.0608134063964
 30
0.0
 40
2.5
 41
0.0
 71
     5
 72
     1
  1
10
  0
POINT
  5
27E
330
275
100
AcDbEntity
  8
DEFPOINTS
 62
     0
100
AcDbPoint
 10
106.2964705882352
 20
256.4458823529412
 30
0.0
  0
POINT
  5
27F
330
275
100
AcDbEntity
  8
DEFPOINTS
 62
     0
100
AcDbPoint
 10
96.2964705882352
 20
256.4458823529412
 30
0.0
  0
POINT
  5
280
330
275
100
AcDbEntity
  8
DEFPOINTS
 62
     0
100
AcDbPoint
 10
96.2964705882352
 20
243.1595634063964
 30
0.0
  0
ENDBLK
  5
277
330
275
100
AcDbEntity
  8
0
100
AcDbBlockEnd
  0
BLOCK
  5
285
330
284
100
AcDbEntity
  8
0
100
AcDbBlockBegin
  2
*D20
 70
     1
 10
0.0
 20
0.0
 30
0.0
  3
*D20
  1
*D20
  0
LINE
  5
287
330
284
100
AcDbEntity
  8
寸法線
  6
CONTINUOUS
 62
     0
100
AcDbLine
 10
96.2964705882352
 20
255.8208823529412
 30
0.0
 11
96.2964705882352
 21
230.9785441122787
 31
0.0
  0
LINE
  5
288
330
284
100
AcDbEntity
  8
寸法線
  6
CONTINUOUS
 62
     0
100
AcDbLine
 10
141.2964705882352
 20
241.8208823529412
 30
0.0
 11
141.2964705882352
 21
230.9785441122787
 31
0.0
  0
LINE
  5
289
330
284
100
AcDbEntity
  8
寸法線
  6
CONTINUOUS
 62
     0
100
AcDbLine
 10
98.7964705882352
 20
232.2285441122787
 30
0.0
 11
138.7964705882352
 21
232.2285441122787
 31
0.0
  0
SOLID
  5
28A
330
284
100
AcDbEntity
  8
寸法線
 62
     0
100
AcDbTrace
 10
98.7964705882352
 20
232.6452107789454
 30
0.0
 11
98.7964705882352
 21
231.8118774456121
 31
0.0
 12
96.2964705882352
 22
232.2285441122787
 32
0.0
 13
96.2964705882352
 23
232.2285441122787
 33
0.0
  0
SOLID
  5
28B
330
284
100
AcDbEntity
  8
寸法線
 62
     0
100
AcDbTrace
 10
138.7964705882352
 20
231.8118774456121
 30
0.0
 11
138.7964705882352
 21
232.6452107789454
 31
0.0
 12
141.2964705882352
 22
232.2285441122787
 32
0.0
 13
141.2964705882352
 23
232.2285441122787
 33
0.0
  0
MTEXT
  5
28C
330
284
100
AcDbEntity
  8
寸法線
  6
CONTINUOUS
 62
     0
100
AcDbMText
 10
118.7964705882352
 20
234.1247941122787
 30
0.0
 40
2.5
 41
0.0
 71
     5
 72
     1
  1
45
  0
POINT
  5
28D
330
284
100
AcDbEntity
  8
DEFPOINTS
 62
     0
100
AcDbPoint
 10
96.2964705882352
 20
256.4458823529412
 30
0.0
  0
POINT
  5
28E
330
284
100
AcDbEntity
  8
DEFPOINTS
 62
     0
100
AcDbPoint
 10
141.2964705882352
 20
242.4458823529412
 30
0.0
  0
POINT
  5
28F
330
284
100
AcDbEntity
  8
DEFPOINTS
 62
     0
100
AcDbPoint
 10
141.2964705882352
 20
232.2285441122787
 30
0.0
  0
ENDBLK
  5
286
330
284
100
AcDbEntity
  8
0
100
AcDbBlockEnd
  0
BLOCK
  5
294
330
293
100
AcDbEntity
  8
0
100
AcDbBlockBegin
  2
*D21
 70
     1
 10
0.0
 20
0.0
 30
0.0
  3
*D21
  1
*D21
  0
LINE
  5
296
330
293
100
AcDbEntity
  8
寸法線
  6
CONTINUOUS
 62
     0
100
AcDbLine
 10
141.2964705882352
 20
242.8208823529412
 30
0.0
 11
141.2964705882352
 21
237.2215998487493
 31
0.0
  0
LINE
  5
297
330
293
100
AcDbEntity
  8
寸法線
  6
CONTINUOUS
 62
     0
100
AcDbLine
 10
136.2964705882352
 20
242.8208823529412
 30
0.0
 11
136.2964705882352
 21
237.2215998487493
 31
0.0
  0
LINE
  5
298
330
293
100
AcDbEntity
  8
寸法線
  6
CONTINUOUS
 62
     0
100
AcDbLine
 10
141.2964705882352
 20
238.4715998487493
 30
0.0
 11
136.2964705882352
 21
238.4715998487493
 31
0.0
  0
LINE
  5
299
330
293
100
AcDbEntity
  8
寸法線
  6
CONTINUOUS
 62
     0
100
AcDbLine
 10
143.7964705882352
 20
238.4715998487493
 30
0.0
 11
146.2964705882352
 21
238.4715998487493
 31
0.0
  0
LINE
  5
29A
330
293
100
AcDbEntity
  8
寸法線
  6
CONTINUOUS
 62
     0
100
AcDbLine
 10
133.7964705882352
 20
238.4715998487493
 30
0.0
 11
131.2964705882352
 21
238.4715998487493
 31
0.0
  0
SOLID
  5
29B
330
293
100
AcDbEntity
  8
寸法線
 62
     0
100
AcDbTrace
 10
143.7964705882352
 20
238.888266515416
 30
0.0
 11
143.7964705882352
 21
238.0549331820827
 31
0.0
 12
141.2964705882352
 22
238.4715998487493
 32
0.0
 13
141.2964705882352
 23
238.4715998487493
 33
0.0
  0
SOLID
  5
29C
330
293
100
AcDbEntity
  8
寸法線
 62
     0
100
AcDbTrace
 10
133.7964705882352
 20
238.0549331820827
 30
0.0
 11
133.7964705882352
 21
238.888266515416
 31
0.0
 12
136.2964705882352
 22
238.4715998487493
 32
0.0
 13
136.2964705882352
 23
238.4715998487493
 33
0.0
  0
MTEXT
  5
29D
330
293
100
AcDbEntity
  8
寸法線
  6
CONTINUOUS
 62
     0
100
AcDbMText
 10
138.7964705882352
 20
240.3678498487493
 30
0.0
 40
2.5
 41
0.0
 71
     5
 72
     1
  1
5
  0
POINT
  5
29E
330
293
100
AcDbEntity
  8
DEFPOINTS
 62
     0
100
AcDbPoint
 10
141.2964705882352
 20
243.4458823529412
 30
0.0
  0
POINT
  5
29F
330
293
100
AcDbEntity
  8
DEFPOINTS
 62
     0
100
AcDbPoint
 10
136.2964705882352
 20
243.4458823529412
 30
0.0
  0
POINT
  5
2A0
330
293
100
AcDbEntity
  8
DEFPOINTS
 62
     0
100
AcDbPoint
 10
136.2964705882352
 20
238.4715998487493
 30
0.0
  0
ENDBLK
  5
295
330
293
100
AcDbEntity
  8
0
100
AcDbBlockEnd
  0
BLOCK
  5
2A5
330
2A4
100
AcDbEntity
  8
0
100
AcDbBlockBegin
  2
*D22
 70
     1
 10
0.0
 20
0.0
 30
0.0
  3
*D22
  1
*D22
  0
LINE
  5
2A7
330
2A4
100
AcDbEntity
  8
寸法線
  6
CONTINUOUS
 62
     0
100
AcDbLine
 10
135.6714705882352
 20
273.4458823529412
 30
0.0
 11
128.0821346854054
 21
273.4458823529412
 31
0.0
  0
LINE
  5
2A8
330
2A4
100
AcDbEntity
  8
寸法線
  6
CONTINUOUS
 62
     0
100
AcDbLine
 10
135.6714705882352
 20
243.4458823529412
 30
0.0
 11
128.0821346854054
 21
243.4458823529412
 31
0.0
  0
LINE
  5
2A9
330
2A4
100
AcDbEntity
  8
寸法線
  6
CONTINUOUS
 62
     0
100
AcDbLine
 10
129.3321346854054
 20
270.9458823529412
 30
0.0
 11
129.3321346854054
 21
245.9458823529412
 31
0.0
  0
SOLID
  5
2AA
330
2A4
100
AcDbEntity
  8
寸法線
 62
     0
100
AcDbTrace
 10
129.748801352072
 20
270.9458823529412
 30
0.0
 11
128.9154680187387
 21
270.9458823529412
 31
0.0
 12
129.3321346854054
 22
273.4458823529412
 32
0.0
 13
129.3321346854054
 23
273.4458823529412
 33
0.0
  0
SOLID
  5
2AB
330
2A4
100
AcDbEntity
  8
寸法線
 62
     0
100
AcDbTrace
 10
128.9154680187387
 20
245.9458823529412
 30
0.0
 11
129.748801352072
 21
245.9458823529412
 31
0.0
 12
129.3321346854054
 22
243.4458823529412
 32
0.0
 13
129.3321346854054
 23
243.4458823529412
 33
0.0
  0
MTEXT
  5
2AC
330
2A4
100
AcDbEntity
  8
寸法線
  6
CONTINUOUS
 62
     0
100
AcDbMText
 10
127.4308846854054
 20
258.4458823529412
 30
0.0
 40
2.5
 41
0.0
 71
     5
 72
     1
  1
30
 11
0.0
 21
1.0
 31
0.0
  0
POINT
  5
2AD
330
2A4
100
AcDbEntity
  8
DEFPOINTS
 62
     0
100
AcDbPoint
 10
136.2964705882352
 20
273.4458823529412
 30
0.0
  0
POINT
  5
2AE
330
2A4
100
AcDbEntity
  8
DEFPOINTS
 62
     0
100
AcDbPoint
 10
136.2964705882352
 20
243.4458823529412
 30
0.0
  0
POINT
  5
2AF
330
2A4
100
AcDbEntity
  8
DEFPOINTS
 62
     0
100
AcDbPoint
 10
129.3321346854054
 20
243.4458823529412
 30
0.0
  0
ENDBLK
  5
2A6
330
2A4
100
AcDbEntity
  8
0
100
AcDbBlockEnd
  0
BLOCK
  5
2B4
330
2B3
100
AcDbEntity
  8
0
100
AcDbBlockBegin
  2
*D23
 70
     1
 10
0.0
 20
0.0
 30
0.0
  3
*D23
  1
*D23
  0
LINE
  5
2B6
330
2B3
100
AcDbEntity
  8
寸法線
  6
CONTINUOUS
 62
     0
100
AcDbLine
 10
38.2964705882352
 20
179.0708823529412
 30
0.0
 11
38.2964705882352
 21
204.7382131946317
 31
0.0
  0
LINE
  5
2B7
330
2B3
100
AcDbEntity
  8
寸法線
  6
CONTINUOUS
 62
     0
100
AcDbLine
 10
56.2964705882352
 20
179.0708823529412
 30
0.0
 11
56.2964705882352
 21
204.7382131946317
 31
0.0
  0
LINE
  5
2B8
330
2B3
100
AcDbEntity
  8
寸法線
  6
CONTINUOUS
 62
     0
100
AcDbLine
 10
40.7964705882352
 20
203.4882131946317
 30
0.0
 11
53.7964705882352
 21
203.4882131946317
 31
0.0
  0
SOLID
  5
2B9
330
2B3
100
AcDbEntity
  8
寸法線
 62
     0
100
AcDbTrace
 10
40.7964705882352
 20
203.9048798612984
 30
0.0
 11
40.7964705882352
 21
203.0715465279651
 31
0.0
 12
38.2964705882352
 22
203.4882131946317
 32
0.0
 13
38.2964705882352
 23
203.4882131946317
 33
0.0
  0
SOLID
  5
2BA
330
2B3
100
AcDbEntity
  8
寸法線
 62
     0
100
AcDbTrace
 10
53.7964705882352
 20
203.0715465279651
 30
0.0
 11
53.7964705882352
 21
203.9048798612984
 31
0.0
 12
56.2964705882352
 22
203.4882131946317
 32
0.0
 13
56.2964705882352
 23
203.4882131946317
 33
0.0
  0
MTEXT
  5
2BB
330
2B3
100
AcDbEntity
  8
寸法線
  6
CONTINUOUS
 62
     0
100
AcDbMText
 10
47.2964705882352
 20
205.3894631946317
 30
0.0
 40
2.5
 41
0.0
 71
     5
 72
     1
  1
18
  0
POINT
  5
2BC
330
2B3
100
AcDbEntity
  8
DEFPOINTS
 62
     0
100
AcDbPoint
 10
38.2964705882352
 20
178.4458823529412
 30
0.0
  0
POINT
  5
2BD
330
2B3
100
AcDbEntity
  8
DEFPOINTS
 62
     0
100
AcDbPoint
 10
56.2964705882352
 20
178.4458823529412
 30
0.0
  0
POINT
  5
2BE
330
2B3
100
AcDbEntity
  8
DEFPOINTS
 62
     0
100
AcDbPoint
 10
56.2964705882352
 20
203.4882131946317
 30
0.0
  0
ENDBLK
  5
2B5
330
2B3
100
AcDbEntity
  8
0
100
AcDbBlockEnd
  0
BLOCK
  5
37A
330
379
100
AcDbEntity
  8
0
100
AcDbBlockBegin
  2
*D28
 70
     1
 10
0.0
 20
0.0
 30
0.0
  3
*D28
  1
*D28
  0
LINE
  5
37C
330
379
100
AcDbEntity
  8
寸法線
  6
CONTINUOUS
 62
     0
100
AcDbLine
 10
178.9214705882352
 20
360.9458823529412
 30
0.0
 11
210.7533761241133
 21
360.9458823529412
 31
0.0
  0
LINE
  5
37D
330
379
100
AcDbEntity
  8
寸法線
  6
CONTINUOUS
 62
     0
100
AcDbLine
 10
178.9214705882352
 20
335.9458823529412
 30
0.0
 11
210.7533761241133
 21
335.9458823529412
 31
0.0
  0
LINE
  5
37E
330
379
100
AcDbEntity
  8
寸法線
  6
CONTINUOUS
 62
     0
100
AcDbLine
 10
209.5033761241133
 20
358.4458823529412
 30
0.0
 11
209.5033761241133
 21
338.4458823529412
 31
0.0
  0
SOLID
  5
37F
330
379
100
AcDbEntity
  8
寸法線
 62
     0
100
AcDbTrace
 10
209.92004279078
 20
358.4458823529412
 30
0.0
 11
209.0867094574467
 21
358.4458823529412
 31
0.0
 12
209.5033761241133
 22
360.9458823529412
 32
0.0
 13
209.5033761241133
 23
360.9458823529412
 33
0.0
  0
SOLID
  5
380
330
379
100
AcDbEntity
  8
寸法線
 62
     0
100
AcDbTrace
 10
209.0867094574467
 20
338.4458823529412
 30
0.0
 11
209.92004279078
 21
338.4458823529412
 31
0.0
 12
209.5033761241133
 22
335.9458823529412
 32
0.0
 13
209.5033761241133
 23
335.9458823529412
 33
0.0
  0
MTEXT
  5
381
330
379
100
AcDbEntity
  8
寸法線
  6
CONTINUOUS
 62
     0
100
AcDbMText
 10
207.6021261241133
 20
348.4458823529412
 30
0.0
 40
2.5
 41
0.0
 71
     5
 72
     1
  1
25
 11
0.0
 21
1.0
 31
0.0
  0
POINT
  5
382
330
379
100
AcDbEntity
  8
DEFPOINTS
 62
     0
100
AcDbPoint
 10
178.2964705882352
 20
360.9458823529412
 30
0.0
  0
POINT
  5
383
330
379
100
AcDbEntity
  8
DEFPOINTS
 62
     0
100
AcDbPoint
 10
178.2964705882352
 20
335.9458823529412
 30
0.0
  0
POINT
  5
384
330
379
100
AcDbEntity
  8
DEFPOINTS
 62
     0
100
AcDbPoint
 10
209.5033761241133
 20
335.9458823529412
 30
0.0
  0
ENDBLK
  5
37B
330
379
100
AcDbEntity
  8
0
100
AcDbBlockEnd
  0
BLOCK
  5
389
330
388
100
AcDbEntity
  8
0
100
AcDbBlockBegin
  2
*D29
 70
     1
 10
0.0
 20
0.0
 30
0.0
  3
*D29
  1
*D29
  0
LINE
  5
38B
330
388
100
AcDbEntity
  8
寸法線
  6
CONTINUOUS
 62
     0
100
AcDbLine
 10
141.9214705882352
 20
333.4458823529412
 30
0.0
 11
217.1223454766845
 21
333.4458823529412
 31
0.0
  0
LINE
  5
38C
330
388
100
AcDbEntity
  8
寸法線
  6
CONTINUOUS
 62
     0
100
AcDbLine
 10
141.9214705882352
 20
363.4458823529412
 30
0.0
 11
217.1223454766845
 21
363.4458823529412
 31
0.0
  0
LINE
  5
38D
330
388
100
AcDbEntity
  8
寸法線
  6
CONTINUOUS
 62
     0
100
AcDbLine
 10
215.8723454766845
 20
335.9458823529412
 30
0.0
 11
215.8723454766845
 21
360.9458823529412
 31
0.0
  0
SOLID
  5
38E
330
388
100
AcDbEntity
  8
寸法線
 62
     0
100
AcDbTrace
 10
215.4556788100179
 20
335.9458823529412
 30
0.0
 11
216.2890121433512
 21
335.9458823529412
 31
0.0
 12
215.8723454766845
 22
333.4458823529412
 32
0.0
 13
215.8723454766845
 23
333.4458823529412
 33
0.0
  0
SOLID
  5
38F
330
388
100
AcDbEntity
  8
寸法線
 62
     0
100
AcDbTrace
 10
216.2890121433512
 20
360.9458823529412
 30
0.0
 11
215.4556788100179
 21
360.9458823529412
 31
0.0
 12
215.8723454766845
 22
363.4458823529412
 32
0.0
 13
215.8723454766845
 23
363.4458823529412
 33
0.0
  0
MTEXT
  5
390
330
388
100
AcDbEntity
  8
寸法線
  6
CONTINUOUS
 62
     0
100
AcDbMText
 10
213.9710954766845
 20
348.4458823529412
 30
0.0
 40
2.5
 41
0.0
 71
     5
 72
     1
  1
30
 11
0.0
 21
1.0
 31
0.0
  0
POINT
  5
391
330
388
100
AcDbEntity
  8
DEFPOINTS
 62
     0
100
AcDbPoint
 10
141.2964705882352
 20
333.4458823529412
 30
0.0
  0
POINT
  5
392
330
388
100
AcDbEntity
  8
DEFPOINTS
 62
     0
100
AcDbPoint
 10
141.2964705882352
 20
363.4458823529412
 30
0.0
  0
POINT
  5
393
330
388
100
AcDbEntity
  8
DEFPOINTS
 62
     0
100
AcDbPoint
 10
215.8723454766845
 20
363.4458823529412
 30
0.0
  0
ENDBLK
  5
38A
330
388
100
AcDbEntity
  8
0
100
AcDbBlockEnd
  0
BLOCK
  5
398
330
397
100
AcDbEntity
  8
0
100
AcDbBlockBegin
  2
*D30
 70
     1
 10
0.0
 20
0.0
 30
0.0
  3
*D30
  1
*D30
  0
LINE
  5
39A
330
397
100
AcDbEntity
  8
寸法線
  6
CONTINUOUS
 62
     0
100
AcDbLine
 10
141.2964705882352
 20
364.0708823529412
 30
0.0
 11
141.2964705882352
 21
372.7631814708039
 31
0.0
  0
LINE
  5
39B
330
397
100
AcDbEntity
  8
寸法線
  6
CONTINUOUS
 62
     0
100
AcDbLine
 10
181.2964705882352
 20
358.5708823529412
 30
0.0
 11
181.2964705882352
 21
372.7631814708039
 31
0.0
  0
LINE
  5
39C
330
397
100
AcDbEntity
  8
寸法線
  6
CONTINUOUS
 62
     0
100
AcDbLine
 10
143.7964705882352
 20
371.5131814708039
 30
0.0
 11
178.7964705882352
 21
371.5131814708039
 31
0.0
  0
SOLID
  5
39D
330
397
100
AcDbEntity
  8
寸法線
 62
     0
100
AcDbTrace
 10
143.7964705882352
 20
371.9298481374706
 30
0.0
 11
143.7964705882352
 21
371.0965148041373
 31
0.0
 12
141.2964705882352
 22
371.5131814708039
 32
0.0
 13
141.2964705882352
 23
371.5131814708039
 33
0.0
  0
SOLID
  5
39E
330
397
100
AcDbEntity
  8
寸法線
 62
     0
100
AcDbTrace
 10
178.7964705882352
 20
371.0965148041373
 30
0.0
 11
178.7964705882352
 21
371.9298481374706
 31
0.0
 12
181.2964705882352
 22
371.5131814708039
 32
0.0
 13
181.2964705882352
 23
371.5131814708039
 33
0.0
  0
MTEXT
  5
39F
330
397
100
AcDbEntity
  8
寸法線
  6
CONTINUOUS
 62
     0
100
AcDbMText
 10
161.2964705882352
 20
373.4144314708039
 30
0.0
 40
2.5
 41
0.0
 71
     5
 72
     1
  1
40
  0
POINT
  5
3A0
330
397
100
AcDbEntity
  8
DEFPOINTS
 62
     0
100
AcDbPoint
 10
141.2964705882352
 20
363.4458823529412
 30
0.0
  0
POINT
  5
3A1
330
397
100
AcDbEntity
  8
DEFPOINTS
 62
     0
100
AcDbPoint
 10
181.2964705882352
 20
357.9458823529412
 30
0.0
  0
POINT
  5
3A2
330
397
100
AcDbEntity
  8
DEFPOINTS
 62
     0
100
AcDbPoint
 10
181.2964705882352
 20
371.5131814708039
 30
0.0
  0
ENDBLK
  5
399
330
397
100
AcDbEntity
  8
0
100
AcDbBlockEnd
  0
BLOCK
  5
3A7
330
3A6
100
AcDbEntity
  8
0
100
AcDbBlockBegin
  2
*D31
 70
     1
 10
0.0
 20
0.0
 30
0.0
  3
*D31
  1
*D31
  0
LINE
  5
3A9
330
3A6
100
AcDbEntity
  8
寸法線
  6
CONTINUOUS
 62
     0
100
AcDbLine
 10
131.2964705882352
 20
364.0708823529412
 30
0.0
 11
131.2964705882352
 21
372.4978077477801
 31
0.0
  0
LINE
  5
3AA
330
3A6
100
AcDbEntity
  8
寸法線
  6
CONTINUOUS
 62
     0
100
AcDbLine
 10
141.2964705882352
 20
364.0708823529412
 30
0.0
 11
141.2964705882352
 21
372.4978077477801
 31
0.0
  0
LINE
  5
3AB
330
3A6
100
AcDbEntity
  8
寸法線
  6
CONTINUOUS
 62
     0
100
AcDbLine
 10
133.7964705882352
 20
371.2478077477801
 30
0.0
 11
138.7964705882352
 21
371.2478077477801
 31
0.0
  0
SOLID
  5
3AC
330
3A6
100
AcDbEntity
  8
寸法線
 62
     0
100
AcDbTrace
 10
133.7964705882352
 20
371.6644744144468
 30
0.0
 11
133.7964705882352
 21
370.8311410811135
 31
0.0
 12
131.2964705882352
 22
371.2478077477801
 32
0.0
 13
131.2964705882352
 23
371.2478077477801
 33
0.0
  0
SOLID
  5
3AD
330
3A6
100
AcDbEntity
  8
寸法線
 62
     0
100
AcDbTrace
 10
138.7964705882352
 20
370.8311410811135
 30
0.0
 11
138.7964705882352
 21
371.6644744144468
 31
0.0
 12
141.2964705882352
 22
371.2478077477801
 32
0.0
 13
141.2964705882352
 23
371.2478077477801
 33
0.0
  0
MTEXT
  5
3AE
330
3A6
100
AcDbEntity
  8
寸法線
  6
CONTINUOUS
 62
     0
100
AcDbMText
 10
136.2964705882352
 20
373.1490577477801
 30
0.0
 40
2.5
 41
0.0
 71
     5
 72
     1
  1
10
  0
POINT
  5
3AF
330
3A6
100
AcDbEntity
  8
DEFPOINTS
 62
     0
100
AcDbPoint
 10
131.2964705882352
 20
363.4458823529412
 30
0.0
  0
POINT
  5
3B0
330
3A6
100
AcDbEntity
  8
DEFPOINTS
 62
     0
100
AcDbPoint
 10
141.2964705882352
 20
363.4458823529412
 30
0.0
  0
POINT
  5
3B1
330
3A6
100
AcDbEntity
  8
DEFPOINTS
 62
     0
100
AcDbPoint
 10
141.2964705882352
 20
371.2478077477801
 30
0.0
  0
ENDBLK
  5
3A8
330
3A6
100
AcDbEntity
  8
0
100
AcDbBlockEnd
  0
BLOCK
  5
3B6
330
3B5
100
AcDbEntity
  8
0
100
AcDbBlockBegin
  2
*D32
 70
     1
 10
0.0
 20
0.0
 30
0.0
  3
*D32
  1
*D32
  0
LINE
  5
3B8
330
3B5
100
AcDbEntity
  8
寸法線
  6
CONTINUOUS
 62
     0
100
AcDbLine
 10
93.2964705882352
 20
349.0708823529412
 30
0.0
 11
93.2964705882352
 21
379.1321508233752
 31
0.0
  0
LINE
  5
3B9
330
3B5
100
AcDbEntity
  8
寸法線
  6
CONTINUOUS
 62
     0
100
AcDbLine
 10
141.2964705882352
 20
364.6958823529412
 30
0.0
 11
141.2964705882352
 21
379.1321508233752
 31
0.0
  0
LINE
  5
3BA
330
3B5
100
AcDbEntity
  8
寸法線
  6
CONTINUOUS
 62
     0
100
AcDbLine
 10
95.7964705882352
 20
377.8821508233752
 30
0.0
 11
138.7964705882352
 21
377.8821508233752
 31
0.0
  0
SOLID
  5
3BB
330
3B5
100
AcDbEntity
  8
寸法線
 62
     0
100
AcDbTrace
 10
95.7964705882352
 20
378.2988174900419
 30
0.0
 11
95.7964705882352
 21
377.4654841567085
 31
0.0
 12
93.2964705882352
 22
377.8821508233752
 32
0.0
 13
93.2964705882352
 23
377.8821508233752
 33
0.0
  0
SOLID
  5
3BC
330
3B5
100
AcDbEntity
  8
寸法線
 62
     0
100
AcDbTrace
 10
138.7964705882352
 20
377.4654841567085
 30
0.0
 11
138.7964705882352
 21
378.2988174900419
 31
0.0
 12
141.2964705882352
 22
377.8821508233752
 32
0.0
 13
141.2964705882352
 23
377.8821508233752
 33
0.0
  0
MTEXT
  5
3BD
330
3B5
100
AcDbEntity
  8
寸法線
  6
CONTINUOUS
 62
     0
100
AcDbMText
 10
117.2964705882352
 20
379.7834008233752
 30
0.0
 40
2.5
 41
0.0
 71
     5
 72
     1
  1
48
  0
POINT
  5
3BE
330
3B5
100
AcDbEntity
  8
DEFPOINTS
 62
     0
100
AcDbPoint
 10
93.2964705882352
 20
348.4458823529412
 30
0.0
  0
POINT
  5
3BF
330
3B5
100
AcDbEntity
  8
DEFPOINTS
 62
     0
100
AcDbPoint
 10
141.2964705882352
 20
364.0708823529412
 30
0.0
  0
POINT
  5
3C0
330
3B5
100
AcDbEntity
  8
DEFPOINTS
 62
     0
100
AcDbPoint
 10
141.2964705882352
 20
377.8821508233752
 30
0.0
  0
ENDBLK
  5
3B7
330
3B5
100
AcDbEntity
  8
0
100
AcDbBlockEnd
  0
BLOCK
  5
3C5
330
3C4
100
AcDbEntity
  8
0
100
AcDbBlockBegin
  2
*D33
 70
     1
 10
0.0
 20
0.0
 30
0.0
  3
*D33
  1
*D33
  0
LINE
  5
3C7
330
3C4
100
AcDbEntity
  8
寸法線
  6
CONTINUOUS
 62
     0
100
AcDbLine
 10
141.2964705882352
 20
364.0708823529412
 30
0.0
 11
141.2964705882352
 21
386.5626150680416
 31
0.0
  0
LINE
  5
3C8
330
3C4
100
AcDbEntity
  8
寸法線
  6
CONTINUOUS
 62
     0
100
AcDbLine
 10
106.2964705882352
 20
371.5708823529412
 30
0.0
 11
106.2964705882352
 21
386.5626150680416
 31
0.0
  0
LINE
  5
3C9
330
3C4
100
AcDbEntity
  8
寸法線
  6
CONTINUOUS
 62
     0
100
AcDbLine
 10
138.7964705882352
 20
385.3126150680416
 30
0.0
 11
108.7964705882352
 21
385.3126150680416
 31
0.0
  0
SOLID
  5
3CA
330
3C4
100
AcDbEntity
  8
寸法線
 62
     0
100
AcDbTrace
 10
138.7964705882352
 20
384.8959484013749
 30
0.0
 11
138.7964705882352
 21
385.7292817347083
 31
0.0
 12
141.2964705882352
 22
385.3126150680416
 32
0.0
 13
141.2964705882352
 23
385.3126150680416
 33
0.0
  0
SOLID
  5
3CB
330
3C4
100
AcDbEntity
  8
寸法線
 62
     0
100
AcDbTrace
 10
108.7964705882352
 20
385.7292817347083
 30
0.0
 11
108.7964705882352
 21
384.8959484013749
 31
0.0
 12
106.2964705882352
 22
385.3126150680416
 32
0.0
 13
106.2964705882352
 23
385.3126150680416
 33
0.0
  0
MTEXT
  5
3CC
330
3C4
100
AcDbEntity
  8
寸法線
  6
CONTINUOUS
 62
     0
100
AcDbMText
 10
123.7964705882352
 20
387.2138650680416
 30
0.0
 40
2.5
 41
0.0
 71
     5
 72
     1
  1
35
  0
POINT
  5
3CD
330
3C4
100
AcDbEntity
  8
DEFPOINTS
 62
     0
100
AcDbPoint
 10
141.2964705882352
 20
363.4458823529412
 30
0.0
  0
POINT
  5
3CE
330
3C4
100
AcDbEntity
  8
DEFPOINTS
 62
     0
100
AcDbPoint
 10
106.2964705882352
 20
370.9458823529412
 30
0.0
  0
POINT
  5
3CF
330
3C4
100
AcDbEntity
  8
DEFPOINTS
 62
     0
100
AcDbPoint
 10
106.2964705882352
 20
385.3126150680416
 30
0.0
  0
ENDBLK
  5
3C6
330
3C4
100
AcDbEntity
  8
0
100
AcDbBlockEnd
  0
BLOCK
  5
3D4
330
3D3
100
AcDbEntity
  8
0
100
AcDbBlockBegin
  2
*D34
 70
     1
 10
0.0
 20
0.0
 30
0.0
  3
*D34
  1
*D34
  0
LINE
  5
3D6
330
3D3
100
AcDbEntity
  8
寸法線
  6
CONTINUOUS
 62
     0
100
AcDbLine
 10
93.2964705882352
 20
349.0708823529412
 30
0.0
 11
93.2964705882352
 21
392.666210697589
 31
0.0
  0
LINE
  5
3D7
330
3D3
100
AcDbEntity
  8
寸法線
  6
CONTINUOUS
 62
     0
100
AcDbLine
 10
181.2964705882352
 20
358.5708823529412
 30
0.0
 11
181.2964705882352
 21
392.666210697589
 31
0.0
  0
LINE
  5
3D8
330
3D3
100
AcDbEntity
  8
寸法線
  6
CONTINUOUS
 62
     0
100
AcDbLine
 10
95.7964705882352
 20
391.416210697589
 30
0.0
 11
178.7964705882352
 21
391.416210697589
 31
0.0
  0
SOLID
  5
3D9
330
3D3
100
AcDbEntity
  8
寸法線
 62
     0
100
AcDbTrace
 10
95.7964705882352
 20
391.8328773642556
 30
0.0
 11
95.7964705882352
 21
390.9995440309223
 31
0.0
 12
93.2964705882352
 22
391.416210697589
 32
0.0
 13
93.2964705882352
 23
391.416210697589
 33
0.0
  0
SOLID
  5
3DA
330
3D3
100
AcDbEntity
  8
寸法線
 62
     0
100
AcDbTrace
 10
178.7964705882352
 20
390.9995440309223
 30
0.0
 11
178.7964705882352
 21
391.8328773642556
 31
0.0
 12
181.2964705882352
 22
391.416210697589
 32
0.0
 13
181.2964705882352
 23
391.416210697589
 33
0.0
  0
MTEXT
  5
3DB
330
3D3
100
AcDbEntity
  8
寸法線
  6
CONTINUOUS
 62
     0
100
AcDbMText
 10
137.2964705882352
 20
393.317460697589
 30
0.0
 40
2.5
 41
0.0
 71
     5
 72
     1
  1
88
  0
POINT
  5
3DC
330
3D3
100
AcDbEntity
  8
DEFPOINTS
 62
     0
100
AcDbPoint
 10
93.2964705882352
 20
348.4458823529412
 30
0.0
  0
POINT
  5
3DD
330
3D3
100
AcDbEntity
  8
DEFPOINTS
 62
     0
100
AcDbPoint
 10
181.2964705882352
 20
357.9458823529412
 30
0.0
  0
POINT
  5
3DE
330
3D3
100
AcDbEntity
  8
DEFPOINTS
 62
     0
100
AcDbPoint
 10
181.2964705882352
 20
391.416210697589
 30
0.0
  0
ENDBLK
  5
3D5
330
3D3
100
AcDbEntity
  8
0
100
AcDbBlockEnd
  0
BLOCK
  5
3E3
330
3E2
100
AcDbEntity
  8
0
100
AcDbBlockBegin
  2
*D35
 70
     1
 10
0.0
 20
0.0
 30
0.0
  3
*D35
  1
*D35
  0
LINE
  5
3E5
330
3E2
100
AcDbEntity
  8
寸法線
  6
CONTINUOUS
 62
     0
100
AcDbLine
 10
106.2964705882352
 20
371.5708823529412
 30
0.0
 11
106.2964705882352
 21
374.6207975319705
 31
0.0
  0
LINE
  5
3E6
330
3E2
100
AcDbEntity
  8
寸法線
  6
CONTINUOUS
 62
     0
100
AcDbLine
 10
114.2964705882352
 20
371.5708823529412
 30
0.0
 11
114.2964705882352
 21
374.6207975319705
 31
0.0
  0
LINE
  5
3E7
330
3E2
100
AcDbEntity
  8
寸法線
  6
CONTINUOUS
 62
     0
100
AcDbLine
 10
108.7964705882352
 20
373.3707975319705
 30
0.0
 11
111.7964705882352
 21
373.3707975319705
 31
0.0
  0
SOLID
  5
3E8
330
3E2
100
AcDbEntity
  8
寸法線
 62
     0
100
AcDbTrace
 10
108.7964705882352
 20
373.7874641986372
 30
0.0
 11
108.7964705882352
 21
372.9541308653039
 31
0.0
 12
106.2964705882352
 22
373.3707975319705
 32
0.0
 13
106.2964705882352
 23
373.3707975319705
 33
0.0
  0
SOLID
  5
3E9
330
3E2
100
AcDbEntity
  8
寸法線
 62
     0
100
AcDbTrace
 10
111.7964705882352
 20
372.9541308653039
 30
0.0
 11
111.7964705882352
 21
373.7874641986372
 31
0.0
 12
114.2964705882352
 22
373.3707975319705
 32
0.0
 13
114.2964705882352
 23
373.3707975319705
 33
0.0
  0
MTEXT
  5
3EA
330
3E2
100
AcDbEntity
  8
寸法線
  6
CONTINUOUS
 62
     0
100
AcDbMText
 10
110.2964705882352
 20
375.2720475319705
 30
0.0
 40
2.5
 41
0.0
 71
     5
 72
     1
  1
8
  0
POINT
  5
3EB
330
3E2
100
AcDbEntity
  8
DEFPOINTS
 62
     0
100
AcDbPoint
 10
106.2964705882352
 20
370.9458823529412
 30
0.0
  0
POINT
  5
3EC
330
3E2
100
AcDbEntity
  8
DEFPOINTS
 62
     0
100
AcDbPoint
 10
114.2964705882352
 20
370.9458823529412
 30
0.0
  0
POINT
  5
3ED
330
3E2
100
AcDbEntity
  8
DEFPOINTS
 62
     0
100
AcDbPoint
 10
114.2964705882352
 20
373.3707975319705
 30
0.0
  0
ENDBLK
  5
3E4
330
3E2
100
AcDbEntity
  8
0
100
AcDbBlockEnd
  0
BLOCK
  5
3F2
330
3F1
100
AcDbEntity
  8
0
100
AcDbBlockBegin
  2
*D36
 70
     1
 10
0.0
 20
0.0
 30
0.0
  3
*D36
  1
*D36
  0
LINE
  5
3F4
330
3F1
100
AcDbEntity
  8
寸法線
  6
CONTINUOUS
 62
     0
100
AcDbLine
 10
85.6714705882352
 20
348.4458823529412
 30
0.0
 11
80.34324162664186
 21
348.4458823529412
 31
0.0
  0
LINE
  5
3F5
330
3F1
100
AcDbEntity
  8
寸法線
  6
CONTINUOUS
 62
     0
100
AcDbLine
 10
85.6714705882352
 20
356.4458823529412
 30
0.0
 11
80.34324162664186
 21
356.4458823529412
 31
0.0
  0
LINE
  5
3F6
330
3F1
100
AcDbEntity
  8
寸法線
  6
CONTINUOUS
 62
     0
100
AcDbLine
 10
81.59324162664186
 20
350.9458823529412
 30
0.0
 11
81.59324162664186
 21
353.9458823529412
 31
0.0
  0
SOLID
  5
3F7
330
3F1
100
AcDbEntity
  8
寸法線
 62
     0
100
AcDbTrace
 10
81.17657495997518
 20
350.9458823529412
 30
0.0
 11
82.00990829330853
 21
350.9458823529412
 31
0.0
 12
81.59324162664186
 22
348.4458823529412
 32
0.0
 13
81.59324162664186
 23
348.4458823529412
 33
0.0
  0
SOLID
  5
3F8
330
3F1
100
AcDbEntity
  8
寸法線
 62
     0
100
AcDbTrace
 10
82.00990829330853
 20
353.9458823529412
 30
0.0
 11
81.17657495997518
 21
353.9458823529412
 31
0.0
 12
81.59324162664186
 22
356.4458823529412
 32
0.0
 13
81.59324162664186
 23
356.4458823529412
 33
0.0
  0
MTEXT
  5
3F9
330
3F1
100
AcDbEntity
  8
寸法線
  6
CONTINUOUS
 62
     0
100
AcDbMText
 10
79.69199162664185
 20
352.4458823529412
 30
0.0
 40
2.5
 41
0.0
 71
     5
 72
     1
  1
8
 11
0.0
 21
1.0
 31
0.0
  0
POINT
  5
3FA
330
3F1
100
AcDbEntity
  8
DEFPOINTS
 62
     0
100
AcDbPoint
 10
86.2964705882352
 20
348.4458823529412
 30
0.0
  0
POINT
  5
3FB
330
3F1
100
AcDbEntity
  8
DEFPOINTS
 62
     0
100
AcDbPoint
 10
86.2964705882352
 20
356.4458823529412
 30
0.0
  0
POINT
  5
3FC
330
3F1
100
AcDbEntity
  8
DEFPOINTS
 62
     0
100
AcDbPoint
 10
81.59324162664186
 20
356.4458823529412
 30
0.0
  0
ENDBLK
  5
3F3
330
3F1
100
AcDbEntity
  8
0
100
AcDbBlockEnd
  0
BLOCK
  5
401
330
400
100
AcDbEntity
  8
0
100
AcDbBlockBegin
  2
*D37
 70
     1
 10
0.0
 20
0.0
 30
0.0
  3
*D37
  1
*D37
  0
LINE
  5
403
330
400
100
AcDbEntity
  8
寸法線
  6
CONTINUOUS
 62
     0
100
AcDbLine
 10
102.6714705882352
 20
335.4458823529412
 30
0.0
 11
75.30114088918965
 21
335.4458823529412
 31
0.0
  0
LINE
  5
404
330
400
100
AcDbEntity
  8
寸法線
  6
CONTINUOUS
 62
     0
100
AcDbLine
 10
102.6714705882352
 20
361.4458823529412
 30
0.0
 11
75.30114088918965
 21
361.4458823529412
 31
0.0
  0
LINE
  5
405
330
400
100
AcDbEntity
  8
寸法線
  6
CONTINUOUS
 62
     0
100
AcDbLine
 10
76.55114088918965
 20
337.9458823529412
 30
0.0
 11
76.55114088918965
 21
358.9458823529412
 31
0.0
  0
SOLID
  5
406
330
400
100
AcDbEntity
  8
寸法線
 62
     0
100
AcDbTrace
 10
76.13447422252298
 20
337.9458823529412
 30
0.0
 11
76.96780755585633
 21
337.9458823529412
 31
0.0
 12
76.55114088918965
 22
335.4458823529412
 32
0.0
 13
76.55114088918965
 23
335.4458823529412
 33
0.0
  0
SOLID
  5
407
330
400
100
AcDbEntity
  8
寸法線
 62
     0
100
AcDbTrace
 10
76.96780755585633
 20
358.9458823529412
 30
0.0
 11
76.13447422252298
 21
358.9458823529412
 31
0.0
 12
76.55114088918965
 22
361.4458823529412
 32
0.0
 13
76.55114088918965
 23
361.4458823529412
 33
0.0
  0
MTEXT
  5
408
330
400
100
AcDbEntity
  8
寸法線
  6
CONTINUOUS
 62
     0
100
AcDbMText
 10
74.64989088918965
 20
348.4458823529412
 30
0.0
 40
2.5
 41
0.0
 71
     5
 72
     1
  1
26
 11
0.0
 21
1.0
 31
0.0
  0
POINT
  5
409
330
400
100
AcDbEntity
  8
DEFPOINTS
 62
     0
100
AcDbPoint
 10
103.2964705882352
 20
335.4458823529412
 30
0.0
  0
POINT
  5
40A
330
400
100
AcDbEntity
  8
DEFPOINTS
 62
     0
100
AcDbPoint
 10
103.2964705882352
 20
361.4458823529412
 30
0.0
  0
POINT
  5
40B
330
400
100
AcDbEntity
  8
DEFPOINTS
 62
     0
100
AcDbPoint
 10
76.55114088918965
 20
361.4458823529412
 30
0.0
  0
ENDBLK
  5
402
330
400
100
AcDbEntity
  8
0
100
AcDbBlockEnd
  0
BLOCK
  5
410
330
40F
100
AcDbEntity
  8
0
100
AcDbBlockBegin
  2
*D38
 70
     1
 10
0.0
 20
0.0
 30
0.0
  3
*D38
  1
*D38
  0
LINE
  5
412
330
40F
100
AcDbEntity
  8
寸法線
  6
CONTINUOUS
 62
     0
100
AcDbLine
 10
74.2964705882352
 20
319.0708823529412
 30
0.0
 11
74.2964705882352
 21
324.7968810342521
 31
0.0
  0
LINE
  5
413
330
40F
100
AcDbEntity
  8
寸法線
  6
CONTINUOUS
 62
     0
100
AcDbLine
 10
113.2964705882352
 20
316.0708823529412
 30
0.0
 11
113.2964705882352
 21
324.7968810342521
 31
0.0
  0
LINE
  5
414
330
40F
100
AcDbEntity
  8
寸法線
  6
CONTINUOUS
 62
     0
100
AcDbLine
 10
76.7964705882352
 20
323.5468810342521
 30
0.0
 11
110.7964705882352
 21
323.5468810342521
 31
0.0
  0
SOLID
  5
415
330
40F
100
AcDbEntity
  8
寸法線
 62
     0
100
AcDbTrace
 10
76.7964705882352
 20
323.9635477009188
 30
0.0
 11
76.7964705882352
 21
323.1302143675854
 31
0.0
 12
74.2964705882352
 22
323.5468810342521
 32
0.0
 13
74.2964705882352
 23
323.5468810342521
 33
0.0
  0
SOLID
  5
416
330
40F
100
AcDbEntity
  8
寸法線
 62
     0
100
AcDbTrace
 10
110.7964705882352
 20
323.1302143675854
 30
0.0
 11
110.7964705882352
 21
323.9635477009188
 31
0.0
 12
113.2964705882352
 22
323.5468810342521
 32
0.0
 13
113.2964705882352
 23
323.5468810342521
 33
0.0
  0
MTEXT
  5
417
330
40F
100
AcDbEntity
  8
寸法線
  6
CONTINUOUS
 62
     0
100
AcDbMText
 10
93.7964705882352
 20
325.4481310342521
 30
0.0
 40
2.5
 41
0.0
 71
     5
 72
     1
  1
39
  0
POINT
  5
418
330
40F
100
AcDbEntity
  8
DEFPOINTS
 62
     0
100
AcDbPoint
 10
74.2964705882352
 20
318.4458823529412
 30
0.0
  0
POINT
  5
419
330
40F
100
AcDbEntity
  8
DEFPOINTS
 62
     0
100
AcDbPoint
 10
113.2964705882352
 20
315.4458823529412
 30
0.0
  0
POINT
  5
41A
330
40F
100
AcDbEntity
  8
DEFPOINTS
 62
     0
100
AcDbPoint
 10
113.2964705882352
 20
323.5468810342521
 30
0.0
  0
ENDBLK
  5
411
330
40F
100
AcDbEntity
  8
0
100
AcDbBlockEnd
  0
BLOCK
  5
41F
330
41E
100
AcDbEntity
  8
0
100
AcDbBlockBegin
  2
*D39
 70
     1
 10
0.0
 20
0.0
 30
0.0
  3
*D39
  1
*D39
  0
LINE
  5
421
330
41E
100
AcDbEntity
  8
寸法線
  6
CONTINUOUS
 62
     0
100
AcDbLine
 10
73.6714705882352
 20
298.4458823529412
 30
0.0
 11
60.24118210758903
 21
298.4458823529412
 31
0.0
  0
LINE
  5
422
330
41E
100
AcDbEntity
  8
寸法線
  6
CONTINUOUS
 62
     0
100
AcDbLine
 10
73.6714705882352
 20
318.4458823529412
 30
0.0
 11
60.24118210758903
 21
318.4458823529412
 31
0.0
  0
LINE
  5
423
330
41E
100
AcDbEntity
  8
寸法線
  6
CONTINUOUS
 62
     0
100
AcDbLine
 10
61.49118210758903
 20
300.9458823529412
 30
0.0
 11
61.49118210758903
 21
315.9458823529412
 31
0.0
  0
SOLID
  5
424
330
41E
100
AcDbEntity
  8
寸法線
 62
     0
100
AcDbTrace
 10
61.07451544092236
 20
300.9458823529412
 30
0.0
 11
61.90784877425569
 21
300.9458823529412
 31
0.0
 12
61.49118210758903
 22
298.4458823529412
 32
0.0
 13
61.49118210758903
 23
298.4458823529412
 33
0.0
  0
SOLID
  5
425
330
41E
100
AcDbEntity
  8
寸法線
 62
     0
100
AcDbTrace
 10
61.90784877425569
 20
315.9458823529412
 30
0.0
 11
61.07451544092236
 21
315.9458823529412
 31
0.0
 12
61.49118210758903
 22
318.4458823529412
 32
0.0
 13
61.49118210758903
 23
318.4458823529412
 33
0.0
  0
MTEXT
  5
426
330
41E
100
AcDbEntity
  8
寸法線
  6
CONTINUOUS
 62
     0
100
AcDbMText
 10
59.58993210758902
 20
308.4458823529412
 30
0.0
 40
2.5
 41
0.0
 71
     5
 72
     1
  1
20
 11
0.0
 21
1.0
 31
0.0
  0
POINT
  5
427
330
41E
100
AcDbEntity
  8
DEFPOINTS
 62
     0
100
AcDbPoint
 10
74.2964705882352
 20
298.4458823529412
 30
0.0
  0
POINT
  5
428
330
41E
100
AcDbEntity
  8
DEFPOINTS
 62
     0
100
AcDbPoint
 10
74.2964705882352
 20
318.4458823529412
 30
0.0
  0
POINT
  5
429
330
41E
100
AcDbEntity
  8
DEFPOINTS
 62
     0
100
AcDbPoint
 10
61.49118210758903
 20
318.4458823529412
 30
0.0
  0
ENDBLK
  5
420
330
41E
100
AcDbEntity
  8
0
100
AcDbBlockEnd
  0
BLOCK
  5
42E
330
42D
100
AcDbEntity
  8
0
100
AcDbBlockBegin
  2
*D40
 70
     1
 10
0.0
 20
0.0
 30
0.0
  3
*D40
  1
*D40
  0
LINE
  5
430
330
42D
100
AcDbEntity
  8
寸法線
  6
CONTINUOUS
 62
     0
100
AcDbLine
 10
74.2964705882352
 20
297.8208823529412
 30
0.0
 11
74.2964705882352
 21
290.7837514251759
 31
0.0
  0
LINE
  5
431
330
42D
100
AcDbEntity
  8
寸法線
  6
CONTINUOUS
 62
     0
100
AcDbLine
 10
106.2964705882352
 20
307.8208823529412
 30
0.0
 11
106.2964705882352
 21
290.7837514251759
 31
0.0
  0
LINE
  5
432
330
42D
100
AcDbEntity
  8
寸法線
  6
CONTINUOUS
 62
     0
100
AcDbLine
 10
76.7964705882352
 20
292.0337514251759
 30
0.0
 11
103.7964705882352
 21
292.0337514251759
 31
0.0
  0
SOLID
  5
433
330
42D
100
AcDbEntity
  8
寸法線
 62
     0
100
AcDbTrace
 10
76.7964705882352
 20
292.4504180918426
 30
0.0
 11
76.7964705882352
 21
291.6170847585092
 31
0.0
 12
74.2964705882352
 22
292.0337514251759
 32
0.0
 13
74.2964705882352
 23
292.0337514251759
 33
0.0
  0
SOLID
  5
434
330
42D
100
AcDbEntity
  8
寸法線
 62
     0
100
AcDbTrace
 10
103.7964705882352
 20
291.6170847585092
 30
0.0
 11
103.7964705882352
 21
292.4504180918426
 31
0.0
 12
106.2964705882352
 22
292.0337514251759
 32
0.0
 13
106.2964705882352
 23
292.0337514251759
 33
0.0
  0
MTEXT
  5
435
330
42D
100
AcDbEntity
  8
寸法線
  6
CONTINUOUS
 62
     0
100
AcDbMText
 10
90.2964705882352
 20
293.9350014251759
 30
0.0
 40
2.5
 41
0.0
 71
     5
 72
     1
  1
32
  0
POINT
  5
436
330
42D
100
AcDbEntity
  8
DEFPOINTS
 62
     0
100
AcDbPoint
 10
74.2964705882352
 20
298.4458823529412
 30
0.0
  0
POINT
  5
437
330
42D
100
AcDbEntity
  8
DEFPOINTS
 62
     0
100
AcDbPoint
 10
106.2964705882352
 20
308.4458823529412
 30
0.0
  0
POINT
  5
438
330
42D
100
AcDbEntity
  8
DEFPOINTS
 62
     0
100
AcDbPoint
 10
106.2964705882352
 20
292.0337514251759
 30
0.0
  0
ENDBLK
  5
42F
330
42D
100
AcDbEntity
  8
0
100
AcDbBlockEnd
  0
BLOCK
  5
43D
330
43C
100
AcDbEntity
  8
0
100
AcDbBlockBegin
  2
*D41
 70
     1
 10
0.0
 20
0.0
 30
0.0
  3
*D41
  1
*D41
  0
LINE
  5
43F
330
43C
100
AcDbEntity
  8
寸法線
  6
CONTINUOUS
 62
     0
100
AcDbLine
 10
141.9214705882352
 20
326.4458823529412
 30
0.0
 11
175.525014392704
 21
326.4458823529412
 31
0.0
  0
LINE
  5
440
330
43C
100
AcDbEntity
  8
寸法線
  6
CONTINUOUS
 62
     0
100
AcDbLine
 10
141.9214705882352
 20
290.4458823529412
 30
0.0
 11
175.525014392704
 21
290.4458823529412
 31
0.0
  0
LINE
  5
441
330
43C
100
AcDbEntity
  8
寸法線
  6
CONTINUOUS
 62
     0
100
AcDbLine
 10
174.275014392704
 20
323.9458823529412
 30
0.0
 11
174.275014392704
 21
292.9458823529412
 31
0.0
  0
SOLID
  5
442
330
43C
100
AcDbEntity
  8
寸法線
 62
     0
100
AcDbTrace
 10
174.6916810593706
 20
323.9458823529412
 30
0.0
 11
173.8583477260373
 21
323.9458823529412
 31
0.0
 12
174.275014392704
 22
326.4458823529412
 32
0.0
 13
174.275014392704
 23
326.4458823529412
 33
0.0
  0
SOLID
  5
443
330
43C
100
AcDbEntity
  8
寸法線
 62
     0
100
AcDbTrace
 10
173.8583477260373
 20
292.9458823529412
 30
0.0
 11
174.6916810593706
 21
292.9458823529412
 31
0.0
 12
174.275014392704
 22
290.4458823529412
 32
0.0
 13
174.275014392704
 23
290.4458823529412
 33
0.0
  0
MTEXT
  5
444
330
43C
100
AcDbEntity
  8
寸法線
  6
CONTINUOUS
 62
     0
100
AcDbMText
 10
172.3737643927039
 20
308.4458823529412
 30
0.0
 40
2.5
 41
0.0
 71
     5
 72
     1
  1
36
 11
0.0
 21
1.0
 31
0.0
  0
POINT
  5
445
330
43C
100
AcDbEntity
  8
DEFPOINTS
 62
     0
100
AcDbPoint
 10
141.2964705882352
 20
326.4458823529412
 30
0.0
  0
POINT
  5
446
330
43C
100
AcDbEntity
  8
DEFPOINTS
 62
     0
100
AcDbPoint
 10
141.2964705882352
 20
290.4458823529412
 30
0.0
  0
POINT
  5
447
330
43C
100
AcDbEntity
  8
DEFPOINTS
 62
     0
100
AcDbPoint
 10
174.275014392704
 20
290.4458823529412
 30
0.0
  0
ENDBLK
  5
43E
330
43C
100
AcDbEntity
  8
0
100
AcDbBlockEnd
  0
BLOCK
  5
44C
330
44B
100
AcDbEntity
  8
0
100
AcDbBlockBegin
  2
*D42
 70
     1
 10
0.0
 20
0.0
 30
0.0
  3
*D42
  1
*D42
  0
LINE
  5
44E
330
44B
100
AcDbEntity
  8
寸法線
  6
CONTINUOUS
 62
     0
100
AcDbLine
 10
143.9214705882352
 20
320.9458823529412
 30
0.0
 11
170.8809742397875
 21
320.9458823529412
 31
0.0
  0
LINE
  5
44F
330
44B
100
AcDbEntity
  8
寸法線
  6
CONTINUOUS
 62
     0
100
AcDbLine
 10
143.9214705882352
 20
295.9458823529412
 30
0.0
 11
170.8809742397875
 21
295.9458823529412
 31
0.0
  0
LINE
  5
450
330
44B
100
AcDbEntity
  8
寸法線
  6
CONTINUOUS
 62
     0
100
AcDbLine
 10
169.6309742397875
 20
318.4458823529412
 30
0.0
 11
169.6309742397875
 21
298.4458823529412
 31
0.0
  0
SOLID
  5
451
330
44B
100
AcDbEntity
  8
寸法線
 62
     0
100
AcDbTrace
 10
170.0476409064541
 20
318.4458823529412
 30
0.0
 11
169.2143075731208
 21
318.4458823529412
 31
0.0
 12
169.6309742397875
 22
320.9458823529412
 32
0.0
 13
169.6309742397875
 23
320.9458823529412
 33
0.0
  0
SOLID
  5
452
330
44B
100
AcDbEntity
  8
寸法線
 62
     0
100
AcDbTrace
 10
169.2143075731208
 20
298.4458823529412
 30
0.0
 11
170.0476409064541
 21
298.4458823529412
 31
0.0
 12
169.6309742397875
 22
295.9458823529412
 32
0.0
 13
169.6309742397875
 23
295.9458823529412
 33
0.0
  0
MTEXT
  5
453
330
44B
100
AcDbEntity
  8
寸法線
  6
CONTINUOUS
 62
     0
100
AcDbMText
 10
167.7297242397875
 20
308.4458823529412
 30
0.0
 40
2.5
 41
0.0
 71
     5
 72
     1
  1
25
 11
0.0
 21
1.0
 31
0.0
  0
POINT
  5
454
330
44B
100
AcDbEntity
  8
DEFPOINTS
 62
     0
100
AcDbPoint
 10
143.2964705882352
 20
320.9458823529412
 30
0.0
  0
POINT
  5
455
330
44B
100
AcDbEntity
  8
DEFPOINTS
 62
     0
100
AcDbPoint
 10
143.2964705882352
 20
295.9458823529412
 30
0.0
  0
POINT
  5
456
330
44B
100
AcDbEntity
  8
DEFPOINTS
 62
     0
100
AcDbPoint
 10
169.6309742397875
 20
295.9458823529412
 30
0.0
  0
ENDBLK
  5
44D
330
44B
100
AcDbEntity
  8
0
100
AcDbBlockEnd
  0
BLOCK
  5
45B
330
45A
100
AcDbEntity
  8
0
100
AcDbBlockBegin
  2
*D43
 70
     1
 10
0.0
 20
0.0
 30
0.0
  3
*D43
  1
*D43
  0
LINE
  5
45D
330
45A
100
AcDbEntity
  8
寸法線
  6
CONTINUOUS
 62
     0
100
AcDbLine
 10
73.6714705882352
 20
270.4458823529412
 30
0.0
 11
11.05374789868546
 21
270.4458823529412
 31
0.0
  0
LINE
  5
45E
330
45A
100
AcDbEntity
  8
寸法線
  6
CONTINUOUS
 62
     0
100
AcDbLine
 10
37.0464705882352
 20
248.4458823529412
 30
0.0
 11
11.05374789868546
 21
248.4458823529412
 31
0.0
  0
LINE
  5
45F
330
45A
100
AcDbEntity
  8
寸法線
  6
CONTINUOUS
 62
     0
100
AcDbLine
 10
12.30374789868546
 20
267.9458823529412
 30
0.0
 11
12.30374789868546
 21
250.9458823529412
 31
0.0
  0
SOLID
  5
460
330
45A
100
AcDbEntity
  8
寸法線
 62
     0
100
AcDbTrace
 10
12.72041456535213
 20
267.9458823529412
 30
0.0
 11
11.88708123201879
 21
267.9458823529412
 31
0.0
 12
12.30374789868546
 22
270.4458823529412
 32
0.0
 13
12.30374789868546
 23
270.4458823529412
 33
0.0
  0
SOLID
  5
461
330
45A
100
AcDbEntity
  8
寸法線
 62
     0
100
AcDbTrace
 10
11.88708123201879
 20
250.9458823529412
 30
0.0
 11
12.72041456535212
 21
250.9458823529412
 31
0.0
 12
12.30374789868546
 22
248.4458823529412
 32
0.0
 13
12.30374789868546
 23
248.4458823529412
 33
0.0
  0
MTEXT
  5
462
330
45A
100
AcDbEntity
  8
寸法線
  6
CONTINUOUS
 62
     0
100
AcDbMText
 10
10.42374789868546
 20
259.4458823529412
 30
0.0
 40
2.5
 41
0.0
 71
     5
 72
     1
  1
22
 11
8.074349270001139E-17
 21
1.0
 31
0.0
  0
POINT
  5
463
330
45A
100
AcDbEntity
  8
DEFPOINTS
 62
     0
100
AcDbPoint
 10
74.2964705882352
 20
270.4458823529412
 30
0.0
  0
POINT
  5
464
330
45A
100
AcDbEntity
  8
DEFPOINTS
 62
     0
100
AcDbPoint
 10
37.6714705882352
 20
248.4458823529412
 30
0.0
  0
POINT
  5
465
330
45A
100
AcDbEntity
  8
DEFPOINTS
 62
     0
100
AcDbPoint
 10
12.30374789868546
 20
248.4458823529412
 30
0.0
  0
ENDBLK
  5
45C
330
45A
100
AcDbEntity
  8
0
100
AcDbBlockEnd
  0
BLOCK
  5
46A
330
469
100
AcDbEntity
  8
0
100
AcDbBlockBegin
  2
*D44
 70
     1
 10
0.0
 20
0.0
 30
0.0
  3
*D44
  1
*D44
  0
LINE
  5
46C
330
469
100
AcDbEntity
  8
寸法線
  6
CONTINUOUS
 62
     0
100
AcDbLine
 10
77.6714705882352
 20
279.4458823529412
 30
0.0
 11
4.419404823090461
 21
279.4458823529412
 31
0.0
  0
LINE
  5
46D
330
469
100
AcDbEntity
  8
寸法線
  6
CONTINUOUS
 62
     0
100
AcDbLine
 10
36.4214705882352
 20
248.4458823529412
 30
0.0
 11
4.419404823090459
 21
248.4458823529412
 31
0.0
  0
LINE
  5
46E
330
469
100
AcDbEntity
  8
寸法線
  6
CONTINUOUS
 62
     0
100
AcDbLine
 10
5.669404823090461
 20
276.9458823529412
 30
0.0
 11
5.669404823090459
 21
250.9458823529412
 31
0.0
  0
SOLID
  5
46F
330
469
100
AcDbEntity
  8
寸法線
 62
     0
100
AcDbTrace
 10
6.086071489757128
 20
276.9458823529412
 30
0.0
 11
5.252738156423794
 21
276.9458823529412
 31
0.0
 12
5.669404823090461
 22
279.4458823529412
 32
0.0
 13
5.669404823090461
 23
279.4458823529412
 33
0.0
  0
SOLID
  5
470
330
469
100
AcDbEntity
  8
寸法線
 62
     0
100
AcDbTrace
 10
5.252738156423792
 20
250.9458823529412
 30
0.0
 11
6.086071489757126
 21
250.9458823529412
 31
0.0
 12
5.669404823090459
 22
248.4458823529412
 32
0.0
 13
5.669404823090459
 23
248.4458823529412
 33
0.0
  0
MTEXT
  5
471
330
469
100
AcDbEntity
  8
寸法線
  6
CONTINUOUS
 62
     0
100
AcDbMText
 10
3.768154823090455
 20
263.9458823529412
 30
0.0
 40
2.5
 41
0.0
 71
     5
 72
     1
  1
31
 11
5.730183352904034E-17
 21
1.0
 31
0.0
  0
POINT
  5
472
330
469
100
AcDbEntity
  8
DEFPOINTS
 62
     0
100
AcDbPoint
 10
78.2964705882352
 20
279.4458823529412
 30
0.0
  0
POINT
  5
473
330
469
100
AcDbEntity
  8
DEFPOINTS
 62
     0
100
AcDbPoint
 10
37.0464705882352
 20
248.4458823529412
 30
0.0
  0
POINT
  5
474
330
469
100
AcDbEntity
  8
DEFPOINTS
 62
     0
100
AcDbPoint
 10
5.669404823090459
 20
248.4458823529412
 30
0.0
  0
ENDBLK
  5
46B
330
469
100
AcDbEntity
  8
0
100
AcDbBlockEnd
  0
BLOCK
  5
479
330
478
100
AcDbEntity
  8
0
100
AcDbBlockBegin
  2
*D45
 70
     1
 10
0.0
 20
0.0
 30
0.0
  3
*D45
  1
*D45
  0
LINE
  5
47B
330
478
100
AcDbEntity
  8
寸法線
  6
CONTINUOUS
 62
     0
100
AcDbLine
 10
212.9214705882352
 20
198.4458823529412
 30
0.0
 11
242.3556547182679
 21
198.4458823529412
 31
0.0
  0
LINE
  5
47C
330
478
100
AcDbEntity
  8
寸法線
  6
CONTINUOUS
 62
     0
100
AcDbLine
 10
212.9214705882352
 20
154.4458823529412
 30
0.0
 11
242.3556547182679
 21
154.4458823529412
 31
0.0
  0
LINE
  5
47D
330
478
100
AcDbEntity
  8
寸法線
  6
CONTINUOUS
 62
     0
100
AcDbLine
 10
241.1056547182679
 20
195.9458823529412
 30
0.0
 11
241.1056547182679
 21
156.9458823529412
 31
0.0
  0
SOLID
  5
47E
330
478
100
AcDbEntity
  8
寸法線
 62
     0
100
AcDbTrace
 10
241.5223213849346
 20
195.9458823529412
 30
0.0
 11
240.6889880516013
 21
195.9458823529412
 31
0.0
 12
241.1056547182679
 22
198.4458823529412
 32
0.0
 13
241.1056547182679
 23
198.4458823529412
 33
0.0
  0
SOLID
  5
47F
330
478
100
AcDbEntity
  8
寸法線
 62
     0
100
AcDbTrace
 10
240.6889880516013
 20
156.9458823529412
 30
0.0
 11
241.5223213849346
 21
156.9458823529412
 31
0.0
 12
241.1056547182679
 22
154.4458823529412
 32
0.0
 13
241.1056547182679
 23
154.4458823529412
 33
0.0
  0
MTEXT
  5
480
330
478
100
AcDbEntity
  8
寸法線
  6
CONTINUOUS
 62
     0
100
AcDbMText
 10
239.2306547182679
 20
176.4458823529412
 30
0.0
 40
2.5
 41
0.0
 71
     5
 72
     1
  1
44
 11
0.0
 21
1.0
 31
0.0
  0
POINT
  5
481
330
478
100
AcDbEntity
  8
DEFPOINTS
 62
     0
100
AcDbPoint
 10
212.2964705882352
 20
198.4458823529412
 30
0.0
  0
POINT
  5
482
330
478
100
AcDbEntity
  8
DEFPOINTS
 62
     0
100
AcDbPoint
 10
212.2964705882352
 20
154.4458823529412
 30
0.0
  0
POINT
  5
483
330
478
100
AcDbEntity
  8
DEFPOINTS
 62
     0
100
AcDbPoint
 10
241.1056547182679
 20
154.4458823529412
 30
0.0
  0
ENDBLK
  5
47A
330
478
100
AcDbEntity
  8
0
100
AcDbBlockEnd
  0
BLOCK
  5
488
330
487
100
AcDbEntity
  8
0
100
AcDbBlockBegin
  2
*D46
 70
     1
 10
0.0
 20
0.0
 30
0.0
  3
*D46
  1
*D46
  0
LINE
  5
48A
330
487
100
AcDbEntity
  8
寸法線
  6
CONTINUOUS
 62
     0
100
AcDbLine
 10
204.9214705882352
 20
186.4458823529412
 30
0.0
 11
223.1160597990425
 21
186.4458823529412
 31
0.0
  0
LINE
  5
48B
330
487
100
AcDbEntity
  8
寸法線
  6
CONTINUOUS
 62
     0
100
AcDbLine
 10
204.9214705882352
 20
166.4458823529412
 30
0.0
 11
223.1160597990425
 21
166.4458823529412
 31
0.0
  0
LINE
  5
48C
330
487
100
AcDbEntity
  8
寸法線
  6
CONTINUOUS
 62
     0
100
AcDbLine
 10
221.8660597990425
 20
183.9458823529412
 30
0.0
 11
221.8660597990425
 21
168.9458823529412
 31
0.0
  0
SOLID
  5
48D
330
487
100
AcDbEntity
  8
寸法線
 62
     0
100
AcDbTrace
 10
222.2827264657091
 20
183.9458823529412
 30
0.0
 11
221.4493931323758
 21
183.9458823529412
 31
0.0
 12
221.8660597990425
 22
186.4458823529412
 32
0.0
 13
221.8660597990425
 23
186.4458823529412
 33
0.0
  0
SOLID
  5
48E
330
487
100
AcDbEntity
  8
寸法線
 62
     0
100
AcDbTrace
 10
221.4493931323758
 20
168.9458823529412
 30
0.0
 11
222.2827264657091
 21
168.9458823529412
 31
0.0
 12
221.8660597990425
 22
166.4458823529412
 32
0.0
 13
221.8660597990425
 23
166.4458823529412
 33
0.0
  0
MTEXT
  5
48F
330
487
100
AcDbEntity
  8
寸法線
  6
CONTINUOUS
 62
     0
100
AcDbMText
 10
219.9648097990425
 20
176.4458823529412
 30
0.0
 40
2.5
 41
0.0
 71
     5
 72
     1
  1
20
 11
0.0
 21
1.0
 31
0.0
  0
POINT
  5
490
330
487
100
AcDbEntity
  8
DEFPOINTS
 62
     0
100
AcDbPoint
 10
204.2964705882352
 20
186.4458823529412
 30
0.0
  0
POINT
  5
491
330
487
100
AcDbEntity
  8
DEFPOINTS
 62
     0
100
AcDbPoint
 10
204.2964705882352
 20
166.4458823529412
 30
0.0
  0
POINT
  5
492
330
487
100
AcDbEntity
  8
DEFPOINTS
 62
     0
100
AcDbPoint
 10
221.8660597990425
 20
166.4458823529412
 30
0.0
  0
ENDBLK
  5
489
330
487
100
AcDbEntity
  8
0
100
AcDbBlockEnd
  0
BLOCK
  5
497
330
496
100
AcDbEntity
  8
0
100
AcDbBlockBegin
  2
*D47
 70
     1
 10
0.0
 20
0.0
 30
0.0
  3
*D47
  1
*D47
  0
LINE
  5
499
330
496
100
AcDbEntity
  8
寸法線
  6
CONTINUOUS
 62
     0
100
AcDbLine
 10
180.9214705882352
 20
188.9458823529412
 30
0.0
 11
230.0821200284172
 21
188.9458823529412
 31
0.0
  0
LINE
  5
49A
330
496
100
AcDbEntity
  8
寸法線
  6
CONTINUOUS
 62
     0
100
AcDbLine
 10
180.9214705882352
 20
163.9458823529412
 30
0.0
 11
230.0821200284172
 21
163.9458823529412
 31
0.0
  0
LINE
  5
49B
330
496
100
AcDbEntity
  8
寸法線
  6
CONTINUOUS
 62
     0
100
AcDbLine
 10
228.8321200284172
 20
186.4458823529412
 30
0.0
 11
228.8321200284172
 21
166.4458823529412
 31
0.0
  0
SOLID
  5
49C
330
496
100
AcDbEntity
  8
寸法線
 62
     0
100
AcDbTrace
 10
229.2487866950839
 20
186.4458823529412
 30
0.0
 11
228.4154533617505
 21
186.4458823529412
 31
0.0
 12
228.8321200284172
 22
188.9458823529412
 32
0.0
 13
228.8321200284172
 23
188.9458823529412
 33
0.0
  0
SOLID
  5
49D
330
496
100
AcDbEntity
  8
寸法線
 62
     0
100
AcDbTrace
 10
228.4154533617505
 20
166.4458823529412
 30
0.0
 11
229.2487866950839
 21
166.4458823529412
 31
0.0
 12
228.8321200284172
 22
163.9458823529412
 32
0.0
 13
228.8321200284172
 23
163.9458823529412
 33
0.0
  0
MTEXT
  5
49E
330
496
100
AcDbEntity
  8
寸法線
  6
CONTINUOUS
 62
     0
100
AcDbMText
 10
226.9308700284172
 20
176.4458823529412
 30
0.0
 40
2.5
 41
0.0
 71
     5
 72
     1
  1
25
 11
0.0
 21
1.0
 31
0.0
  0
POINT
  5
49F
330
496
100
AcDbEntity
  8
DEFPOINTS
 62
     0
100
AcDbPoint
 10
180.2964705882352
 20
188.9458823529412
 30
0.0
  0
POINT
  5
4A0
330
496
100
AcDbEntity
  8
DEFPOINTS
 62
     0
100
AcDbPoint
 10
180.2964705882352
 20
163.9458823529412
 30
0.0
  0
POINT
  5
4A1
330
496
100
AcDbEntity
  8
DEFPOINTS
 62
     0
100
AcDbPoint
 10
228.8321200284172
 20
163.9458823529412
 30
0.0
  0
ENDBLK
  5
498
330
496
100
AcDbEntity
  8
0
100
AcDbBlockEnd
  0
BLOCK
  5
4A6
330
4A5
100
AcDbEntity
  8
0
100
AcDbBlockBegin
  2
*D48
 70
     1
 10
0.0
 20
0.0
 30
0.0
  3
*D48
  1
*D48
  0
LINE
  5
4A8
330
4A5
100
AcDbEntity
  8
寸法線
  6
CONTINUOUS
 62
     0
100
AcDbLine
 10
214.2964705882352
 20
197.0708823529412
 30
0.0
 11
214.2964705882352
 21
206.5086172286044
 31
0.0
  0
LINE
  5
4A9
330
4A5
100
AcDbEntity
  8
寸法線
  6
CONTINUOUS
 62
     0
100
AcDbLine
 10
204.2964705882352
 20
187.0708823529412
 30
0.0
 11
204.2964705882352
 21
206.5086172286044
 31
0.0
  0
LINE
  5
4AA
330
4A5
100
AcDbEntity
  8
寸法線
  6
CONTINUOUS
 62
     0
100
AcDbLine
 10
211.7964705882352
 20
205.2586172286044
 30
0.0
 11
206.7964705882352
 21
205.2586172286044
 31
0.0
  0
SOLID
  5
4AB
330
4A5
100
AcDbEntity
  8
寸法線
 62
     0
100
AcDbTrace
 10
211.7964705882352
 20
204.8419505619378
 30
0.0
 11
211.7964705882352
 21
205.6752838952711
 31
0.0
 12
214.2964705882352
 22
205.2586172286044
 32
0.0
 13
214.2964705882352
 23
205.2586172286044
 33
0.0
  0
SOLID
  5
4AC
330
4A5
100
AcDbEntity
  8
寸法線
 62
     0
100
AcDbTrace
 10
206.7964705882352
 20
205.6752838952711
 30
0.0
 11
206.7964705882352
 21
204.8419505619378
 31
0.0
 12
204.2964705882352
 22
205.2586172286044
 32
0.0
 13
204.2964705882352
 23
205.2586172286044
 33
0.0
  0
MTEXT
  5
4AD
330
4A5
100
AcDbEntity
  8
寸法線
  6
CONTINUOUS
 62
     0
100
AcDbMText
 10
209.2964705882352
 20
207.1598672286044
 30
0.0
 40
2.5
 41
0.0
 71
     5
 72
     1
  1
10
  0
POINT
  5
4AE
330
4A5
100
AcDbEntity
  8
DEFPOINTS
 62
     0
100
AcDbPoint
 10
214.2964705882352
 20
196.4458823529412
 30
0.0
  0
POINT
  5
4AF
330
4A5
100
AcDbEntity
  8
DEFPOINTS
 62
     0
100
AcDbPoint
 10
204.2964705882352
 20
186.4458823529412
 30
0.0
  0
POINT
  5
4B0
330
4A5
100
AcDbEntity
  8
DEFPOINTS
 62
     0
100
AcDbPoint
 10
204.2964705882352
 20
205.2586172286044
 30
0.0
  0
ENDBLK
  5
4A7
330
4A5
100
AcDbEntity
  8
0
100
AcDbBlockEnd
  0
BLOCK
  5
4B5
330
4B4
100
AcDbEntity
  8
0
100
AcDbBlockBegin
  2
*D49
 70
     1
 10
0.0
 20
0.0
 30
0.0
  3
*D49
  1
*D49
  0
LINE
  5
4B7
330
4B4
100
AcDbEntity
  8
寸法線
  6
CONTINUOUS
 62
     0
100
AcDbLine
 10
214.2964705882352
 20
197.0708823529412
 30
0.0
 11
214.2964705882352
 21
213.1429603041994
 31
0.0
  0
LINE
  5
4B8
330
4B4
100
AcDbEntity
  8
寸法線
  6
CONTINUOUS
 62
     0
100
AcDbLine
 10
178.2964705882352
 20
199.0708823529412
 30
0.0
 11
178.2964705882352
 21
213.1429603041994
 31
0.0
  0
LINE
  5
4B9
330
4B4
100
AcDbEntity
  8
寸法線
  6
CONTINUOUS
 62
     0
100
AcDbLine
 10
211.7964705882352
 20
211.8929603041994
 30
0.0
 11
180.7964705882352
 21
211.8929603041994
 31
0.0
  0
SOLID
  5
4BA
330
4B4
100
AcDbEntity
  8
寸法線
 62
     0
100
AcDbTrace
 10
211.7964705882352
 20
211.4762936375328
 30
0.0
 11
211.7964705882352
 21
212.3096269708661
 31
0.0
 12
214.2964705882352
 22
211.8929603041994
 32
0.0
 13
214.2964705882352
 23
211.8929603041994
 33
0.0
  0
SOLID
  5
4BB
330
4B4
100
AcDbEntity
  8
寸法線
 62
     0
100
AcDbTrace
 10
180.7964705882352
 20
212.3096269708661
 30
0.0
 11
180.7964705882352
 21
211.4762936375328
 31
0.0
 12
178.2964705882352
 22
211.8929603041994
 32
0.0
 13
178.2964705882352
 23
211.8929603041994
 33
0.0
  0
MTEXT
  5
4BC
330
4B4
100
AcDbEntity
  8
寸法線
  6
CONTINUOUS
 62
     0
100
AcDbMText
 10
196.2964705882352
 20
213.7942103041995
 30
0.0
 40
2.5
 41
0.0
 71
     5
 72
     1
  1
36
  0
POINT
  5
4BD
330
4B4
100
AcDbEntity
  8
DEFPOINTS
 62
     0
100
AcDbPoint
 10
214.2964705882352
 20
196.4458823529412
 30
0.0
  0
POINT
  5
4BE
330
4B4
100
AcDbEntity
  8
DEFPOINTS
 62
     0
100
AcDbPoint
 10
178.2964705882352
 20
198.4458823529412
 30
0.0
  0
POINT
  5
4BF
330
4B4
100
AcDbEntity
  8
DEFPOINTS
 62
     0
100
AcDbPoint
 10
178.2964705882352
 20
211.8929603041994
 30
0.0
  0
ENDBLK
  5
4B6
330
4B4
100
AcDbEntity
  8
0
100
AcDbBlockEnd
  0
BLOCK
  5
4C4
330
4C3
100
AcDbEntity
  8
0
100
AcDbBlockBegin
  2
*D50
 70
     1
 10
0.0
 20
0.0
 30
0.0
  3
*D50
  1
*D50
  0
LINE
  5
4C6
330
4C3
100
AcDbEntity
  8
寸法線
  6
CONTINUOUS
 62
     0
100
AcDbLine
 10
214.2964705882352
 20
197.6958823529412
 30
0.0
 11
214.2964705882352
 21
219.4455862260147
 31
0.0
  0
LINE
  5
4C7
330
4C3
100
AcDbEntity
  8
寸法線
  6
CONTINUOUS
 62
     0
100
AcDbLine
 10
156.2964705882352
 20
177.0708823529412
 30
0.0
 11
156.2964705882352
 21
219.4455862260147
 31
0.0
  0
LINE
  5
4C8
330
4C3
100
AcDbEntity
  8
寸法線
  6
CONTINUOUS
 62
     0
100
AcDbLine
 10
211.7964705882352
 20
218.1955862260147
 30
0.0
 11
158.7964705882352
 21
218.1955862260147
 31
0.0
  0
SOLID
  5
4C9
330
4C3
100
AcDbEntity
  8
寸法線
 62
     0
100
AcDbTrace
 10
211.7964705882352
 20
217.778919559348
 30
0.0
 11
211.7964705882352
 21
218.6122528926813
 31
0.0
 12
214.2964705882352
 22
218.1955862260147
 32
0.0
 13
214.2964705882352
 23
218.1955862260147
 33
0.0
  0
SOLID
  5
4CA
330
4C3
100
AcDbEntity
  8
寸法線
 62
     0
100
AcDbTrace
 10
158.7964705882352
 20
218.6122528926813
 30
0.0
 11
158.7964705882352
 21
217.778919559348
 31
0.0
 12
156.2964705882352
 22
218.1955862260147
 32
0.0
 13
156.2964705882352
 23
218.1955862260147
 33
0.0
  0
MTEXT
  5
4CB
330
4C3
100
AcDbEntity
  8
寸法線
  6
CONTINUOUS
 62
     0
100
AcDbMText
 10
185.2964705882352
 20
220.0968362260147
 30
0.0
 40
2.5
 41
0.0
 71
     5
 72
     1
  1
58
  0
POINT
  5
4CC
330
4C3
100
AcDbEntity
  8
DEFPOINTS
 62
     0
100
AcDbPoint
 10
214.2964705882352
 20
197.0708823529412
 30
0.0
  0
POINT
  5
4CD
330
4C3
100
AcDbEntity
  8
DEFPOINTS
 62
     0
100
AcDbPoint
 10
156.2964705882352
 20
176.4458823529412
 30
0.0
  0
POINT
  5
4CE
330
4C3
100
AcDbEntity
  8
DEFPOINTS
 62
     0
100
AcDbPoint
 10
156.2964705882352
 20
218.1955862260147
 30
0.0
  0
ENDBLK
  5
4C5
330
4C3
100
AcDbEntity
  8
0
100
AcDbBlockEnd
  0
BLOCK
  5
4F3
330
4F2
100
AcDbEntity
  8
0
100
AcDbBlockBegin
  2
*D51
 70
     1
 10
0.0
 20
0.0
 30
0.0
  3
*D51
  1
*D51
  0
LINE
  5
4F5
330
4F2
100
AcDbEntity
  8
寸法線
  6
CONTINUOUS
 62
     0
100
AcDbLine
 10
106.9214705882352
 20
190.4458823529412
 30
0.0
 11
147.4990277530672
 21
190.4458823529412
 31
0.0
  0
LINE
  5
4F6
330
4F2
100
AcDbEntity
  8
寸法線
  6
CONTINUOUS
 62
     0
100
AcDbLine
 10
106.9214705882352
 20
162.4458823529412
 30
0.0
 11
147.4990277530672
 21
162.4458823529412
 31
0.0
  0
LINE
  5
4F7
330
4F2
100
AcDbEntity
  8
寸法線
  6
CONTINUOUS
 62
     0
100
AcDbLine
 10
146.2490277530672
 20
187.9458823529412
 30
0.0
 11
146.2490277530672
 21
164.9458823529412
 31
0.0
  0
SOLID
  5
4F8
330
4F2
100
AcDbEntity
  8
寸法線
 62
     0
100
AcDbTrace
 10
146.6656944197339
 20
187.9458823529412
 30
0.0
 11
145.8323610864005
 21
187.9458823529412
 31
0.0
 12
146.2490277530672
 22
190.4458823529412
 32
0.0
 13
146.2490277530672
 23
190.4458823529412
 33
0.0
  0
SOLID
  5
4F9
330
4F2
100
AcDbEntity
  8
寸法線
 62
     0
100
AcDbTrace
 10
145.8323610864005
 20
164.9458823529412
 30
0.0
 11
146.6656944197339
 21
164.9458823529412
 31
0.0
 12
146.2490277530672
 22
162.4458823529412
 32
0.0
 13
146.2490277530672
 23
162.4458823529412
 33
0.0
  0
MTEXT
  5
4FA
330
4F2
100
AcDbEntity
  8
寸法線
  6
CONTINUOUS
 62
     0
100
AcDbMText
 10
144.3477777530672
 20
176.4458823529412
 30
0.0
 40
2.5
 41
0.0
 71
     5
 72
     1
  1
28
 11
0.0
 21
1.0
 31
0.0
  0
POINT
  5
4FB
330
4F2
100
AcDbEntity
  8
DEFPOINTS
 62
     0
100
AcDbPoint
 10
106.2964705882352
 20
190.4458823529412
 30
0.0
  0
POINT
  5
4FC
330
4F2
100
AcDbEntity
  8
DEFPOINTS
 62
     0
100
AcDbPoint
 10
106.2964705882352
 20
162.4458823529412
 30
0.0
  0
POINT
  5
4FD
330
4F2
100
AcDbEntity
  8
DEFPOINTS
 62
     0
100
AcDbPoint
 10
146.2490277530672
 20
162.4458823529412
 30
0.0
  0
ENDBLK
  5
4F4
330
4F2
100
AcDbEntity
  8
0
100
AcDbBlockEnd
  0
BLOCK
  5
502
330
501
100
AcDbEntity
  8
0
100
AcDbBlockBegin
  2
*D52
 70
     1
 10
0.0
 20
0.0
 30
0.0
  3
*D52
  1
*D52
  0
LINE
  5
504
330
501
100
AcDbEntity
  8
寸法線
  6
CONTINUOUS
 62
     0
100
AcDbLine
 10
91.7964705882352
 20
209.0708823529412
 30
0.0
 11
91.7964705882352
 21
221.2130199274472
 31
0.0
  0
LINE
  5
505
330
501
100
AcDbEntity
  8
寸法線
  6
CONTINUOUS
 62
     0
100
AcDbLine
 10
120.7964705882352
 20
209.0708823529412
 30
0.0
 11
120.7964705882352
 21
221.2130199274472
 31
0.0
  0
LINE
  5
506
330
501
100
AcDbEntity
  8
寸法線
  6
CONTINUOUS
 62
     0
100
AcDbLine
 10
94.2964705882352
 20
219.9630199274472
 30
0.0
 11
118.2964705882352
 21
219.9630199274472
 31
0.0
  0
SOLID
  5
507
330
501
100
AcDbEntity
  8
寸法線
 62
     0
100
AcDbTrace
 10
94.2964705882352
 20
220.3796865941138
 30
0.0
 11
94.2964705882352
 21
219.5463532607805
 31
0.0
 12
91.7964705882352
 22
219.9630199274472
 32
0.0
 13
91.7964705882352
 23
219.9630199274472
 33
0.0
  0
SOLID
  5
508
330
501
100
AcDbEntity
  8
寸法線
 62
     0
100
AcDbTrace
 10
118.2964705882352
 20
219.5463532607805
 30
0.0
 11
118.2964705882352
 21
220.3796865941138
 31
0.0
 12
120.7964705882352
 22
219.9630199274472
 32
0.0
 13
120.7964705882352
 23
219.9630199274472
 33
0.0
  0
MTEXT
  5
509
330
501
100
AcDbEntity
  8
寸法線
  6
CONTINUOUS
 62
     0
100
AcDbMText
 10
106.2964705882352
 20
221.8642699274472
 30
0.0
 40
2.5
 41
0.0
 71
     5
 72
     1
  1
29
  0
POINT
  5
50A
330
501
100
AcDbEntity
  8
DEFPOINTS
 62
     0
100
AcDbPoint
 10
91.7964705882352
 20
208.4458823529412
 30
0.0
  0
POINT
  5
50B
330
501
100
AcDbEntity
  8
DEFPOINTS
 62
     0
100
AcDbPoint
 10
120.7964705882352
 20
208.4458823529412
 30
0.0
  0
POINT
  5
50C
330
501
100
AcDbEntity
  8
DEFPOINTS
 62
     0
100
AcDbPoint
 10
120.7964705882352
 20
219.9630199274472
 30
0.0
  0
ENDBLK
  5
503
330
501
100
AcDbEntity
  8
0
100
AcDbBlockEnd
  0
BLOCK
  5
511
330
510
100
AcDbEntity
  8
0
100
AcDbBlockBegin
  2
*D53
 70
     1
 10
0.0
 20
0.0
 30
0.0
  3
*D53
  1
*D53
  0
LINE
  5
513
330
510
100
AcDbEntity
  8
寸法線
  6
CONTINUOUS
 62
     0
100
AcDbLine
 10
138.9214705882352
 20
193.4458823529412
 30
0.0
 11
152.2927386857691
 21
193.4458823529412
 31
0.0
  0
LINE
  5
514
330
510
100
AcDbEntity
  8
寸法線
  6
CONTINUOUS
 62
     0
100
AcDbLine
 10
138.9214705882352
 20
159.4458823529412
 30
0.0
 11
152.2927386857691
 21
159.4458823529412
 31
0.0
  0
LINE
  5
515
330
510
100
AcDbEntity
  8
寸法線
  6
CONTINUOUS
 62
     0
100
AcDbLine
 10
151.0427386857691
 20
190.9458823529412
 30
0.0
 11
151.0427386857691
 21
161.9458823529412
 31
0.0
  0
SOLID
  5
516
330
510
100
AcDbEntity
  8
寸法線
 62
     0
100
AcDbTrace
 10
151.4594053524357
 20
190.9458823529412
 30
0.0
 11
150.6260720191024
 21
190.9458823529412
 31
0.0
 12
151.0427386857691
 22
193.4458823529412
 32
0.0
 13
151.0427386857691
 23
193.4458823529412
 33
0.0
  0
SOLID
  5
517
330
510
100
AcDbEntity
  8
寸法線
 62
     0
100
AcDbTrace
 10
150.6260720191024
 20
161.9458823529412
 30
0.0
 11
151.4594053524357
 21
161.9458823529412
 31
0.0
 12
151.0427386857691
 22
159.4458823529412
 32
0.0
 13
151.0427386857691
 23
159.4458823529412
 33
0.0
  0
MTEXT
  5
518
330
510
100
AcDbEntity
  8
寸法線
  6
CONTINUOUS
 62
     0
100
AcDbMText
 10
149.1414886857691
 20
176.4458823529412
 30
0.0
 40
2.5
 41
0.0
 71
     5
 72
     1
  1
34
 11
0.0
 21
1.0
 31
0.0
  0
POINT
  5
519
330
510
100
AcDbEntity
  8
DEFPOINTS
 62
     0
100
AcDbPoint
 10
138.2964705882352
 20
193.4458823529412
 30
0.0
  0
POINT
  5
51A
330
510
100
AcDbEntity
  8
DEFPOINTS
 62
     0
100
AcDbPoint
 10
138.2964705882352
 20
159.4458823529412
 30
0.0
  0
POINT
  5
51B
330
510
100
AcDbEntity
  8
DEFPOINTS
 62
     0
100
AcDbPoint
 10
151.0427386857691
 20
159.4458823529412
 30
0.0
  0
ENDBLK
  5
512
330
510
100
AcDbEntity
  8
0
100
AcDbBlockEnd
  0
BLOCK
  5
556
330
555
100
AcDbEntity
  8
0
100
AcDbBlockBegin
  2
*D54
 70
     1
 10
0.0
 20
0.0
 30
0.0
  3
*D54
  1
*D54
  0
LINE
  5
558
330
555
100
AcDbEntity
  8
実線
  6
CONTINUOUS
 62
     0
100
AcDbLine
 10
73.6714705882352
 20
198.4458823529412
 30
0.0
 11
25.10171329377164
 21
198.4458823529412
 31
0.0
  0
LINE
  5
559
330
555
100
AcDbEntity
  8
実線
  6
CONTINUOUS
 62
     0
100
AcDbLine
 10
73.6714705882352
 20
154.4458823529412
 30
0.0
 11
25.10171329377164
 21
154.4458823529412
 31
0.0
  0
LINE
  5
55A
330
555
100
AcDbEntity
  8
実線
  6
CONTINUOUS
 62
     0
100
AcDbLine
 10
26.35171329377164
 20
195.9458823529412
 30
0.0
 11
26.35171329377164
 21
156.9458823529412
 31
0.0
  0
SOLID
  5
55B
330
555
100
AcDbEntity
  8
実線
 62
     0
100
AcDbTrace
 10
26.76837996043831
 20
195.9458823529412
 30
0.0
 11
25.93504662710497
 21
195.9458823529412
 31
0.0
 12
26.35171329377164
 22
198.4458823529412
 32
0.0
 13
26.35171329377164
 23
198.4458823529412
 33
0.0
  0
SOLID
  5
55C
330
555
100
AcDbEntity
  8
実線
 62
     0
100
AcDbTrace
 10
25.93504662710497
 20
156.9458823529412
 30
0.0
 11
26.76837996043831
 21
156.9458823529412
 31
0.0
 12
26.35171329377164
 22
154.4458823529412
 32
0.0
 13
26.35171329377164
 23
154.4458823529412
 33
0.0
  0
MTEXT
  5
55D
330
555
100
AcDbEntity
  8
実線
  6
CONTINUOUS
 62
     0
100
AcDbMText
 10
24.47671329377164
 20
176.4458823529412
 30
0.0
 40
2.5
 41
0.0
 71
     5
 72
     1
  1
44
 11
8.074349270001139E-17
 21
1.0
 31
0.0
  0
POINT
  5
55E
330
555
100
AcDbEntity
  8
DEFPOINTS
 62
     0
100
AcDbPoint
 10
74.2964705882352
 20
198.4458823529412
 30
0.0
  0
POINT
  5
55F
330
555
100
AcDbEntity
  8
DEFPOINTS
 62
     0
100
AcDbPoint
 10
74.2964705882352
 20
154.4458823529412
 30
0.0
  0
POINT
  5
560
330
555
100
AcDbEntity
  8
DEFPOINTS
 62
     0
100
AcDbPoint
 10
26.35171329377164
 20
154.4458823529412
 30
0.0
  0
ENDBLK
  5
557
330
555
100
AcDbEntity
  8
0
100
AcDbBlockEnd
  0
BLOCK
  5
566
330
565
100
AcDbEntity
  8
0
100
AcDbBlockBegin
  2
*D55
 70
     1
 10
0.0
 20
0.0
 30
0.0
  3
*D55
  1
*D55
  0
LINE
  5
568
330
565
100
AcDbEntity
  8
実線
  6
CONTINUOUS
 62
     0
100
AcDbLine
 10
178.2964705882352
 20
177.0708823529412
 30
0.0
 11
178.2964705882352
 21
183.2270729094709
 31
0.0
  0
LINE
  5
569
330
565
100
AcDbEntity
  8
実線
  6
CONTINUOUS
 62
     0
100
AcDbLine
 10
165.7964705882352
 20
177.0708823529412
 30
0.0
 11
165.7964705882352
 21
183.2270729094709
 31
0.0
  0
LINE
  5
56A
330
565
100
AcDbEntity
  8
実線
  6
CONTINUOUS
 62
     0
100
AcDbLine
 10
175.7964705882352
 20
181.9770729094709
 30
0.0
 11
168.2964705882352
 21
181.9770729094709
 31
0.0
  0
SOLID
  5
56B
330
565
100
AcDbEntity
  8
実線
 62
     0
100
AcDbTrace
 10
175.7964705882352
 20
181.5604062428042
 30
0.0
 11
175.7964705882352
 21
182.3937395761376
 31
0.0
 12
178.2964705882352
 22
181.9770729094709
 32
0.0
 13
178.2964705882352
 23
181.9770729094709
 33
0.0
  0
SOLID
  5
56C
330
565
100
AcDbEntity
  8
実線
 62
     0
100
AcDbTrace
 10
168.2964705882352
 20
182.3937395761376
 30
0.0
 11
168.2964705882352
 21
181.5604062428042
 31
0.0
 12
165.7964705882352
 22
181.9770729094709
 32
0.0
 13
165.7964705882352
 23
181.9770729094709
 33
0.0
  0
MTEXT
  5
56D
330
565
100
AcDbEntity
  8
実線
  6
CONTINUOUS
 62
     0
100
AcDbMText
 10
172.0464705882352
 20
184.1033229094709
 30
0.0
 40
2.5
 41
0.0
 71
     5
 72
     1
  1
12,5
  0
POINT
  5
56E
330
565
100
AcDbEntity
  8
DEFPOINTS
 62
     0
100
AcDbPoint
 10
178.2964705882352
 20
176.4458823529412
 30
0.0
  0
POINT
  5
56F
330
565
100
AcDbEntity
  8
DEFPOINTS
 62
     0
100
AcDbPoint
 10
165.7964705882352
 20
176.4458823529412
 30
0.0
  0
POINT
  5
570
330
565
100
AcDbEntity
  8
DEFPOINTS
 62
     0
100
AcDbPoint
 10
165.7964705882352
 20
181.9770729094709
 30
0.0
  0
ENDBLK
  5
567
330
565
100
AcDbEntity
  8
0
100
AcDbBlockEnd
  0
BLOCK
  5
576
330
575
100
AcDbEntity
  8
0
100
AcDbBlockBegin
  2
*D56
 70
     1
 10
0.0
 20
0.0
 30
0.0
  3
*D56
  1
*D56
  0
LINE
  5
578
330
575
100
AcDbEntity
  8
実線
  6
CONTINUOUS
 62
     0
100
AcDbLine
 10
83.92147058823521
 20
248.4458823529412
 30
0.0
 11
96.00445197979553
 21
248.4458823529412
 31
0.0
  0
LINE
  5
579
330
575
100
AcDbEntity
  8
実線
  6
CONTINUOUS
 62
     0
100
AcDbLine
 10
83.9214705882352
 20
233.4458823529412
 30
0.0
 11
96.00445197979553
 21
233.4458823529412
 31
0.0
  0
LINE
  5
57A
330
575
100
AcDbEntity
  8
実線
  6
CONTINUOUS
 62
     0
100
AcDbLine
 10
94.75445197979553
 20
245.9458823529412
 30
0.0
 11
94.75445197979553
 21
235.9458823529412
 31
0.0
  0
SOLID
  5
57B
330
575
100
AcDbEntity
  8
実線
 62
     0
100
AcDbTrace
 10
95.1711186464622
 20
245.9458823529412
 30
0.0
 11
94.33778531312886
 21
245.9458823529412
 31
0.0
 12
94.75445197979553
 22
248.4458823529412
 32
0.0
 13
94.75445197979553
 23
248.4458823529412
 33
0.0
  0
SOLID
  5
57C
330
575
100
AcDbEntity
  8
実線
 62
     0
100
AcDbTrace
 10
94.33778531312886
 20
235.9458823529412
 30
0.0
 11
95.1711186464622
 21
235.9458823529412
 31
0.0
 12
94.75445197979553
 22
233.4458823529412
 32
0.0
 13
94.75445197979553
 23
233.4458823529412
 33
0.0
  0
MTEXT
  5
57D
330
575
100
AcDbEntity
  8
実線
  6
CONTINUOUS
 62
     0
100
AcDbMText
 10
92.85320197979553
 20
240.9458823529412
 30
0.0
 40
2.5
 41
0.0
 71
     5
 72
     1
  1
15
 11
0.0
 21
1.0
 31
0.0
  0
POINT
  5
57E
330
575
100
AcDbEntity
  8
DEFPOINTS
 62
     0
100
AcDbPoint
 10
83.29647058823521
 20
248.4458823529412
 30
0.0
  0
POINT
  5
57F
330
575
100
AcDbEntity
  8
DEFPOINTS
 62
     0
100
AcDbPoint
 10
83.2964705882352
 20
233.4458823529412
 30
0.0
  0
POINT
  5
580
330
575
100
AcDbEntity
  8
DEFPOINTS
 62
     0
100
AcDbPoint
 10
94.75445197979553
 20
233.4458823529412
 30
0.0
  0
ENDBLK
  5
577
330
575
100
AcDbEntity
  8
0
100
AcDbBlockEnd
  0
BLOCK
  5
585
330
584
100
AcDbEntity
  8
0
100
AcDbBlockBegin
  2
*D57
 70
     1
 10
0.0
 20
0.0
 30
0.0
  3
*D57
  1
*D57
  0
LINE
  5
587
330
584
100
AcDbEntity
  8
実線
  6
CONTINUOUS
 62
     0
100
AcDbLine
 10
83.2964705882352
 20
232.8208823529412
 30
0.0
 11
83.2964705882352
 21
222.9399474467904
 31
0.0
  0
LINE
  5
588
330
584
100
AcDbEntity
  8
実線
  6
CONTINUOUS
 62
     0
100
AcDbLine
 10
78.2964705882352
 20
232.8208823529412
 30
0.0
 11
78.2964705882352
 21
222.9399474467904
 31
0.0
  0
LINE
  5
589
330
584
100
AcDbEntity
  8
実線
  6
CONTINUOUS
 62
     0
100
AcDbLine
 10
83.2964705882352
 20
224.1899474467904
 30
0.0
 11
78.2964705882352
 21
224.1899474467904
 31
0.0
  0
LINE
  5
58A
330
584
100
AcDbEntity
  8
実線
  6
CONTINUOUS
 62
     0
100
AcDbLine
 10
85.7964705882352
 20
224.1899474467904
 30
0.0
 11
88.2964705882352
 21
224.1899474467904
 31
0.0
  0
LINE
  5
58B
330
584
100
AcDbEntity
  8
実線
  6
CONTINUOUS
 62
     0
100
AcDbLine
 10
75.7964705882352
 20
224.1899474467904
 30
0.0
 11
73.2964705882352
 21
224.1899474467904
 31
0.0
  0
SOLID
  5
58C
330
584
100
AcDbEntity
  8
実線
 62
     0
100
AcDbTrace
 10
85.7964705882352
 20
224.606614113457
 30
0.0
 11
85.7964705882352
 21
223.7732807801237
 31
0.0
 12
83.2964705882352
 22
224.1899474467904
 32
0.0
 13
83.2964705882352
 23
224.1899474467904
 33
0.0
  0
SOLID
  5
58D
330
584
100
AcDbEntity
  8
実線
 62
     0
100
AcDbTrace
 10
75.7964705882352
 20
223.7732807801237
 30
0.0
 11
75.7964705882352
 21
224.606614113457
 31
0.0
 12
78.2964705882352
 22
224.1899474467904
 32
0.0
 13
78.2964705882352
 23
224.1899474467904
 33
0.0
  0
MTEXT
  5
58E
330
584
100
AcDbEntity
  8
実線
  6
CONTINUOUS
 62
     0
100
AcDbMText
 10
80.7964705882352
 20
226.0861974467904
 30
0.0
 40
2.5
 41
0.0
 71
     5
 72
     1
  1
5
  0
POINT
  5
58F
330
584
100
AcDbEntity
  8
DEFPOINTS
 62
     0
100
AcDbPoint
 10
83.2964705882352
 20
233.4458823529412
 30
0.0
  0
POINT
  5
590
330
584
100
AcDbEntity
  8
DEFPOINTS
 62
     0
100
AcDbPoint
 10
78.2964705882352
 20
233.4458823529412
 30
0.0
  0
POINT
  5
591
330
584
100
AcDbEntity
  8
DEFPOINTS
 62
     0
100
AcDbPoint
 10
78.2964705882352
 20
224.1899474467904
 30
0.0
  0
ENDBLK
  5
586
330
584
100
AcDbEntity
  8
0
100
AcDbBlockEnd
  0
ENDSEC
  0
SECTION
  2
ENTITIES
  0
LINE
  5
C7
102
{ACAD_REACTORS
102
}
330
1F
100
AcDbEntity
  8
実線
100
AcDbLine
 10
-11.46110247872719
 20
236.1769441361452
 30
0.0
 11
-11.46110247872719
 21
217.1769441361451
 31
0.0
  0
LINE
  5
C9
330
1F
100
AcDbEntity
  8
実線
100
AcDbLine
 10
-8.461102478727184
 20
190.5008065112838
 30
0.0
 11
28.53889752127282
 21
190.5008065112838
 31
0.0
  0
LINE
  5
CA
330
1F
100
AcDbEntity
  8
実線
100
AcDbLine
 10
-8.461102478727177
 20
165.5008065112838
 30
0.0
 11
28.53889752127282
 21
165.5008065112838
 31
0.0
  0
LINE
  5
CD
330
1F
100
AcDbEntity
  8
実線
100
AcDbLine
 10
28.53889752127282
 20
204.0008065112838
 30
0.0
 11
28.53889752127282
 21
190.5008065112838
 31
0.0
  0
LINE
  5
CF
102
{ACAD_REACTORS
102
}
330
1F
100
AcDbEntity
  8
実線
100
AcDbLine
 10
-11.46110247872718
 20
180.0008065112838
 30
0.0
 11
6.538897521272816
 21
180.0008065112838
 31
0.0
  0
LINE
  5
D0
330
1F
100
AcDbEntity
  8
実線
100
AcDbLine
 10
-11.46110247872718
 20
176.0008065112838
 30
0.0
 11
6.538897521272816
 21
176.0008065112838
 31
0.0
  0
LINE
  5
D1
330
1F
100
AcDbEntity
  8
実線
100
AcDbLine
 10
6.538897521272808
 20
228.6769441361451
 30
0.0
 11
6.538897521272808
 21
224.6769441361451
 31
0.0
  0
LINE
  5
D3
330
1F
100
AcDbEntity
  8
実線
100
AcDbLine
 10
-11.46110247872721
 20
187.5008065112837
 30
0.0
 11
-8.461102478727213
 21
190.5008065112837
 31
0.0
  0
LINE
  5
D5
330
1F
100
AcDbEntity
  8
実線
100
AcDbLine
 10
-11.46110247872721
 20
168.5008065112838
 30
0.0
 11
-8.461102478727177
 21
165.5008065112838
 31
0.0
  0
LINE
  5
103
330
1F
100
AcDbEntity
  8
実線
  6
CONTINUOUS
100
AcDbLine
 10
63.15885065976124
 20
268.4174694783571
 30
0.0
 11
63.15885065976124
 21
268.3263717785637
 31
0.0
  0
LINE
  5
104
330
1F
100
AcDbEntity
  8
実線
  6
CONTINUOUS
100
AcDbLine
 10
59.15885065976124
 20
268.4174694783571
 30
0.0
 11
59.15885065976124
 21
268.3263717785637
 31
0.0
  0
LINE
  5
105
330
1F
100
AcDbEntity
  8
実線
  6
CONTINUOUS
100
AcDbLine
 10
48.65885065976124
 20
248.4174694783571
 30
0.0
 11
59.15885065976124
 21
248.4174694783571
 31
0.0
  0
LINE
  5
106
330
1F
100
AcDbEntity
  8
実線
  6
CONTINUOUS
100
AcDbLine
 10
48.65885065976124
 20
244.4174694783571
 30
0.0
 11
59.15885065976124
 21
244.4174694783571
 31
0.0
  0
LINE
  5
117
102
{ACAD_REACTORS
102
}
330
1F
100
AcDbEntity
  8
実線
  6
CONTINUOUS
100
AcDbLine
 10
63.15885065976124
 20
258.9174694783571
 30
0.0
 11
59.15885065976124
 21
258.9174694783571
 31
0.0
  0
LINE
  5
118
102
{ACAD_REACTORS
102
}
330
1F
100
AcDbEntity
  8
実線
  6
CONTINUOUS
100
AcDbLine
 10
63.15885065976124
 20
233.9174694783571
 30
0.0
 11
59.15885065976124
 21
233.9174694783571
 31
0.0
  0
LINE
  5
11A
102
{ACAD_REACTORS
102
}
330
1F
100
AcDbEntity
  8
実線
  6
CONTINUOUS
100
AcDbLine
 10
48.65885065976124
 20
248.4174694783571
 30
0.0
 11
48.65885065976124
 21
244.4174694783571
 31
0.0
  0
LINE
  5
11B
330
1F
100
AcDbEntity
  8
実線
  6
CONTINUOUS
100
AcDbLine
 10
63.15885065976124
 20
248.4174694783571
 30
0.0
 11
73.65885065976124
 21
248.4174694783571
 31
0.0
  0
LINE
  5
11C
330
1F
100
AcDbEntity
  8
実線
  6
CONTINUOUS
100
AcDbLine
 10
63.15885065976124
 20
244.4174694783571
 30
0.0
 11
73.65885065976124
 21
244.4174694783571
 31
0.0
  0
LINE
  5
12C
330
1F
100
AcDbEntity
  8
実線
  6
CONTINUOUS
100
AcDbLine
 10
63.15885065976124
 20
268.4174694783571
 30
0.0
 11
59.15885065976124
 21
268.4174694783571
 31
0.0
  0
LINE
  5
12D
330
1F
100
AcDbEntity
  8
実線
  6
CONTINUOUS
100
AcDbLine
 10
59.15885065976124
 20
224.4174694783571
 30
0.0
 11
63.15885065976124
 21
224.4174694783571
 31
0.0
  0
LINE
  5
134
102
{ACAD_REACTORS
102
}
330
1F
100
AcDbEntity
  8
実線
  6
CONTINUOUS
100
AcDbLine
 10
-8.461102478727177
 20
239.1769441361452
 30
0.0
 11
28.53889752127282
 21
239.1769441361452
 31
0.0
  0
LINE
  5
136
102
{ACAD_REACTORS
102
}
330
1F
100
AcDbEntity
  8
実線
  6
CONTINUOUS
100
AcDbLine
 10
28.53889752127282
 20
211.6769441361451
 30
0.0
 11
33.53889752127282
 21
211.6769441361451
 31
0.0
  0
LINE
  5
137
102
{ACAD_REACTORS
102
}
330
1F
100
AcDbEntity
  8
実線
  6
CONTINUOUS
100
AcDbLine
 10
28.53889752127282
 20
211.6769441361451
 30
0.0
 11
28.53889752127282
 21
214.1769441361451
 31
0.0
  0
LINE
  5
139
102
{ACAD_REACTORS
102
}
330
1F
100
AcDbEntity
  8
実線
  6
CONTINUOUS
100
AcDbLine
 10
28.53889752127282
 20
214.1769441361451
 30
0.0
 11
-8.461102478727184
 21
214.1769441361451
 31
0.0
  0
LINE
  5
13A
330
1F
100
AcDbEntity
  8
実線
100
AcDbLine
 10
-11.46110247872718
 20
187.5008065112838
 30
0.0
 11
-11.46110247872718
 21
180.0008065112838
 31
0.0
  0
LINE
  5
13C
330
1F
100
AcDbEntity
  8
実線
  6
CONTINUOUS
100
AcDbLine
 10
-11.46110247872724
 20
236.1769441361451
 30
0.0
 11
-8.46110247872722
 21
239.1769441361451
 31
0.0
  0
LINE
  5
13D
102
{ACAD_REACTORS
102
}
330
1F
100
AcDbEntity
  8
実線
  6
CONTINUOUS
100
AcDbLine
 10
-11.46110247872721
 20
217.1769441361452
 30
0.0
 11
-8.461102478727184
 21
214.1769441361451
 31
0.0
  0
LINE
  5
13E
330
1F
100
AcDbEntity
  8
実線
  6
CONTINUOUS
100
AcDbLine
 10
6.538897521272808
 20
228.6769441361451
 30
0.0
 11
33.53889752127282
 21
228.6769441361451
 31
0.0
  0
LINE
  5
13F
330
1F
100
AcDbEntity
  8
実線
  6
CONTINUOUS
100
AcDbLine
 10
6.538897521272808
 20
224.6769441361451
 30
0.0
 11
33.53889752127282
 21
224.6769441361451
 31
0.0
  0
LINE
  5
140
102
{ACAD_REACTORS
102
}
330
1F
100
AcDbEntity
  8
実線
100
AcDbLine
 10
6.538897521272816
 20
180.0008065112838
 30
0.0
 11
6.538897521272816
 21
176.0008065112838
 31
0.0
  0
LINE
  5
152
102
{ACAD_REACTORS
102
}
330
1F
100
AcDbEntity
  8
実線
100
AcDbLine
 10
33.53889752127282
 20
241.6769441361452
 30
0.0
 11
33.53889752127282
 21
228.6769441361451
 31
0.0
  0
LINE
  5
53D
330
1F
100
AcDbEntity
  8
実線
  6
CONTINUOUS
100
AcDbLine
 10
64.53889752127282
 20
204.0008065112838
 30
0.0
 11
28.53889752127282
 21
204.0008065112838
 31
0.0
  0
LINE
  5
53E
330
1F
100
AcDbEntity
  8
実線
  6
CONTINUOUS
100
AcDbLine
 10
64.53889752127282
 20
152.0008065112838
 30
0.0
 11
28.53889752127282
 21
152.0008065112838
 31
0.0
  0
LINE
  5
53F
330
1F
100
AcDbEntity
  8
実線
  6
CONTINUOUS
100
AcDbLine
 10
68.53889752127282
 20
200.0008065112838
 30
0.0
 11
68.53889752127282
 21
156.0008065112838
 31
0.0
  0
LINE
  5
541
330
1F
100
AcDbEntity
  8
実線
  6
CONTINUOUS
100
AcDbLine
 10
64.53889752127282
 20
204.0008065112838
 30
0.0
 11
68.53889752127282
 21
200.0008065112838
 31
0.0
  0
LINE
  5
542
330
1F
100
AcDbEntity
  8
実線
  6
CONTINUOUS
100
AcDbLine
 10
64.53889752127282
 20
152.0008065112838
 30
0.0
 11
68.53889752127282
 21
156.0008065112838
 31
0.0
  0
CIRCLE
  5
54A
330
1F
100
AcDbEntity
  8
実線
  6
CONTINUOUS
100
AcDbCircle
 10
57.53889752127282
 20
190.0008065112838
 30
0.0
 40
1.5
  0
CIRCLE
  5
54B
330
1F
100
AcDbEntity
  8
実線
  6
CONTINUOUS
100
AcDbCircle
 10
49.53889752127282
 20
190.0008065112838
 30
0.0
 40
1.5
  0
CIRCLE
  5
54C
330
1F
100
AcDbEntity
  8
実線
  6
CONTINUOUS
100
AcDbCircle
 10
57.53889752127282
 20
166.0008065112838
 30
0.0
 40
1.5
  0
CIRCLE
  5
54D
330
1F
100
AcDbEntity
  8
実線
  6
CONTINUOUS
100
AcDbCircle
 10
49.53889752127282
 20
166.0008065112838
 30
0.0
 40
1.5
  0
CIRCLE
  5
561
330
1F
100
AcDbEntity
  8
実線
  6
CONTINUOUS
100
AcDbCircle
 10
61.15885065976124
 20
246.4174694783571
 30
0.0
 40
22.0
  0
LINE
  5
571
330
1F
100
AcDbEntity
  8
実線
  6
CONTINUOUS
100
AcDbLine
 10
73.65885065976124
 20
248.4174694783571
 30
0.0
 11
73.65885065976124
 21
244.4174694783571
 31
0.0
  0
LINE
  5
592
330
1F
100
AcDbEntity
  8
実線
  6
CONTINUOUS
100
AcDbLine
 10
28.53889752127282
 20
241.6769441361452
 30
0.0
 11
33.53889752127282
 21
241.6769441361452
 31
0.0
  0
LINE
  5
593
102
{ACAD_REACTORS
102
}
330
1F
100
AcDbEntity
  8
実線
  6
CONTINUOUS
100
AcDbLine
 10
28.53889752127282
 20
239.1769441361452
 30
0.0
 11
28.53889752127282
 21
241.6769441361452
 31
0.0
  0
LINE
  5
594
330
1F
100
AcDbEntity
  8
実線
  6
CONTINUOUS
100
AcDbLine
 10
80.69412284111021
 20
151.5841435442105
 30
0.0
 11
80.69412284111021
 21
211.5841435442105
 31
0.0
  0
LINE
  5
595
330
1F
100
AcDbEntity
  8
実線
  6
CONTINUOUS
100
AcDbLine
 10
180.6941228411102
 20
155.5841435442105
 30
0.0
 11
180.6941228411102
 21
207.5841435442105
 31
0.0
  0
LINE
  5
596
330
1F
100
AcDbEntity
  8
実線
  6
CONTINUOUS
100
AcDbLine
 10
117.6941228411102
 20
203.0841435442105
 30
0.0
 11
93.69412284111021
 21
203.0841435442105
 31
0.0
  0
LINE
  5
597
330
1F
100
AcDbEntity
  8
実線
  6
CONTINUOUS
100
AcDbLine
 10
117.6941228411102
 20
160.0841435442105
 30
0.0
 11
93.69412284111021
 21
160.0841435442105
 31
0.0
  0
LINE
  5
5A4
330
1F
100
AcDbEntity
  8
実線
  6
CONTINUOUS
100
AcDbLine
 10
93.69412284111021
 20
160.0841435442105
 30
0.0
 11
93.69412284111021
 21
151.5841435442105
 31
0.0
  0
LINE
  5
5A5
330
1F
100
AcDbEntity
  8
実線
  6
CONTINUOUS
100
AcDbLine
 10
117.6941228411102
 20
160.0841435442105
 30
0.0
 11
117.6941228411102
 21
151.5841435442105
 31
0.0
  0
LINE
  5
5A7
330
1F
100
AcDbEntity
  8
実線
  6
CONTINUOUS
100
AcDbLine
 10
117.6941228411102
 20
203.0841435442105
 30
0.0
 11
117.6941228411102
 21
211.5841435442105
 31
0.0
  0
LINE
  5
5A8
330
1F
100
AcDbEntity
  8
実線
  6
CONTINUOUS
100
AcDbLine
 10
93.69412284111021
 20
203.0841435442105
 30
0.0
 11
93.69412284111021
 21
211.5841435442105
 31
0.0
  0
LINE
  5
5A9
330
1F
100
AcDbEntity
  8
実線
  6
CONTINUOUS
100
AcDbLine
 10
176.6941228411102
 20
211.5841435442105
 30
0.0
 11
117.6941228411102
 21
211.5841435442105
 31
0.0
  0
LINE
  5
5AA
330
1F
100
AcDbEntity
  8
実線
  6
CONTINUOUS
100
AcDbLine
 10
176.6941228411102
 20
151.5841435442105
 30
0.0
 11
117.6941228411102
 21
151.5841435442105
 31
0.0
  0
LINE
  5
5AB
330
1F
100
AcDbEntity
  8
実線
  6
CONTINUOUS
100
AcDbLine
 10
93.69412284111021
 20
151.5841435442105
 30
0.0
 11
80.69412284111021
 21
151.5841435442105
 31
0.0
  0
LINE
  5
5AC
330
1F
100
AcDbEntity
  8
実線
  6
CONTINUOUS
100
AcDbLine
 10
93.69412284111021
 20
211.5841435442105
 30
0.0
 11
80.69412284111021
 21
211.5841435442105
 31
0.0
  0
CIRCLE
  5
5BF
330
1F
100
AcDbEntity
  8
外形線
  6
CONTINUOUS
100
AcDbCircle
 10
85.69412284111021
 20
198.5841435442105
 30
0.0
 40
1.5
  0
CIRCLE
  5
5C0
330
1F
100
AcDbEntity
  8
外形線
  6
CONTINUOUS
100
AcDbCircle
 10
129.6941228411102
 20
198.5841435442105
 30
0.0
 40
1.5
  0
CIRCLE
  5
5C1
330
1F
100
AcDbEntity
  8
外形線
  6
CONTINUOUS
100
AcDbCircle
 10
85.69412284111021
 20
164.5841435442105
 30
0.0
 40
1.5
  0
CIRCLE
  5
5C2
330
1F
100
AcDbEntity
  8
外形線
  6
CONTINUOUS
100
AcDbCircle
 10
129.6941228411102
 20
164.5841435442105
 30
0.0
 40
1.5
  0
LINE
  5
5C3
330
1F
100
AcDbEntity
  8
実線
  6
CONTINUOUS
100
AcDbLine
 10
176.6941228411102
 20
211.5841435442105
 30
0.0
 11
180.6941228411102
 21
207.5841435442105
 31
0.0
  0
LINE
  5
5C4
330
1F
100
AcDbEntity
  8
実線
  6
CONTINUOUS
100
AcDbLine
 10
180.6941228411102
 20
155.5841435442105
 30
0.0
 11
176.6941228411102
 21
151.5841435442105
 31
0.0
  0
LINE
  5
5C9
330
1F
100
AcDbEntity
  8
外形線
  6
CONTINUOUS
100
AcDbLine
 10
130.3588953161379
 20
224.3278308052785
 30
0.0
 11
90.3588953161379
 21
224.3278308052785
 31
0.0
  0
LINE
  5
5CA
330
1F
100
AcDbEntity
  8
外形線
  6
CONTINUOUS
100
AcDbLine
 10
130.3588953161379
 20
270.3278308052785
 30
0.0
 11
130.3588953161379
 21
238.3278308052785
 31
0.0
  0
LINE
  5
5CB
330
1F
100
AcDbEntity
  8
外形線
  6
CONTINUOUS
100
AcDbLine
 10
90.3588953161379
 20
270.3278308052785
 30
0.0
 11
90.3588953161379
 21
238.3278308052785
 31
0.0
  0
LINE
  5
5CC
330
1F
100
AcDbEntity
  8
外形線
  6
CONTINUOUS
100
AcDbLine
 10
130.3588953161379
 20
270.3278308052785
 30
0.0
 11
130.3588953161379
 21
238.3278308052785
 31
0.0
  0
LINE
  5
5CD
330
1F
100
AcDbEntity
  8
外形線
  6
CONTINUOUS
100
AcDbLine
 10
130.3588953161379
 20
234.3278308052785
 30
0.0
 11
122.3588953161379
 21
234.3278308052785
 31
0.0
  0
LINE
  5
5CE
330
1F
100
AcDbEntity
  8
外形線
  6
CONTINUOUS
100
AcDbLine
 10
130.3588953161379
 20
238.3278308052785
 30
0.0
 11
122.3588953161379
 21
238.3278308052785
 31
0.0
  0
LINE
  5
5D0
330
1F
100
AcDbEntity
  8
外形線
  6
CONTINUOUS
100
AcDbLine
 10
126.3588953161379
 20
274.3278308052785
 30
0.0
 11
94.3588953161379
 21
274.3278308052785
 31
0.0
  0
LINE
  5
5D7
330
1F
100
AcDbEntity
  8
外形線
  6
CONTINUOUS
100
AcDbLine
 10
98.3588953161379
 20
234.3278308052785
 30
0.0
 11
98.3588953161379
 21
238.3278308052785
 31
0.0
  0
LINE
  5
5D8
330
1F
100
AcDbEntity
  8
外形線
  6
CONTINUOUS
100
AcDbLine
 10
122.3588953161379
 20
234.3278308052785
 30
0.0
 11
122.3588953161379
 21
238.3278308052785
 31
0.0
  0
LINE
  5
5D9
330
1F
100
AcDbEntity
  8
外形線
  6
CONTINUOUS
100
AcDbLine
 10
98.3588953161379
 20
234.3278308052785
 30
0.0
 11
90.3588953161379
 21
234.3278308052785
 31
0.0
  0
LINE
  5
5DA
330
1F
100
AcDbEntity
  8
外形線
  6
CONTINUOUS
100
AcDbLine
 10
98.3588953161379
 20
238.3278308052785
 30
0.0
 11
90.3588953161379
 21
238.3278308052785
 31
0.0
  0
LINE
  5
5DB
330
1F
100
AcDbEntity
  8
外形線
  6
CONTINUOUS
100
AcDbLine
 10
130.3588953161379
 20
234.3278308052785
 30
0.0
 11
130.3588953161379
 21
224.3278308052785
 31
0.0
  0
LINE
  5
5DC
330
1F
100
AcDbEntity
  8
外形線
  6
CONTINUOUS
100
AcDbLine
 10
130.3588953161379
 20
234.3278308052785
 30
0.0
 11
130.3588953161379
 21
224.3278308052785
 31
0.0
  0
LINE
  5
5DD
330
1F
100
AcDbEntity
  8
外形線
  6
CONTINUOUS
100
AcDbLine
 10
90.3588953161379
 20
234.3278308052785
 30
0.0
 11
90.3588953161379
 21
224.3278308052785
 31
0.0
  0
LINE
  5
5DE
330
1F
100
AcDbEntity
  8
外形線
  6
CONTINUOUS
100
AcDbLine
 10
94.3588953161379
 20
274.3278308052785
 30
0.0
 11
90.3588953161379
 21
270.3278308052785
 31
0.0
  0
LINE
  5
5DF
330
1F
100
AcDbEntity
  8
外形線
  6
CONTINUOUS
100
AcDbLine
 10
126.3588953161379
 20
274.3278308052785
 30
0.0
 11
130.3588953161379
 21
270.3278308052785
 31
0.0
  0
CIRCLE
  5
5E6
330
1F
100
AcDbEntity
  8
外形線
  6
CONTINUOUS
100
AcDbCircle
 10
106.3588953161379
 20
268.3278308052785
 30
0.0
 40
1.3
  0
CIRCLE
  5
5E7
330
1F
100
AcDbEntity
  8
外形線
  6
CONTINUOUS
100
AcDbCircle
 10
114.3588953161379
 20
268.3278308052785
 30
0.0
 40
1.3
  0
CIRCLE
  5
5E8
330
1F
100
AcDbEntity
  8
外形線
  6
CONTINUOUS
100
AcDbCircle
 10
106.3588953161379
 20
260.3278308052785
 30
0.0
 40
1.3
  0
CIRCLE
  5
5E9
330
1F
100
AcDbEntity
  8
外形線
  6
CONTINUOUS
100
AcDbCircle
 10
114.3588953161379
 20
260.3278308052785
 30
0.0
 40
1.3
  0
CIRCLE
  5
5F0
330
1F
100
AcDbEntity
  8
外形線
  6
CONTINUOUS
100
AcDbCircle
 10
165.6941228411102
 20
181.5841435442105
 30
0.0
 40
3.0
  0
LINE
  5
5F3
330
1F
100
AcDbEntity
  8
実線
  6
CONTINUOUS
100
AcDbLine
 10
63.15885065976124
 20
244.4174694783571
 30
0.0
 11
63.15885065976124
 21
233.9174694783571
 31
0.0
  0
LINE
  5
5F4
330
1F
100
AcDbEntity
  8
実線
  6
CONTINUOUS
100
AcDbLine
 10
59.15885065976124
 20
244.4174694783571
 30
0.0
 11
59.15885065976124
 21
233.9174694783571
 31
0.0
  0
LINE
  5
5F5
330
1F
100
AcDbEntity
  8
実線
  6
CONTINUOUS
100
AcDbLine
 10
59.15885065976124
 20
258.9174694783571
 30
0.0
 11
59.15885065976124
 21
248.4174694783571
 31
0.0
  0
LINE
  5
5F6
330
1F
100
AcDbEntity
  8
実線
  6
CONTINUOUS
100
AcDbLine
 10
63.15885065976124
 20
258.9174694783571
 30
0.0
 11
63.15885065976124
 21
248.4174694783571
 31
0.0
  0
LINE
  5
5F7
330
1F
100
AcDbEntity
  8
実線
  6
CONTINUOUS
100
AcDbLine
 10
59.15885065976124
 20
224.5085671781504
 30
0.0
 11
59.15885065976124
 21
224.4174694783571
 31
0.0
  0
LINE
  5
5F8
330
1F
100
AcDbEntity
  8
実線
  6
CONTINUOUS
100
AcDbLine
 10
63.15885065976124
 20
224.5085671781504
 30
0.0
 11
63.15885065976124
 21
224.4174694783571
 31
0.0
  0
LINE
  5
5F9
102
{ACAD_REACTORS
102
}
330
1F
100
AcDbEntity
  8
実線
100
AcDbLine
 10
33.53889752127282
 20
224.6769441361451
 30
0.0
 11
33.53889752127282
 21
211.6769441361451
 31
0.0
  0
LINE
  5
5FA
330
1F
100
AcDbEntity
  8
実線
100
AcDbLine
 10
-11.46110247872718
 20
176.0008065112838
 30
0.0
 11
-11.46110247872718
 21
168.5008065112838
 31
0.0
  0
LINE
  5
5FB
330
1F
100
AcDbEntity
  8
実線
100
AcDbLine
 10
28.53889752127282
 20
165.5008065112838
 30
0.0
 11
28.53889752127282
 21
152.0008065112838
 31
0.0
  0
LINE
  5
636
330
1F
100
AcDbEntity
  8
外形線
  6
CONTINUOUS
100
AcDbLine
 10
175.4901059809418
 20
273.4988238791121
 30
0.0
 11
143.4901059809418
 21
273.4988238791121
 31
0.0
  0
LINE
  5
637
330
1F
100
AcDbEntity
  8
外形線
  6
CONTINUOUS
100
AcDbLine
 10
179.4901059809418
 20
223.4988238791121
 30
0.0
 11
139.4901059809418
 21
223.4988238791121
 31
0.0
  0
LINE
  5
638
330
1F
100
AcDbEntity
  8
外形線
  6
CONTINUOUS
100
AcDbLine
 10
147.4901059809418
 20
233.4988238791121
 30
0.0
 11
147.4901059809418
 21
237.4988238791121
 31
0.0
  0
LINE
  5
639
330
1F
100
AcDbEntity
  8
外形線
  6
CONTINUOUS
100
AcDbLine
 10
171.4901059809418
 20
233.4988238791121
 30
0.0
 11
171.4901059809418
 21
237.4988238791121
 31
0.0
  0
LINE
  5
63A
330
1F
100
AcDbEntity
  8
外形線
  6
CONTINUOUS
100
AcDbLine
 10
147.4901059809418
 20
233.4988238791121
 30
0.0
 11
139.4901059809418
 21
233.4988238791121
 31
0.0
  0
LINE
  5
63B
330
1F
100
AcDbEntity
  8
外形線
  6
CONTINUOUS
100
AcDbLine
 10
179.4901059809418
 20
233.4988238791121
 30
0.0
 11
171.4901059809418
 21
233.4988238791121
 31
0.0
  0
LINE
  5
63C
330
1F
100
AcDbEntity
  8
外形線
  6
CONTINUOUS
100
AcDbLine
 10
147.4901059809418
 20
237.4988238791121
 30
0.0
 11
139.4901059809418
 21
237.4988238791121
 31
0.0
  0
LINE
  5
63D
330
1F
100
AcDbEntity
  8
外形線
  6
CONTINUOUS
100
AcDbLine
 10
179.4901059809418
 20
233.4988238791121
 30
0.0
 11
179.4901059809418
 21
223.4988238791121
 31
0.0
  0
LINE
  5
63E
330
1F
100
AcDbEntity
  8
外形線
  6
CONTINUOUS
100
AcDbLine
 10
179.4901059809418
 20
237.4988238791121
 30
0.0
 11
171.4901059809418
 21
237.4988238791121
 31
0.0
  0
LINE
  5
63F
330
1F
100
AcDbEntity
  8
外形線
  6
CONTINUOUS
100
AcDbLine
 10
179.4901059809418
 20
233.4988238791121
 30
0.0
 11
179.4901059809418
 21
223.4988238791121
 31
0.0
  0
LINE
  5
640
330
1F
100
AcDbEntity
  8
外形線
  6
CONTINUOUS
100
AcDbLine
 10
139.4901059809418
 20
233.4988238791121
 30
0.0
 11
139.4901059809418
 21
223.4988238791121
 31
0.0
  0
LINE
  5
641
330
1F
100
AcDbEntity
  8
外形線
  6
CONTINUOUS
100
AcDbLine
 10
179.4901059809418
 20
269.4988238791121
 30
0.0
 11
179.4901059809418
 21
237.4988238791121
 31
0.0
  0
LINE
  5
642
330
1F
100
AcDbEntity
  8
外形線
  6
CONTINUOUS
100
AcDbLine
 10
143.4901059809418
 20
273.4988238791121
 30
0.0
 11
139.4901059809418
 21
269.4988238791121
 31
0.0
  0
LINE
  5
643
330
1F
100
AcDbEntity
  8
外形線
  6
CONTINUOUS
100
AcDbLine
 10
139.4901059809418
 20
269.4988238791121
 30
0.0
 11
139.4901059809418
 21
237.4988238791121
 31
0.0
  0
LINE
  5
644
330
1F
100
AcDbEntity
  8
外形線
  6
CONTINUOUS
100
AcDbLine
 10
175.4901059809418
 20
273.4988238791121
 30
0.0
 11
179.4901059809418
 21
269.4988238791121
 31
0.0
  0
LINE
  5
645
330
1F
100
AcDbEntity
  8
外形線
  6
CONTINUOUS
100
AcDbLine
 10
179.4901059809418
 20
269.4988238791121
 30
0.0
 11
179.4901059809418
 21
237.4988238791121
 31
0.0
  0
CIRCLE
  5
646
330
1F
100
AcDbEntity
  8
外形線
  6
CONTINUOUS
100
AcDbCircle
 10
155.4901059809418
 20
267.4988238791121
 30
0.0
 40
1.3
  0
CIRCLE
  5
647
330
1F
100
AcDbEntity
  8
外形線
  6
CONTINUOUS
100
AcDbCircle
 10
163.4901059809418
 20
267.4988238791121
 30
0.0
 40
1.3
  0
CIRCLE
  5
648
330
1F
100
AcDbEntity
  8
外形線
  6
CONTINUOUS
100
AcDbCircle
 10
155.4901059809418
 20
259.4988238791121
 30
0.0
 40
1.3
  0
CIRCLE
  5
649
330
1F
100
AcDbEntity
  8
外形線
  6
CONTINUOUS
100
AcDbCircle
 10
163.4901059809418
 20
259.4988238791121
 30
0.0
 40
1.3
  0
VIEWPORT
  5
64A
330
23
100
AcDbEntity
 67
     1
  8
0
100
AcDbViewport
 68
     1
 10
202.5
 20
128.5
 30
0.0
 40
486.0
 41
308.4
 68
     1
 69
     1
1001
ACAD
1000
MVIEW
1002
{
1070
    16
1010
0.0
1020
0.0
1030
0.0
1010
0.0
1020
0.0
1030
1.0
1040
0.0
1040
308.4
1040
202.5
1040
128.5
1040
50.0
1040
0.0
1040
0.0
1070
     0
1070
   100
1070
     0
1070
     3
1070
     0
1070
     0
1070
     0
1070
     0
1040
0.0
1040
0.0
1040
0.0
1040
0.5
1040
0.5
1040
0.0
1040
0.0
1070
     0
1002
{
1002
}
1002
}
  0
VIEWPORT
  5
64B
330
23
100
AcDbEntity
 67
     1
  8
0
100
AcDbViewport
 68
     2
 10
202.5
 20
128.5
 30
0.0
 40
324.0
 41
205.6
 68
     2
 69
     2
1001
ACAD
1000
MVIEW
1002
{
1070
    16
1010
0.0
1020
0.0
1030
0.0
1010
0.0
1020
0.0
1030
1.0
1040
0.0
1040
125.1985610062894
1040
84.61651018119149
1040
212.9559871747445
1040
50.0
1040
0.0
1040
0.0
1070
     0
1070
   100
1070
     0
1070
     3
1070
     0
1070
     0
1070
     0
1070
     0
1040
0.0
1040
0.0
1040
0.0
1040
0.5
1040
0.5
1040
0.0
1040
0.0
1070
     0
1002
{
1002
}
1002
}
  0
ENDSEC
  0
SECTION
  2
OBJECTS
  0
DICTIONARY
  5
C
330
0
100
AcDbDictionary
  3
ACAD_DETAILVIEWSTYLE
350
B5
  3
ACAD_GROUP
350
D
  3
ACAD_IMAGE_VARS
350
6A
  3
ACAD_MLINESTYLE
350
17
  3
ACAD_SCALELIST
350
40
  3
ACAD_SECTIONVIEWSTYLE
350
B6
  3
ACDBVARIABLEDICTIONARY
350
3D
  3
APPDATA
350
71
  3
DWGPROPS
350
655
1001
ACAD
1000
TREAT_AS_HARD
1070
     0
  0
DICTIONARY
  5
B7
330
2
100
AcDbDictionary
  3
ACAD_LAYERSTATES
360
B8
  3
ACLYDICTIONARY
360
C1
1001
ACAD
1000
TREAT_AS_HARD
1070
     1
  0
DICTIONARY
  5
B5
102
{ACAD_REACTORS
330
C
102
}
330
C
100
AcDbDictionary
1001
ACAD
1000
TREAT_AS_HARD
1070
     0
  0
DICTIONARY
  5
D
102
{ACAD_REACTORS
330
C
102
}
330
C
100
AcDbDictionary
1001
ACAD
1000
TREAT_AS_HARD
1070
     0
  0
RASTERVARIABLES
  5
6A
102
{ACAD_REACTORS
330
C
102
}
330
C
100
AcDbRasterVariables
 90
        0
 70
     1
 71
     1
 72
     1
  0
DICTIONARY
  5
17
102
{ACAD_REACTORS
330
C
102
}
330
C
100
AcDbDictionary
  3
STANDARD
350
18
1001
ACAD
1000
TREAT_AS_HARD
1070
     0
  0
DICTIONARY
  5
40
102
{ACAD_REACTORS
330
C
102
}
330
C
100
AcDbDictionary
1001
ACAD
1000
TREAT_AS_HARD
1070
     0
  0
DICTIONARY
  5
B6
102
{ACAD_REACTORS
330
C
102
}
330
C
100
AcDbDictionary
1001
ACAD
1000
TREAT_AS_HARD
1070
     0
  0
DICTIONARY
  5
3D
102
{ACAD_REACTORS
330
C
102
}
330
C
100
AcDbDictionary
1001
ACAD
1000
TREAT_AS_HARD
1070
     0
  0
DICTIONARY
  5
71
102
{ACAD_REACTORS
330
C
102
}
330
C
100
AcDbDictionary
1001
ACAD
1000
TREAT_AS_HARD
1070
     0
  0
XRECORD
  5
655
102
{ACAD_REACTORS
330
C
102
}
330
C
100
AcDbXrecord
  1
DWGPROPS COOKIE
  2

  3

  4

  6

  7

  8
Mizuki
  9

300
=
301
=
302
=
303
=
304
=
305
=
306
=
307
=
308
=
309
=
 40
0.0
 41
2455022.637359514
 42
2456813.611224132
  1

 90
        0
  0
DICTIONARY
  5
B8
102
{ACAD_REACTORS
330
B7
102
}
330
B7
100
AcDbDictionary
1001
ACAD
1000
TREAT_AS_HARD
1070
     0
  0
DICTIONARY
  5
C1
102
{ACAD_REACTORS
330
B7
102
}
330
B7
100
AcDbDictionary
1001
ACAD
1000
<All
1000
TREAT_AS_HARD
1070
     0
  0
MLINESTYLE
  5
18
102
{ACAD_REACTORS
330
17
102
}
330
17
100
AcDbMlineStyle
  2
Standard
 70
     0
  3

 62
   256
 51
90.0
 52
90.0
 71
     2
 49
0.5
 62
   256
  6
BYLAYER
 49
-0.5
 62
   256
  6
BYLAYER
  0
ENDSEC
  0
EOF
