  0
SECTION
  2
HEADER
  9
$ACADVER
  1
AC1012
  9
$DWGCODEPAGE
  3
ansi_932
  9
$INSBASE
 10
0.0
 20
0.0
 30
0.0
  9
$EXTMIN
 10
28.2964705882352
 20
144.4458823529412
 30
0.0
  9
$EXTMAX
 10
200.2964705882352
 20
260.9458823529412
 30
0.0
  9
$LIMMIN
 10
0.0
 20
0.0
  9
$LIMMAX
 10
420.0
 20
297.0
  9
$ORTHOMODE
 70
     0
  9
$REGENMODE
 70
     1
  9
$FILLMODE
 70
     1
  9
$QTEXTMODE
 70
     0
  9
$MIRRTEXT
 70
     0
  9
$DRAGMODE
 70
     2
  9
$LTSCALE
 40
1.0
  9
$OSMODE
 70
   511
  9
$ATTMODE
 70
     1
  9
$TEXTSIZE
 40
2.5
  9
$TRACEWID
 40
1.0
  9
$TEXTSTYLE
  7
STANDARD
  9
$CLAYER
  8
実線
  9
$CELTYPE
  6
CONTINUOUS
  9
$CECOLOR
 62
   256
  9
$CELTSCALE
 40
1.0
  9
$DELOBJ
 70
     1
  9
$DISPSILH
 70
     0
  9
$DIMSCALE
 40
1.0
  9
$DIMASZ
 40
2.5
  9
$DIMEXO
 40
0.625
  9
$DIMDLI
 40
3.75
  9
$DIMRND
 40
0.0
  9
$DIMDLE
 40
0.0
  9
$DIMEXE
 40
1.25
  9
$DIMTP
 40
0.0
  9
$DIMTM
 40
0.0
  9
$DIMTXT
 40
2.5
  9
$DIMCEN
 40
2.5
  9
$DIMTSZ
 40
0.0
  9
$DIMTOL
 70
     0
  9
$DIMLIM
 70
     0
  9
$DIMTIH
 70
     0
  9
$DIMTOH
 70
     0
  9
$DIMSE1
 70
     0
  9
$DIMSE2
 70
     0
  9
$DIMTAD
 70
     1
  9
$DIMZIN
 70
     8
  9
$DIMBLK
  1

  9
$DIMASO
 70
     1
  9
$DIMSHO
 70
     1
  9
$DIMPOST
  1

  9
$DIMAPOST
  1

  9
$DIMALT
 70
     0
  9
$DIMALTD
 70
     3
  9
$DIMALTF
 40
0.03937007874016
  9
$DIMLFAC
 40
1.0
  9
$DIMTOFL
 70
     1
  9
$DIMTVP
 40
0.0
  9
$DIMTIX
 70
     0
  9
$DIMSOXD
 70
     0
  9
$DIMSAH
 70
     0
  9
$DIMBLK1
  1

  9
$DIMBLK2
  1

  9
$DIMSTYLE
  2
ISO-25
  9
$DIMCLRD
 70
     0
  9
$DIMCLRE
 70
     0
  9
$DIMCLRT
 70
     0
  9
$DIMTFAC
 40
1.0
  9
$DIMGAP
 40
0.625
  9
$DIMJUST
 70
     0
  9
$DIMSD1
 70
     0
  9
$DIMSD2
 70
     0
  9
$DIMTOLJ
 70
     0
  9
$DIMTZIN
 70
     8
  9
$DIMALTZ
 70
     0
  9
$DIMALTTZ
 70
     0
  9
$DIMFIT
 70
     5
  9
$DIMUPT
 70
     0
  9
$DIMUNIT
 70
     2
  9
$DIMDEC
 70
     2
  9
$DIMTDEC
 70
     2
  9
$DIMALTU
 70
     2
  9
$DIMALTTD
 70
     3
  9
$DIMTXSTY
  7
STANDARD
  9
$DIMAUNIT
 70
     0
  9
$LUNITS
 70
     2
  9
$LUPREC
 70
     3
  9
$SKETCHINC
 40
1.0
  9
$FILLETRAD
 40
10.0
  9
$AUNITS
 70
     0
  9
$AUPREC
 70
     0
  9
$MENU
  1
.
  9
$ELEVATION
 40
0.0
  9
$PELEVATION
 40
0.0
  9
$THICKNESS
 40
0.0
  9
$LIMCHECK
 70
     0
  9
$CHAMFERA
 40
5.0
  9
$CHAMFERB
 40
5.0
  9
$CHAMFERC
 40
20.0
  9
$CHAMFERD
 40
0.0
  9
$SKPOLY
 70
     0
  9
$TDCREATE
 40
2455023.012359514
  9
$TDUPDATE
 40
2457190.004321401
  9
$TDINDWG
 40
3.6801948958
  9
$TDUSRTIMER
 40
2457189.627414769
  9
$USRTIMER
 70
     1
  9
$ANGBASE
 50
0.0
  9
$ANGDIR
 70
     0
  9
$PDMODE
 70
     0
  9
$PDSIZE
 40
0.0
  9
$PLINEWID
 40
0.0
  9
$COORDS
 70
     1
  9
$SPLFRAME
 70
     0
  9
$SPLINETYPE
 70
     6
  9
$SPLINESEGS
 70
     8
  9
$ATTDIA
 70
     0
  9
$ATTREQ
 70
     1
  9
$HANDLING
 70
     1
  9
$HANDSEED
  5
1BBA
  9
$SURFTAB1
 70
     6
  9
$SURFTAB2
 70
     6
  9
$SURFTYPE
 70
     6
  9
$SURFU
 70
     6
  9
$SURFV
 70
     6
  9
$UCSNAME
  2

  9
$UCSORG
 10
0.0
 20
0.0
 30
0.0
  9
$UCSXDIR
 10
1.0
 20
0.0
 30
0.0
  9
$UCSYDIR
 10
0.0
 20
1.0
 30
0.0
  9
$PUCSNAME
  2

  9
$PUCSORG
 10
0.0
 20
0.0
 30
0.0
  9
$PUCSXDIR
 10
1.0
 20
0.0
 30
0.0
  9
$PUCSYDIR
 10
0.0
 20
1.0
 30
0.0
  9
$USERI1
 70
     0
  9
$USERI2
 70
     0
  9
$USERI3
 70
     0
  9
$USERI4
 70
     0
  9
$USERI5
 70
     0
  9
$USERR1
 40
0.0
  9
$USERR2
 40
0.0
  9
$USERR3
 40
0.0
  9
$USERR4
 40
0.0
  9
$USERR5
 40
0.0
  9
$WORLDVIEW
 70
     1
  9
$SHADEDGE
 70
     3
  9
$SHADEDIF
 70
    70
  9
$TILEMODE
 70
     1
  9
$MAXACTVP
 70
    64
  9
$PINSBASE
 10
0.0
 20
0.0
 30
0.0
  9
$PLIMCHECK
 70
     0
  9
$PEXTMIN
 10
1.000000000000000E+20
 20
1.000000000000000E+20
 30
1.000000000000000E+20
  9
$PEXTMAX
 10
-1.000000000000000E+20
 20
-1.000000000000000E+20
 30
-1.000000000000000E+20
  9
$PLIMMIN
 10
0.0
 20
0.0
  9
$PLIMMAX
 10
0.0
 20
0.0
  9
$UNITMODE
 70
     0
  9
$VISRETAIN
 70
     1
  9
$PLINEGEN
 70
     0
  9
$PSLTSCALE
 70
     1
  9
$TREEDEPTH
 70
  3020
  9
$PICKSTYLE
 70
     0
  9
$CMLSTYLE
  2
STANDARD
  9
$CMLJUST
 70
     0
  9
$CMLSCALE
 40
20.0
  9
$SAVEIMAGES
 70
     1
  0
ENDSEC
  0
SECTION
  2
CLASSES
  0
CLASS
  1
ACDBDICTIONARYWDFLT
  2
AcDbDictionaryWithDefault
  3
ObjectDBX Classes
 90
    32768
280
     0
281
     0
  0
CLASS
  1
VISUALSTYLE
  2
AcDbVisualStyle
  3
ObjectDBX Classes
 90
     4095
280
     0
281
     0
  0
CLASS
  1
TABLESTYLE
  2
AcDbTableStyle
  3
ObjectDBX Classes
 90
     4095
280
     0
281
     0
  0
CLASS
  1
DICTIONARYVAR
  2
AcDbDictionaryVar
  3
ObjectDBX Classes
 90
        0
280
     0
281
     0
  0
CLASS
  1
SCALE
  2
AcDbScale
  3
ObjectDBX Classes
 90
     1153
280
     0
281
     0
  0
CLASS
  1
CELLSTYLEMAP
  2
AcDbCellStyleMap
  3
ObjectDBX Classes
 90
     1152
280
     0
281
     0
  0
CLASS
  1
RASTERVARIABLES
  2
AcDbRasterVariables
  3
ISM
 90
    32768
280
     0
281
     0
  0
CLASS
  1
MATERIAL
  2
AcDbMaterial
  3
ObjectDBX Classes
 90
     1153
280
     0
281
     0
  0
CLASS
  1
SUN
  2
AcDbSun
  3
SCENEOE
 90
     1153
280
     0
281
     0
  0
CLASS
  1
DIMASSOC
  2
AcDbDimAssoc
  3
"AcDbDimAssoc|Product Desc:     AcDim ARX App For Dimension|Company:          Autodesk, Inc.|WEB Address:      www.autodesk.com"
 90
        0
280
     0
281
     0
  0
CLASS
  1
MLEADERSTYLE
  2
AcDbMLeaderStyle
  3
ACDB_MLEADERSTYLE_CLASS
 90
     4095
280
     0
281
     0
  0
CLASS
  1
XRECORD
  2
AcDbXrecord
  3
ObjectDBX Classes
 90
    32768
280
     0
281
     0
  0
ENDSEC
  0
SECTION
  2
TABLES
  0
TABLE
  2
VPORT
  5
8
330
0
100
AcDbSymbolTable
 70
     1
  0
VPORT
  5
29
330
8
100
AcDbSymbolTableRecord
100
AcDbViewportTableRecord
  2
*ACTIVE
 70
     0
 10
0.0
 20
0.0
 11
1.0
 21
1.0
 12
350.569349574447
 22
137.011706736543
 13
0.0
 23
0.0
 14
10.0
 24
10.0
 15
10.0
 25
10.0
 16
0.0
 26
0.0
 36
1.0
 17
-134.1869158878563
 27
0.0
 37
0.0
 40
464.4316636870299
 41
1.234354194407457
 42
50.0
 43
0.0
 44
0.0
 50
0.0
 51
0.0
 71
    16
 72
  1000
 73
     1
 74
     3
 75
     0
 76
     0
 77
     0
 78
     0
  0
ENDTAB
  0
TABLE
  2
LTYPE
  5
5
330
0
100
AcDbSymbolTable
 70
     2
  0
LTYPE
  5
14
330
5
100
AcDbSymbolTableRecord
100
AcDbLinetypeTableRecord
  2
BYBLOCK
 70
     0
  3

 72
    65
 73
     0
 40
0.0
  0
LTYPE
  5
15
330
5
100
AcDbSymbolTableRecord
100
AcDbLinetypeTableRecord
  2
BYLAYER
 70
     0
  3

 72
    65
 73
     0
 40
0.0
  0
LTYPE
  5
16
330
5
100
AcDbSymbolTableRecord
100
AcDbLinetypeTableRecord
  2
CONTINUOUS
 70
     0
  3
Solid line
 72
    65
 73
     0
 40
0.0
  0
LTYPE
  5
BC
330
5
100
AcDbSymbolTableRecord
100
AcDbLinetypeTableRecord
  2
DASHDOT
 70
     0
  3
DashDot __  . __  . __  . __  . __  . __  . __ 
 72
    65
 73
     4
 40
25.4
 49
12.7
 74
     0
 49
-6.35
 74
     0
 49
0.0
 74
     0
 49
-6.35
 74
     0
  0
ENDTAB
  0
TABLE
  2
LAYER
  5
2
102
{ACAD_XDICTIONARY
360
B7
102
}
330
0
100
AcDbSymbolTable
 70
     7
  0
LAYER
  5
10
330
2
100
AcDbSymbolTableRecord
100
AcDbLayerTableRecord
  2
0
 70
     0
 62
     7
  6
CONTINUOUS
  0
LAYER
  5
BA
330
2
100
AcDbSymbolTableRecord
100
AcDbLayerTableRecord
  2
中心線
 70
     0
 62
     1
  6
CONTINUOUS
1001
ACAECLAYERSTANDARD
1000

1000

  0
LAYER
  5
BD
330
2
100
AcDbSymbolTableRecord
100
AcDbLayerTableRecord
  2
外形線
 70
     0
 62
     7
  6
CONTINUOUS
1001
ACAECLAYERSTANDARD
1000

1000

  0
LAYER
  5
BE
330
2
100
AcDbSymbolTableRecord
100
AcDbLayerTableRecord
  2
実線
 70
     0
 62
     7
  6
CONTINUOUS
1001
ACAECLAYERSTANDARD
1000

1000

  0
LAYER
  5
BF
330
2
100
AcDbSymbolTableRecord
100
AcDbLayerTableRecord
  2
補助線
 70
     0
 62
     4
  6
CONTINUOUS
1001
ACAECLAYERSTANDARD
1000

1000

  0
LAYER
  5
C0
330
2
100
AcDbSymbolTableRecord
100
AcDbLayerTableRecord
  2
寸法線
 70
     0
 62
     3
  6
CONTINUOUS
1001
ACAECLAYERSTANDARD
1000

1000

  0
LAYER
  5
107
330
2
100
AcDbSymbolTableRecord
100
AcDbLayerTableRecord
  2
DEFPOINTS
 70
     0
 62
     7
  6
CONTINUOUS
  0
ENDTAB
  0
TABLE
  2
STYLE
  5
3
330
0
100
AcDbSymbolTable
 70
     1
  0
STYLE
  5
11
330
3
100
AcDbSymbolTableRecord
100
AcDbTextStyleTableRecord
  2
STANDARD
 70
     0
 40
0.0
 41
1.0
 50
0.0
 71
     0
 42
2.5
  3
arial.ttf
  4

1001
ACAD
1000
Arial
1071
        0
  0
ENDTAB
  0
TABLE
  2
VIEW
  5
6
330
0
100
AcDbSymbolTable
 70
     0
  0
ENDTAB
  0
TABLE
  2
UCS
  5
7
330
0
100
AcDbSymbolTable
 70
     0
  0
ENDTAB
  0
TABLE
  2
APPID
  5
9
330
0
100
AcDbSymbolTable
 70
     3
  0
APPID
  5
12
330
9
100
AcDbSymbolTableRecord
100
AcDbRegAppTableRecord
  2
ACAD
 70
     0
  0
APPID
  5
BB
330
9
100
AcDbSymbolTableRecord
100
AcDbRegAppTableRecord
  2
ACAECLAYERSTANDARD
 70
     0
  0
APPID
  5
221
330
9
100
AcDbSymbolTableRecord
100
AcDbRegAppTableRecord
  2
ACAD_DSTYLE_DIMRADIAL_EXTE
 70
     0
  0
ENDTAB
  0
TABLE
  2
DIMSTYLE
  5
A
330
0
100
AcDbSymbolTable
 70
     1
  0
DIMSTYLE
105
27
330
A
100
AcDbSymbolTableRecord
100
AcDbDimStyleTableRecord
  2
ISO-25
 70
     0
  3

  4

  5

  6

  7

 40
1.0
 41
2.5
 42
0.625
 43
3.75
 44
1.25
 45
0.0
 46
0.0
 47
0.0
 48
0.0
140
2.5
141
2.5
142
0.0
143
0.03937007874016
144
1.0
145
0.0
146
1.0
147
0.625
 71
     0
 72
     0
 73
     0
 74
     0
 75
     0
 76
     0
 77
     1
 78
     8
170
     0
171
     3
172
     1
173
     0
174
     0
175
     0
176
     0
177
     0
178
     0
270
     2
271
     2
272
     2
273
     2
274
     3
340
11
275
     0
280
     0
281
     0
282
     0
283
     0
284
     8
285
     0
286
     0
287
     3
288
     0
  0
ENDTAB
  0
TABLE
  2
BLOCK_RECORD
  5
1
330
0
100
AcDbSymbolTable
 70
    17
  0
BLOCK_RECORD
  5
1F
330
1
100
AcDbSymbolTableRecord
100
AcDbBlockTableRecord
  2
*MODEL_SPACE
  0
BLOCK_RECORD
  5
1B
330
1
100
AcDbSymbolTableRecord
100
AcDbBlockTableRecord
  2
*PAPER_SPACE
  0
BLOCK_RECORD
  5
23
330
1
100
AcDbSymbolTableRecord
100
AcDbBlockTableRecord
  2
*PAPER_SPACE0
  0
BLOCK_RECORD
  5
15A8
330
1
100
AcDbSymbolTableRecord
100
AcDbBlockTableRecord
  2
*D1
  0
BLOCK_RECORD
  5
15B9
330
1
100
AcDbSymbolTableRecord
100
AcDbBlockTableRecord
  2
*D2
  0
BLOCK_RECORD
  5
15CA
330
1
100
AcDbSymbolTableRecord
100
AcDbBlockTableRecord
  2
*D3
  0
BLOCK_RECORD
  5
15D9
330
1
100
AcDbSymbolTableRecord
100
AcDbBlockTableRecord
  2
*D4
  0
BLOCK_RECORD
  5
15EE
330
1
100
AcDbSymbolTableRecord
100
AcDbBlockTableRecord
  2
*D5
  0
BLOCK_RECORD
  5
1607
330
1
100
AcDbSymbolTableRecord
100
AcDbBlockTableRecord
  2
*D6
  0
BLOCK_RECORD
  5
1618
330
1
100
AcDbSymbolTableRecord
100
AcDbBlockTableRecord
  2
*D7
  0
BLOCK_RECORD
  5
162B
330
1
100
AcDbSymbolTableRecord
100
AcDbBlockTableRecord
  2
*D8
  0
BLOCK_RECORD
  5
1643
330
1
100
AcDbSymbolTableRecord
100
AcDbBlockTableRecord
  2
*D9
  0
BLOCK_RECORD
  5
1655
330
1
100
AcDbSymbolTableRecord
100
AcDbBlockTableRecord
  2
*D10
  0
BLOCK_RECORD
  5
1664
330
1
100
AcDbSymbolTableRecord
100
AcDbBlockTableRecord
  2
*D11
  0
BLOCK_RECORD
  5
1742
330
1
100
AcDbSymbolTableRecord
100
AcDbBlockTableRecord
  2
*D12
  0
BLOCK_RECORD
  5
1751
330
1
100
AcDbSymbolTableRecord
100
AcDbBlockTableRecord
  2
*D13
  0
BLOCK_RECORD
  5
176C
330
1
100
AcDbSymbolTableRecord
100
AcDbBlockTableRecord
  2
*D14
  0
BLOCK_RECORD
  5
18C7
330
1
100
AcDbSymbolTableRecord
100
AcDbBlockTableRecord
  2
*D15
  0
BLOCK_RECORD
  5
18DE
330
1
100
AcDbSymbolTableRecord
100
AcDbBlockTableRecord
  2
*D16
  0
ENDTAB
  0
ENDSEC
  0
SECTION
  2
BLOCKS
  0
BLOCK
  5
20
330
1F
100
AcDbEntity
  8
0
100
AcDbBlockBegin
  2
*MODEL_SPACE
 70
     0
 10
0.0
 20
0.0
 30
0.0
  3
*MODEL_SPACE
  1

  0
ENDBLK
  5
21
330
1F
100
AcDbEntity
  8
0
100
AcDbBlockEnd
  0
BLOCK
  5
1C
330
1B
100
AcDbEntity
 67
     1
  8
0
100
AcDbBlockBegin
  2
*PAPER_SPACE
 70
     0
 10
0.0
 20
0.0
 30
0.0
  3
*PAPER_SPACE
  1

  0
ENDBLK
  5
1D
330
1B
100
AcDbEntity
 67
     1
  8
0
100
AcDbBlockEnd
  0
BLOCK
  5
24
330
23
100
AcDbEntity
  8
0
100
AcDbBlockBegin
  2
*PAPER_SPACE0
 70
     0
 10
0.0
 20
0.0
 30
0.0
  3
*PAPER_SPACE0
  1
*PAPER_SPACE0
  0
ENDBLK
  5
25
330
23
100
AcDbEntity
  8
0
100
AcDbBlockEnd
  0
BLOCK
  5
15A9
330
15A8
100
AcDbEntity
  8
0
100
AcDbBlockBegin
  2
*D1
 70
     1
 10
0.0
 20
0.0
 30
0.0
  3
*D1
  1
*D39
  0
LINE
  5
15AB
330
15A8
100
AcDbEntity
  8
実線
  6
CONTINUOUS
 62
     0
100
AcDbLine
 10
444.0704330295838
 20
-445.3260585538405
 30
0.0
 11
444.0704330295838
 21
-438.1902418838916
 31
0.0
  0
LINE
  5
15AC
330
15A8
100
AcDbEntity
  8
実線
  6
CONTINUOUS
 62
     0
100
AcDbLine
 10
462.5850218718995
 20
-445.3260585538405
 30
0.0
 11
462.5850218718995
 21
-438.1902418838916
 31
0.0
  0
LINE
  5
15AD
330
15A8
100
AcDbEntity
  8
実線
  6
CONTINUOUS
 62
     0
100
AcDbLine
 10
446.5704330295838
 20
-439.4402418838916
 30
0.0
 11
460.0850218718995
 21
-439.4402418838916
 31
0.0
  0
SOLID
  5
15AE
330
15A8
100
AcDbEntity
  8
実線
 62
     0
100
AcDbTrace
 10
446.5704330295838
 20
-439.023575217225
 30
0.0
 11
446.5704330295838
 21
-439.8569085505583
 31
0.0
 12
444.0704330295838
 22
-439.4402418838916
 32
0.0
 13
444.0704330295838
 23
-439.4402418838916
 33
0.0
  0
SOLID
  5
15AF
330
15A8
100
AcDbEntity
  8
実線
 62
     0
100
AcDbTrace
 10
460.0850218718995
 20
-439.8569085505583
 30
0.0
 11
460.0850218718995
 21
-439.023575217225
 31
0.0
 12
462.5850218718995
 22
-439.4402418838916
 32
0.0
 13
462.5850218718995
 23
-439.4402418838916
 33
0.0
  0
MTEXT
  5
15B0
330
15A8
100
AcDbEntity
  8
実線
  6
CONTINUOUS
 62
     0
100
AcDbMText
 10
453.3277274507416
 20
-437.3139918838916
 30
0.0
 40
2.5
 41
0.0
 71
     5
 72
     1
  1
18,51
  0
POINT
  5
15B1
330
15A8
100
AcDbEntity
  8
DEFPOINTS
 62
     0
100
AcDbPoint
 10
444.0704330295838
 20
-445.9510585538405
 30
0.0
  0
POINT
  5
15B2
330
15A8
100
AcDbEntity
  8
DEFPOINTS
 62
     0
100
AcDbPoint
 10
462.5850218718995
 20
-445.9510585538405
 30
0.0
  0
POINT
  5
15B3
330
15A8
100
AcDbEntity
  8
DEFPOINTS
 62
     0
100
AcDbPoint
 10
462.5850218718995
 20
-439.4402418838916
 30
0.0
  0
ENDBLK
  5
15AA
330
15A8
100
AcDbEntity
  8
0
100
AcDbBlockEnd
  0
BLOCK
  5
15BA
330
15B9
100
AcDbEntity
  8
0
100
AcDbBlockBegin
  2
*D2
 70
     1
 10
0.0
 20
0.0
 30
0.0
  3
*D2
  1
*D40
  0
LINE
  5
15BC
330
15B9
100
AcDbEntity
  8
実線
  6
CONTINUOUS
 62
     0
100
AcDbLine
 10
446.7083083794856
 20
-28.59996732229268
 30
0.0
 11
446.7083083794856
 21
-37.89973583458587
 31
0.0
  0
LINE
  5
15BD
330
15B9
100
AcDbEntity
  8
実線
  6
CONTINUOUS
 62
     0
100
AcDbLine
 10
465.7083083794856
 20
-28.59996732229268
 30
0.0
 11
465.7083083794856
 21
-37.89973583458587
 31
0.0
  0
LINE
  5
15BE
330
15B9
100
AcDbEntity
  8
実線
  6
CONTINUOUS
 62
     0
100
AcDbLine
 10
449.2083083794856
 20
-36.64973583458587
 30
0.0
 11
463.2083083794856
 21
-36.64973583458587
 31
0.0
  0
SOLID
  5
15BF
330
15B9
100
AcDbEntity
  8
実線
 62
     0
100
AcDbTrace
 10
449.2083083794856
 20
-36.2330691679192
 30
0.0
 11
449.2083083794856
 21
-37.06640250125253
 31
0.0
 12
446.7083083794856
 22
-36.64973583458587
 32
0.0
 13
446.7083083794856
 23
-36.64973583458587
 33
0.0
  0
SOLID
  5
15C0
330
15B9
100
AcDbEntity
  8
実線
 62
     0
100
AcDbTrace
 10
463.2083083794856
 20
-37.06640250125253
 30
0.0
 11
463.2083083794856
 21
-36.2330691679192
 31
0.0
 12
465.7083083794856
 22
-36.64973583458587
 32
0.0
 13
465.7083083794856
 23
-36.64973583458587
 33
0.0
  0
MTEXT
  5
15C1
330
15B9
100
AcDbEntity
  8
実線
  6
CONTINUOUS
 62
     0
100
AcDbMText
 10
456.2083083794856
 20
-34.74848583458587
 30
0.0
 40
2.5
 41
0.0
 71
     5
 72
     1
  1
19
  0
POINT
  5
15C2
330
15B9
100
AcDbEntity
  8
DEFPOINTS
 62
     0
100
AcDbPoint
 10
446.7083083794856
 20
-27.97496732229268
 30
0.0
  0
POINT
  5
15C3
330
15B9
100
AcDbEntity
  8
DEFPOINTS
 62
     0
100
AcDbPoint
 10
465.7083083794856
 20
-27.97496732229268
 30
0.0
  0
POINT
  5
15C4
330
15B9
100
AcDbEntity
  8
DEFPOINTS
 62
     0
100
AcDbPoint
 10
465.7083083794856
 20
-36.64973583458587
 30
0.0
  0
ENDBLK
  5
15BB
330
15B9
100
AcDbEntity
  8
0
100
AcDbBlockEnd
  0
BLOCK
  5
15CB
330
15CA
100
AcDbEntity
  8
0
100
AcDbBlockBegin
  2
*D3
 70
     1
 10
0.0
 20
0.0
 30
0.0
  3
*D3
  1
*D41
  0
LINE
  5
15CD
330
15CA
100
AcDbEntity
  8
実線
  6
CONTINUOUS
 62
     0
100
AcDbLine
 10
168.9505411064642
 20
-235.5503843071115
 30
0.0
 11
245.0761679782515
 21
-235.5503843071115
 31
0.0
  0
LINE
  5
15CE
330
15CA
100
AcDbEntity
  8
実線
  6
CONTINUOUS
 62
     0
100
AcDbLine
 10
168.9505411064642
 20
-184.5503843071115
 30
0.0
 11
245.0761679782515
 21
-184.5503843071115
 31
0.0
  0
LINE
  5
15CF
330
15CA
100
AcDbEntity
  8
実線
  6
CONTINUOUS
 62
     0
100
AcDbLine
 10
243.8261679782515
 20
-233.0503843071115
 30
0.0
 11
243.8261679782515
 21
-187.0503843071115
 31
0.0
  0
SOLID
  5
15D0
330
15CA
100
AcDbEntity
  8
実線
 62
     0
100
AcDbTrace
 10
243.4095013115848
 20
-233.0503843071115
 30
0.0
 11
244.2428346449181
 21
-233.0503843071115
 31
0.0
 12
243.8261679782515
 22
-235.5503843071115
 32
0.0
 13
243.8261679782515
 23
-235.5503843071115
 33
0.0
  0
SOLID
  5
15D1
330
15CA
100
AcDbEntity
  8
実線
 62
     0
100
AcDbTrace
 10
244.2428346449181
 20
-187.0503843071115
 30
0.0
 11
243.4095013115848
 21
-187.0503843071115
 31
0.0
 12
243.8261679782515
 22
-184.5503843071115
 32
0.0
 13
243.8261679782515
 23
-184.5503843071115
 33
0.0
  0
MTEXT
  5
15D2
330
15CA
100
AcDbEntity
  8
実線
  6
CONTINUOUS
 62
     0
100
AcDbMText
 10
241.9249179782515
 20
-210.0503843071115
 30
0.0
 40
2.5
 41
0.0
 71
     5
 72
     1
  1
51
 11
0.0
 21
1.0
 31
0.0
  0
POINT
  5
15D3
330
15CA
100
AcDbEntity
  8
DEFPOINTS
 62
     0
100
AcDbPoint
 10
168.3255411064642
 20
-235.5503843071115
 30
0.0
  0
POINT
  5
15D4
330
15CA
100
AcDbEntity
  8
DEFPOINTS
 62
     0
100
AcDbPoint
 10
168.3255411064642
 20
-184.5503843071115
 30
0.0
  0
POINT
  5
15D5
330
15CA
100
AcDbEntity
  8
DEFPOINTS
 62
     0
100
AcDbPoint
 10
243.8261679782515
 20
-184.5503843071115
 30
0.0
  0
ENDBLK
  5
15CC
330
15CA
100
AcDbEntity
  8
0
100
AcDbBlockEnd
  0
BLOCK
  5
15DA
330
15D9
100
AcDbEntity
  8
0
100
AcDbBlockBegin
  2
*D4
 70
     1
 10
0.0
 20
0.0
 30
0.0
  3
*D4
  1
*D42
  0
LINE
  5
15DC
330
15D9
100
AcDbEntity
  8
実線
  6
CONTINUOUS
 62
     0
100
AcDbLine
 10
168.9505411064642
 20
-184.5503843071115
 30
0.0
 11
181.0755411064642
 21
-184.5503843071115
 31
0.0
  0
LINE
  5
15DD
330
15D9
100
AcDbEntity
  8
実線
  6
CONTINUOUS
 62
     0
100
AcDbLine
 10
168.9505411064642
 20
-170.5503843071115
 30
0.0
 11
181.0755411064642
 21
-170.5503843071115
 31
0.0
  0
LINE
  5
15DE
330
15D9
100
AcDbEntity
  8
実線
  6
CONTINUOUS
 62
     0
100
AcDbLine
 10
179.8255411064642
 20
-182.0503843071115
 30
0.0
 11
179.8255411064642
 21
-173.0503843071115
 31
0.0
  0
SOLID
  5
15DF
330
15D9
100
AcDbEntity
  8
実線
 62
     0
100
AcDbTrace
 10
179.4088744397975
 20
-182.0503843071115
 30
0.0
 11
180.2422077731308
 21
-182.0503843071115
 31
0.0
 12
179.8255411064642
 22
-184.5503843071115
 32
0.0
 13
179.8255411064642
 23
-184.5503843071115
 33
0.0
  0
SOLID
  5
15E0
330
15D9
100
AcDbEntity
  8
実線
 62
     0
100
AcDbTrace
 10
180.2422077731308
 20
-173.0503843071115
 30
0.0
 11
179.4088744397975
 21
-173.0503843071115
 31
0.0
 12
179.8255411064642
 22
-170.5503843071115
 32
0.0
 13
179.8255411064642
 23
-170.5503843071115
 33
0.0
  0
MTEXT
  5
15E1
330
15D9
100
AcDbEntity
  8
実線
  6
CONTINUOUS
 62
     0
100
AcDbMText
 10
177.9455411064642
 20
-177.5503843071115
 30
0.0
 40
2.5
 41
0.0
 71
     5
 72
     1
  1
14
 11
0.0
 21
1.0
 31
0.0
  0
POINT
  5
15E2
330
15D9
100
AcDbEntity
  8
DEFPOINTS
 62
     0
100
AcDbPoint
 10
168.3255411064642
 20
-184.5503843071115
 30
0.0
  0
POINT
  5
15E3
330
15D9
100
AcDbEntity
  8
DEFPOINTS
 62
     0
100
AcDbPoint
 10
168.3255411064642
 20
-170.5503843071115
 30
0.0
  0
POINT
  5
15E4
330
15D9
100
AcDbEntity
  8
DEFPOINTS
 62
     0
100
AcDbPoint
 10
179.8255411064642
 20
-170.5503843071115
 30
0.0
  0
ENDBLK
  5
15DB
330
15D9
100
AcDbEntity
  8
0
100
AcDbBlockEnd
  0
BLOCK
  5
15EF
330
15EE
100
AcDbEntity
  8
0
100
AcDbBlockBegin
  2
*D5
 70
     1
 10
0.0
 20
0.0
 30
0.0
  3
*D5
  1
*D43
  0
LINE
  5
15F1
330
15EE
100
AcDbEntity
  8
実線
  6
CONTINUOUS
 62
     0
100
AcDbLine
 10
451.3777274507418
 20
-458.3760585538406
 30
0.0
 11
451.3777274507418
 21
-455.0440175677631
 31
0.0
  0
LINE
  5
15F2
330
15EE
100
AcDbEntity
  8
実線
  6
CONTINUOUS
 62
     0
100
AcDbLine
 10
455.2777274507417
 20
-458.3760585538406
 30
0.0
 11
455.2777274507417
 21
-455.0440175677631
 31
0.0
  0
LINE
  5
15F3
330
15EE
100
AcDbEntity
  8
実線
  6
CONTINUOUS
 62
     0
100
AcDbLine
 10
457.7777274507417
 20
-456.2940175677631
 30
0.0
 11
466.0777274507417
 21
-456.2940175677631
 31
0.0
  0
LINE
  5
15F4
330
15EE
100
AcDbEntity
  8
実線
  6
CONTINUOUS
 62
     0
100
AcDbLine
 10
451.3777274507418
 20
-456.2940175677631
 30
0.0
 11
455.2777274507417
 21
-456.2940175677631
 31
0.0
  0
LINE
  5
15F5
330
15EE
100
AcDbEntity
  8
実線
  6
CONTINUOUS
 62
     0
100
AcDbLine
 10
448.8777274507418
 20
-456.2940175677631
 30
0.0
 11
446.3777274507418
 21
-456.2940175677631
 31
0.0
  0
SOLID
  5
15F6
330
15EE
100
AcDbEntity
  8
実線
 62
     0
100
AcDbTrace
 10
448.8777274507418
 20
-456.7106842344298
 30
0.0
 11
448.8777274507418
 21
-455.8773509010965
 31
0.0
 12
451.3777274507418
 22
-456.2940175677631
 32
0.0
 13
451.3777274507418
 23
-456.2940175677631
 33
0.0
  0
SOLID
  5
15F7
330
15EE
100
AcDbEntity
  8
実線
 62
     0
100
AcDbTrace
 10
457.7777274507417
 20
-455.8773509010965
 30
0.0
 11
457.7777274507417
 21
-456.7106842344298
 31
0.0
 12
455.2777274507417
 22
-456.2940175677631
 32
0.0
 13
455.2777274507417
 23
-456.2940175677631
 33
0.0
  0
MTEXT
  5
15F8
330
15EE
100
AcDbEntity
  8
実線
  6
CONTINUOUS
 62
     0
100
AcDbMText
 10
463.1777274507417
 20
-454.1677675677631
 30
0.0
 40
2.5
 41
0.0
 71
     5
 72
     1
  1
3,9
  0
POINT
  5
15F9
330
15EE
100
AcDbEntity
  8
DEFPOINTS
 62
     0
100
AcDbPoint
 10
451.3777274507418
 20
-459.0010585538406
 30
0.0
  0
POINT
  5
15FA
330
15EE
100
AcDbEntity
  8
DEFPOINTS
 62
     0
100
AcDbPoint
 10
455.2777274507417
 20
-459.0010585538406
 30
0.0
  0
POINT
  5
15FB
330
15EE
100
AcDbEntity
  8
DEFPOINTS
 62
     0
100
AcDbPoint
 10
455.2777274507417
 20
-456.2940175677631
 30
0.0
  0
ENDBLK
  5
15F0
330
15EE
100
AcDbEntity
  8
0
100
AcDbBlockEnd
  0
BLOCK
  5
1608
330
1607
100
AcDbEntity
  8
0
100
AcDbBlockBegin
  2
*D6
 70
     1
 10
0.0
 20
0.0
 30
0.0
  3
*D6
  1
*D44
  0
LINE
  5
160A
330
1607
100
AcDbEntity
  8
実線
  6
CONTINUOUS
 62
     0
100
AcDbLine
 10
543.0987342823653
 20
-178.130991498217
 30
0.0
 11
551.984731492232
 21
-178.130991498217
 31
0.0
  0
LINE
  5
160B
330
1607
100
AcDbEntity
  8
実線
  6
CONTINUOUS
 62
     0
100
AcDbLine
 10
543.0987342823653
 20
-191.130991498217
 30
0.0
 11
551.984731492232
 21
-191.130991498217
 31
0.0
  0
LINE
  5
160C
330
1607
100
AcDbEntity
  8
実線
  6
CONTINUOUS
 62
     0
100
AcDbLine
 10
550.734731492232
 20
-180.630991498217
 30
0.0
 11
550.734731492232
 21
-188.630991498217
 31
0.0
  0
SOLID
  5
160D
330
1607
100
AcDbEntity
  8
実線
 62
     0
100
AcDbTrace
 10
551.1513981588986
 20
-180.630991498217
 30
0.0
 11
550.3180648255653
 21
-180.630991498217
 31
0.0
 12
550.734731492232
 22
-178.130991498217
 32
0.0
 13
550.734731492232
 23
-178.130991498217
 33
0.0
  0
SOLID
  5
160E
330
1607
100
AcDbEntity
  8
実線
 62
     0
100
AcDbTrace
 10
550.3180648255653
 20
-188.630991498217
 30
0.0
 11
551.1513981588986
 21
-188.630991498217
 31
0.0
 12
550.734731492232
 22
-191.130991498217
 32
0.0
 13
550.734731492232
 23
-191.130991498217
 33
0.0
  0
MTEXT
  5
160F
330
1607
100
AcDbEntity
  8
実線
  6
CONTINUOUS
 62
     0
100
AcDbMText
 10
548.833481492232
 20
-184.630991498217
 30
0.0
 40
2.5
 41
0.0
 71
     5
 72
     1
  1
13
 11
0.0
 21
1.0
 31
0.0
  0
POINT
  5
1610
330
1607
100
AcDbEntity
  8
DEFPOINTS
 62
     0
100
AcDbPoint
 10
542.4737342823653
 20
-178.130991498217
 30
0.0
  0
POINT
  5
1611
330
1607
100
AcDbEntity
  8
DEFPOINTS
 62
     0
100
AcDbPoint
 10
542.4737342823653
 20
-191.130991498217
 30
0.0
  0
POINT
  5
1612
330
1607
100
AcDbEntity
  8
DEFPOINTS
 62
     0
100
AcDbPoint
 10
550.734731492232
 20
-191.130991498217
 30
0.0
  0
ENDBLK
  5
1609
330
1607
100
AcDbEntity
  8
0
100
AcDbBlockEnd
  0
BLOCK
  5
1619
330
1618
100
AcDbEntity
  8
0
100
AcDbBlockBegin
  2
*D7
 70
     1
 10
0.0
 20
0.0
 30
0.0
  3
*D7
  1
*D45
  0
LINE
  5
161B
330
1618
100
AcDbEntity
  8
実線
  6
CONTINUOUS
 62
     0
100
AcDbLine
 10
517.1487342823652
 20
-169.630991498217
 30
0.0
 11
523.5584613895045
 21
-169.630991498217
 31
0.0
  0
LINE
  5
161C
330
1618
100
AcDbEntity
  8
実線
  6
CONTINUOUS
 62
     0
100
AcDbLine
 10
517.1487342823652
 20
-199.630991498217
 30
0.0
 11
523.5584613895045
 21
-199.630991498217
 31
0.0
  0
LINE
  5
161D
330
1618
100
AcDbEntity
  8
実線
  6
CONTINUOUS
 62
     0
100
AcDbLine
 10
522.3084613895045
 20
-172.130991498217
 30
0.0
 11
522.3084613895045
 21
-197.130991498217
 31
0.0
  0
SOLID
  5
161E
330
1618
100
AcDbEntity
  8
実線
 62
     0
100
AcDbTrace
 10
522.7251280561711
 20
-172.130991498217
 30
0.0
 11
521.8917947228379
 21
-172.130991498217
 31
0.0
 12
522.3084613895045
 22
-169.630991498217
 32
0.0
 13
522.3084613895045
 23
-169.630991498217
 33
0.0
  0
SOLID
  5
161F
330
1618
100
AcDbEntity
  8
実線
 62
     0
100
AcDbTrace
 10
521.8917947228379
 20
-197.130991498217
 30
0.0
 11
522.7251280561711
 21
-197.130991498217
 31
0.0
 12
522.3084613895045
 22
-199.630991498217
 32
0.0
 13
522.3084613895045
 23
-199.630991498217
 33
0.0
  0
MTEXT
  5
1620
330
1618
100
AcDbEntity
  8
実線
  6
CONTINUOUS
 62
     0
100
AcDbMText
 10
520.4072113895045
 20
-184.630991498217
 30
0.0
 40
2.5
 41
0.0
 71
     5
 72
     1
  1
30
 11
0.0
 21
1.0
 31
0.0
  0
POINT
  5
1621
330
1618
100
AcDbEntity
  8
DEFPOINTS
 62
     0
100
AcDbPoint
 10
516.5237342823652
 20
-169.630991498217
 30
0.0
  0
POINT
  5
1622
330
1618
100
AcDbEntity
  8
DEFPOINTS
 62
     0
100
AcDbPoint
 10
516.5237342823652
 20
-199.630991498217
 30
0.0
  0
POINT
  5
1623
330
1618
100
AcDbEntity
  8
DEFPOINTS
 62
     0
100
AcDbPoint
 10
522.3084613895045
 20
-199.630991498217
 30
0.0
  0
ENDBLK
  5
161A
330
1618
100
AcDbEntity
  8
0
100
AcDbBlockEnd
  0
BLOCK
  5
162C
330
162B
100
AcDbEntity
  8
0
100
AcDbBlockBegin
  2
*D8
 70
     1
 10
0.0
 20
0.0
 30
0.0
  3
*D8
  1
*D46
  0
LINE
  5
162E
330
162B
100
AcDbEntity
  8
実線
  6
CONTINUOUS
 62
     0
100
AcDbLine
 10
353.0244366724575
 20
-138.5330323465985
 30
0.0
 11
364.0614767686551
 21
-138.5330323465985
 31
0.0
  0
LINE
  5
162F
330
162B
100
AcDbEntity
  8
実線
  6
CONTINUOUS
 62
     0
100
AcDbLine
 10
353.0244366724575
 20
-8.533032346598532
 30
0.0
 11
364.0614767686551
 21
-8.533032346598532
 31
0.0
  0
LINE
  5
1630
330
162B
100
AcDbEntity
  8
実線
  6
CONTINUOUS
 62
     0
100
AcDbLine
 10
362.8114767686551
 20
-136.0330323465985
 30
0.0
 11
362.8114767686551
 21
-11.03303234659853
 31
0.0
  0
SOLID
  5
1631
330
162B
100
AcDbEntity
  8
実線
 62
     0
100
AcDbTrace
 10
362.3948101019884
 20
-136.0330323465985
 30
0.0
 11
363.2281434353218
 21
-136.0330323465985
 31
0.0
 12
362.8114767686551
 22
-138.5330323465985
 32
0.0
 13
362.8114767686551
 23
-138.5330323465985
 33
0.0
  0
SOLID
  5
1632
330
162B
100
AcDbEntity
  8
実線
 62
     0
100
AcDbTrace
 10
363.2281434353218
 20
-11.03303234659853
 30
0.0
 11
362.3948101019884
 21
-11.03303234659853
 31
0.0
 12
362.8114767686551
 22
-8.533032346598532
 32
0.0
 13
362.8114767686551
 23
-8.533032346598532
 33
0.0
  0
MTEXT
  5
1633
330
162B
100
AcDbEntity
  8
実線
  6
CONTINUOUS
 62
     0
100
AcDbMText
 10
360.9102267686551
 20
-73.5330323465985
 30
0.0
 40
2.5
 41
0.0
 71
     5
 72
     1
  1
130
 11
0.0
 21
1.0
 31
0.0
  0
POINT
  5
1634
330
162B
100
AcDbEntity
  8
DEFPOINTS
 62
     0
100
AcDbPoint
 10
352.3994366724575
 20
-138.5330323465985
 30
0.0
  0
POINT
  5
1635
330
162B
100
AcDbEntity
  8
DEFPOINTS
 62
     0
100
AcDbPoint
 10
352.3994366724575
 20
-8.533032346598532
 30
0.0
  0
POINT
  5
1636
330
162B
100
AcDbEntity
  8
DEFPOINTS
 62
     0
100
AcDbPoint
 10
362.8114767686551
 20
-8.533032346598532
 30
0.0
  0
ENDBLK
  5
162D
330
162B
100
AcDbEntity
  8
0
100
AcDbBlockEnd
  0
BLOCK
  5
1644
330
1643
100
AcDbEntity
  8
0
100
AcDbBlockBegin
  2
*D9
 70
     1
 10
0.0
 20
0.0
 30
0.0
  3
*D9
  1
*D47
  0
LINE
  5
1646
330
1643
100
AcDbEntity
  8
実線
  6
CONTINUOUS
 62
     0
100
AcDbLine
 10
351.0744366724572
 20
-59.53303234659847
 30
0.0
 11
355.9637845034098
 21
-59.53303234659847
 31
0.0
  0
LINE
  5
1647
330
1643
100
AcDbEntity
  8
実線
  6
CONTINUOUS
 62
     0
100
AcDbLine
 10
351.0744366724572
 20
-87.53303234659859
 30
0.0
 11
355.9637845034098
 21
-87.53303234659859
 31
0.0
  0
LINE
  5
1648
330
1643
100
AcDbEntity
  8
実線
  6
CONTINUOUS
 62
     0
100
AcDbLine
 10
354.7137845034098
 20
-62.03303234659847
 30
0.0
 11
354.7137845034098
 21
-85.03303234659859
 31
0.0
  0
SOLID
  5
1649
330
1643
100
AcDbEntity
  8
実線
 62
     0
100
AcDbTrace
 10
355.1304511700765
 20
-62.03303234659847
 30
0.0
 11
354.2971178367431
 21
-62.03303234659847
 31
0.0
 12
354.7137845034098
 22
-59.53303234659847
 32
0.0
 13
354.7137845034098
 23
-59.53303234659847
 33
0.0
  0
SOLID
  5
164A
330
1643
100
AcDbEntity
  8
実線
 62
     0
100
AcDbTrace
 10
354.2971178367431
 20
-85.03303234659859
 30
0.0
 11
355.1304511700765
 21
-85.03303234659859
 31
0.0
 12
354.7137845034098
 22
-87.53303234659859
 32
0.0
 13
354.7137845034098
 23
-87.53303234659859
 33
0.0
  0
MTEXT
  5
164B
330
1643
100
AcDbEntity
  8
実線
  6
CONTINUOUS
 62
     0
100
AcDbMText
 10
352.8125345034098
 20
-73.53303234659853
 30
0.0
 40
2.5
 41
0.0
 71
     5
 72
     1
  1
28
 11
0.0
 21
1.0
 31
0.0
  0
POINT
  5
164C
330
1643
100
AcDbEntity
  8
DEFPOINTS
 62
     0
100
AcDbPoint
 10
350.4494366724572
 20
-59.53303234659847
 30
0.0
  0
POINT
  5
164D
330
1643
100
AcDbEntity
  8
DEFPOINTS
 62
     0
100
AcDbPoint
 10
350.4494366724572
 20
-87.53303234659859
 30
0.0
  0
POINT
  5
164E
330
1643
100
AcDbEntity
  8
DEFPOINTS
 62
     0
100
AcDbPoint
 10
354.7137845034098
 20
-87.53303234659859
 30
0.0
  0
ENDBLK
  5
1645
330
1643
100
AcDbEntity
  8
0
100
AcDbBlockEnd
  0
BLOCK
  5
1656
330
1655
100
AcDbEntity
  8
0
100
AcDbBlockBegin
  2
*D10
 70
     1
 10
0.0
 20
0.0
 30
0.0
  3
*D10
  1
*D48
  0
LINE
  5
1658
330
1655
100
AcDbEntity
  8
実線
  6
CONTINUOUS
 62
     0
100
AcDbLine
 10
876.5442146473276
 20
-472.0445515677978
 30
0.0
 11
881.9446448274185
 21
-472.0445515677978
 31
0.0
  0
LINE
  5
1659
330
1655
100
AcDbEntity
  8
実線
  6
CONTINUOUS
 62
     0
100
AcDbLine
 10
868.9942146473277
 20
-452.0445515677978
 30
0.0
 11
881.9446448274185
 21
-452.0445515677978
 31
0.0
  0
LINE
  5
165A
330
1655
100
AcDbEntity
  8
実線
  6
CONTINUOUS
 62
     0
100
AcDbLine
 10
880.6946448274185
 20
-469.5445515677978
 30
0.0
 11
880.6946448274185
 21
-454.5445515677978
 31
0.0
  0
SOLID
  5
165B
330
1655
100
AcDbEntity
  8
実線
 62
     0
100
AcDbTrace
 10
880.2779781607519
 20
-469.5445515677978
 30
0.0
 11
881.1113114940852
 21
-469.5445515677978
 31
0.0
 12
880.6946448274185
 22
-472.0445515677978
 32
0.0
 13
880.6946448274185
 23
-472.0445515677978
 33
0.0
  0
SOLID
  5
165C
330
1655
100
AcDbEntity
  8
実線
 62
     0
100
AcDbTrace
 10
881.1113114940852
 20
-454.5445515677978
 30
0.0
 11
880.2779781607519
 21
-454.5445515677978
 31
0.0
 12
880.6946448274185
 22
-452.0445515677978
 32
0.0
 13
880.6946448274185
 23
-452.0445515677978
 33
0.0
  0
MTEXT
  5
165D
330
1655
100
AcDbEntity
  8
実線
  6
CONTINUOUS
 62
     0
100
AcDbMText
 10
878.7933948274185
 20
-462.0445515677978
 30
0.0
 40
2.5
 41
0.0
 71
     5
 72
     1
  1
20
 11
0.0
 21
1.0
 31
0.0
  0
POINT
  5
165E
330
1655
100
AcDbEntity
  8
DEFPOINTS
 62
     0
100
AcDbPoint
 10
875.9192146473276
 20
-472.0445515677978
 30
0.0
  0
POINT
  5
165F
330
1655
100
AcDbEntity
  8
DEFPOINTS
 62
     0
100
AcDbPoint
 10
868.3692146473277
 20
-452.0445515677978
 30
0.0
  0
POINT
  5
1660
330
1655
100
AcDbEntity
  8
DEFPOINTS
 62
     0
100
AcDbPoint
 10
880.6946448274185
 20
-452.0445515677978
 30
0.0
  0
ENDBLK
  5
1657
330
1655
100
AcDbEntity
  8
0
100
AcDbBlockEnd
  0
BLOCK
  5
1665
330
1664
100
AcDbEntity
  8
0
100
AcDbBlockBegin
  2
*D11
 70
     1
 10
0.0
 20
0.0
 30
0.0
  3
*D11
  1
*D49
  0
LINE
  5
1667
330
1664
100
AcDbEntity
  8
実線
  6
CONTINUOUS
 62
     0
100
AcDbLine
 10
353.0244366724575
 20
-138.5330323465985
 30
0.0
 11
376.5179360638527
 21
-138.5330323465985
 31
0.0
  0
LINE
  5
1668
330
1664
100
AcDbEntity
  8
実線
  6
CONTINUOUS
 62
     0
100
AcDbLine
 10
401.8244366724576
 20
-90.48303234659852
 30
0.0
 11
374.0179360638527
 21
-90.48303234659852
 31
0.0
  0
LINE
  5
1669
330
1664
100
AcDbEntity
  8
実線
  6
CONTINUOUS
 62
     0
100
AcDbLine
 10
375.2679360638527
 20
-136.0330323465985
 30
0.0
 11
375.2679360638527
 21
-92.98303234659852
 31
0.0
  0
SOLID
  5
166A
330
1664
100
AcDbEntity
  8
実線
 62
     0
100
AcDbTrace
 10
374.8512693971861
 20
-136.0330323465985
 30
0.0
 11
375.6846027305194
 21
-136.0330323465985
 31
0.0
 12
375.2679360638527
 22
-138.5330323465985
 32
0.0
 13
375.2679360638527
 23
-138.5330323465985
 33
0.0
  0
SOLID
  5
166B
330
1664
100
AcDbEntity
  8
実線
 62
     0
100
AcDbTrace
 10
375.6846027305194
 20
-92.98303234659852
 30
0.0
 11
374.8512693971861
 21
-92.98303234659852
 31
0.0
 12
375.2679360638527
 22
-90.48303234659852
 32
0.0
 13
375.2679360638527
 23
-90.48303234659852
 33
0.0
  0
MTEXT
  5
166C
330
1664
100
AcDbEntity
  8
実線
  6
CONTINUOUS
 62
     0
100
AcDbMText
 10
373.1416860638527
 20
-114.5080323465985
 30
0.0
 40
2.5
 41
0.0
 71
     5
 72
     1
  1
48,05
 11
0.0
 21
1.0
 31
0.0
  0
POINT
  5
166D
330
1664
100
AcDbEntity
  8
DEFPOINTS
 62
     0
100
AcDbPoint
 10
352.3994366724575
 20
-138.5330323465985
 30
0.0
  0
POINT
  5
166E
330
1664
100
AcDbEntity
  8
DEFPOINTS
 62
     0
100
AcDbPoint
 10
402.4494366724576
 20
-90.48303234659852
 30
0.0
  0
POINT
  5
166F
330
1664
100
AcDbEntity
  8
DEFPOINTS
 62
     0
100
AcDbPoint
 10
375.2679360638527
 20
-90.48303234659852
 30
0.0
  0
ENDBLK
  5
1666
330
1664
100
AcDbEntity
  8
0
100
AcDbBlockEnd
  0
BLOCK
  5
1743
330
1742
100
AcDbEntity
  8
0
100
AcDbBlockBegin
  2
*D12
 70
     1
 10
0.0
 20
0.0
 30
0.0
  3
*D12
  1
*D52
  0
LINE
  5
1745
330
1742
100
AcDbEntity
  8
実線
  6
CONTINUOUS
 62
     0
100
AcDbLine
 10
849.4192146473276
 20
-409.1195515677978
 30
0.0
 11
849.4192146473276
 21
-392.7740953852256
 31
0.0
  0
LINE
  5
1746
330
1742
100
AcDbEntity
  8
実線
  6
CONTINUOUS
 62
     0
100
AcDbLine
 10
883.4192146473276
 20
-409.1195515677978
 30
0.0
 11
883.4192146473276
 21
-392.7740953852256
 31
0.0
  0
LINE
  5
1747
330
1742
100
AcDbEntity
  8
実線
  6
CONTINUOUS
 62
     0
100
AcDbLine
 10
851.9192146473276
 20
-394.0240953852256
 30
0.0
 11
880.9192146473276
 21
-394.0240953852256
 31
0.0
  0
SOLID
  5
1748
330
1742
100
AcDbEntity
  8
実線
 62
     0
100
AcDbTrace
 10
851.9192146473276
 20
-393.6074287185589
 30
0.0
 11
851.9192146473276
 21
-394.4407620518923
 31
0.0
 12
849.4192146473276
 22
-394.0240953852256
 32
0.0
 13
849.4192146473276
 23
-394.0240953852256
 33
0.0
  0
SOLID
  5
1749
330
1742
100
AcDbEntity
  8
実線
 62
     0
100
AcDbTrace
 10
880.9192146473276
 20
-394.4407620518923
 30
0.0
 11
880.9192146473276
 21
-393.6074287185589
 31
0.0
 12
883.4192146473276
 22
-394.0240953852256
 32
0.0
 13
883.4192146473276
 23
-394.0240953852256
 33
0.0
  0
MTEXT
  5
174A
330
1742
100
AcDbEntity
  8
実線
  6
CONTINUOUS
 62
     0
100
AcDbMText
 10
866.4192146473276
 20
-392.1228453852256
 30
0.0
 40
2.5
 41
0.0
 71
     5
 72
     1
  1
34
  0
POINT
  5
174B
330
1742
100
AcDbEntity
  8
DEFPOINTS
 62
     0
100
AcDbPoint
 10
849.4192146473276
 20
-409.7445515677978
 30
0.0
  0
POINT
  5
174C
330
1742
100
AcDbEntity
  8
DEFPOINTS
 62
     0
100
AcDbPoint
 10
883.4192146473276
 20
-409.7445515677978
 30
0.0
  0
POINT
  5
174D
330
1742
100
AcDbEntity
  8
DEFPOINTS
 62
     0
100
AcDbPoint
 10
883.4192146473276
 20
-394.0240953852256
 30
0.0
  0
ENDBLK
  5
1744
330
1742
100
AcDbEntity
  8
0
100
AcDbBlockEnd
  0
BLOCK
  5
1752
330
1751
100
AcDbEntity
  8
0
100
AcDbBlockBegin
  2
*D13
 70
     1
 10
0.0
 20
0.0
 30
0.0
  3
*D13
  1
*D53
  0
LINE
  5
1754
330
1751
100
AcDbEntity
  8
実線
  6
CONTINUOUS
 62
     0
100
AcDbLine
 10
884.0442146473276
 20
-409.7445515677978
 30
0.0
 11
897.9635857186635
 21
-409.7445515677978
 31
0.0
  0
LINE
  5
1755
330
1751
100
AcDbEntity
  8
実線
  6
CONTINUOUS
 62
     0
100
AcDbLine
 10
884.0442146473276
 20
-438.7445515677978
 30
0.0
 11
897.9635857186635
 21
-438.7445515677978
 31
0.0
  0
LINE
  5
1756
330
1751
100
AcDbEntity
  8
実線
  6
CONTINUOUS
 62
     0
100
AcDbLine
 10
896.7135857186635
 20
-412.2445515677978
 30
0.0
 11
896.7135857186635
 21
-436.2445515677978
 31
0.0
  0
SOLID
  5
1757
330
1751
100
AcDbEntity
  8
実線
 62
     0
100
AcDbTrace
 10
897.1302523853301
 20
-412.2445515677978
 30
0.0
 11
896.2969190519968
 21
-412.2445515677978
 31
0.0
 12
896.7135857186635
 22
-409.7445515677978
 32
0.0
 13
896.7135857186635
 23
-409.7445515677978
 33
0.0
  0
SOLID
  5
1758
330
1751
100
AcDbEntity
  8
実線
 62
     0
100
AcDbTrace
 10
896.2969190519968
 20
-436.2445515677978
 30
0.0
 11
897.1302523853301
 21
-436.2445515677978
 31
0.0
 12
896.7135857186635
 22
-438.7445515677978
 32
0.0
 13
896.7135857186635
 23
-438.7445515677978
 33
0.0
  0
MTEXT
  5
1759
330
1751
100
AcDbEntity
  8
実線
  6
CONTINUOUS
 62
     0
100
AcDbMText
 10
894.8123357186635
 20
-424.2445515677978
 30
0.0
 40
2.5
 41
0.0
 71
     5
 72
     1
  1
29
 11
0.0
 21
1.0
 31
0.0
  0
POINT
  5
175A
330
1751
100
AcDbEntity
  8
DEFPOINTS
 62
     0
100
AcDbPoint
 10
883.4192146473276
 20
-409.7445515677978
 30
0.0
  0
POINT
  5
175B
330
1751
100
AcDbEntity
  8
DEFPOINTS
 62
     0
100
AcDbPoint
 10
883.4192146473276
 20
-438.7445515677978
 30
0.0
  0
POINT
  5
175C
330
1751
100
AcDbEntity
  8
DEFPOINTS
 62
     0
100
AcDbPoint
 10
896.7135857186635
 20
-438.7445515677978
 30
0.0
  0
ENDBLK
  5
1753
330
1751
100
AcDbEntity
  8
0
100
AcDbBlockEnd
  0
BLOCK
  5
176D
330
176C
100
AcDbEntity
  8
0
100
AcDbBlockBegin
  2
*D14
 70
     1
 10
0.0
 20
0.0
 30
0.0
  3
*D14
  1
*D54
  0
LINE
  5
176F
330
176C
100
AcDbEntity
  8
実線
  6
CONTINUOUS
 62
     0
100
AcDbLine
 10
846.9192146473276
 20
-409.1195515677978
 30
0.0
 11
846.9192146473276
 21
-397.0263981796314
 31
0.0
  0
LINE
  5
1770
330
176C
100
AcDbEntity
  8
実線
  6
CONTINUOUS
 62
     0
100
AcDbLine
 10
841.9192146473277
 20
-409.1195515677978
 30
0.0
 11
841.9192146473277
 21
-397.0263981796314
 31
0.0
  0
LINE
  5
1771
330
176C
100
AcDbEntity
  8
実線
  6
CONTINUOUS
 62
     0
100
AcDbLine
 10
846.9192146473276
 20
-398.2763981796314
 30
0.0
 11
841.9192146473277
 21
-398.2763981796314
 31
0.0
  0
LINE
  5
1772
330
176C
100
AcDbEntity
  8
実線
  6
CONTINUOUS
 62
     0
100
AcDbLine
 10
849.4192146473276
 20
-398.2763981796314
 30
0.0
 11
851.9192146473276
 21
-398.2763981796314
 31
0.0
  0
LINE
  5
1773
330
176C
100
AcDbEntity
  8
実線
  6
CONTINUOUS
 62
     0
100
AcDbLine
 10
839.4192146473277
 20
-398.2763981796314
 30
0.0
 11
836.9192146473277
 21
-398.2763981796314
 31
0.0
  0
SOLID
  5
1774
330
176C
100
AcDbEntity
  8
実線
 62
     0
100
AcDbTrace
 10
849.4192146473276
 20
-397.8597315129647
 30
0.0
 11
849.4192146473276
 21
-398.6930648462981
 31
0.0
 12
846.9192146473276
 22
-398.2763981796314
 32
0.0
 13
846.9192146473276
 23
-398.2763981796314
 33
0.0
  0
SOLID
  5
1775
330
176C
100
AcDbEntity
  8
実線
 62
     0
100
AcDbTrace
 10
839.4192146473277
 20
-398.6930648462981
 30
0.0
 11
839.4192146473277
 21
-397.8597315129647
 31
0.0
 12
841.9192146473277
 22
-398.2763981796314
 32
0.0
 13
841.9192146473277
 23
-398.2763981796314
 33
0.0
  0
MTEXT
  5
1776
330
176C
100
AcDbEntity
  8
実線
  6
CONTINUOUS
 62
     0
100
AcDbMText
 10
844.4192146473276
 20
-396.3801481796314
 30
0.0
 40
2.5
 41
0.0
 71
     5
 72
     1
  1
5
  0
POINT
  5
1777
330
176C
100
AcDbEntity
  8
DEFPOINTS
 62
     0
100
AcDbPoint
 10
846.9192146473276
 20
-409.7445515677978
 30
0.0
  0
POINT
  5
1778
330
176C
100
AcDbEntity
  8
DEFPOINTS
 62
     0
100
AcDbPoint
 10
841.9192146473277
 20
-409.7445515677978
 30
0.0
  0
POINT
  5
1779
330
176C
100
AcDbEntity
  8
DEFPOINTS
 62
     0
100
AcDbPoint
 10
841.9192146473277
 20
-398.2763981796314
 30
0.0
  0
ENDBLK
  5
176E
330
176C
100
AcDbEntity
  8
0
100
AcDbBlockEnd
  0
BLOCK
  5
18C8
330
18C7
100
AcDbEntity
  8
0
100
AcDbBlockBegin
  2
*D15
 70
     1
 10
0.0
 20
0.0
 30
0.0
  3
*D15
  1
*D56
  0
LINE
  5
18CA
330
18C7
100
AcDbEntity
  8
実線
  6
CONTINUOUS
 62
     0
100
AcDbLine
 10
927.0893074495873
 20
-243.0699695756048
 30
0.0
 11
920.7987381769519
 21
-243.0699695756048
 31
0.0
  0
LINE
  5
18CB
330
18C7
100
AcDbEntity
  8
実線
  6
CONTINUOUS
 62
     0
100
AcDbLine
 10
927.0893074495873
 20
-282.0699695756048
 30
0.0
 11
920.7987381769519
 21
-282.0699695756048
 31
0.0
  0
LINE
  5
18CC
330
18C7
100
AcDbEntity
  8
実線
  6
CONTINUOUS
 62
     0
100
AcDbLine
 10
922.0487381769519
 20
-245.5699695756048
 30
0.0
 11
922.0487381769519
 21
-279.5699695756048
 31
0.0
  0
SOLID
  5
18CD
330
18C7
100
AcDbEntity
  8
実線
 62
     0
100
AcDbTrace
 10
922.4654048436186
 20
-245.5699695756048
 30
0.0
 11
921.6320715102853
 21
-245.5699695756048
 31
0.0
 12
922.0487381769519
 22
-243.0699695756048
 32
0.0
 13
922.0487381769519
 23
-243.0699695756048
 33
0.0
  0
SOLID
  5
18CE
330
18C7
100
AcDbEntity
  8
実線
 62
     0
100
AcDbTrace
 10
921.6320715102853
 20
-279.5699695756048
 30
0.0
 11
922.4654048436186
 21
-279.5699695756048
 31
0.0
 12
922.0487381769519
 22
-282.0699695756048
 32
0.0
 13
922.0487381769519
 23
-282.0699695756048
 33
0.0
  0
MTEXT
  5
18CF
330
18C7
100
AcDbEntity
  8
実線
  6
CONTINUOUS
 62
     0
100
AcDbMText
 10
920.1474881769519
 20
-262.5699695756048
 30
0.0
 40
2.5
 41
0.0
 71
     5
 72
     1
  1
39
 11
0.0
 21
1.0
 31
0.0
  0
POINT
  5
18D0
330
18C7
100
AcDbEntity
  8
DEFPOINTS
 62
     0
100
AcDbPoint
 10
927.7143074495873
 20
-243.0699695756048
 30
0.0
  0
POINT
  5
18D1
330
18C7
100
AcDbEntity
  8
DEFPOINTS
 62
     0
100
AcDbPoint
 10
927.7143074495873
 20
-282.0699695756048
 30
0.0
  0
POINT
  5
18D2
330
18C7
100
AcDbEntity
  8
DEFPOINTS
 62
     0
100
AcDbPoint
 10
922.0487381769519
 20
-282.0699695756048
 30
0.0
  0
ENDBLK
  5
18C9
330
18C7
100
AcDbEntity
  8
0
100
AcDbBlockEnd
  0
BLOCK
  5
18DF
330
18DE
100
AcDbEntity
  8
0
100
AcDbBlockBegin
  2
*D16
 70
     1
 10
0.0
 20
0.0
 30
0.0
  3
*D16
  1
*D57
  0
LINE
  5
18E1
330
18DE
100
AcDbEntity
  8
実線
  6
CONTINUOUS
 62
     0
100
AcDbLine
 10
769.4096367870583
 20
-116.7045744118905
 30
0.0
 11
763.1597318388908
 21
-116.7045744118905
 31
0.0
  0
LINE
  5
18E2
330
18DE
100
AcDbEntity
  8
実線
  6
CONTINUOUS
 62
     0
100
AcDbLine
 10
769.4096367870583
 20
-110.7045744118905
 30
0.0
 11
763.1597318388908
 21
-110.7045744118905
 31
0.0
  0
LINE
  5
18E3
330
18DE
100
AcDbEntity
  8
実線
  6
CONTINUOUS
 62
     0
100
AcDbLine
 10
764.4097318388908
 20
-116.7045744118905
 30
0.0
 11
764.4097318388908
 21
-110.7045744118905
 31
0.0
  0
LINE
  5
18E4
330
18DE
100
AcDbEntity
  8
実線
  6
CONTINUOUS
 62
     0
100
AcDbLine
 10
764.4097318388908
 20
-119.2045744118905
 30
0.0
 11
764.4097318388908
 21
-121.7045744118905
 31
0.0
  0
LINE
  5
18E5
330
18DE
100
AcDbEntity
  8
実線
  6
CONTINUOUS
 62
     0
100
AcDbLine
 10
764.4097318388908
 20
-108.2045744118905
 30
0.0
 11
764.4097318388908
 21
-105.7045744118905
 31
0.0
  0
SOLID
  5
18E6
330
18DE
100
AcDbEntity
  8
実線
 62
     0
100
AcDbTrace
 10
764.8263985055574
 20
-119.2045744118905
 30
0.0
 11
763.9930651722242
 21
-119.2045744118905
 31
0.0
 12
764.4097318388908
 22
-116.7045744118905
 32
0.0
 13
764.4097318388908
 23
-116.7045744118905
 33
0.0
  0
SOLID
  5
18E7
330
18DE
100
AcDbEntity
  8
実線
 62
     0
100
AcDbTrace
 10
763.9930651722242
 20
-108.2045744118905
 30
0.0
 11
764.8263985055574
 21
-108.2045744118905
 31
0.0
 12
764.4097318388908
 22
-110.7045744118905
 32
0.0
 13
764.4097318388908
 23
-110.7045744118905
 33
0.0
  0
MTEXT
  5
18E8
330
18DE
100
AcDbEntity
  8
実線
  6
CONTINUOUS
 62
     0
100
AcDbMText
 10
762.5084818388908
 20
-113.7045744118905
 30
0.0
 40
2.5
 41
0.0
 71
     5
 72
     1
  1
6
 11
0.0
 21
1.0
 31
0.0
  0
POINT
  5
18E9
330
18DE
100
AcDbEntity
  8
DEFPOINTS
 62
     0
100
AcDbPoint
 10
770.0346367870583
 20
-116.7045744118905
 30
0.0
  0
POINT
  5
18EA
330
18DE
100
AcDbEntity
  8
DEFPOINTS
 62
     0
100
AcDbPoint
 10
770.0346367870583
 20
-110.7045744118905
 30
0.0
  0
POINT
  5
18EB
330
18DE
100
AcDbEntity
  8
DEFPOINTS
 62
     0
100
AcDbPoint
 10
764.4097318388908
 20
-110.7045744118905
 30
0.0
  0
ENDBLK
  5
18E0
330
18DE
100
AcDbEntity
  8
0
100
AcDbBlockEnd
  0
ENDSEC
  0
SECTION
  2
ENTITIES
  0
LINE
  5
1390
330
1F
100
AcDbEntity
  8
外形線
  6
CONTINUOUS
100
AcDbLine
 10
98.76274451929271
 20
199.7571743027334
 30
0.0
 11
59.76274451929271
 21
199.7571743027334
 31
0.0
  0
LINE
  5
139A
330
1F
100
AcDbEntity
  8
外形線
  6
CONTINUOUS
100
AcDbLine
 10
131.2627445192927
 20
129.9571743027334
 30
0.0
 11
88.76274451929271
 21
129.9571743027334
 31
0.0
  0
LINE
  5
139D
330
1F
100
AcDbEntity
  8
外形線
  6
CONTINUOUS
100
AcDbLine
 10
144.2627445192927
 20
138.4353590281948
 30
0.0
 11
144.2627445192927
 21
125.9571743027334
 31
0.0
  0
LINE
  5
139E
330
1F
100
AcDbEntity
  8
外形線
  6
CONTINUOUS
100
AcDbLine
 10
14.26274451929271
 20
138.4353590281948
 30
0.0
 11
14.26274451929271
 21
125.9571743027334
 31
0.0
  0
CIRCLE
  5
13A3
330
1F
100
AcDbEntity
  8
外形線
  6
CONTINUOUS
100
AcDbCircle
 10
79.26274451929271
 20
177.7571743027334
 30
0.0
 40
14.0
  0
LINE
  5
13AB
330
1F
100
AcDbEntity
  8
外形線
  6
CONTINUOUS
100
AcDbLine
 10
131.2627445192927
 20
125.9571743027334
 30
0.0
 11
131.2627445192927
 21
129.9571743027334
 31
0.0
  0
LINE
  5
13AC
330
1F
100
AcDbEntity
  8
外形線
  6
CONTINUOUS
100
AcDbLine
 10
27.26274451929271
 20
125.9571743027334
 30
0.0
 11
27.26274451929271
 21
129.9571743027334
 31
0.0
  0
LINE
  5
13B3
330
1F
100
AcDbEntity
  8
外形線
  6
CONTINUOUS
100
AcDbLine
 10
54.76274451929271
 20
149.2873013216556
 30
0.0
 11
14.26274451929271
 21
138.4353590281951
 31
0.0
  0
LINE
  5
13B4
330
1F
100
AcDbEntity
  8
外形線
  6
CONTINUOUS
100
AcDbLine
 10
103.7627445192927
 20
149.2873013216556
 30
0.0
 11
144.2627445192927
 21
138.4353590281951
 31
0.0
  0
LINE
  5
13B7
330
1F
100
AcDbEntity
  8
外形線
  6
CONTINUOUS
100
AcDbLine
 10
77.31274451929266
 20
133.9571743027334
 30
0.0
 11
77.31274451929266
 21
144.9571743027334
 31
0.0
  0
LINE
  5
13B8
330
1F
100
AcDbEntity
  8
外形線
  6
CONTINUOUS
100
AcDbLine
 10
81.21274451929276
 20
133.9571743027334
 30
0.0
 11
81.21274451929276
 21
144.9571743027334
 31
0.0
  0
LINE
  5
13BA
330
1F
100
AcDbEntity
  8
外形線
  6
CONTINUOUS
100
AcDbLine
 10
69.76274451929271
 20
129.9571743027334
 30
0.0
 11
27.26274451929271
 21
129.9571743027334
 31
0.0
  0
LINE
  5
15B4
330
1F
100
AcDbEntity
  8
実線
  6
CONTINUOUS
100
AcDbLine
 10
88.76274451929271
 20
129.9571743027334
 30
0.0
 11
88.76274451929271
 21
133.9571743027334
 31
0.0
  0
LINE
  5
15B5
330
1F
100
AcDbEntity
  8
実線
  6
CONTINUOUS
100
AcDbLine
 10
69.76274451929271
 20
129.9571743027334
 30
0.0
 11
69.76274451929271
 21
133.9571743027334
 31
0.0
  0
LINE
  5
15C5
330
1F
100
AcDbEntity
  8
実線
  6
CONTINUOUS
100
AcDbLine
 10
69.76274451929271
 20
133.9571743027334
 30
0.0
 11
77.31274451929266
 21
133.9571743027334
 31
0.0
  0
LINE
  5
15C6
330
1F
100
AcDbEntity
  8
実線
  6
CONTINUOUS
100
AcDbLine
 10
81.21274451929276
 20
133.9571743027334
 30
0.0
 11
88.76274451929271
 21
133.9571743027334
 31
0.0
  0
LINE
  5
1637
330
1F
100
AcDbEntity
  8
実線
  6
CONTINUOUS
100
AcDbLine
 10
128.5628839977057
 20
19.74157894270263
 30
0.0
 11
92.06288399770574
 21
19.74157894270263
 31
0.0
  0
LINE
  5
1638
330
1F
100
AcDbEntity
  8
実線
  6
CONTINUOUS
100
AcDbLine
 10
12.56288399770574
 20
15.74157894270263
 30
0.0
 11
12.56288399770574
 21
33.20636620854282
 31
0.0
  0
LINE
  5
1639
330
1F
100
AcDbEntity
  8
実線
  6
CONTINUOUS
100
AcDbLine
 10
142.5628839977057
 20
15.74157894270263
 30
0.0
 11
142.5628839977057
 21
33.20636620854282
 31
0.0
  0
LINE
  5
163A
330
1F
100
AcDbEntity
  8
実線
  6
CONTINUOUS
100
AcDbLine
 10
26.56288399770574
 20
15.74157894270263
 30
0.0
 11
26.56288399770574
 21
19.74157894270263
 31
0.0
  0
LINE
  5
163B
330
1F
100
AcDbEntity
  8
実線
  6
CONTINUOUS
100
AcDbLine
 10
128.5628839977057
 20
15.74157894270263
 30
0.0
 11
128.5628839977057
 21
19.74157894270263
 31
0.0
  0
LINE
  5
163D
330
1F
100
AcDbEntity
  8
実線
  6
CONTINUOUS
100
AcDbLine
 10
63.06288399770574
 20
23.74157894270263
 30
0.0
 11
92.06288399770574
 21
23.74157894270263
 31
0.0
  0
LINE
  5
164F
330
1F
100
AcDbEntity
  8
実線
  6
CONTINUOUS
100
AcDbLine
 10
63.06288399770574
 20
19.74157894270263
 30
0.0
 11
63.06288399770574
 21
23.74157894270263
 31
0.0
  0
LINE
  5
1650
330
1F
100
AcDbEntity
  8
実線
  6
CONTINUOUS
100
AcDbLine
 10
92.06288399770574
 20
19.74157894270263
 30
0.0
 11
92.06288399770574
 21
23.74157894270263
 31
0.0
  0
LINE
  5
1651
330
1F
100
AcDbEntity
  8
実線
  6
CONTINUOUS
100
AcDbLine
 10
63.06288399770574
 20
19.74157894270263
 30
0.0
 11
26.56288399770574
 21
19.74157894270263
 31
0.0
  0
LINE
  5
1670
330
1F
100
AcDbEntity
  8
実線
  6
CONTINUOUS
100
AcDbLine
 10
60.61288399770581
 20
34.74157894270263
 30
0.0
 11
60.61288399770581
 21
44.74157894270263
 31
0.0
  0
LINE
  5
1671
330
1F
100
AcDbEntity
  8
実線
  6
CONTINUOUS
100
AcDbLine
 10
94.51288399770579
 20
34.74157894270263
 30
0.0
 11
94.51288399770579
 21
44.74157894270263
 31
0.0
  0
LINE
  5
1672
330
1F
100
AcDbEntity
  8
実線
  6
CONTINUOUS
100
AcDbLine
 10
64.51288399770579
 20
34.74157894270263
 30
0.0
 11
64.51288399770579
 21
44.74157894270263
 31
0.0
  0
LINE
  5
1673
330
1F
100
AcDbEntity
  8
実線
  6
CONTINUOUS
100
AcDbLine
 10
90.61288399770581
 20
34.74157894270263
 30
0.0
 11
90.61288399770581
 21
44.74157894270263
 31
0.0
  0
LINE
  5
1679
330
1F
100
AcDbEntity
  8
実線
  6
CONTINUOUS
100
AcDbLine
 10
81.21274451929276
 20
144.9571743027334
 30
0.0
 11
77.31274451929266
 21
144.9571743027334
 31
0.0
  0
LINE
  5
167A
330
1F
100
AcDbEntity
  8
実線
  6
CONTINUOUS
100
AcDbLine
 10
90.61288399770581
 20
34.74157894270263
 30
0.0
 11
94.51288399770579
 21
34.74157894270263
 31
0.0
  0
LINE
  5
167B
330
1F
100
AcDbEntity
  8
実線
  6
CONTINUOUS
100
AcDbLine
 10
55.61288399770581
 20
44.74157894270263
 30
0.0
 11
60.61288399770581
 21
44.74157894270263
 31
0.0
  0
LINE
  5
167E
330
1F
100
AcDbEntity
  8
実線
  6
CONTINUOUS
100
AcDbLine
 10
12.56288399770574
 20
33.20636620854282
 30
0.0
 11
55.61288399770581
 21
44.74157894270263
 31
0.0
  0
LINE
  5
167F
330
1F
100
AcDbEntity
  8
実線
  6
CONTINUOUS
100
AcDbLine
 10
142.562883997706
 20
33.20636620854282
 30
0.0
 11
99.51288399770579
 21
44.74157894270263
 31
0.0
  0
LINE
  5
1680
330
1F
100
AcDbEntity
  8
実線
  6
CONTINUOUS
100
AcDbLine
 10
64.51288399770579
 20
34.74157894270263
 30
0.0
 11
60.61288399770581
 21
34.74157894270263
 31
0.0
  0
LINE
  5
1681
330
1F
100
AcDbEntity
  8
実線
  6
CONTINUOUS
100
AcDbLine
 10
64.51288399770579
 20
44.74157894270263
 30
0.0
 11
90.61288399770581
 21
44.74157894270263
 31
0.0
  0
LINE
  5
1682
330
1F
100
AcDbEntity
  8
実線
  6
CONTINUOUS
100
AcDbLine
 10
94.51288399770579
 20
44.74157894270263
 30
0.0
 11
99.51288399770579
 21
44.74157894270263
 31
0.0
  0
LINE
  5
1720
330
1F
100
AcDbEntity
  8
外形線
  6
CONTINUOUS
100
AcDbLine
 10
97.21187023216203
 20
121.6750087626198
 30
0.0
 11
63.21187023216203
 21
121.6750087626198
 31
0.0
  0
LINE
  5
1721
330
1F
100
AcDbEntity
  8
外形線
  6
CONTINUOUS
100
AcDbLine
 10
145.211870232162
 20
60.35319348808122
 30
0.0
 11
145.211870232162
 21
47.87500876261981
 31
0.0
  0
LINE
  5
1722
330
1F
100
AcDbEntity
  8
外形線
  6
CONTINUOUS
100
AcDbLine
 10
15.21187023216203
 20
60.35319348808122
 30
0.0
 11
15.21187023216203
 21
47.87500876261981
 31
0.0
  0
LINE
  5
1723
330
1F
100
AcDbEntity
  8
外形線
  6
CONTINUOUS
100
AcDbLine
 10
102.211870232162
 20
116.6750087626198
 30
0.0
 11
102.211870232162
 21
71.87500876261981
 31
0.0
  0
LINE
  5
1724
330
1F
100
AcDbEntity
  8
外形線
  6
CONTINUOUS
100
AcDbLine
 10
58.21187023216203
 20
116.6750087626198
 30
0.0
 11
58.21187023216203
 21
71.87500876261981
 31
0.0
  0
LINE
  5
1726
330
1F
100
AcDbEntity
  8
外形線
  6
CONTINUOUS
100
AcDbLine
 10
97.21187023216203
 20
121.6750087626198
 30
0.0
 11
102.211870232162
 21
116.6750087626198
 31
0.0
  0
LINE
  5
1727
330
1F
100
AcDbEntity
  8
外形線
  6
CONTINUOUS
100
AcDbLine
 10
58.21187023216203
 20
116.6750087626198
 30
0.0
 11
63.21187023216203
 21
121.6750087626198
 31
0.0
  0
LINE
  5
172D
330
1F
100
AcDbEntity
  8
外形線
  6
CONTINUOUS
100
AcDbLine
 10
132.211870232162
 20
47.87500876261981
 30
0.0
 11
132.211870232162
 21
51.87500876261981
 31
0.0
  0
LINE
  5
172E
330
1F
100
AcDbEntity
  8
外形線
  6
CONTINUOUS
100
AcDbLine
 10
28.21187023216203
 20
47.87500876261981
 30
0.0
 11
28.21187023216203
 21
51.87500876261981
 31
0.0
  0
LINE
  5
1730
330
1F
100
AcDbEntity
  8
外形線
  6
CONTINUOUS
100
AcDbLine
 10
58.21187023216203
 20
71.87500876261981
 30
0.0
 11
15.21187023216203
 21
60.35319348808153
 31
0.0
  0
LINE
  5
1731
330
1F
100
AcDbEntity
  8
外形線
  6
CONTINUOUS
100
AcDbLine
 10
102.211870232162
 20
71.87500876261981
 30
0.0
 11
145.211870232162
 21
60.35319348808153
 31
0.0
  0
LINE
  5
1732
330
1F
100
AcDbEntity
  8
外形線
  6
CONTINUOUS
100
AcDbLine
 10
132.211870232162
 20
51.87500876261981
 30
0.0
 11
89.71187023216203
 21
51.87500876261981
 31
0.0
  0
LINE
  5
1733
330
1F
100
AcDbEntity
  8
外形線
  6
CONTINUOUS
100
AcDbLine
 10
70.71187023216203
 20
51.87500876261981
 30
0.0
 11
28.21187023216203
 21
51.87500876261981
 31
0.0
  0
LINE
  5
1734
330
1F
100
AcDbEntity
  8
実線
  6
CONTINUOUS
100
AcDbLine
 10
82.16187023216207
 20
55.87500876261981
 30
0.0
 11
89.71187023216203
 21
55.87500876261981
 31
0.0
  0
LINE
  5
1735
330
1F
100
AcDbEntity
  8
実線
  6
CONTINUOUS
100
AcDbLine
 10
70.71187023216203
 20
51.87500876261981
 30
0.0
 11
70.71187023216203
 21
55.87500876261981
 31
0.0
  0
LINE
  5
1736
330
1F
100
AcDbEntity
  8
実線
  6
CONTINUOUS
100
AcDbLine
 10
89.71187023216203
 20
51.87500876261981
 30
0.0
 11
89.71187023216203
 21
55.87500876261981
 31
0.0
  0
LINE
  5
1737
330
1F
100
AcDbEntity
  8
実線
  6
CONTINUOUS
100
AcDbLine
 10
70.71187023216203
 20
55.87500876261981
 30
0.0
 11
78.26187023216198
 21
55.87500876261981
 31
0.0
  0
LINE
  5
1738
330
1F
100
AcDbEntity
  8
外形線
  6
CONTINUOUS
100
AcDbLine
 10
78.26187023216198
 20
55.87500876261981
 30
0.0
 11
78.26187023216198
 21
66.87500876261981
 31
0.0
  0
LINE
  5
1739
330
1F
100
AcDbEntity
  8
外形線
  6
CONTINUOUS
100
AcDbLine
 10
82.16187023216207
 20
55.87500876261981
 30
0.0
 11
82.16187023216207
 21
66.87500876261981
 31
0.0
  0
LINE
  5
173A
330
1F
100
AcDbEntity
  8
実線
  6
CONTINUOUS
100
AcDbLine
 10
82.16187023216207
 20
66.87500876261981
 30
0.0
 11
78.26187023216198
 21
66.87500876261981
 31
0.0
  0
CIRCLE
  5
173C
330
1F
100
AcDbEntity
  8
実線
  6
CONTINUOUS
100
AcDbCircle
 10
80.21187023216203
 20
99.67500876261983
 30
0.0
 40
3.0
  0
LINE
  5
175F
330
1F
100
AcDbEntity
  8
実線
  6
CONTINUOUS
100
AcDbLine
 10
54.76274451929282
 20
194.7571743027334
 30
0.0
 11
54.76274451929282
 21
191.2571743027334
 31
0.0
  0
LINE
  5
1760
330
1F
100
AcDbEntity
  8
実線
  6
CONTINUOUS
100
AcDbLine
 10
103.7627445192927
 20
194.7571743027334
 30
0.0
 11
103.7627445192927
 21
149.2873013216556
 31
0.0
  0
CIRCLE
  5
1763
330
1F
100
AcDbEntity
  8
実線
  6
CONTINUOUS
100
AcDbCircle
 10
59.76274451929271
 20
192.2571743027334
 30
0.0
 40
1.5
  0
CIRCLE
  5
1764
330
1F
100
AcDbEntity
  8
実線
  6
CONTINUOUS
100
AcDbCircle
 10
59.76274451929271
 20
163.2571743027334
 30
0.0
 40
1.5
  0
CIRCLE
  5
1765
330
1F
100
AcDbEntity
  8
実線
  6
CONTINUOUS
100
AcDbCircle
 10
98.76274451929271
 20
163.2571743027334
 30
0.0
 40
1.5
  0
CIRCLE
  5
1766
330
1F
100
AcDbEntity
  8
実線
  6
CONTINUOUS
100
AcDbCircle
 10
98.76274451929271
 20
192.2571743027334
 30
0.0
 40
1.5
  0
LINE
  5
1767
330
1F
100
AcDbEntity
  8
実線
  6
CONTINUOUS
100
AcDbLine
 10
59.76274451929271
 20
199.7571743027334
 30
0.0
 11
54.76274451929282
 21
194.7571743027334
 31
0.0
  0
LINE
  5
1768
330
1F
100
AcDbEntity
  8
実線
  6
CONTINUOUS
100
AcDbLine
 10
98.76274451929271
 20
199.7571743027334
 30
0.0
 11
103.7627445192927
 21
194.7571743027334
 31
0.0
  0
LINE
  5
177B
330
1F
100
AcDbEntity
  8
実線
  6
CONTINUOUS
100
AcDbLine
 10
56.76274451929271
 20
191.2571743027334
 30
0.0
 11
54.76274451929282
 21
191.2571743027334
 31
0.0
  0
LINE
  5
177D
330
1F
100
AcDbEntity
  8
実線
  6
CONTINUOUS
100
AcDbLine
 10
56.76274451929271
 20
171.7571743027334
 30
0.0
 11
56.76274451929271
 21
173.7571743027334
 31
0.0
  0
LINE
  5
177E
330
1F
100
AcDbEntity
  8
実線
  6
CONTINUOUS
100
AcDbLine
 10
56.76274451929271
 20
185.2571743027334
 30
0.0
 11
54.76274451929282
 21
185.2571743027334
 31
0.0
  0
LINE
  5
1781
330
1F
100
AcDbEntity
  8
実線
  6
CONTINUOUS
100
AcDbLine
 10
58.76274451929282
 20
181.7571743027334
 30
0.0
 11
54.76274451929282
 21
181.7571743027334
 31
0.0
  0
LINE
  5
1782
330
1F
100
AcDbEntity
  8
実線
  6
CONTINUOUS
100
AcDbLine
 10
58.76274451929282
 20
173.7571743027334
 30
0.0
 11
56.76274451929271
 21
173.7571743027334
 31
0.0
  0
LINE
  5
1783
330
1F
100
AcDbEntity
  8
実線
  6
CONTINUOUS
100
AcDbLine
 10
58.76274451929282
 20
173.7571743027334
 30
0.0
 11
58.76274451929282
 21
181.7571743027334
 31
0.0
  0
LINE
  5
1784
330
1F
100
AcDbEntity
  8
実線
  6
CONTINUOUS
100
AcDbLine
 10
56.76274451929271
 20
171.7571743027334
 30
0.0
 11
54.76274451929271
 21
171.7571743027334
 31
0.0
  0
LINE
  5
1785
330
1F
100
AcDbEntity
  8
実線
  6
CONTINUOUS
100
AcDbLine
 10
56.76274451929271
 20
185.2571743027334
 30
0.0
 11
56.76274451929271
 21
191.2571743027334
 31
0.0
  0
LINE
  5
1786
330
1F
100
AcDbEntity
  8
実線
  6
CONTINUOUS
100
AcDbLine
 10
54.76274451929271
 20
171.7571743027334
 30
0.0
 11
54.76274451929271
 21
149.2873013216556
 31
0.0
  0
LINE
  5
1787
330
1F
100
AcDbEntity
  8
実線
  6
CONTINUOUS
100
AcDbLine
 10
54.76274451929282
 20
185.2571743027334
 30
0.0
 11
54.76274451929282
 21
181.7571743027334
 31
0.0
  0
LINE
  5
1837
330
1F
100
AcDbEntity
  8
実線
100
AcDbLine
 10
158.9424151818218
 20
97.43663996777371
 30
0.0
 11
158.9424151818218
 21
78.43663996777371
 31
0.0
  0
LINE
  5
1838
330
1F
100
AcDbEntity
  8
実線
100
AcDbLine
 10
161.9424151818218
 20
51.89177913901912
 30
0.0
 11
198.9424151818218
 21
51.89177913901912
 31
0.0
  0
LINE
  5
1839
330
1F
100
AcDbEntity
  8
実線
100
AcDbLine
 10
161.9424151818218
 20
26.89177913901915
 30
0.0
 11
198.9424151818218
 21
26.89177913901915
 31
0.0
  0
LINE
  5
183A
330
1F
100
AcDbEntity
  8
実線
100
AcDbLine
 10
198.9424151818218
 20
63.89177913901912
 30
0.0
 11
198.9424151818218
 21
51.89177913901912
 31
0.0
  0
LINE
  5
183B
330
1F
100
AcDbEntity
  8
実線
100
AcDbLine
 10
330.9278881131324
 20
91.42149161409293
 30
0.0
 11
330.9278881131324
 21
87.52149161409292
 31
0.0
  0
LINE
  5
183C
330
1F
100
AcDbEntity
  8
実線
100
AcDbLine
 10
176.9424151818218
 20
89.88663996777373
 30
0.0
 11
176.9424151818218
 21
85.98663996777373
 31
0.0
  0
LINE
  5
183D
330
1F
100
AcDbEntity
  8
実線
100
AcDbLine
 10
158.9424151818218
 20
48.89177913901912
 30
0.0
 11
161.9424151818218
 21
51.89177913901912
 31
0.0
  0
LINE
  5
183E
330
1F
100
AcDbEntity
  8
実線
100
AcDbLine
 10
158.9424151818218
 20
29.89177913901915
 30
0.0
 11
161.9424151818218
 21
26.89177913901915
 31
0.0
  0
LINE
  5
183F
330
1F
100
AcDbEntity
  8
実線
  6
CONTINUOUS
100
AcDbLine
 10
248.9424151818218
 20
58.89177913901912
 30
0.0
 11
248.9424151818218
 21
19.89177913901915
 31
0.0
  0
ARC
  5
1848
330
1F
100
AcDbEntity
  8
実線
  6
CONTINUOUS
100
AcDbCircle
 10
277.3808001861382
 20
38.8780736171633
 30
0.0
 40
22.0
100
AcDbArc
 50
90.0
 51
270.0
  0
LINE
  5
1849
330
1F
100
AcDbEntity
  8
実線
  6
CONTINUOUS
100
AcDbLine
 10
279.3308001861382
 20
51.37807361716332
 30
0.0
 11
275.4308001861382
 21
51.37807361716332
 31
0.0
  0
LINE
  5
184A
330
1F
100
AcDbEntity
  8
実線
  6
CONTINUOUS
100
AcDbLine
 10
279.3308001861382
 20
26.3780736171633
 30
0.0
 11
275.4308001861382
 21
26.3780736171633
 31
0.0
  0
LINE
  5
184B
330
1F
100
AcDbEntity
  8
実線
  6
CONTINUOUS
100
AcDbLine
 10
264.8808001861382
 20
40.82807361716334
 30
0.0
 11
264.8808001861382
 21
36.92807361716331
 31
0.0
  0
LINE
  5
184C
330
1F
100
AcDbEntity
  8
実線
  6
CONTINUOUS
100
AcDbLine
 10
279.3808001861382
 20
60.87807361716332
 30
0.0
 11
275.3808001861382
 21
60.87807361716332
 31
0.0
  0
LINE
  5
184D
330
1F
100
AcDbEntity
  8
実線
  6
CONTINUOUS
100
AcDbLine
 10
275.3808001861382
 20
16.8780736171633
 30
0.0
 11
279.3808001861382
 21
16.8780736171633
 31
0.0
  0
CIRCLE
  5
184E
330
1F
100
AcDbEntity
  8
実線
  6
CONTINUOUS
100
AcDbCircle
 10
226.9424151818218
 20
39.39177913901915
 30
0.0
 40
14.0
  0
LINE
  5
184F
330
1F
100
AcDbEntity
  8
実線
  6
CONTINUOUS
100
AcDbLine
 10
161.942415181822
 20
100.4366399677737
 30
0.0
 11
194.9424151818218
 21
100.4366399677737
 31
0.0
  0
LINE
  5
1850
330
1F
100
AcDbEntity
  8
実線
  6
CONTINUOUS
100
AcDbLine
 10
198.9424151818218
 20
72.93663996777371
 30
0.0
 11
203.9424151818218
 21
72.93663996777371
 31
0.0
  0
LINE
  5
1851
330
1F
100
AcDbEntity
  8
実線
  6
CONTINUOUS
100
AcDbLine
 10
198.9424151818218
 20
72.93663996777371
 30
0.0
 11
198.9424151818218
 21
75.43663996777371
 31
0.0
  0
LINE
  5
1852
330
1F
100
AcDbEntity
  8
実線
  6
CONTINUOUS
100
AcDbLine
 10
198.9424151818218
 20
75.43663996777371
 30
0.0
 11
161.9424151818218
 21
75.43663996777371
 31
0.0
  0
LINE
  5
1853
330
1F
100
AcDbEntity
  8
実線
100
AcDbLine
 10
158.9424151818218
 20
48.89177913901912
 30
0.0
 11
158.9424151818218
 21
41.34177913901914
 31
0.0
  0
LINE
  5
1854
330
1F
100
AcDbEntity
  8
実線
  6
CONTINUOUS
100
AcDbLine
 10
158.9424151818218
 20
97.43663996777371
 30
0.0
 11
161.9424151818218
 21
100.4366399677737
 31
0.0
  0
LINE
  5
1855
330
1F
100
AcDbEntity
  8
実線
  6
CONTINUOUS
100
AcDbLine
 10
158.9424151818218
 20
78.43663996777371
 30
0.0
 11
161.9424151818218
 21
75.43663996777371
 31
0.0
  0
LINE
  5
1856
330
1F
100
AcDbEntity
  8
実線
100
AcDbLine
 10
176.9424151818218
 20
41.34177913901914
 30
0.0
 11
176.9424151818218
 21
37.4417791390191
 31
0.0
  0
LINE
  5
1857
330
1F
100
AcDbEntity
  8
実線
  6
CONTINUOUS
100
AcDbLine
 10
208.9424151818218
 20
122.9366399677738
 30
0.0
 11
208.9424151818218
 21
117.8866399677737
 31
0.0
  0
LINE
  5
1858
330
1F
100
AcDbEntity
  8
実線
100
AcDbLine
 10
203.942415181822
 20
98.93663996777371
 30
0.0
 11
203.942415181822
 21
89.88663996777373
 31
0.0
  0
LINE
  5
1859
330
1F
100
AcDbEntity
  8
実線
  6
CONTINUOUS
100
AcDbLine
 10
277.3808001861382
 20
60.87807361716332
 30
0.0
 11
314.3808001861385
 21
60.87807361716332
 31
0.0
  0
LINE
  5
185A
330
1F
100
AcDbEntity
  8
実線
  6
CONTINUOUS
100
AcDbLine
 10
277.3808001861382
 20
16.8780736171633
 30
0.0
 11
314.3808001861385
 21
16.8780736171633
 31
0.0
  0
LINE
  5
185B
330
1F
100
AcDbEntity
  8
実線
  6
CONTINUOUS
100
AcDbLine
 10
313.0233464927105
 20
144.7607544085184
 30
0.0
 11
313.0233464927105
 21
131.7107544085184
 31
0.0
  0
LINE
  5
185C
330
1F
100
AcDbEntity
  8
実線
  6
CONTINUOUS
100
AcDbLine
 10
318.0233464927105
 20
114.7607544085184
 30
0.0
 11
318.0233464927105
 21
117.2607544085184
 31
0.0
  0
LINE
  5
185D
330
1F
100
AcDbEntity
  8
実線
  6
CONTINUOUS
100
AcDbLine
 10
358.0233464927105
 20
120.2607544085184
 30
0.0
 11
358.0233464927105
 21
139.2607544085184
 31
0.0
  0
LINE
  5
185E
330
1F
100
AcDbEntity
  8
実線
  6
CONTINUOUS
100
AcDbLine
 10
313.0233464927105
 20
144.7607544085184
 30
0.0
 11
318.0233464927105
 21
144.7607544085184
 31
0.0
  0
LINE
  5
185F
330
1F
100
AcDbEntity
  8
実線
  6
CONTINUOUS
100
AcDbLine
 10
313.0233464927105
 20
114.7607544085184
 30
0.0
 11
318.0233464927105
 21
114.7607544085184
 31
0.0
  0
LINE
  5
1860
330
1F
100
AcDbEntity
  8
実線
  6
CONTINUOUS
100
AcDbLine
 10
355.0233464927105
 20
142.2607544085184
 30
0.0
 11
318.0233464927105
 21
142.2607544085184
 31
0.0
  0
LINE
  5
1861
330
1F
100
AcDbEntity
  8
実線
  6
CONTINUOUS
100
AcDbLine
 10
355.0233464927105
 20
117.2607544085184
 30
0.0
 11
318.0233464927105
 21
117.2607544085184
 31
0.0
  0
LINE
  5
1862
330
1F
100
AcDbEntity
  8
実線
  6
CONTINUOUS
100
AcDbLine
 10
318.0233464927105
 20
142.2607544085184
 30
0.0
 11
318.0233464927105
 21
144.7607544085184
 31
0.0
  0
LINE
  5
1863
330
1F
100
AcDbEntity
  8
実線
100
AcDbLine
 10
203.9424151818218
 20
117.8866399677737
 30
0.0
 11
203.9424151818218
 21
113.9866399677738
 31
0.0
  0
LINE
  5
1864
330
1F
100
AcDbEntity
  8
実線
  6
CONTINUOUS
100
AcDbLine
 10
360.9278881131324
 20
79.97149161409291
 30
0.0
 11
360.9278881131324
 21
98.97149161409291
 31
0.0
  0
CIRCLE
  5
1865
330
1F
100
AcDbEntity
  8
実線
  6
CONTINUOUS
100
AcDbCircle
 10
353.9278881131324
 20
89.47149161409291
 30
0.0
 40
3.0
  0
LINE
  5
1866
330
1F
100
AcDbEntity
  8
実線
  6
CONTINUOUS
100
AcDbLine
 10
305.1621118151926
 20
101.543463497186
 30
0.0
 11
268.1621118151922
 21
101.543463497186
 31
0.0
  0
LINE
  5
1867
330
1F
100
AcDbEntity
  8
実線
  6
CONTINUOUS
100
AcDbLine
 10
305.1621118151926
 20
76.54346349718602
 30
0.0
 11
268.1621118151922
 21
76.54346349718602
 31
0.0
  0
LINE
  5
1868
330
1F
100
AcDbEntity
  8
実線
  6
CONTINUOUS
100
AcDbLine
 10
308.1621118151926
 20
79.54346349718602
 30
0.0
 11
308.1621118151926
 21
87.09346349718604
 31
0.0
  0
LINE
  5
1869
330
1F
100
AcDbEntity
  8
実線
  6
CONTINUOUS
100
AcDbLine
 10
268.1621118151922
 20
104.043463497186
 30
0.0
 11
233.1621118151922
 21
104.043463497186
 31
0.0
  0
LINE
  5
186A
330
1F
100
AcDbEntity
  8
実線
  6
CONTINUOUS
100
AcDbLine
 10
268.1621118151922
 20
74.04346349718602
 30
0.0
 11
233.1621118151922
 21
74.04346349718602
 31
0.0
  0
LINE
  5
186B
330
1F
100
AcDbEntity
  8
実線
  6
CONTINUOUS
100
AcDbLine
 10
268.1621118151922
 20
74.04346349718602
 30
0.0
 11
268.1621118151922
 21
76.54346349718602
 31
0.0
  0
LINE
  5
186C
330
1F
100
AcDbEntity
  8
実線
  6
CONTINUOUS
100
AcDbLine
 10
268.1621118151922
 20
101.543463497186
 30
0.0
 11
268.1621118151922
 21
104.043463497186
 31
0.0
  0
LINE
  5
186D
330
1F
100
AcDbEntity
  8
実線
  6
CONTINUOUS
100
AcDbLine
 10
290.1621118151926
 20
90.99346349718601
 30
0.0
 11
290.1621118151926
 21
87.09346349718604
 31
0.0
  0
LINE
  5
186E
330
1F
100
AcDbEntity
  8
実線
  6
CONTINUOUS
100
AcDbLine
 10
308.1621118151926
 20
90.99346349718601
 30
0.0
 11
308.1621118151926
 21
98.54346349718602
 31
0.0
  0
LINE
  5
186F
330
1F
100
AcDbEntity
  8
実線
  6
CONTINUOUS
100
AcDbLine
 10
305.1621118151926
 20
101.543463497186
 30
0.0
 11
308.1621118151926
 21
98.54346349718602
 31
0.0
  0
LINE
  5
1870
330
1F
100
AcDbEntity
  8
実線
  6
CONTINUOUS
100
AcDbLine
 10
308.1621118151926
 20
79.54346349718602
 30
0.0
 11
305.1621118151926
 21
76.54346349718602
 31
0.0
  0
LINE
  5
1871
330
1F
100
AcDbEntity
  8
実線
  6
CONTINUOUS
100
AcDbLine
 10
358.0233464927105
 20
139.2607544085184
 30
0.0
 11
355.0233464927105
 21
142.2607544085184
 31
0.0
  0
LINE
  5
1872
330
1F
100
AcDbEntity
  8
実線
  6
CONTINUOUS
100
AcDbLine
 10
358.0233464927105
 20
120.2607544085184
 30
0.0
 11
355.0233464927105
 21
117.2607544085184
 31
0.0
  0
LINE
  5
1873
330
1F
100
AcDbEntity
  8
実線
  6
CONTINUOUS
100
AcDbLine
 10
340.0233464927105
 20
131.7107544085184
 30
0.0
 11
340.0233464927105
 21
127.8107544085185
 31
0.0
  0
LINE
  5
1874
330
1F
100
AcDbEntity
  8
実線
  6
CONTINUOUS
100
AcDbLine
 10
313.0233464927105
 20
127.8107544085185
 30
0.0
 11
313.0233464927105
 21
114.7607544085184
 31
0.0
  0
LINE
  5
1875
330
1F
100
AcDbEntity
  8
実線
  6
CONTINUOUS
100
AcDbLine
 10
356.3350875211975
 20
40.14121210526355
 30
0.0
 11
356.3350875211975
 21
36.24121210526351
 31
0.0
  0
LINE
  5
1876
330
1F
100
AcDbEntity
  8
実線
  6
CONTINUOUS
100
AcDbLine
 10
331.3350875211975
 20
40.14121210526355
 30
0.0
 11
331.3350875211975
 21
36.24121210526351
 31
0.0
  0
LINE
  5
1877
330
1F
100
AcDbEntity
  8
実線
  6
CONTINUOUS
100
AcDbLine
 10
345.7850875211975
 20
50.69121210526362
 30
0.0
 11
341.8850875211976
 21
50.69121210526362
 31
0.0
  0
LINE
  5
1878
330
1F
100
AcDbEntity
  8
実線
  6
CONTINUOUS
100
AcDbLine
 10
345.7850875211975
 20
25.69121210526362
 30
0.0
 11
341.8850875211976
 21
25.69121210526362
 31
0.0
  0
CIRCLE
  5
1879
330
1F
100
AcDbEntity
  8
実線
  6
CONTINUOUS
100
AcDbCircle
 10
343.8350875211975
 20
38.19121210526362
 30
0.0
 40
18.0
  0
LINE
  5
187A
330
1F
100
AcDbEntity
  8
実線
  6
CONTINUOUS
100
AcDbLine
 10
208.9424151818218
 20
113.9866399677738
 30
0.0
 11
208.9424151818218
 21
100.9366399677737
 31
0.0
  0
LINE
  5
187B
330
1F
100
AcDbEntity
  8
実線
  6
CONTINUOUS
100
AcDbLine
 10
321.9278881131324
 20
76.97149161409291
 30
0.0
 11
321.9278881131324
 21
87.52149161409292
 31
0.0
  0
LINE
  5
187C
330
1F
100
AcDbEntity
  8
実線
  6
CONTINUOUS
100
AcDbLine
 10
321.9278881131324
 20
91.42149161409293
 30
0.0
 11
321.9278881131324
 21
101.9714916140929
 31
0.0
  0
CIRCLE
  5
187D
330
1F
100
AcDbEntity
  8
実線
  6
CONTINUOUS
100
AcDbCircle
 10
233.1621118151922
 20
89.04346349718602
 30
0.0
 40
4.2
  0
CIRCLE
  5
187E
330
1F
100
AcDbEntity
  8
実線
  6
CONTINUOUS
100
AcDbCircle
 10
241.1621118151922
 20
97.04346349718602
 30
0.0
 40
1.5
  0
CIRCLE
  5
187F
330
1F
100
AcDbEntity
  8
実線
  6
CONTINUOUS
100
AcDbCircle
 10
241.1621118151922
 20
81.04346349718602
 30
0.0
 40
1.5
  0
CIRCLE
  5
1880
330
1F
100
AcDbEntity
  8
実線
  6
CONTINUOUS
100
AcDbCircle
 10
225.1621118151922
 20
97.04346349718602
 30
0.0
 40
1.5
  0
CIRCLE
  5
1881
330
1F
100
AcDbEntity
  8
実線
  6
CONTINUOUS
100
AcDbCircle
 10
225.1621118151922
 20
81.04346349718602
 30
0.0
 40
1.5
  0
LINE
  5
1882
330
1F
100
AcDbEntity
  8
外形線
  6
CONTINUOUS
100
AcDbLine
 10
194.9424151818218
 20
117.9366399677737
 30
0.0
 11
194.9424151818218
 21
100.4366399677737
 31
0.0
  0
LINE
  5
1883
330
1F
100
AcDbEntity
  8
実線
  6
CONTINUOUS
100
AcDbLine
 10
198.9424151818218
 20
117.9366399677737
 30
0.0
 11
198.9424151818218
 21
122.9366399677738
 31
0.0
  0
LINE
  5
1884
330
1F
100
AcDbEntity
  8
外形線
  6
CONTINUOUS
100
AcDbLine
 10
205.942415181822
 20
100.9366399677737
 30
0.0
 11
208.9424151818218
 21
100.9366399677737
 31
0.0
  0
LINE
  5
1885
330
1F
100
AcDbEntity
  8
外形線
  6
CONTINUOUS
100
AcDbLine
 10
205.942415181822
 20
100.9366399677737
 30
0.0
 11
203.942415181822
 21
98.93663996777371
 31
0.0
  0
LINE
  5
1886
330
1F
100
AcDbEntity
  8
外形線
  6
CONTINUOUS
100
AcDbLine
 10
194.9424151818218
 20
117.9366399677737
 30
0.0
 11
198.9424151818218
 21
117.9366399677737
 31
0.0
  0
LINE
  5
1887
330
1F
100
AcDbEntity
  8
外形線
  6
CONTINUOUS
100
AcDbLine
 10
198.9424151818218
 20
122.9366399677738
 30
0.0
 11
208.9424151818218
 21
122.9366399677738
 31
0.0
  0
LINE
  5
1888
330
1F
100
AcDbEntity
  8
外形線
  6
CONTINUOUS
100
AcDbLine
 10
194.9424151818218
 20
117.9366399677737
 30
0.0
 11
198.9424151818218
 21
117.9366399677737
 31
0.0
  0
LINE
  5
1889
330
1F
100
AcDbEntity
  8
外形線
  6
CONTINUOUS
100
AcDbLine
 10
203.9424151818218
 20
117.9366399677737
 30
0.0
 11
208.9424151818218
 21
117.9366399677737
 31
0.0
  0
LINE
  5
188A
330
1F
100
AcDbEntity
  8
外形線
  6
CONTINUOUS
100
AcDbLine
 10
303.4308001861385
 20
51.37807361716332
 30
0.0
 11
307.3308001861385
 21
51.37807361716332
 31
0.0
  0
LINE
  5
188B
330
1F
100
AcDbEntity
  8
外形線
  6
CONTINUOUS
100
AcDbLine
 10
303.4308001861385
 20
26.3780736171633
 30
0.0
 11
307.3308001861385
 21
26.3780736171633
 31
0.0
  0
LINE
  5
188C
330
1F
100
AcDbEntity
  8
外形線
  6
CONTINUOUS
100
AcDbLine
 10
317.3808001861385
 20
57.87807361716332
 30
0.0
 11
317.3808001861385
 21
19.8780736171633
 31
0.0
  0
LINE
  5
188D
330
1F
100
AcDbEntity
  8
外形線
  6
CONTINUOUS
100
AcDbLine
 10
314.3808001861385
 20
60.87807361716332
 30
0.0
 11
317.3808001861385
 21
57.87807361716332
 31
0.0
  0
LINE
  5
188E
330
1F
100
AcDbEntity
  8
外形線
  6
CONTINUOUS
100
AcDbLine
 10
314.3808001861385
 20
16.8780736171633
 30
0.0
 11
317.3808001861385
 21
19.8780736171633
 31
0.0
  0
LINE
  5
188F
330
1F
100
AcDbEntity
  8
外形線
  6
CONTINUOUS
100
AcDbLine
 10
357.9278881131324
 20
101.9714916140929
 30
0.0
 11
321.9278881131324
 21
101.9714916140929
 31
0.0
  0
LINE
  5
1890
330
1F
100
AcDbEntity
  8
外形線
  6
CONTINUOUS
100
AcDbLine
 10
357.9278881131324
 20
76.97149161409291
 30
0.0
 11
321.9278881131324
 21
76.97149161409291
 31
0.0
  0
LINE
  5
1891
330
1F
100
AcDbEntity
  8
外形線
  6
CONTINUOUS
100
AcDbLine
 10
357.9278881131324
 20
76.97149161409291
 30
0.0
 11
360.9278881131324
 21
79.97149161409291
 31
0.0
  0
LINE
  5
1892
330
1F
100
AcDbEntity
  8
外形線
  6
CONTINUOUS
100
AcDbLine
 10
357.9278881131324
 20
101.9714916140929
 30
0.0
 11
360.9278881131324
 21
98.97149161409291
 31
0.0
  0
LINE
  5
1893
330
1F
100
AcDbEntity
  8
外形線
  6
CONTINUOUS
100
AcDbLine
 10
218.1621118151922
 20
89.04346349718602
 30
0.0
 11
218.1621118151922
 21
89.04346349718602
 31
0.0
  0
ARC
  5
1894
330
1F
100
AcDbEntity
  8
外形線
  6
CONTINUOUS
100
AcDbCircle
 10
233.1621118151922
 20
89.04346349718602
 30
0.0
 40
15.0
100
AcDbArc
 50
90.0
 51
180.0
  0
ARC
  5
1895
330
1F
100
AcDbEntity
  8
外形線
  6
CONTINUOUS
100
AcDbCircle
 10
233.1621118151922
 20
89.04346349718602
 30
0.0
 40
15.0
100
AcDbArc
 50
180.0
 51
270.0
  0
CIRCLE
  5
1896
330
1F
100
AcDbEntity
  8
外形線
  6
CONTINUOUS
100
AcDbCircle
 10
284.7623885560315
 20
131.4782867008358
 30
0.0
 40
16.0
  0
CIRCLE
  5
1897
330
1F
100
AcDbEntity
  8
外形線
  6
CONTINUOUS
100
AcDbCircle
 10
276.762388556032
 20
139.4782867008358
 30
0.0
 40
1.5
  0
CIRCLE
  5
1898
330
1F
100
AcDbEntity
  8
外形線
  6
CONTINUOUS
100
AcDbCircle
 10
292.7623885560315
 20
139.4782867008358
 30
0.0
 40
1.5
  0
CIRCLE
  5
1899
330
1F
100
AcDbEntity
  8
外形線
  6
CONTINUOUS
100
AcDbCircle
 10
276.762388556032
 20
123.4782867008358
 30
0.0
 40
1.5
  0
CIRCLE
  5
189A
330
1F
100
AcDbEntity
  8
外形線
  6
CONTINUOUS
100
AcDbCircle
 10
292.7623885560315
 20
123.4782867008358
 30
0.0
 40
1.5
  0
CIRCLE
  5
189B
330
1F
100
AcDbEntity
  8
外形線
  6
CONTINUOUS
100
AcDbCircle
 10
284.7623885560315
 20
131.4782867008358
 30
0.0
 40
4.2
  0
LINE
  5
189C
330
1F
100
AcDbEntity
  8
実線
100
AcDbLine
 10
203.942415181822
 20
85.98663996777373
 30
0.0
 11
203.9424151818218
 21
72.93663996777371
 31
0.0
  0
LINE
  5
189D
330
1F
100
AcDbEntity
  8
実線
100
AcDbLine
 10
158.9424151818218
 20
37.4417791390191
 30
0.0
 11
158.9424151818218
 21
29.89177913901915
 31
0.0
  0
LINE
  5
189E
330
1F
100
AcDbEntity
  8
実線
100
AcDbLine
 10
198.9424151818218
 20
26.89177913901915
 30
0.0
 11
198.9424151818218
 21
14.89177913901915
 31
0.0
  0
LINE
  5
189F
330
1F
100
AcDbEntity
  8
外形線
  6
CONTINUOUS
100
AcDbLine
 10
158.9424151818218
 20
37.4417791390191
 30
0.0
 11
176.9424151818218
 21
37.4417791390191
 31
0.0
  0
LINE
  5
18A0
330
1F
100
AcDbEntity
  8
外形線
  6
CONTINUOUS
100
AcDbLine
 10
158.9424151818218
 20
41.34177913901914
 30
0.0
 11
176.9424151818218
 21
41.34177913901914
 31
0.0
  0
LINE
  5
18A1
330
1F
100
AcDbEntity
  8
外形線
  6
CONTINUOUS
100
AcDbLine
 10
203.942415181822
 20
85.98663996777373
 30
0.0
 11
176.9424151818218
 21
85.98663996777373
 31
0.0
  0
LINE
  5
18A2
330
1F
100
AcDbEntity
  8
外形線
  6
CONTINUOUS
100
AcDbLine
 10
203.942415181822
 20
89.88663996777373
 30
0.0
 11
176.9424151818218
 21
89.88663996777373
 31
0.0
  0
LINE
  5
18A3
330
1F
100
AcDbEntity
  8
外形線
  6
CONTINUOUS
100
AcDbLine
 10
208.9424151818218
 20
117.8866399677737
 30
0.0
 11
203.9424151818218
 21
117.8866399677737
 31
0.0
  0
LINE
  5
18A4
330
1F
100
AcDbEntity
  8
外形線
  6
CONTINUOUS
100
AcDbLine
 10
208.9424151818218
 20
113.9866399677738
 30
0.0
 11
203.9424151818218
 21
113.9866399677738
 31
0.0
  0
LINE
  5
18A5
330
1F
100
AcDbEntity
  8
外形線
  6
CONTINUOUS
100
AcDbLine
 10
321.9278881131324
 20
87.52149161409292
 30
0.0
 11
330.9278881131324
 21
87.52149161409292
 31
0.0
  0
LINE
  5
18A6
330
1F
100
AcDbEntity
  8
外形線
  6
CONTINUOUS
100
AcDbLine
 10
321.9278881131324
 20
91.42149161409293
 30
0.0
 11
330.9278881131324
 21
91.42149161409293
 31
0.0
  0
LINE
  5
18A7
330
1F
100
AcDbEntity
  8
外形線
  6
CONTINUOUS
100
AcDbLine
 10
313.0233464927105
 20
127.8107544085185
 30
0.0
 11
340.0233464927105
 21
127.8107544085185
 31
0.0
  0
LINE
  5
18A8
330
1F
100
AcDbEntity
  8
外形線
  6
CONTINUOUS
100
AcDbLine
 10
313.0233464927105
 20
131.7107544085184
 30
0.0
 11
340.0233464927105
 21
131.7107544085184
 31
0.0
  0
LINE
  5
18A9
330
1F
100
AcDbEntity
  8
外形線
  6
CONTINUOUS
100
AcDbLine
 10
308.1621118151926
 20
87.09346349718604
 30
0.0
 11
290.1621118151926
 21
87.09346349718604
 31
0.0
  0
LINE
  5
18AA
330
1F
100
AcDbEntity
  8
外形線
  6
CONTINUOUS
100
AcDbLine
 10
308.1621118151926
 20
90.99346349718601
 30
0.0
 11
290.1621118151926
 21
90.99346349718601
 31
0.0
  0
LINE
  5
18AB
330
1F
100
AcDbEntity
  8
外形線
  6
CONTINUOUS
100
AcDbLine
 10
341.8850875211976
 20
25.69121210526362
 30
0.0
 11
341.8850875211976
 21
36.24121210526351
 31
0.0
  0
LINE
  5
18AC
330
1F
100
AcDbEntity
  8
外形線
  6
CONTINUOUS
100
AcDbLine
 10
345.7850875211975
 20
25.69121210526362
 30
0.0
 11
345.7850875211975
 21
36.24121210526351
 31
0.0
  0
LINE
  5
18AD
330
1F
100
AcDbEntity
  8
外形線
  6
CONTINUOUS
100
AcDbLine
 10
356.3350875211975
 20
40.14121210526355
 30
0.0
 11
345.7850875211975
 21
40.14121210526355
 31
0.0
  0
LINE
  5
18AE
330
1F
100
AcDbEntity
  8
外形線
  6
CONTINUOUS
100
AcDbLine
 10
356.3350875211975
 20
36.24121210526351
 30
0.0
 11
345.7850875211975
 21
36.24121210526351
 31
0.0
  0
LINE
  5
18AF
330
1F
100
AcDbEntity
  8
外形線
  6
CONTINUOUS
100
AcDbLine
 10
341.8850875211976
 20
40.14121210526355
 30
0.0
 11
331.3350875211975
 21
40.14121210526355
 31
0.0
  0
LINE
  5
18B0
330
1F
100
AcDbEntity
  8
外形線
  6
CONTINUOUS
100
AcDbLine
 10
341.8850875211976
 20
36.24121210526351
 30
0.0
 11
331.3350875211975
 21
36.24121210526351
 31
0.0
  0
LINE
  5
18B1
330
1F
100
AcDbEntity
  8
外形線
  6
CONTINUOUS
100
AcDbLine
 10
345.7850875211975
 20
40.14121210526355
 30
0.0
 11
345.7850875211975
 21
50.69121210526362
 31
0.0
  0
LINE
  5
18B2
330
1F
100
AcDbEntity
  8
外形線
  6
CONTINUOUS
100
AcDbLine
 10
341.8850875211976
 20
40.14121210526355
 30
0.0
 11
341.8850875211976
 21
50.69121210526362
 31
0.0
  0
LINE
  5
18B3
330
1F
100
AcDbEntity
  8
外形線
  6
CONTINUOUS
100
AcDbLine
 10
264.8808001861382
 20
36.92807361716331
 30
0.0
 11
275.4308001861382
 21
36.92807361716331
 31
0.0
  0
LINE
  5
18B4
330
1F
100
AcDbEntity
  8
外形線
  6
CONTINUOUS
100
AcDbLine
 10
264.8808001861382
 20
40.82807361716334
 30
0.0
 11
275.4308001861382
 21
40.82807361716334
 31
0.0
  0
LINE
  5
18B5
330
1F
100
AcDbEntity
  8
外形線
  6
CONTINUOUS
100
AcDbLine
 10
303.4308001861385
 20
51.37807361716332
 30
0.0
 11
303.4308001861385
 21
40.82807361716334
 31
0.0
  0
LINE
  5
18B6
330
1F
100
AcDbEntity
  8
外形線
  6
CONTINUOUS
100
AcDbLine
 10
307.3308001861385
 20
51.37807361716332
 30
0.0
 11
307.3308001861385
 21
26.3780736171633
 31
0.0
  0
LINE
  5
18B7
330
1F
100
AcDbEntity
  8
外形線
  6
CONTINUOUS
100
AcDbLine
 10
279.3308001861382
 20
26.3780736171633
 30
0.0
 11
279.3308001861382
 21
36.92807361716331
 31
0.0
  0
LINE
  5
18B8
330
1F
100
AcDbEntity
  8
外形線
  6
CONTINUOUS
100
AcDbLine
 10
275.4308001861382
 20
26.3780736171633
 30
0.0
 11
275.4308001861382
 21
36.92807361716331
 31
0.0
  0
LINE
  5
18B9
330
1F
100
AcDbEntity
  8
外形線
  6
CONTINUOUS
100
AcDbLine
 10
303.4308001861385
 20
36.92807361716331
 30
0.0
 11
303.4308001861385
 21
26.3780736171633
 31
0.0
  0
LINE
  5
18BA
330
1F
100
AcDbEntity
  8
外形線
  6
CONTINUOUS
100
AcDbLine
 10
279.3308001861382
 20
40.82807361716334
 30
0.0
 11
279.3308001861382
 21
51.37807361716332
 31
0.0
  0
LINE
  5
18BB
330
1F
100
AcDbEntity
  8
外形線
  6
CONTINUOUS
100
AcDbLine
 10
275.4308001861382
 20
40.82807361716334
 30
0.0
 11
275.4308001861382
 21
51.37807361716332
 31
0.0
  0
LINE
  5
18BC
330
1F
100
AcDbEntity
  8
外形線
  6
CONTINUOUS
100
AcDbLine
 10
279.3308001861382
 20
36.92807361716331
 30
0.0
 11
303.4308001861385
 21
36.92807361716331
 31
0.0
  0
LINE
  5
18BD
330
1F
100
AcDbEntity
  8
外形線
  6
CONTINUOUS
100
AcDbLine
 10
279.3308001861382
 20
40.82807361716334
 30
0.0
 11
303.4308001861385
 21
40.82807361716334
 31
0.0
  0
LINE
  5
18BE
330
1F
100
AcDbEntity
  8
実線
  6
CONTINUOUS
100
AcDbLine
 10
198.9424151818218
 20
14.89177913901915
 30
0.0
 11
220.9424151818218
 21
14.89177913901915
 31
0.0
  0
LINE
  5
18BF
330
1F
100
AcDbEntity
  8
実線
  6
CONTINUOUS
100
AcDbLine
 10
198.9424151818218
 20
63.89177913901912
 30
0.0
 11
243.9424151818218
 21
63.89177913901912
 31
0.0
  0
CIRCLE
  5
18D3
330
1F
100
AcDbEntity
  8
実線
  6
CONTINUOUS
100
AcDbCircle
 10
212.4424151818218
 20
58.89177913901912
 30
0.0
 40
1.5
  0
CIRCLE
  5
18D4
330
1F
100
AcDbEntity
  8
実線
  6
CONTINUOUS
100
AcDbCircle
 10
241.4424151818218
 20
58.89177913901912
 30
0.0
 40
1.5
  0
CIRCLE
  5
18D5
330
1F
100
AcDbEntity
  8
実線
  6
CONTINUOUS
100
AcDbCircle
 10
212.4424151818218
 20
19.89177913901915
 30
0.0
 40
1.5
  0
CIRCLE
  5
18D6
330
1F
100
AcDbEntity
  8
実線
  6
CONTINUOUS
100
AcDbCircle
 10
241.4424151818218
 20
19.89177913901915
 30
0.0
 40
1.5
  0
LINE
  5
18D7
330
1F
100
AcDbEntity
  8
実線
  6
CONTINUOUS
100
AcDbLine
 10
243.9424151818218
 20
63.89177913901912
 30
0.0
 11
248.9424151818218
 21
58.89177913901912
 31
0.0
  0
LINE
  5
18D8
330
1F
100
AcDbEntity
  8
実線
  6
CONTINUOUS
100
AcDbLine
 10
243.9424151818218
 20
14.89177913901915
 30
0.0
 11
248.9424151818218
 21
19.89177913901915
 31
0.0
  0
LINE
  5
18DA
330
1F
100
AcDbEntity
  8
実線
  6
CONTINUOUS
100
AcDbLine
 10
240.4424151818218
 20
16.89177913901915
 30
0.0
 11
240.4424151818218
 21
14.89177913901915
 31
0.0
  0
LINE
  5
18EC
330
1F
100
AcDbEntity
  8
実線
  6
CONTINUOUS
100
AcDbLine
 10
234.4424151818218
 20
16.89177913901915
 30
0.0
 11
234.4424151818218
 21
14.89177913901915
 31
0.0
  0
LINE
  5
18EE
330
1F
100
AcDbEntity
  8
実線
  6
CONTINUOUS
100
AcDbLine
 10
230.9424151818218
 20
18.89177913901915
 30
0.0
 11
230.9424151818218
 21
14.89177913901915
 31
0.0
  0
LINE
  5
18EF
330
1F
100
AcDbEntity
  8
実線
  6
CONTINUOUS
100
AcDbLine
 10
222.9424151818218
 20
18.89177913901915
 30
0.0
 11
222.9424151818218
 21
16.89177913901915
 31
0.0
  0
LINE
  5
18F0
330
1F
100
AcDbEntity
  8
実線
  6
CONTINUOUS
100
AcDbLine
 10
220.9424151818218
 20
16.89177913901915
 30
0.0
 11
220.9424151818218
 21
14.89177913901915
 31
0.0
  0
LINE
  5
18F1
330
1F
100
AcDbEntity
  8
実線
  6
CONTINUOUS
100
AcDbLine
 10
240.4424151818218
 20
16.89177913901915
 30
0.0
 11
234.4424151818218
 21
16.89177913901915
 31
0.0
  0
LINE
  5
18F2
330
1F
100
AcDbEntity
  8
実線
  6
CONTINUOUS
100
AcDbLine
 10
222.9424151818218
 20
18.89177913901915
 30
0.0
 11
230.9424151818218
 21
18.89177913901915
 31
0.0
  0
LINE
  5
18F3
330
1F
100
AcDbEntity
  8
実線
  6
CONTINUOUS
100
AcDbLine
 10
222.9424151818218
 20
16.89177913901915
 30
0.0
 11
220.9424151818218
 21
16.89177913901915
 31
0.0
  0
LINE
  5
18F4
330
1F
100
AcDbEntity
  8
実線
  6
CONTINUOUS
100
AcDbLine
 10
230.9424151818218
 20
14.89177913901915
 30
0.0
 11
234.4424151818218
 21
14.89177913901915
 31
0.0
  0
LINE
  5
18F5
330
1F
100
AcDbEntity
  8
実線
  6
CONTINUOUS
100
AcDbLine
 10
240.4424151818218
 20
14.89177913901915
 30
0.0
 11
243.9424151818218
 21
14.89177913901915
 31
0.0
  0
LINE
  5
198E
330
1F
100
AcDbEntity
  8
実線
100
AcDbLine
 10
165.3933506057949
 20
241.1951384286682
 30
0.0
 11
165.3933506057949
 21
222.1951384286682
 31
0.0
  0
LINE
  5
198F
330
1F
100
AcDbEntity
  8
実線
100
AcDbLine
 10
168.3933506057949
 20
195.5190008038068
 30
0.0
 11
205.3933506057949
 21
195.5190008038068
 31
0.0
  0
LINE
  5
1990
330
1F
100
AcDbEntity
  8
実線
100
AcDbLine
 10
168.393350605795
 20
170.5190008038068
 30
0.0
 11
205.3933506057949
 21
170.5190008038068
 31
0.0
  0
LINE
  5
1991
330
1F
100
AcDbEntity
  8
実線
100
AcDbLine
 10
205.3933506057949
 20
209.0190008038068
 30
0.0
 11
205.3933506057949
 21
195.5190008038068
 31
0.0
  0
LINE
  5
1992
330
1F
100
AcDbEntity
  8
実線
100
AcDbLine
 10
165.3933506057949
 20
185.0190008038068
 30
0.0
 11
183.3933506057949
 21
185.0190008038068
 31
0.0
  0
LINE
  5
1993
330
1F
100
AcDbEntity
  8
実線
100
AcDbLine
 10
165.3933506057949
 20
181.0190008038068
 30
0.0
 11
183.3933506057949
 21
181.0190008038068
 31
0.0
  0
LINE
  5
1994
330
1F
100
AcDbEntity
  8
実線
100
AcDbLine
 10
183.3933506057949
 20
233.6951384286682
 30
0.0
 11
183.3933506057949
 21
229.6951384286682
 31
0.0
  0
LINE
  5
1995
330
1F
100
AcDbEntity
  8
実線
100
AcDbLine
 10
165.3933506057949
 20
192.5190008038068
 30
0.0
 11
168.3933506057949
 21
195.5190008038068
 31
0.0
  0
LINE
  5
1996
330
1F
100
AcDbEntity
  8
実線
100
AcDbLine
 10
165.3933506057949
 20
173.5190008038068
 30
0.0
 11
168.393350605795
 21
170.5190008038068
 31
0.0
  0
LINE
  5
1997
330
1F
100
AcDbEntity
  8
実線
  6
CONTINUOUS
100
AcDbLine
 10
240.0133037442833
 20
273.4356637708802
 30
0.0
 11
240.0133037442833
 21
273.3445660710868
 31
0.0
  0
LINE
  5
1998
330
1F
100
AcDbEntity
  8
実線
  6
CONTINUOUS
100
AcDbLine
 10
236.0133037442833
 20
273.4356637708802
 30
0.0
 11
236.0133037442833
 21
273.3445660710868
 31
0.0
  0
LINE
  5
1999
330
1F
100
AcDbEntity
  8
実線
  6
CONTINUOUS
100
AcDbLine
 10
225.5133037442833
 20
253.4356637708801
 30
0.0
 11
236.0133037442833
 21
253.4356637708801
 31
0.0
  0
LINE
  5
199A
330
1F
100
AcDbEntity
  8
実線
  6
CONTINUOUS
100
AcDbLine
 10
225.5133037442833
 20
249.4356637708801
 30
0.0
 11
236.0133037442833
 21
249.4356637708801
 31
0.0
  0
LINE
  5
199B
330
1F
100
AcDbEntity
  8
実線
  6
CONTINUOUS
100
AcDbLine
 10
240.0133037442833
 20
263.9356637708802
 30
0.0
 11
236.0133037442833
 21
263.9356637708802
 31
0.0
  0
LINE
  5
199C
330
1F
100
AcDbEntity
  8
実線
  6
CONTINUOUS
100
AcDbLine
 10
240.0133037442833
 20
238.9356637708801
 30
0.0
 11
236.0133037442833
 21
238.9356637708801
 31
0.0
  0
LINE
  5
199D
330
1F
100
AcDbEntity
  8
実線
  6
CONTINUOUS
100
AcDbLine
 10
225.5133037442833
 20
253.4356637708801
 30
0.0
 11
225.5133037442833
 21
249.4356637708801
 31
0.0
  0
LINE
  5
199E
330
1F
100
AcDbEntity
  8
実線
  6
CONTINUOUS
100
AcDbLine
 10
240.0133037442833
 20
253.4356637708801
 30
0.0
 11
250.5133037442833
 21
253.4356637708801
 31
0.0
  0
LINE
  5
199F
330
1F
100
AcDbEntity
  8
実線
  6
CONTINUOUS
100
AcDbLine
 10
240.0133037442833
 20
249.4356637708801
 30
0.0
 11
250.5133037442833
 21
249.4356637708801
 31
0.0
  0
LINE
  5
19A0
330
1F
100
AcDbEntity
  8
実線
  6
CONTINUOUS
100
AcDbLine
 10
240.0133037442833
 20
273.4356637708802
 30
0.0
 11
236.0133037442833
 21
273.4356637708802
 31
0.0
  0
LINE
  5
19A1
330
1F
100
AcDbEntity
  8
実線
  6
CONTINUOUS
100
AcDbLine
 10
236.0133037442833
 20
229.4356637708801
 30
0.0
 11
240.0133037442833
 21
229.4356637708801
 31
0.0
  0
LINE
  5
19A2
330
1F
100
AcDbEntity
  8
実線
  6
CONTINUOUS
100
AcDbLine
 10
168.393350605795
 20
244.1951384286682
 30
0.0
 11
205.3933506057949
 21
244.1951384286682
 31
0.0
  0
LINE
  5
19A3
330
1F
100
AcDbEntity
  8
実線
  6
CONTINUOUS
100
AcDbLine
 10
205.3933506057949
 20
216.6951384286682
 30
0.0
 11
210.3933506057949
 21
216.6951384286682
 31
0.0
  0
LINE
  5
19A4
330
1F
100
AcDbEntity
  8
実線
  6
CONTINUOUS
100
AcDbLine
 10
205.3933506057949
 20
216.6951384286682
 30
0.0
 11
205.3933506057949
 21
219.1951384286682
 31
0.0
  0
LINE
  5
19A5
330
1F
100
AcDbEntity
  8
実線
  6
CONTINUOUS
100
AcDbLine
 10
205.3933506057949
 20
219.1951384286682
 30
0.0
 11
168.3933506057949
 21
219.1951384286682
 31
0.0
  0
LINE
  5
19A6
330
1F
100
AcDbEntity
  8
実線
100
AcDbLine
 10
165.3933506057949
 20
192.5190008038068
 30
0.0
 11
165.3933506057949
 21
185.0190008038068
 31
0.0
  0
LINE
  5
19A7
330
1F
100
AcDbEntity
  8
実線
  6
CONTINUOUS
100
AcDbLine
 10
165.3933506057949
 20
241.1951384286681
 30
0.0
 11
168.3933506057949
 21
244.1951384286681
 31
0.0
  0
LINE
  5
19A8
330
1F
100
AcDbEntity
  8
実線
  6
CONTINUOUS
100
AcDbLine
 10
165.3933506057949
 20
222.1951384286682
 30
0.0
 11
168.3933506057949
 21
219.1951384286682
 31
0.0
  0
LINE
  5
19A9
330
1F
100
AcDbEntity
  8
実線
  6
CONTINUOUS
100
AcDbLine
 10
183.3933506057949
 20
233.6951384286682
 30
0.0
 11
210.3933506057949
 21
233.6951384286682
 31
0.0
  0
LINE
  5
19AA
330
1F
100
AcDbEntity
  8
実線
  6
CONTINUOUS
100
AcDbLine
 10
183.3933506057949
 20
229.6951384286682
 30
0.0
 11
210.3933506057949
 21
229.6951384286682
 31
0.0
  0
LINE
  5
19AB
330
1F
100
AcDbEntity
  8
実線
100
AcDbLine
 10
183.3933506057949
 20
185.0190008038068
 30
0.0
 11
183.3933506057949
 21
181.0190008038068
 31
0.0
  0
LINE
  5
19AC
330
1F
100
AcDbEntity
  8
実線
100
AcDbLine
 10
210.3933506057949
 20
246.6951384286682
 30
0.0
 11
210.3933506057949
 21
233.6951384286682
 31
0.0
  0
LINE
  5
19AD
330
1F
100
AcDbEntity
  8
実線
  6
CONTINUOUS
100
AcDbLine
 10
241.3933506057949
 20
209.0190008038068
 30
0.0
 11
205.3933506057949
 21
209.0190008038068
 31
0.0
  0
LINE
  5
19AE
330
1F
100
AcDbEntity
  8
実線
  6
CONTINUOUS
100
AcDbLine
 10
241.3933506057949
 20
157.0190008038068
 30
0.0
 11
205.3933506057949
 21
157.0190008038068
 31
0.0
  0
LINE
  5
19AF
330
1F
100
AcDbEntity
  8
実線
  6
CONTINUOUS
100
AcDbLine
 10
245.3933506057949
 20
205.0190008038068
 30
0.0
 11
245.3933506057949
 21
161.0190008038068
 31
0.0
  0
LINE
  5
19B0
330
1F
100
AcDbEntity
  8
実線
  6
CONTINUOUS
100
AcDbLine
 10
241.3933506057949
 20
209.0190008038068
 30
0.0
 11
245.3933506057949
 21
205.0190008038068
 31
0.0
  0
LINE
  5
19B1
330
1F
100
AcDbEntity
  8
実線
  6
CONTINUOUS
100
AcDbLine
 10
241.3933506057949
 20
157.0190008038068
 30
0.0
 11
245.3933506057949
 21
161.0190008038068
 31
0.0
  0
CIRCLE
  5
19B2
330
1F
100
AcDbEntity
  8
実線
  6
CONTINUOUS
100
AcDbCircle
 10
234.3933506057949
 20
195.0190008038068
 30
0.0
 40
1.5
  0
CIRCLE
  5
19B3
330
1F
100
AcDbEntity
  8
実線
  6
CONTINUOUS
100
AcDbCircle
 10
226.3933506057949
 20
195.0190008038068
 30
0.0
 40
1.5
  0
CIRCLE
  5
19B4
330
1F
100
AcDbEntity
  8
実線
  6
CONTINUOUS
100
AcDbCircle
 10
234.3933506057949
 20
171.0190008038068
 30
0.0
 40
1.5
  0
CIRCLE
  5
19B5
330
1F
100
AcDbEntity
  8
実線
  6
CONTINUOUS
100
AcDbCircle
 10
226.3933506057949
 20
171.0190008038068
 30
0.0
 40
1.5
  0
CIRCLE
  5
19B6
330
1F
100
AcDbEntity
  8
実線
  6
CONTINUOUS
100
AcDbCircle
 10
238.0133037442833
 20
251.4356637708801
 30
0.0
 40
22.0
  0
LINE
  5
19B7
330
1F
100
AcDbEntity
  8
実線
  6
CONTINUOUS
100
AcDbLine
 10
250.5133037442833
 20
253.4356637708801
 30
0.0
 11
250.5133037442833
 21
249.4356637708801
 31
0.0
  0
LINE
  5
19B8
330
1F
100
AcDbEntity
  8
実線
  6
CONTINUOUS
100
AcDbLine
 10
205.3933506057949
 20
246.6951384286682
 30
0.0
 11
210.3933506057949
 21
246.6951384286682
 31
0.0
  0
LINE
  5
19B9
330
1F
100
AcDbEntity
  8
実線
  6
CONTINUOUS
100
AcDbLine
 10
205.3933506057949
 20
244.1951384286682
 30
0.0
 11
205.3933506057949
 21
246.6951384286682
 31
0.0
  0
LINE
  5
19BA
330
1F
100
AcDbEntity
  8
実線
  6
CONTINUOUS
100
AcDbLine
 10
257.5485759256323
 20
156.6023378367335
 30
0.0
 11
257.5485759256323
 21
216.6023378367335
 31
0.0
  0
LINE
  5
19BB
330
1F
100
AcDbEntity
  8
実線
  6
CONTINUOUS
100
AcDbLine
 10
357.5485759256326
 20
160.6023378367335
 30
0.0
 11
357.5485759256326
 21
212.6023378367335
 31
0.0
  0
LINE
  5
19BC
330
1F
100
AcDbEntity
  8
実線
  6
CONTINUOUS
100
AcDbLine
 10
294.5485759256326
 20
208.1023378367335
 30
0.0
 11
270.5485759256323
 21
208.1023378367335
 31
0.0
  0
LINE
  5
19BD
330
1F
100
AcDbEntity
  8
実線
  6
CONTINUOUS
100
AcDbLine
 10
294.5485759256326
 20
165.1023378367335
 30
0.0
 11
270.5485759256323
 21
165.1023378367335
 31
0.0
  0
LINE
  5
19BE
330
1F
100
AcDbEntity
  8
実線
  6
CONTINUOUS
100
AcDbLine
 10
270.5485759256323
 20
165.1023378367335
 30
0.0
 11
270.5485759256323
 21
156.6023378367335
 31
0.0
  0
LINE
  5
19BF
330
1F
100
AcDbEntity
  8
実線
  6
CONTINUOUS
100
AcDbLine
 10
294.5485759256326
 20
165.1023378367335
 30
0.0
 11
294.5485759256326
 21
156.6023378367335
 31
0.0
  0
LINE
  5
19C0
330
1F
100
AcDbEntity
  8
実線
  6
CONTINUOUS
100
AcDbLine
 10
294.5485759256326
 20
208.1023378367335
 30
0.0
 11
294.5485759256326
 21
216.6023378367335
 31
0.0
  0
LINE
  5
19C1
330
1F
100
AcDbEntity
  8
実線
  6
CONTINUOUS
100
AcDbLine
 10
270.5485759256323
 20
208.1023378367335
 30
0.0
 11
270.5485759256323
 21
216.6023378367335
 31
0.0
  0
LINE
  5
19C2
330
1F
100
AcDbEntity
  8
実線
  6
CONTINUOUS
100
AcDbLine
 10
353.5485759256326
 20
216.6023378367335
 30
0.0
 11
294.5485759256326
 21
216.6023378367335
 31
0.0
  0
LINE
  5
19C3
330
1F
100
AcDbEntity
  8
実線
  6
CONTINUOUS
100
AcDbLine
 10
353.5485759256326
 20
156.6023378367335
 30
0.0
 11
294.5485759256326
 21
156.6023378367335
 31
0.0
  0
LINE
  5
19C4
330
1F
100
AcDbEntity
  8
実線
  6
CONTINUOUS
100
AcDbLine
 10
270.5485759256323
 20
156.6023378367335
 30
0.0
 11
257.5485759256323
 21
156.6023378367335
 31
0.0
  0
LINE
  5
19C5
330
1F
100
AcDbEntity
  8
実線
  6
CONTINUOUS
100
AcDbLine
 10
270.5485759256323
 20
216.6023378367335
 30
0.0
 11
257.5485759256323
 21
216.6023378367335
 31
0.0
  0
CIRCLE
  5
19C6
330
1F
100
AcDbEntity
  8
外形線
  6
CONTINUOUS
100
AcDbCircle
 10
262.5485759256323
 20
203.6023378367335
 30
0.0
 40
1.5
  0
CIRCLE
  5
19C7
330
1F
100
AcDbEntity
  8
外形線
  6
CONTINUOUS
100
AcDbCircle
 10
306.5485759256326
 20
203.6023378367335
 30
0.0
 40
1.5
  0
CIRCLE
  5
19C8
330
1F
100
AcDbEntity
  8
外形線
  6
CONTINUOUS
100
AcDbCircle
 10
262.5485759256323
 20
169.6023378367335
 30
0.0
 40
1.5
  0
CIRCLE
  5
19C9
330
1F
100
AcDbEntity
  8
外形線
  6
CONTINUOUS
100
AcDbCircle
 10
306.5485759256326
 20
169.6023378367335
 30
0.0
 40
1.5
  0
LINE
  5
19CA
330
1F
100
AcDbEntity
  8
実線
  6
CONTINUOUS
100
AcDbLine
 10
353.5485759256326
 20
216.6023378367335
 30
0.0
 11
357.5485759256326
 21
212.6023378367335
 31
0.0
  0
LINE
  5
19CB
330
1F
100
AcDbEntity
  8
実線
  6
CONTINUOUS
100
AcDbLine
 10
357.5485759256326
 20
160.6023378367335
 30
0.0
 11
353.5485759256326
 21
156.6023378367335
 31
0.0
  0
LINE
  5
19CC
330
1F
100
AcDbEntity
  8
外形線
  6
CONTINUOUS
100
AcDbLine
 10
307.2133484006596
 20
229.3460250978015
 30
0.0
 11
267.21334840066
 21
229.3460250978015
 31
0.0
  0
LINE
  5
19CD
330
1F
100
AcDbEntity
  8
外形線
  6
CONTINUOUS
100
AcDbLine
 10
307.2133484006596
 20
275.3460250978015
 30
0.0
 11
307.2133484006596
 21
243.3460250978015
 31
0.0
  0
LINE
  5
19CE
330
1F
100
AcDbEntity
  8
外形線
  6
CONTINUOUS
100
AcDbLine
 10
267.21334840066
 20
275.3460250978015
 30
0.0
 11
267.21334840066
 21
243.3460250978015
 31
0.0
  0
LINE
  5
19CF
330
1F
100
AcDbEntity
  8
外形線
  6
CONTINUOUS
100
AcDbLine
 10
307.2133484006596
 20
275.3460250978015
 30
0.0
 11
307.2133484006596
 21
243.3460250978015
 31
0.0
  0
LINE
  5
19D0
330
1F
100
AcDbEntity
  8
外形線
  6
CONTINUOUS
100
AcDbLine
 10
307.2133484006596
 20
239.3460250978015
 30
0.0
 11
299.2133484006596
 21
239.3460250978015
 31
0.0
  0
LINE
  5
19D1
330
1F
100
AcDbEntity
  8
外形線
  6
CONTINUOUS
100
AcDbLine
 10
307.2133484006596
 20
243.3460250978015
 30
0.0
 11
299.2133484006596
 21
243.3460250978015
 31
0.0
  0
LINE
  5
19D2
330
1F
100
AcDbEntity
  8
外形線
  6
CONTINUOUS
100
AcDbLine
 10
303.2133484006596
 20
279.3460250978015
 30
0.0
 11
271.21334840066
 21
279.3460250978015
 31
0.0
  0
LINE
  5
19D3
330
1F
100
AcDbEntity
  8
外形線
  6
CONTINUOUS
100
AcDbLine
 10
275.21334840066
 20
239.3460250978015
 30
0.0
 11
275.21334840066
 21
243.3460250978015
 31
0.0
  0
LINE
  5
19D4
330
1F
100
AcDbEntity
  8
外形線
  6
CONTINUOUS
100
AcDbLine
 10
299.2133484006596
 20
239.3460250978015
 30
0.0
 11
299.2133484006596
 21
243.3460250978015
 31
0.0
  0
LINE
  5
19D5
330
1F
100
AcDbEntity
  8
外形線
  6
CONTINUOUS
100
AcDbLine
 10
275.21334840066
 20
239.3460250978015
 30
0.0
 11
267.21334840066
 21
239.3460250978015
 31
0.0
  0
LINE
  5
19D6
330
1F
100
AcDbEntity
  8
外形線
  6
CONTINUOUS
100
AcDbLine
 10
275.21334840066
 20
243.3460250978015
 30
0.0
 11
267.21334840066
 21
243.3460250978015
 31
0.0
  0
LINE
  5
19D7
330
1F
100
AcDbEntity
  8
外形線
  6
CONTINUOUS
100
AcDbLine
 10
307.2133484006596
 20
239.3460250978015
 30
0.0
 11
307.2133484006596
 21
229.3460250978015
 31
0.0
  0
LINE
  5
19D8
330
1F
100
AcDbEntity
  8
外形線
  6
CONTINUOUS
100
AcDbLine
 10
307.2133484006596
 20
239.3460250978015
 30
0.0
 11
307.2133484006596
 21
229.3460250978015
 31
0.0
  0
LINE
  5
19D9
330
1F
100
AcDbEntity
  8
外形線
  6
CONTINUOUS
100
AcDbLine
 10
267.21334840066
 20
239.3460250978015
 30
0.0
 11
267.21334840066
 21
229.3460250978015
 31
0.0
  0
LINE
  5
19DA
330
1F
100
AcDbEntity
  8
外形線
  6
CONTINUOUS
100
AcDbLine
 10
271.21334840066
 20
279.3460250978015
 30
0.0
 11
267.21334840066
 21
275.3460250978015
 31
0.0
  0
LINE
  5
19DB
330
1F
100
AcDbEntity
  8
外形線
  6
CONTINUOUS
100
AcDbLine
 10
303.2133484006596
 20
279.3460250978015
 30
0.0
 11
307.2133484006596
 21
275.3460250978015
 31
0.0
  0
CIRCLE
  5
19DC
330
1F
100
AcDbEntity
  8
外形線
  6
CONTINUOUS
100
AcDbCircle
 10
283.21334840066
 20
273.3460250978015
 30
0.0
 40
1.3
  0
CIRCLE
  5
19DD
330
1F
100
AcDbEntity
  8
外形線
  6
CONTINUOUS
100
AcDbCircle
 10
291.2133484006596
 20
273.3460250978015
 30
0.0
 40
1.3
  0
CIRCLE
  5
19DE
330
1F
100
AcDbEntity
  8
外形線
  6
CONTINUOUS
100
AcDbCircle
 10
283.21334840066
 20
265.3460250978015
 30
0.0
 40
1.3
  0
CIRCLE
  5
19DF
330
1F
100
AcDbEntity
  8
外形線
  6
CONTINUOUS
100
AcDbCircle
 10
291.2133484006596
 20
265.3460250978015
 30
0.0
 40
1.3
  0
CIRCLE
  5
19E0
330
1F
100
AcDbEntity
  8
外形線
  6
CONTINUOUS
100
AcDbCircle
 10
342.5485759256326
 20
186.6023378367335
 30
0.0
 40
3.0
  0
LINE
  5
19E1
330
1F
100
AcDbEntity
  8
実線
  6
CONTINUOUS
100
AcDbLine
 10
240.0133037442833
 20
249.4356637708801
 30
0.0
 11
240.0133037442833
 21
238.9356637708801
 31
0.0
  0
LINE
  5
19E2
330
1F
100
AcDbEntity
  8
実線
  6
CONTINUOUS
100
AcDbLine
 10
236.0133037442833
 20
249.4356637708801
 30
0.0
 11
236.0133037442833
 21
238.9356637708801
 31
0.0
  0
LINE
  5
19E3
330
1F
100
AcDbEntity
  8
実線
  6
CONTINUOUS
100
AcDbLine
 10
236.0133037442833
 20
263.9356637708802
 30
0.0
 11
236.0133037442833
 21
253.4356637708801
 31
0.0
  0
LINE
  5
19E4
330
1F
100
AcDbEntity
  8
実線
  6
CONTINUOUS
100
AcDbLine
 10
240.0133037442833
 20
263.9356637708802
 30
0.0
 11
240.0133037442833
 21
253.4356637708801
 31
0.0
  0
LINE
  5
19E5
330
1F
100
AcDbEntity
  8
実線
  6
CONTINUOUS
100
AcDbLine
 10
236.0133037442833
 20
229.5267614706735
 30
0.0
 11
236.0133037442833
 21
229.4356637708801
 31
0.0
  0
LINE
  5
19E6
330
1F
100
AcDbEntity
  8
実線
  6
CONTINUOUS
100
AcDbLine
 10
240.0133037442833
 20
229.5267614706735
 30
0.0
 11
240.0133037442833
 21
229.4356637708801
 31
0.0
  0
LINE
  5
19E7
330
1F
100
AcDbEntity
  8
実線
100
AcDbLine
 10
210.3933506057949
 20
229.6951384286682
 30
0.0
 11
210.3933506057949
 21
216.6951384286682
 31
0.0
  0
LINE
  5
19E8
330
1F
100
AcDbEntity
  8
実線
100
AcDbLine
 10
165.3933506057949
 20
181.0190008038068
 30
0.0
 11
165.3933506057949
 21
173.5190008038068
 31
0.0
  0
LINE
  5
19E9
330
1F
100
AcDbEntity
  8
実線
100
AcDbLine
 10
205.3933506057949
 20
170.5190008038068
 30
0.0
 11
205.3933506057949
 21
157.0190008038068
 31
0.0
  0
LINE
  5
19EA
330
1F
100
AcDbEntity
  8
外形線
  6
CONTINUOUS
100
AcDbLine
 10
352.3445590654635
 20
278.5170181716352
 30
0.0
 11
320.3445590654635
 21
278.5170181716352
 31
0.0
  0
LINE
  5
19EB
330
1F
100
AcDbEntity
  8
外形線
  6
CONTINUOUS
100
AcDbLine
 10
356.3445590654635
 20
228.5170181716352
 30
0.0
 11
316.3445590654635
 21
228.5170181716352
 31
0.0
  0
LINE
  5
19EC
330
1F
100
AcDbEntity
  8
外形線
  6
CONTINUOUS
100
AcDbLine
 10
324.3445590654635
 20
238.5170181716352
 30
0.0
 11
324.3445590654635
 21
242.5170181716352
 31
0.0
  0
LINE
  5
19ED
330
1F
100
AcDbEntity
  8
外形線
  6
CONTINUOUS
100
AcDbLine
 10
348.3445590654635
 20
238.5170181716352
 30
0.0
 11
348.3445590654635
 21
242.5170181716352
 31
0.0
  0
LINE
  5
19EE
330
1F
100
AcDbEntity
  8
外形線
  6
CONTINUOUS
100
AcDbLine
 10
324.3445590654635
 20
238.5170181716352
 30
0.0
 11
316.3445590654635
 21
238.5170181716352
 31
0.0
  0
LINE
  5
19EF
330
1F
100
AcDbEntity
  8
外形線
  6
CONTINUOUS
100
AcDbLine
 10
356.3445590654635
 20
238.5170181716352
 30
0.0
 11
348.3445590654635
 21
238.5170181716352
 31
0.0
  0
LINE
  5
19F0
330
1F
100
AcDbEntity
  8
外形線
  6
CONTINUOUS
100
AcDbLine
 10
324.3445590654635
 20
242.5170181716352
 30
0.0
 11
316.3445590654635
 21
242.5170181716352
 31
0.0
  0
LINE
  5
19F1
330
1F
100
AcDbEntity
  8
外形線
  6
CONTINUOUS
100
AcDbLine
 10
356.3445590654635
 20
238.5170181716352
 30
0.0
 11
356.3445590654635
 21
228.5170181716352
 31
0.0
  0
LINE
  5
19F2
330
1F
100
AcDbEntity
  8
外形線
  6
CONTINUOUS
100
AcDbLine
 10
356.3445590654635
 20
242.5170181716352
 30
0.0
 11
348.3445590654635
 21
242.5170181716352
 31
0.0
  0
LINE
  5
19F3
330
1F
100
AcDbEntity
  8
外形線
  6
CONTINUOUS
100
AcDbLine
 10
356.3445590654635
 20
238.5170181716352
 30
0.0
 11
356.3445590654635
 21
228.5170181716352
 31
0.0
  0
LINE
  5
19F4
330
1F
100
AcDbEntity
  8
外形線
  6
CONTINUOUS
100
AcDbLine
 10
316.3445590654635
 20
238.5170181716352
 30
0.0
 11
316.3445590654635
 21
228.5170181716352
 31
0.0
  0
LINE
  5
19F5
330
1F
100
AcDbEntity
  8
外形線
  6
CONTINUOUS
100
AcDbLine
 10
356.3445590654635
 20
274.5170181716352
 30
0.0
 11
356.3445590654635
 21
242.5170181716352
 31
0.0
  0
LINE
  5
19F6
330
1F
100
AcDbEntity
  8
外形線
  6
CONTINUOUS
100
AcDbLine
 10
320.3445590654635
 20
278.5170181716352
 30
0.0
 11
316.3445590654635
 21
274.5170181716352
 31
0.0
  0
LINE
  5
19F7
330
1F
100
AcDbEntity
  8
外形線
  6
CONTINUOUS
100
AcDbLine
 10
316.3445590654635
 20
274.5170181716352
 30
0.0
 11
316.3445590654635
 21
242.5170181716352
 31
0.0
  0
LINE
  5
19F8
330
1F
100
AcDbEntity
  8
外形線
  6
CONTINUOUS
100
AcDbLine
 10
352.3445590654635
 20
278.5170181716352
 30
0.0
 11
356.3445590654635
 21
274.5170181716352
 31
0.0
  0
LINE
  5
19F9
330
1F
100
AcDbEntity
  8
外形線
  6
CONTINUOUS
100
AcDbLine
 10
356.3445590654635
 20
274.5170181716352
 30
0.0
 11
356.3445590654635
 21
242.5170181716352
 31
0.0
  0
CIRCLE
  5
19FA
330
1F
100
AcDbEntity
  8
外形線
  6
CONTINUOUS
100
AcDbCircle
 10
332.3445590654635
 20
272.5170181716352
 30
0.0
 40
1.3
  0
CIRCLE
  5
19FB
330
1F
100
AcDbEntity
  8
外形線
  6
CONTINUOUS
100
AcDbCircle
 10
340.3445590654635
 20
272.5170181716352
 30
0.0
 40
1.3
  0
CIRCLE
  5
19FC
330
1F
100
AcDbEntity
  8
外形線
  6
CONTINUOUS
100
AcDbCircle
 10
332.3445590654635
 20
264.5170181716352
 30
0.0
 40
1.3
  0
CIRCLE
  5
19FD
330
1F
100
AcDbEntity
  8
外形線
  6
CONTINUOUS
100
AcDbCircle
 10
340.3445590654635
 20
264.5170181716352
 30
0.0
 40
1.3
  0
LINE
  5
1ACB
330
1F
100
AcDbEntity
  8
実線
  6
CONTINUOUS
100
AcDbLine
 10
99.77233326512169
 20
232.2125071252445
 30
0.0
 11
62.77233326512129
 21
232.2125071252445
 31
0.0
  0
LINE
  5
1ACC
330
1F
100
AcDbEntity
  8
実線
  6
CONTINUOUS
100
AcDbLine
 10
99.77233326512169
 20
207.2125071252445
 30
0.0
 11
62.77233326512129
 21
207.2125071252445
 31
0.0
  0
LINE
  5
1ACD
330
1F
100
AcDbEntity
  8
実線
  6
CONTINUOUS
100
AcDbLine
 10
102.7723332651217
 20
210.2125071252445
 30
0.0
 11
102.7723332651217
 21
217.7625071252446
 31
0.0
  0
LINE
  5
1ACE
330
1F
100
AcDbEntity
  8
実線
  6
CONTINUOUS
100
AcDbLine
 10
62.77233326512129
 20
234.7125071252445
 30
0.0
 11
27.77233326512129
 21
234.7125071252445
 31
0.0
  0
LINE
  5
1ACF
330
1F
100
AcDbEntity
  8
実線
  6
CONTINUOUS
100
AcDbLine
 10
62.77233326512129
 20
204.7125071252445
 30
0.0
 11
27.77233326512129
 21
204.7125071252445
 31
0.0
  0
LINE
  5
1AD0
330
1F
100
AcDbEntity
  8
実線
  6
CONTINUOUS
100
AcDbLine
 10
62.77233326512129
 20
204.7125071252445
 30
0.0
 11
62.77233326512129
 21
207.2125071252445
 31
0.0
  0
LINE
  5
1AD1
330
1F
100
AcDbEntity
  8
実線
  6
CONTINUOUS
100
AcDbLine
 10
62.77233326512129
 20
232.2125071252445
 30
0.0
 11
62.77233326512129
 21
234.7125071252445
 31
0.0
  0
LINE
  5
1AD2
330
1F
100
AcDbEntity
  8
実線
  6
CONTINUOUS
100
AcDbLine
 10
84.77233326512169
 20
221.6625071252445
 30
0.0
 11
84.77233326512169
 21
217.7625071252446
 31
0.0
  0
LINE
  5
1AD3
330
1F
100
AcDbEntity
  8
実線
  6
CONTINUOUS
100
AcDbLine
 10
102.7723332651217
 20
221.6625071252445
 30
0.0
 11
102.7723332651217
 21
229.2125071252445
 31
0.0
  0
LINE
  5
1AD4
330
1F
100
AcDbEntity
  8
実線
  6
CONTINUOUS
100
AcDbLine
 10
99.77233326512169
 20
232.2125071252445
 30
0.0
 11
102.7723332651217
 21
229.2125071252445
 31
0.0
  0
LINE
  5
1AD5
330
1F
100
AcDbEntity
  8
実線
  6
CONTINUOUS
100
AcDbLine
 10
102.7723332651217
 20
210.2125071252445
 30
0.0
 11
99.77233326512169
 21
207.2125071252445
 31
0.0
  0
CIRCLE
  5
1AD6
330
1F
100
AcDbEntity
  8
実線
  6
CONTINUOUS
100
AcDbCircle
 10
27.77233326512129
 20
219.7125071252445
 30
0.0
 40
4.2
  0
CIRCLE
  5
1AD7
330
1F
100
AcDbEntity
  8
実線
  6
CONTINUOUS
100
AcDbCircle
 10
35.77233326512129
 20
227.7125071252445
 30
0.0
 40
1.5
  0
CIRCLE
  5
1AD8
330
1F
100
AcDbEntity
  8
実線
  6
CONTINUOUS
100
AcDbCircle
 10
35.77233326512129
 20
211.7125071252445
 30
0.0
 40
1.5
  0
CIRCLE
  5
1AD9
330
1F
100
AcDbEntity
  8
実線
  6
CONTINUOUS
100
AcDbCircle
 10
19.77233326512129
 20
227.7125071252445
 30
0.0
 40
1.5
  0
CIRCLE
  5
1ADA
330
1F
100
AcDbEntity
  8
実線
  6
CONTINUOUS
100
AcDbCircle
 10
19.77233326512129
 20
211.7125071252445
 30
0.0
 40
1.5
  0
LINE
  5
1ADB
330
1F
100
AcDbEntity
  8
外形線
  6
CONTINUOUS
100
AcDbLine
 10
12.77233326512129
 20
219.7125071252445
 30
0.0
 11
12.77233326512129
 21
219.7125071252445
 31
0.0
  0
ARC
  5
1ADC
330
1F
100
AcDbEntity
  8
外形線
  6
CONTINUOUS
100
AcDbCircle
 10
27.77233326512129
 20
219.7125071252445
 30
0.0
 40
15.0
100
AcDbArc
 50
90.0
 51
180.0
  0
ARC
  5
1ADD
330
1F
100
AcDbEntity
  8
外形線
  6
CONTINUOUS
100
AcDbCircle
 10
27.77233326512129
 20
219.7125071252445
 30
0.0
 40
15.0
100
AcDbArc
 50
180.0
 51
270.0
  0
LINE
  5
1ADE
330
1F
100
AcDbEntity
  8
外形線
  6
CONTINUOUS
100
AcDbLine
 10
102.7723332651217
 20
217.7625071252446
 30
0.0
 11
84.77233326512169
 21
217.7625071252446
 31
0.0
  0
LINE
  5
1ADF
330
1F
100
AcDbEntity
  8
外形線
  6
CONTINUOUS
100
AcDbLine
 10
102.7723332651217
 20
221.6625071252445
 30
0.0
 11
84.77233326512169
 21
221.6625071252445
 31
0.0
  0
LINE
  5
1B15
330
1F
100
AcDbEntity
  8
実線
  6
CONTINUOUS
100
AcDbLine
 10
148.4033356976047
 20
181.9916884908835
 30
0.0
 11
148.4033356976047
 21
178.0916884908835
 31
0.0
  0
LINE
  5
1B16
330
1F
100
AcDbEntity
  8
実線
  6
CONTINUOUS
100
AcDbLine
 10
123.4033356976047
 20
181.9916884908835
 30
0.0
 11
123.4033356976047
 21
178.0916884908835
 31
0.0
  0
LINE
  5
1B17
330
1F
100
AcDbEntity
  8
実線
  6
CONTINUOUS
100
AcDbLine
 10
137.8533356976047
 20
192.5416884908836
 30
0.0
 11
133.9533356976048
 21
192.5416884908836
 31
0.0
  0
LINE
  5
1B18
330
1F
100
AcDbEntity
  8
実線
  6
CONTINUOUS
100
AcDbLine
 10
137.8533356976047
 20
167.5416884908836
 30
0.0
 11
133.9533356976048
 21
167.5416884908836
 31
0.0
  0
CIRCLE
  5
1B19
330
1F
100
AcDbEntity
  8
実線
  6
CONTINUOUS
100
AcDbCircle
 10
135.9033356976047
 20
180.0416884908836
 30
0.0
 40
18.0
  0
LINE
  5
1B1A
330
1F
100
AcDbEntity
  8
外形線
  6
CONTINUOUS
100
AcDbLine
 10
133.9533356976048
 20
167.5416884908836
 30
0.0
 11
133.9533356976048
 21
178.0916884908835
 31
0.0
  0
LINE
  5
1B1B
330
1F
100
AcDbEntity
  8
外形線
  6
CONTINUOUS
100
AcDbLine
 10
137.8533356976047
 20
167.5416884908836
 30
0.0
 11
137.8533356976047
 21
178.0916884908835
 31
0.0
  0
LINE
  5
1B1C
330
1F
100
AcDbEntity
  8
外形線
  6
CONTINUOUS
100
AcDbLine
 10
148.4033356976047
 20
181.9916884908835
 30
0.0
 11
137.8533356976047
 21
181.9916884908835
 31
0.0
  0
LINE
  5
1B1D
330
1F
100
AcDbEntity
  8
外形線
  6
CONTINUOUS
100
AcDbLine
 10
148.4033356976047
 20
178.0916884908835
 30
0.0
 11
137.8533356976047
 21
178.0916884908835
 31
0.0
  0
LINE
  5
1B1E
330
1F
100
AcDbEntity
  8
外形線
  6
CONTINUOUS
100
AcDbLine
 10
133.9533356976048
 20
181.9916884908835
 30
0.0
 11
123.4033356976047
 21
181.9916884908835
 31
0.0
  0
LINE
  5
1B1F
330
1F
100
AcDbEntity
  8
外形線
  6
CONTINUOUS
100
AcDbLine
 10
133.9533356976048
 20
178.0916884908835
 30
0.0
 11
123.4033356976047
 21
178.0916884908835
 31
0.0
  0
LINE
  5
1B20
330
1F
100
AcDbEntity
  8
外形線
  6
CONTINUOUS
100
AcDbLine
 10
137.8533356976047
 20
181.9916884908835
 30
0.0
 11
137.8533356976047
 21
192.5416884908836
 31
0.0
  0
LINE
  5
1B21
330
1F
100
AcDbEntity
  8
外形線
  6
CONTINUOUS
100
AcDbLine
 10
133.9533356976048
 20
181.9916884908835
 30
0.0
 11
133.9533356976048
 21
192.5416884908836
 31
0.0
  0
LINE
  5
1B58
330
1F
100
AcDbEntity
  8
実線
  6
CONTINUOUS
100
AcDbLine
 10
111.1007414225617
 20
246.462442691228
 30
0.0
 11
111.1007414225617
 21
233.412442691228
 31
0.0
  0
LINE
  5
1B59
330
1F
100
AcDbEntity
  8
実線
  6
CONTINUOUS
100
AcDbLine
 10
116.1007414225617
 20
216.462442691228
 30
0.0
 11
116.1007414225617
 21
218.962442691228
 31
0.0
  0
LINE
  5
1B5A
330
1F
100
AcDbEntity
  8
実線
  6
CONTINUOUS
100
AcDbLine
 10
156.1007414225617
 20
221.962442691228
 30
0.0
 11
156.1007414225617
 21
240.962442691228
 31
0.0
  0
LINE
  5
1B5B
330
1F
100
AcDbEntity
  8
実線
  6
CONTINUOUS
100
AcDbLine
 10
111.1007414225617
 20
246.462442691228
 30
0.0
 11
116.1007414225617
 21
246.462442691228
 31
0.0
  0
LINE
  5
1B5C
330
1F
100
AcDbEntity
  8
実線
  6
CONTINUOUS
100
AcDbLine
 10
111.1007414225617
 20
216.462442691228
 30
0.0
 11
116.1007414225617
 21
216.462442691228
 31
0.0
  0
LINE
  5
1B5D
330
1F
100
AcDbEntity
  8
実線
  6
CONTINUOUS
100
AcDbLine
 10
153.1007414225617
 20
243.962442691228
 30
0.0
 11
116.1007414225617
 21
243.962442691228
 31
0.0
  0
LINE
  5
1B5E
330
1F
100
AcDbEntity
  8
実線
  6
CONTINUOUS
100
AcDbLine
 10
153.1007414225617
 20
218.962442691228
 30
0.0
 11
116.1007414225617
 21
218.962442691228
 31
0.0
  0
LINE
  5
1B5F
330
1F
100
AcDbEntity
  8
実線
  6
CONTINUOUS
100
AcDbLine
 10
116.1007414225617
 20
243.962442691228
 30
0.0
 11
116.1007414225617
 21
246.462442691228
 31
0.0
  0
LINE
  5
1B60
330
1F
100
AcDbEntity
  8
実線
  6
CONTINUOUS
100
AcDbLine
 10
156.1007414225617
 20
240.962442691228
 30
0.0
 11
153.1007414225617
 21
243.962442691228
 31
0.0
  0
LINE
  5
1B61
330
1F
100
AcDbEntity
  8
実線
  6
CONTINUOUS
100
AcDbLine
 10
156.1007414225617
 20
221.962442691228
 30
0.0
 11
153.1007414225617
 21
218.962442691228
 31
0.0
  0
LINE
  5
1B62
330
1F
100
AcDbEntity
  8
実線
  6
CONTINUOUS
100
AcDbLine
 10
138.1007414225617
 20
233.412442691228
 30
0.0
 11
138.1007414225617
 21
229.5124426912281
 31
0.0
  0
LINE
  5
1B63
330
1F
100
AcDbEntity
  8
実線
  6
CONTINUOUS
100
AcDbLine
 10
111.1007414225617
 20
229.5124426912281
 30
0.0
 11
111.1007414225617
 21
216.462442691228
 31
0.0
  0
LINE
  5
1B64
330
1F
100
AcDbEntity
  8
外形線
  6
CONTINUOUS
100
AcDbLine
 10
111.1007414225617
 20
229.5124426912281
 30
0.0
 11
138.1007414225617
 21
229.5124426912281
 31
0.0
  0
LINE
  5
1B65
330
1F
100
AcDbEntity
  8
外形線
  6
CONTINUOUS
100
AcDbLine
 10
111.1007414225617
 20
233.412442691228
 30
0.0
 11
138.1007414225617
 21
233.412442691228
 31
0.0
  0
LINE
  5
1BAF
330
1F
100
AcDbEntity
  8
実線
  6
CONTINUOUS
100
AcDbLine
 10
131.2627445192927
 20
125.9571743027334
 30
0.0
 11
144.2627445192927
 21
125.9571743027334
 31
0.0
  0
LINE
  5
1BB0
330
1F
100
AcDbEntity
  8
実線
  6
CONTINUOUS
100
AcDbLine
 10
132.211870232162
 20
47.87500876261981
 30
0.0
 11
145.211870232162
 21
47.87500876261981
 31
0.0
  0
LINE
  5
1BB1
330
1F
100
AcDbEntity
  8
実線
  6
CONTINUOUS
100
AcDbLine
 10
128.5628839977057
 20
15.74157894270263
 30
0.0
 11
142.5628839977057
 21
15.74157894270263
 31
0.0
  0
LINE
  5
1BB2
330
1F
100
AcDbEntity
  8
実線
  6
CONTINUOUS
100
AcDbLine
 10
27.26274451929271
 20
125.9571743027334
 30
0.0
 11
14.26274451929271
 21
125.9571743027334
 31
0.0
  0
LINE
  5
1BB3
330
1F
100
AcDbEntity
  8
実線
  6
CONTINUOUS
100
AcDbLine
 10
28.21187023216203
 20
47.87500876261981
 30
0.0
 11
15.21187023216203
 21
47.87500876261981
 31
0.0
  0
LINE
  5
1BB4
330
1F
100
AcDbEntity
  8
実線
  6
CONTINUOUS
100
AcDbLine
 10
26.56288399770574
 20
15.74157894270263
 30
0.0
 11
12.56288399770574
 21
15.74157894270263
 31
0.0
  0
ENDSEC
  0
SECTION
  2
OBJECTS
  0
DICTIONARY
  5
C
330
0
100
AcDbDictionary
  3
ACAD_DETAILVIEWSTYLE
350
B5
  3
ACAD_GROUP
350
D
  3
ACAD_IMAGE_VARS
350
6A
  3
ACAD_MLINESTYLE
350
17
  3
ACAD_SCALELIST
350
1B68
  3
ACAD_SECTIONVIEWSTYLE
350
B6
  3
ACDBVARIABLEDICTIONARY
350
3D
  3
APPDATA
350
71
  3
DWGPROPS
350
1BB9
1001
ACAD
1000
TREAT_AS_HARD
1070
     0
  0
DICTIONARY
  5
B7
330
2
100
AcDbDictionary
  3
ACAD_LAYERSTATES
360
B8
  3
ACLYDICTIONARY
360
C1
1001
ACAD
1000
TREAT_AS_HARD
1070
     1
  0
DICTIONARY
  5
B5
102
{ACAD_REACTORS
330
C
102
}
330
C
100
AcDbDictionary
1001
ACAD
1000
TREAT_AS_HARD
1070
     0
  0
DICTIONARY
  5
D
102
{ACAD_REACTORS
330
C
102
}
330
C
100
AcDbDictionary
1001
ACAD
1000
TREAT_AS_HARD
1070
     0
  0
RASTERVARIABLES
  5
6A
102
{ACAD_REACTORS
330
C
102
}
330
C
100
AcDbRasterVariables
 90
        0
 70
     1
 71
     1
 72
     1
  0
DICTIONARY
  5
17
102
{ACAD_REACTORS
330
C
102
}
330
C
100
AcDbDictionary
  3
STANDARD
350
18
1001
ACAD
1000
TREAT_AS_HARD
1070
     0
  0
DICTIONARY
  5
1B68
102
{ACAD_REACTORS
330
C
102
}
330
C
100
AcDbDictionary
1001
ACAD
1000
TREAT_AS_HARD
1070
     0
  0
DICTIONARY
  5
B6
102
{ACAD_REACTORS
330
C
102
}
330
C
100
AcDbDictionary
1001
ACAD
1000
TREAT_AS_HARD
1070
     0
  0
DICTIONARY
  5
3D
102
{ACAD_REACTORS
330
C
102
}
330
C
100
AcDbDictionary
1001
ACAD
1000
TREAT_AS_HARD
1070
     0
  0
DICTIONARY
  5
71
102
{ACAD_REACTORS
330
C
102
}
330
C
100
AcDbDictionary
1001
ACAD
1000
TREAT_AS_HARD
1070
     0
  0
XRECORD
  5
1BB9
102
{ACAD_REACTORS
330
C
102
}
330
C
100
AcDbXrecord
  1
DWGPROPS COOKIE
  2

  3

  4

  6

  7

  8
Mizuki
  9

300
=
301
=
302
=
303
=
304
=
305
=
306
=
307
=
308
=
309
=
 40
0.0
 41
2455022.637359514
 42
2457189.629321401
  1

 90
        0
  0
DICTIONARY
  5
B8
102
{ACAD_REACTORS
330
B7
102
}
330
B7
100
AcDbDictionary
1001
ACAD
1000
TREAT_AS_HARD
1070
     0
  0
DICTIONARY
  5
C1
102
{ACAD_REACTORS
330
B7
102
}
330
B7
100
AcDbDictionary
1001
ACAD
1000
<All
1000
TREAT_AS_HARD
1070
     0
  0
MLINESTYLE
  5
18
102
{ACAD_REACTORS
330
17
102
}
330
17
100
AcDbMlineStyle
  2
Standard
 70
     0
  3

 62
   256
 51
90.0
 52
90.0
 71
     2
 49
0.5
 62
   256
  6
BYLAYER
 49
-0.5
 62
   256
  6
BYLAYER
  0
ENDSEC
  0
EOF
